<svg version="1.1" preserveAspectRatio="none" xmlns="http://www.w3.org/2000/svg" width="500" height="500" viewBox="0 0 500 500"><rect width="100%" height="100%" fill="#F7F4F2" fill-opacity="1"/><svg viewBox="76.1506 117.325 485.4028 391.4613" width="333" height="268.55348362226175" x="83.5px" y="115.7233px" xmlns="http://www.w3.org/2000/svg" xmlns:xlink="http://www.w3.org/1999/xlink" preserveAspectRatio="none"><defs></defs><style>.companyName {fill:#161616;fill-opacity:1;}.icon1 {fill:#161616;fill-opacity:1;}.icon2 {fill:#E5B7D2;fill-opacity:1;}.icon3 {fill:#848282;fill-opacity:1;}.icon3-str {stroke:#848282;stroke-opacity:1;}.text {fill:#161616;fill-opacity:1;}</style><g opacity="1" transform="rotate(0 76.1506 484.7863)">
<svg width="485.4028" height="24" x="76.1506" y="484.7863" version="1.1" preserveAspectRatio="none" viewBox="3.56 -29.2 762.8000000000001 37.72">
  <g transform="matrix(1 0 0 1 0 0)" class="text"><path id="id-6izo4zJp38" d="M6.36 0L3.56 0L3.56-28.40L15.56-28.40Q17.40-28.40 18.94-27.62Q20.48-26.84 21.60-25.58Q22.72-24.32 23.34-22.72Q23.96-21.12 23.96-19.48L23.96-19.48Q23.96-17.92 23.50-16.50Q23.04-15.08 22.22-13.94Q21.40-12.80 20.24-12.02Q19.08-11.24 17.64-10.96L17.64-10.96L24.60 0L21.44 0L14.76-10.48L6.36-10.48L6.36 0ZM6.36-25.92L6.36-12.96L15.64-12.96Q16.88-12.96 17.90-13.50Q18.92-14.04 19.64-14.96Q20.36-15.88 20.76-17.04Q21.16-18.20 21.16-19.48L21.16-19.48Q21.16-20.76 20.70-21.94Q20.24-23.12 19.46-24Q18.68-24.88 17.62-25.40Q16.56-25.92 15.40-25.92L15.40-25.92L6.36-25.92Z M39.12 0.40L39.12 0.40Q36.84 0.40 34.94-0.46Q33.04-1.32 31.64-2.82Q30.24-4.32 29.46-6.28Q28.68-8.24 28.68-10.48L28.68-10.48Q28.68-12.68 29.46-14.62Q30.24-16.56 31.62-18.02Q33-19.48 34.92-20.34Q36.84-21.20 39.08-21.20L39.08-21.20Q41.36-21.20 43.26-20.34Q45.16-19.48 46.52-18Q47.88-16.52 48.64-14.60Q49.40-12.68 49.40-10.52L49.40-10.52Q49.40-10.20 49.40-9.88Q49.40-9.56 49.36-9.44L49.36-9.44L31.52-9.44Q31.64-7.76 32.30-6.34Q32.96-4.92 34-3.88Q35.04-2.84 36.38-2.26Q37.72-1.68 39.24-1.68L39.24-1.68Q40.24-1.68 41.24-1.96Q42.24-2.24 43.08-2.72Q43.92-3.20 44.60-3.90Q45.28-4.60 45.64-5.44L45.64-5.44L48-4.80Q47.52-3.64 46.64-2.70Q45.76-1.76 44.60-1.06Q43.44-0.36 42.04 0.02Q40.64 0.40 39.12 0.40ZM31.48-11.52L46.80-11.52Q46.68-13.20 46.02-14.58Q45.36-15.96 44.34-16.96Q43.32-17.96 41.98-18.52Q40.64-19.08 39.12-19.08L39.12-19.08Q37.60-19.08 36.24-18.52Q34.88-17.96 33.86-16.96Q32.84-15.96 32.22-14.56Q31.60-13.16 31.48-11.52L31.48-11.52Z M62.12 0.40L62.12 0.40Q59.68 0.40 57.36-0.40Q55.04-1.20 53.36-2.72L53.36-2.72L54.60-4.56Q56.36-3.12 58.18-2.40Q60-1.68 62.08-1.68L62.08-1.68Q64.60-1.68 66.10-2.70Q67.60-3.72 67.60-5.60L67.60-5.60Q67.60-6.48 67.20-7.06Q66.80-7.64 66.02-8.08Q65.24-8.52 64.06-8.86Q62.88-9.20 61.32-9.56L61.32-9.56Q59.52-10 58.20-10.44Q56.88-10.88 56.02-11.44Q55.16-12 54.74-12.82Q54.32-13.64 54.32-14.88L54.32-14.88Q54.32-16.44 54.94-17.64Q55.56-18.84 56.62-19.62Q57.68-20.40 59.10-20.80Q60.52-21.20 62.12-21.20L62.12-21.20Q64.52-21.20 66.48-20.42Q68.44-19.64 69.64-18.36L69.64-18.36L68.32-16.76Q67.16-17.96 65.50-18.56Q63.84-19.16 62.04-19.16L62.04-19.16Q60.96-19.16 60.04-18.94Q59.12-18.72 58.42-18.24Q57.72-17.76 57.32-17.02Q56.92-16.28 56.92-15.28L56.92-15.28Q56.92-14.44 57.20-13.92Q57.48-13.40 58.12-13.02Q58.76-12.64 59.74-12.34Q60.72-12.04 62.12-11.72L62.12-11.72Q64.12-11.24 65.64-10.76Q67.16-10.28 68.18-9.64Q69.20-9 69.72-8.08Q70.24-7.16 70.24-5.84L70.24-5.84Q70.24-2.96 68.04-1.28Q65.84 0.40 62.12 0.40Z M79 0L76.28 0L76.28-20.84L79-20.84L79 0ZM79-25.20L76.28-25.20L76.28-29.20L79-29.20L79-25.20Z M86.72-3.80L86.72-29.20L89.44-29.20L89.44-4.72Q89.44-3.56 90.08-2.90Q90.72-2.24 91.88-2.24L91.88-2.24Q92.32-2.24 92.92-2.36Q93.52-2.48 94.04-2.68L94.04-2.68L94.52-0.48Q93.76-0.16 92.66 0.04Q91.56 0.24 90.76 0.24L90.76 0.24Q88.88 0.24 87.80-0.82Q86.72-1.88 86.72-3.80L86.72-3.80Z M101.80 0L99.08 0L99.08-20.84L101.80-20.84L101.80 0ZM101.80-25.20L99.08-25.20L99.08-29.20L101.80-29.20L101.80-25.20Z M118.40 0.40L118.40 0.40Q116.12 0.40 114.22-0.46Q112.32-1.32 110.92-2.82Q109.52-4.32 108.74-6.28Q107.96-8.24 107.96-10.48L107.96-10.48Q107.96-12.68 108.74-14.62Q109.52-16.56 110.90-18.02Q112.28-19.48 114.20-20.34Q116.12-21.20 118.36-21.20L118.36-21.20Q120.64-21.20 122.54-20.34Q124.44-19.48 125.80-18Q127.16-16.52 127.92-14.60Q128.68-12.68 128.68-10.52L128.68-10.52Q128.68-10.20 128.68-9.88Q128.68-9.56 128.64-9.44L128.64-9.44L110.80-9.44Q110.92-7.76 111.58-6.34Q112.24-4.92 113.28-3.88Q114.32-2.84 115.66-2.26Q117.00-1.68 118.52-1.68L118.52-1.68Q119.52-1.68 120.52-1.96Q121.52-2.24 122.36-2.72Q123.20-3.20 123.88-3.90Q124.56-4.60 124.92-5.44L124.92-5.44L127.28-4.80Q126.80-3.64 125.92-2.70Q125.04-1.76 123.88-1.06Q122.72-0.36 121.32 0.02Q119.92 0.40 118.40 0.40ZM110.76-11.52L126.08-11.52Q125.96-13.20 125.30-14.58Q124.64-15.96 123.62-16.96Q122.60-17.96 121.26-18.52Q119.92-19.08 118.40-19.08L118.40-19.08Q116.88-19.08 115.52-18.52Q114.16-17.96 113.14-16.96Q112.12-15.96 111.50-14.56Q110.88-13.16 110.76-11.52L110.76-11.52Z M152.00-12.20L152.00 0L149.28 0L149.28-11.64Q149.28-15.36 148.18-17.04Q147.08-18.72 144.80-18.72L144.80-18.72Q143.60-18.72 142.40-18.28Q141.20-17.84 140.18-17.04Q139.16-16.24 138.36-15.14Q137.56-14.04 137.20-12.76L137.20-12.76L137.20 0L134.48 0L134.48-20.84L136.96-20.84L136.96-16.12Q138.24-18.40 140.62-19.80Q143.00-21.20 145.80-21.20L145.80-21.20Q147.52-21.20 148.72-20.56Q149.92-19.92 150.64-18.76Q151.36-17.60 151.68-15.92Q152.00-14.24 152.00-12.20L152.00-12.20Z M157.96-10.48L157.96-10.48Q157.96-12.68 158.72-14.64Q159.48-16.60 160.86-18.06Q162.24-19.52 164.16-20.36Q166.08-21.20 168.40-21.20L168.40-21.20Q171.36-21.20 173.56-19.86Q175.76-18.52 176.88-16.24L176.88-16.24L174.24-15.40Q173.36-17 171.78-17.90Q170.20-18.80 168.28-18.80L168.28-18.80Q166.68-18.80 165.30-18.16Q163.92-17.52 162.90-16.42Q161.88-15.32 161.30-13.80Q160.72-12.28 160.72-10.48L160.72-10.48Q160.72-8.72 161.32-7.16Q161.92-5.60 162.96-4.46Q164.00-3.32 165.38-2.66Q166.76-2 168.32-2L168.32-2Q169.32-2 170.30-2.28Q171.28-2.56 172.12-3.06Q172.96-3.56 173.56-4.20Q174.16-4.84 174.40-5.56L174.40-5.56L177.08-4.76Q176.64-3.64 175.80-2.70Q174.96-1.76 173.82-1.06Q172.68-0.36 171.30 0.02Q169.92 0.40 168.44 0.40L168.44 0.40Q166.16 0.40 164.24-0.46Q162.32-1.32 160.92-2.82Q159.52-4.32 158.74-6.28Q157.96-8.24 157.96-10.48Z M191.76 0.40L191.76 0.40Q189.48 0.40 187.58-0.46Q185.68-1.32 184.28-2.82Q182.88-4.32 182.10-6.28Q181.32-8.24 181.32-10.48L181.32-10.48Q181.32-12.68 182.10-14.62Q182.88-16.56 184.26-18.02Q185.64-19.48 187.56-20.34Q189.48-21.20 191.72-21.20L191.72-21.20Q194.00-21.20 195.90-20.34Q197.80-19.48 199.16-18Q200.52-16.52 201.28-14.60Q202.04-12.68 202.04-10.52L202.04-10.52Q202.04-10.20 202.04-9.88Q202.04-9.56 202.00-9.44L202.00-9.44L184.16-9.44Q184.28-7.76 184.94-6.34Q185.60-4.92 186.64-3.88Q187.68-2.84 189.02-2.26Q190.36-1.68 191.88-1.68L191.88-1.68Q192.88-1.68 193.88-1.96Q194.88-2.24 195.72-2.72Q196.56-3.20 197.24-3.90Q197.92-4.60 198.28-5.44L198.28-5.44L200.64-4.80Q200.16-3.64 199.28-2.70Q198.40-1.76 197.24-1.06Q196.08-0.36 194.68 0.02Q193.28 0.40 191.76 0.40ZM184.12-11.52L199.44-11.52Q199.32-13.20 198.66-14.58Q198.00-15.96 196.98-16.96Q195.96-17.96 194.62-18.52Q193.28-19.08 191.76-19.08L191.76-19.08Q190.24-19.08 188.88-18.52Q187.52-17.96 186.50-16.96Q185.48-15.96 184.86-14.56Q184.24-13.16 184.12-11.52L184.12-11.52Z M250.64-12.20L250.64 0L247.92 0L247.92-11.64Q247.92-15.28 246.76-17Q245.60-18.72 243.32-18.72L243.32-18.72Q242.12-18.72 241.06-18.28Q240.00-17.84 239.10-17.04Q238.20-16.24 237.52-15.14Q236.84-14.04 236.48-12.72L236.48-12.72L236.48 0L233.76 0L233.76-11.64Q233.76-15.36 232.64-17.04Q231.52-18.72 229.20-18.72L229.20-18.72Q226.84-18.72 225.00-17.08Q223.16-15.44 222.36-12.76L222.36-12.76L222.36 0L219.64 0L219.64-20.84L222.12-20.84L222.12-16.12Q223.40-18.52 225.48-19.86Q227.56-21.20 230.08-21.20L230.08-21.20Q232.72-21.20 234.30-19.72Q235.88-18.24 236.24-15.84L236.24-15.84Q239.16-21.20 244.28-21.20L244.28-21.20Q246.04-21.20 247.26-20.56Q248.48-19.92 249.22-18.74Q249.96-17.56 250.30-15.90Q250.64-14.24 250.64-12.20L250.64-12.20Z M263.24 0.40L263.24 0.40Q261.76 0.40 260.50-0.10Q259.24-0.60 258.30-1.48Q257.36-2.36 256.84-3.54Q256.32-4.72 256.32-6.08L256.32-6.08Q256.32-7.44 256.96-8.60Q257.60-9.76 258.76-10.60Q259.92-11.44 261.52-11.90Q263.12-12.36 265.04-12.36L265.04-12.36Q266.64-12.36 268.28-12.08Q269.92-11.80 271.20-11.28L271.20-11.28L271.20-13.16Q271.20-15.92 269.64-17.54Q268.08-19.16 265.32-19.16L265.32-19.16Q263.72-19.16 262.04-18.52Q260.36-17.88 258.64-16.68L258.64-16.68L257.68-18.48Q261.72-21.20 265.52-21.20L265.52-21.20Q269.44-21.20 271.68-19Q273.92-16.80 273.92-12.92L273.92-12.92L273.92-3.52Q273.92-2.40 274.92-2.40L274.92-2.40L274.92 0Q274.24 0.12 273.88 0.12L273.88 0.12Q272.84 0.12 272.26-0.40Q271.68-0.92 271.64-1.84L271.64-1.84L271.56-3.48Q270.12-1.60 267.94-0.60Q265.76 0.40 263.24 0.40ZM263.88-1.68L263.88-1.68Q266.00-1.68 267.78-2.48Q269.56-3.28 270.48-4.60L270.48-4.60Q270.84-4.96 271.02-5.38Q271.20-5.80 271.20-6.16L271.20-6.16L271.20-9.56Q269.84-10.08 268.38-10.36Q266.92-10.64 265.40-10.64L265.40-10.64Q262.52-10.64 260.72-9.44Q258.92-8.24 258.92-6.28L258.92-6.28Q258.92-5.32 259.30-4.48Q259.68-3.64 260.34-3.02Q261.00-2.40 261.92-2.04Q262.84-1.68 263.88-1.68Z M299.24 0L296.28 0L288.60-10.68L284.12-6.52L284.12 0L281.40 0L281.40-29.20L284.12-29.20L284.12-9.36L295.84-20.80L298.92-20.80L290.40-12.28L299.24 0Z M312.12 0.40L312.12 0.40Q309.84 0.40 307.94-0.46Q306.04-1.32 304.64-2.82Q303.24-4.32 302.46-6.28Q301.68-8.24 301.68-10.48L301.68-10.48Q301.68-12.68 302.46-14.62Q303.24-16.56 304.62-18.02Q306.00-19.48 307.92-20.34Q309.84-21.20 312.08-21.20L312.08-21.20Q314.36-21.20 316.26-20.34Q318.16-19.48 319.52-18Q320.88-16.52 321.64-14.60Q322.40-12.68 322.40-10.52L322.40-10.52Q322.40-10.20 322.40-9.88Q322.40-9.56 322.36-9.44L322.36-9.44L304.52-9.44Q304.64-7.76 305.30-6.34Q305.96-4.92 307.00-3.88Q308.04-2.84 309.38-2.26Q310.72-1.68 312.24-1.68L312.24-1.68Q313.24-1.68 314.24-1.96Q315.24-2.24 316.08-2.72Q316.92-3.20 317.60-3.90Q318.28-4.60 318.64-5.44L318.64-5.44L321.00-4.80Q320.52-3.64 319.64-2.70Q318.76-1.76 317.60-1.06Q316.44-0.36 315.04 0.02Q313.64 0.40 312.12 0.40ZM304.48-11.52L319.80-11.52Q319.68-13.20 319.02-14.58Q318.36-15.96 317.34-16.96Q316.32-17.96 314.98-18.52Q313.64-19.08 312.12-19.08L312.12-19.08Q310.60-19.08 309.24-18.52Q307.88-17.96 306.86-16.96Q305.84-15.96 305.22-14.56Q304.60-13.16 304.48-11.52L304.48-11.52Z M335.12 0.40L335.12 0.40Q332.68 0.40 330.36-0.40Q328.04-1.20 326.36-2.72L326.36-2.72L327.60-4.56Q329.36-3.12 331.18-2.40Q333-1.68 335.08-1.68L335.08-1.68Q337.60-1.68 339.10-2.70Q340.60-3.72 340.60-5.60L340.60-5.60Q340.60-6.48 340.20-7.06Q339.80-7.64 339.02-8.08Q338.24-8.52 337.06-8.86Q335.88-9.20 334.32-9.56L334.32-9.56Q332.52-10 331.20-10.44Q329.88-10.88 329.02-11.44Q328.16-12 327.74-12.82Q327.32-13.64 327.32-14.88L327.32-14.88Q327.32-16.44 327.94-17.64Q328.56-18.84 329.62-19.62Q330.68-20.40 332.10-20.80Q333.52-21.20 335.12-21.20L335.12-21.20Q337.52-21.20 339.48-20.42Q341.44-19.64 342.64-18.36L342.64-18.36L341.32-16.76Q340.16-17.96 338.50-18.56Q336.84-19.16 335.04-19.16L335.04-19.16Q333.96-19.16 333.04-18.94Q332.12-18.72 331.42-18.24Q330.72-17.76 330.32-17.02Q329.92-16.28 329.92-15.28L329.92-15.28Q329.92-14.44 330.20-13.92Q330.48-13.40 331.12-13.02Q331.76-12.64 332.74-12.34Q333.72-12.04 335.12-11.72L335.12-11.72Q337.12-11.24 338.64-10.76Q340.16-10.28 341.18-9.64Q342.20-9 342.72-8.08Q343.24-7.16 343.24-5.84L343.24-5.84Q343.24-2.96 341.04-1.28Q338.84 0.40 335.12 0.40Z M363.80 0L361.08 0L361.08-20.84L363.80-20.84L363.80 0ZM363.80-25.20L361.08-25.20L361.08-29.20L363.80-29.20L363.80-25.20Z M402.40-12.20L402.40 0L399.68 0L399.68-11.64Q399.68-15.28 398.52-17Q397.36-18.72 395.08-18.72L395.08-18.72Q393.88-18.72 392.82-18.28Q391.76-17.84 390.86-17.04Q389.96-16.24 389.28-15.14Q388.60-14.04 388.24-12.72L388.24-12.72L388.24 0L385.52 0L385.52-11.64Q385.52-15.36 384.40-17.04Q383.28-18.72 380.96-18.72L380.96-18.72Q378.60-18.72 376.76-17.08Q374.92-15.44 374.12-12.76L374.12-12.76L374.12 0L371.40 0L371.40-20.84L373.88-20.84L373.88-16.12Q375.16-18.52 377.24-19.86Q379.32-21.20 381.84-21.20L381.84-21.20Q384.48-21.20 386.06-19.72Q387.64-18.24 388.00-15.84L388.00-15.84Q390.92-21.20 396.04-21.20L396.04-21.20Q397.80-21.20 399.02-20.56Q400.24-19.92 400.98-18.74Q401.72-17.56 402.06-15.90Q402.40-14.24 402.40-12.20L402.40-12.20Z M420.40 0.40L420.40 0.40Q417.76 0.40 415.74-0.94Q413.72-2.28 412.48-4.32L412.48-4.32L412.48 8.52L409.76 8.52L409.76-20.84L412.20-20.84L412.20-16.80Q413.48-18.76 415.52-19.98Q417.56-21.20 419.96-21.20L419.96-21.20Q422.12-21.20 423.92-20.30Q425.72-19.40 427.04-17.90Q428.36-16.40 429.10-14.44Q429.84-12.48 429.84-10.40L429.84-10.40Q429.84-8.20 429.16-6.24Q428.48-4.28 427.22-2.80Q425.96-1.32 424.22-0.46Q422.48 0.40 420.40 0.40ZM419.64-2L419.64-2Q421.32-2 422.70-2.72Q424.08-3.44 425.06-4.62Q426.04-5.80 426.56-7.30Q427.08-8.80 427.08-10.40L427.08-10.40Q427.08-12.08 426.48-13.60Q425.88-15.12 424.84-16.28Q423.80-17.44 422.38-18.12Q420.96-18.80 419.32-18.80L419.32-18.80Q418.28-18.80 417.14-18.38Q416.00-17.96 415.02-17.26Q414.04-16.56 413.34-15.62Q412.64-14.68 412.48-13.64L412.48-13.64L412.48-7.24Q412.96-6.12 413.70-5.16Q414.44-4.20 415.38-3.50Q416.32-2.80 417.40-2.40Q418.48-2 419.64-2Z M444.92 0.40L444.92 0.40Q442.64 0.40 440.76-0.46Q438.88-1.32 437.50-2.80Q436.12-4.28 435.36-6.24Q434.60-8.20 434.60-10.36L434.60-10.36Q434.60-12.56 435.38-14.52Q436.16-16.48 437.54-17.96Q438.92-19.44 440.80-20.32Q442.68-21.20 444.92-21.20L444.92-21.20Q447.16-21.20 449.06-20.32Q450.96-19.44 452.34-17.96Q453.72-16.48 454.50-14.52Q455.28-12.56 455.28-10.36L455.28-10.36Q455.28-8.20 454.52-6.24Q453.76-4.28 452.38-2.80Q451.00-1.32 449.10-0.46Q447.20 0.40 444.92 0.40ZM437.36-10.32L437.36-10.32Q437.36-8.56 437.96-7.06Q438.56-5.56 439.58-4.42Q440.60-3.28 441.98-2.64Q443.36-2 444.92-2L444.92-2Q446.48-2 447.86-2.66Q449.24-3.32 450.28-4.46Q451.32-5.60 451.92-7.12Q452.52-8.64 452.52-10.40L452.52-10.40Q452.52-12.12 451.92-13.66Q451.32-15.20 450.28-16.34Q449.24-17.48 447.86-18.14Q446.48-18.80 444.92-18.80L444.92-18.80Q443.36-18.80 442.00-18.14Q440.64-17.48 439.60-16.32Q438.56-15.16 437.96-13.62Q437.36-12.08 437.36-10.32Z M468.36 0.40L468.36 0.40Q465.92 0.40 463.60-0.40Q461.28-1.20 459.60-2.72L459.60-2.72L460.84-4.56Q462.60-3.12 464.42-2.40Q466.24-1.68 468.32-1.68L468.32-1.68Q470.84-1.68 472.34-2.70Q473.84-3.72 473.84-5.60L473.84-5.60Q473.84-6.48 473.44-7.06Q473.04-7.64 472.26-8.08Q471.48-8.52 470.30-8.86Q469.12-9.20 467.56-9.56L467.56-9.56Q465.76-10 464.44-10.44Q463.12-10.88 462.26-11.44Q461.40-12 460.98-12.82Q460.56-13.64 460.56-14.88L460.56-14.88Q460.56-16.44 461.18-17.64Q461.80-18.84 462.86-19.62Q463.92-20.40 465.34-20.80Q466.76-21.20 468.36-21.20L468.36-21.20Q470.76-21.20 472.72-20.42Q474.68-19.64 475.88-18.36L475.88-18.36L474.56-16.76Q473.40-17.96 471.74-18.56Q470.08-19.16 468.28-19.16L468.28-19.16Q467.20-19.16 466.28-18.94Q465.36-18.72 464.66-18.24Q463.96-17.76 463.56-17.02Q463.16-16.28 463.16-15.28L463.16-15.28Q463.16-14.44 463.44-13.92Q463.72-13.40 464.36-13.02Q465.00-12.64 465.98-12.34Q466.96-12.04 468.36-11.72L468.36-11.72Q470.36-11.24 471.88-10.76Q473.40-10.28 474.42-9.64Q475.44-9 475.96-8.08Q476.48-7.16 476.48-5.84L476.48-5.84Q476.48-2.96 474.28-1.28Q472.08 0.40 468.36 0.40Z M489.44 0.40L489.44 0.40Q487.00 0.40 484.68-0.40Q482.36-1.20 480.68-2.72L480.68-2.72L481.92-4.56Q483.68-3.12 485.50-2.40Q487.32-1.68 489.40-1.68L489.40-1.68Q491.92-1.68 493.42-2.70Q494.92-3.72 494.92-5.60L494.92-5.60Q494.92-6.48 494.52-7.06Q494.12-7.64 493.34-8.08Q492.56-8.52 491.38-8.86Q490.20-9.20 488.64-9.56L488.64-9.56Q486.84-10 485.52-10.44Q484.20-10.88 483.34-11.44Q482.48-12 482.06-12.82Q481.64-13.64 481.64-14.88L481.64-14.88Q481.64-16.44 482.26-17.64Q482.88-18.84 483.94-19.62Q485.00-20.40 486.42-20.80Q487.84-21.20 489.44-21.20L489.44-21.20Q491.84-21.20 493.80-20.42Q495.76-19.64 496.96-18.36L496.96-18.36L495.64-16.76Q494.48-17.96 492.82-18.56Q491.16-19.16 489.36-19.16L489.36-19.16Q488.28-19.16 487.36-18.94Q486.44-18.72 485.74-18.24Q485.04-17.76 484.64-17.02Q484.24-16.28 484.24-15.28L484.24-15.28Q484.24-14.44 484.52-13.92Q484.80-13.40 485.44-13.02Q486.08-12.64 487.06-12.34Q488.04-12.04 489.44-11.72L489.44-11.72Q491.44-11.24 492.96-10.76Q494.48-10.28 495.50-9.64Q496.52-9 497.04-8.08Q497.56-7.16 497.56-5.84L497.56-5.84Q497.56-2.96 495.36-1.28Q493.16 0.40 489.44 0.40Z M506.32 0L503.60 0L503.60-20.84L506.32-20.84L506.32 0ZM506.32-25.20L503.60-25.20L503.60-29.20L506.32-29.20L506.32-25.20Z M524.12 0.40L524.12 0.40Q521.64 0.40 519.58-0.84Q517.52-2.08 516.36-4.04L516.36-4.04L516.36 0L513.92 0L513.92-29.20L516.64-29.20L516.64-16.48Q518.04-18.60 520.00-19.90Q521.96-21.20 524.56-21.20L524.56-21.20Q526.76-21.20 528.50-20.28Q530.24-19.36 531.46-17.82Q532.68-16.28 533.34-14.34Q534.00-12.40 534.00-10.36L534.00-10.36Q534.00-8.16 533.24-6.20Q532.48-4.24 531.16-2.78Q529.84-1.32 528.02-0.46Q526.20 0.40 524.12 0.40ZM523.48-2L523.48-2Q525.20-2 526.62-2.70Q528.04-3.40 529.06-4.58Q530.08-5.76 530.66-7.26Q531.24-8.76 531.24-10.36L531.24-10.36Q531.24-12 530.70-13.52Q530.16-15.04 529.18-16.22Q528.20-17.40 526.82-18.10Q525.44-18.80 523.80-18.80L523.80-18.80Q522.56-18.80 521.48-18.38Q520.40-17.96 519.48-17.24Q518.56-16.52 517.84-15.58Q517.12-14.64 516.64-13.60L516.64-13.60L516.64-7.12Q516.80-6.04 517.50-5.10Q518.20-4.16 519.18-3.48Q520.16-2.80 521.30-2.40Q522.44-2 523.48-2Z M540.32-3.80L540.32-29.20L543.04-29.20L543.04-4.72Q543.04-3.56 543.68-2.90Q544.32-2.24 545.48-2.24L545.48-2.24Q545.92-2.24 546.52-2.36Q547.12-2.48 547.64-2.68L547.64-2.68L548.12-0.48Q547.36-0.16 546.26 0.04Q545.16 0.24 544.36 0.24L544.36 0.24Q542.48 0.24 541.40-0.82Q540.32-1.88 540.32-3.80L540.32-3.80Z M561.68 0.40L561.68 0.40Q559.40 0.40 557.50-0.46Q555.60-1.32 554.20-2.82Q552.80-4.32 552.02-6.28Q551.24-8.24 551.24-10.48L551.24-10.48Q551.24-12.68 552.02-14.62Q552.80-16.56 554.18-18.02Q555.56-19.48 557.48-20.34Q559.40-21.20 561.64-21.20L561.64-21.20Q563.92-21.20 565.82-20.34Q567.72-19.48 569.08-18Q570.44-16.52 571.20-14.60Q571.96-12.68 571.96-10.52L571.96-10.52Q571.96-10.20 571.96-9.88Q571.96-9.56 571.92-9.44L571.92-9.44L554.08-9.44Q554.20-7.76 554.86-6.34Q555.52-4.92 556.56-3.88Q557.60-2.84 558.94-2.26Q560.28-1.68 561.80-1.68L561.80-1.68Q562.80-1.68 563.80-1.96Q564.80-2.24 565.64-2.72Q566.48-3.20 567.16-3.90Q567.84-4.60 568.20-5.44L568.20-5.44L570.56-4.80Q570.08-3.64 569.20-2.70Q568.32-1.76 567.16-1.06Q566.00-0.36 564.60 0.02Q563.20 0.40 561.68 0.40ZM554.04-11.52L569.36-11.52Q569.24-13.20 568.58-14.58Q567.92-15.96 566.90-16.96Q565.88-17.96 564.54-18.52Q563.20-19.08 561.68-19.08L561.68-19.08Q560.16-19.08 558.80-18.52Q557.44-17.96 556.42-16.96Q555.40-15.96 554.78-14.56Q554.16-13.16 554.04-11.52L554.04-11.52Z M600.20 0.40L600.20 0.40Q597.56 0.40 595.54-0.94Q593.52-2.28 592.28-4.32L592.28-4.32L592.28 8.52L589.56 8.52L589.56-20.84L592.00-20.84L592.00-16.80Q593.28-18.76 595.32-19.98Q597.36-21.20 599.76-21.20L599.76-21.20Q601.92-21.20 603.72-20.30Q605.52-19.40 606.84-17.90Q608.16-16.40 608.90-14.44Q609.64-12.48 609.64-10.40L609.64-10.40Q609.64-8.20 608.96-6.24Q608.28-4.28 607.02-2.80Q605.76-1.32 604.02-0.46Q602.28 0.40 600.20 0.40ZM599.44-2L599.44-2Q601.12-2 602.50-2.72Q603.88-3.44 604.86-4.62Q605.84-5.80 606.36-7.30Q606.88-8.80 606.88-10.40L606.88-10.40Q606.88-12.08 606.28-13.60Q605.68-15.12 604.64-16.28Q603.60-17.44 602.18-18.12Q600.76-18.80 599.12-18.80L599.12-18.80Q598.08-18.80 596.94-18.38Q595.80-17.96 594.82-17.26Q593.84-16.56 593.14-15.62Q592.44-14.68 592.28-13.64L592.28-13.64L592.28-7.24Q592.76-6.12 593.50-5.16Q594.24-4.20 595.18-3.50Q596.12-2.80 597.20-2.40Q598.28-2 599.44-2Z M624.72 0.40L624.72 0.40Q622.44 0.40 620.56-0.46Q618.68-1.32 617.30-2.80Q615.92-4.28 615.16-6.24Q614.40-8.20 614.40-10.36L614.40-10.36Q614.40-12.56 615.18-14.52Q615.96-16.48 617.34-17.96Q618.72-19.44 620.60-20.32Q622.48-21.20 624.72-21.20L624.72-21.20Q626.96-21.20 628.86-20.32Q630.76-19.44 632.14-17.96Q633.52-16.48 634.30-14.52Q635.08-12.56 635.08-10.36L635.08-10.36Q635.08-8.20 634.32-6.24Q633.56-4.28 632.18-2.80Q630.80-1.32 628.90-0.46Q627.00 0.40 624.72 0.40ZM617.16-10.32L617.16-10.32Q617.16-8.56 617.76-7.06Q618.36-5.56 619.38-4.42Q620.40-3.28 621.78-2.64Q623.16-2 624.72-2L624.72-2Q626.28-2 627.66-2.66Q629.04-3.32 630.08-4.46Q631.12-5.60 631.72-7.12Q632.32-8.64 632.32-10.40L632.32-10.40Q632.32-12.12 631.72-13.66Q631.12-15.20 630.08-16.34Q629.04-17.48 627.66-18.14Q626.28-18.80 624.72-18.80L624.72-18.80Q623.16-18.80 621.80-18.14Q620.44-17.48 619.40-16.32Q618.36-15.16 617.76-13.62Q617.16-12.08 617.16-10.32Z M648.16 0.40L648.16 0.40Q645.72 0.40 643.40-0.40Q641.08-1.20 639.40-2.72L639.40-2.72L640.64-4.56Q642.40-3.12 644.22-2.40Q646.04-1.68 648.12-1.68L648.12-1.68Q650.64-1.68 652.14-2.70Q653.64-3.72 653.64-5.60L653.64-5.60Q653.64-6.48 653.24-7.06Q652.84-7.64 652.06-8.08Q651.28-8.52 650.10-8.86Q648.92-9.20 647.36-9.56L647.36-9.56Q645.56-10 644.24-10.44Q642.92-10.88 642.06-11.44Q641.20-12 640.78-12.82Q640.36-13.64 640.36-14.88L640.36-14.88Q640.36-16.44 640.98-17.64Q641.60-18.84 642.66-19.62Q643.72-20.40 645.14-20.80Q646.56-21.20 648.16-21.20L648.16-21.20Q650.56-21.20 652.52-20.42Q654.48-19.64 655.68-18.36L655.68-18.36L654.36-16.76Q653.20-17.96 651.54-18.56Q649.88-19.16 648.08-19.16L648.08-19.16Q647.00-19.16 646.08-18.94Q645.16-18.72 644.46-18.24Q643.76-17.76 643.36-17.02Q642.96-16.28 642.96-15.28L642.96-15.28Q642.96-14.44 643.24-13.92Q643.52-13.40 644.16-13.02Q644.80-12.64 645.78-12.34Q646.76-12.04 648.16-11.72L648.16-11.72Q650.16-11.24 651.68-10.76Q653.20-10.28 654.22-9.64Q655.24-9 655.76-8.08Q656.28-7.16 656.28-5.84L656.28-5.84Q656.28-2.96 654.08-1.28Q651.88 0.40 648.16 0.40Z M669.24 0.40L669.24 0.40Q666.80 0.40 664.48-0.40Q662.16-1.20 660.48-2.72L660.48-2.72L661.72-4.56Q663.48-3.12 665.30-2.40Q667.12-1.68 669.20-1.68L669.20-1.68Q671.72-1.68 673.22-2.70Q674.72-3.72 674.72-5.60L674.72-5.60Q674.72-6.48 674.32-7.06Q673.92-7.64 673.14-8.08Q672.36-8.52 671.18-8.86Q670.00-9.20 668.44-9.56L668.44-9.56Q666.64-10 665.32-10.44Q664.00-10.88 663.14-11.44Q662.28-12 661.86-12.82Q661.44-13.64 661.44-14.88L661.44-14.88Q661.44-16.44 662.06-17.64Q662.68-18.84 663.74-19.62Q664.80-20.40 666.22-20.80Q667.64-21.20 669.24-21.20L669.24-21.20Q671.64-21.20 673.60-20.42Q675.56-19.64 676.76-18.36L676.76-18.36L675.44-16.76Q674.28-17.96 672.62-18.56Q670.96-19.16 669.16-19.16L669.16-19.16Q668.08-19.16 667.16-18.94Q666.24-18.72 665.54-18.24Q664.84-17.76 664.44-17.02Q664.04-16.28 664.04-15.28L664.04-15.28Q664.04-14.44 664.32-13.92Q664.60-13.40 665.24-13.02Q665.88-12.64 666.86-12.34Q667.84-12.04 669.24-11.72L669.24-11.72Q671.24-11.24 672.76-10.76Q674.28-10.28 675.30-9.64Q676.32-9 676.84-8.08Q677.36-7.16 677.36-5.84L677.36-5.84Q677.36-2.96 675.16-1.28Q672.96 0.40 669.24 0.40Z M686.12 0L683.40 0L683.40-20.84L686.12-20.84L686.12 0ZM686.12-25.20L683.40-25.20L683.40-29.20L686.12-29.20L686.12-25.20Z M703.92 0.40L703.92 0.40Q701.44 0.40 699.38-0.84Q697.32-2.08 696.16-4.04L696.16-4.04L696.16 0L693.72 0L693.72-29.20L696.44-29.20L696.44-16.48Q697.84-18.60 699.80-19.90Q701.76-21.20 704.36-21.20L704.36-21.20Q706.56-21.20 708.30-20.28Q710.04-19.36 711.26-17.82Q712.48-16.28 713.14-14.34Q713.80-12.40 713.80-10.36L713.80-10.36Q713.80-8.16 713.04-6.20Q712.28-4.24 710.96-2.78Q709.64-1.32 707.82-0.46Q706.00 0.40 703.92 0.40ZM703.28-2L703.28-2Q705.00-2 706.42-2.70Q707.84-3.40 708.86-4.58Q709.88-5.76 710.46-7.26Q711.04-8.76 711.04-10.36L711.04-10.36Q711.04-12 710.50-13.52Q709.96-15.04 708.98-16.22Q708.00-17.40 706.62-18.10Q705.24-18.80 703.60-18.80L703.60-18.80Q702.36-18.80 701.28-18.38Q700.20-17.96 699.28-17.24Q698.36-16.52 697.64-15.58Q696.92-14.64 696.44-13.60L696.44-13.60L696.44-7.12Q696.60-6.04 697.30-5.10Q698.00-4.16 698.98-3.48Q699.96-2.80 701.10-2.40Q702.24-2 703.28-2Z M720.12-3.80L720.12-29.20L722.84-29.20L722.84-4.72Q722.84-3.56 723.48-2.90Q724.12-2.24 725.28-2.24L725.28-2.24Q725.72-2.24 726.32-2.36Q726.92-2.48 727.44-2.68L727.44-2.68L727.92-0.48Q727.16-0.16 726.06 0.04Q724.96 0.24 724.16 0.24L724.16 0.24Q722.28 0.24 721.20-0.82Q720.12-1.88 720.12-3.80L720.12-3.80Z M741.48 0.40L741.48 0.40Q739.20 0.40 737.30-0.46Q735.40-1.32 734.00-2.82Q732.60-4.32 731.82-6.28Q731.04-8.24 731.04-10.48L731.04-10.48Q731.04-12.68 731.82-14.62Q732.60-16.56 733.98-18.02Q735.36-19.48 737.28-20.34Q739.20-21.20 741.44-21.20L741.44-21.20Q743.72-21.20 745.62-20.34Q747.52-19.48 748.88-18Q750.24-16.52 751.00-14.60Q751.76-12.68 751.76-10.52L751.76-10.52Q751.76-10.20 751.76-9.88Q751.76-9.56 751.72-9.44L751.72-9.44L733.88-9.44Q734.00-7.76 734.66-6.34Q735.32-4.92 736.36-3.88Q737.40-2.84 738.74-2.26Q740.08-1.68 741.60-1.68L741.60-1.68Q742.60-1.68 743.60-1.96Q744.60-2.24 745.44-2.72Q746.28-3.20 746.96-3.90Q747.64-4.60 748.00-5.44L748.00-5.44L750.36-4.80Q749.88-3.64 749.00-2.70Q748.12-1.76 746.96-1.06Q745.80-0.36 744.40 0.02Q743.00 0.40 741.48 0.40ZM733.84-11.52L749.16-11.52Q749.04-13.20 748.38-14.58Q747.72-15.96 746.70-16.96Q745.68-17.96 744.34-18.52Q743.00-19.08 741.48-19.08L741.48-19.08Q739.96-19.08 738.60-18.52Q737.24-17.96 736.22-16.96Q735.20-15.96 734.58-14.56Q733.96-13.16 733.84-11.52L733.84-11.52Z"/></g>
</svg>
</g><g opacity="1" transform="rotate(0 152.6284 346.7863)">
<svg width="332.4473" height="120" x="152.6284" y="346.7863" version="1.1" preserveAspectRatio="none" viewBox="7.0313 -29.4727 114.76549999999999 41.425799999999995">
  <g transform="matrix(1 0 0 1 0 0)" class="companyName"><path id="id-D6z1nYkh7" d="M8.50-10.92L7.58-10.68Q7.03-10.68 7.03-11.37L7.03-11.37Q7.03-11.88 7.49-12.48Q7.95-13.09 8.05-13.28Q8.14-13.48 8.56-13.89Q8.98-14.30 9.31-14.38Q9.63-14.45 10.63-14.55L10.63-14.55Q13.67-14.84 17.27-14.88L17.27-14.88Q21.17-20.80 23.63-23.67L23.63-23.67Q19.98-23.01 14.67-23.01L14.67-23.01Q7.46-23.01 7.46-26.23L7.46-26.23Q7.46-27.15 8.39-27.83Q9.32-28.52 10.73-28.52Q12.15-28.52 12.15-28.18L12.15-28.18Q12.15-28.01 11.71-28.01Q11.27-28.01 10.89-27.69Q10.51-27.36 10.51-27.07L10.51-27.07Q10.51-26.62 12.42-26.41Q14.34-26.19 18.33-26.19Q22.32-26.19 26.99-26.91L26.99-26.91Q28.54-28.18 29.89-28.83Q31.25-29.47 32.66-29.47Q34.06-29.47 34.49-28.85Q34.92-28.22 34.93-27.91Q34.94-27.60 34.47-27.09Q34.00-26.58 33.16-26.05L33.16-26.05Q31.19-24.84 27.99-24.61L27.99-24.61Q24.57-20.29 20.94-14.84L20.94-14.84Q22.44-14.79 23.75-14.62Q25.06-14.45 25.06-13.59L25.06-13.59Q25.06-13.24 23.95-12.25L23.95-12.25Q23.83-12.11 23.65-11.84L23.65-11.84Q23.34-11.37 23.04-11.37Q22.73-11.37 22.34-11.45L22.34-11.45Q20.82-11.50 20.06-11.50L20.06-11.50L18.79-11.48Q11.91-0.78 11.69-0.36Q11.46 0.06 11.20 0.27Q10.94 0.49 10.55 0.49Q10.16 0.49 9.45 0.36Q8.75 0.23 8.40 0.05Q8.05-0.14 8.05-0.42Q8.05-0.70 8.22-1.23L8.22-1.23Q8.69-2.54 14.79-11.33L14.79-11.33Q10.82-11.13 8.50-10.92L8.50-10.92ZM31.62-28.01L32.38-28.32Q32.07-28.22 31.62-28.01L31.62-28.01Z M40.98-6.13L40.98-6.13Q41.35-6.13 41.43-5.57Q41.50-5 41.50-4.39Q41.50-3.79 41.39-3.55L41.39-3.55Q40.82-2.46 38.91-0.89Q36.99 0.68 35.27 0.68L35.27 0.68Q34.22 0.68 33.32 0.05Q32.42-0.59 32.42-2.17Q32.42-3.75 33.26-5.27L33.26-5.27Q28.42 0.80 25.66 0.80L25.66 0.80Q24.57 0.80 23.90 0.02Q23.22-0.76 23.22-1.59Q23.22-2.42 23.46-3.31Q23.69-4.20 23.96-4.90Q24.22-5.61 24.74-6.64Q25.25-7.68 25.51-8.14Q25.76-8.61 26.32-9.56Q26.88-10.51 27.78-12.11Q28.69-13.71 29.29-14.48Q29.88-15.25 30.45-15.26Q31.02-15.27 31.45-14.80Q31.88-14.34 31.88-14.04Q31.88-13.75 30.57-11.41L30.57-11.41Q26.70-4.41 26.70-3.26L26.70-3.26Q26.70-2.97 26.91-2.97L26.91-2.97Q27.85-2.97 31.58-7.03Q35.31-11.09 35.90-12.24Q36.48-13.38 37.04-14.16Q37.60-14.94 37.87-15.12L37.87-15.12Q38.71-15.66 40.04-15.70L40.04-15.70Q40.25-15.70 40.37-15.68Q40.49-15.66 40.64-15.35Q40.80-15.04 40.80-14.86L40.80-14.86Q40.63-14.32 39.25-11.95Q37.87-9.59 37.71-9.28L37.71-9.28Q35.41-4.51 35.41-3.07L35.41-3.07Q35.41-2.25 36.04-2.25L36.04-2.25Q37.17-2.40 38.77-4.06L38.77-4.06Q39.36-4.67 39.93-5.29Q40.51-5.92 40.64-6.03Q40.78-6.13 40.98-6.13Z M47.46-11.88L46.64-10.64Q51.25-15.88 54.49-15.88L54.49-15.88Q55.29-15.88 55.81-15.40Q56.33-14.92 56.33-14.16Q56.33-13.40 55.24-11.61Q54.16-9.82 53.24-8.59L53.24-8.59Q52.75-7.97 52.14-7.97Q51.52-7.97 51.18-8.42Q50.84-8.87 50.84-9.47L50.84-9.47Q50.84-10.82 52.29-12.52L52.29-12.52L52.25-12.56Q51.60-12.50 49.05-10.02Q46.50-7.54 44.72-5.58Q42.93-3.61 40.84-0.80L40.84-0.80Q40.23 0.04 39.81 0.04Q39.39 0.04 38.70-0.22Q38.01-0.49 37.86-0.61Q37.71-0.72 37.71-1.00Q37.71-1.27 37.87-1.63Q38.03-1.99 38.45-2.66Q38.87-3.32 39.72-4.80Q40.57-6.29 42.36-9.30Q44.16-12.30 44.51-12.93L44.51-12.93Q45.25-14.22 45.72-14.80L45.72-14.80Q46.60-15.92 48.69-15.92L48.69-15.92Q49.16-15.92 49.16-15.33L49.16-15.33Q49.16-14.41 47.46-11.88L47.46-11.88Z M54.22 0.12L54.22 0.12L53.26 0.08L52.91 0.08Q52.71 0.02 52.49-0.16Q52.27-0.33 52.15-0.41Q52.03-0.49 52.03-0.69Q52.03-0.90 52.19-1.41L52.19-1.41Q56.00-9.79 59.55-14.80L59.55-14.80Q59.94-15.35 60.81-15.63Q61.68-15.92 62.50-15.92L62.50-15.92Q62.99-15.92 62.99-15.16L62.99-15.16Q62.99-14.94 62.83-14.58Q62.68-14.22 62.05-13.40Q61.43-12.58 60.57-11.52Q59.71-10.47 59.59-10.31L59.59-10.31Q62.27-13.09 64.42-14.44Q66.58-15.80 67.55-15.80Q68.52-15.80 69.03-15.24Q69.55-14.69 69.55-14.05Q69.55-13.42 69.46-13.00Q69.38-12.58 69.14-12.12Q68.91-11.66 68.74-11.34Q68.57-11.02 68.18-10.50Q67.79-9.98 67.65-9.79Q67.50-9.59 67.04-9.04Q66.58-8.50 66.54-8.44L66.54-8.44Q67.09-8.98 68.07-10.06Q69.04-11.13 69.72-11.86Q70.39-12.58 71.41-13.49Q72.42-14.39 73.30-14.96L73.30-14.96Q75.41-16.29 77.58-16.29L77.58-16.29Q78.32-16.29 78.83-15.82Q79.34-15.35 79.34-14.70Q79.34-14.04 77.75-11.57Q76.17-9.10 74.60-6.61Q73.03-4.12 73.03-3.48L73.03-3.48Q73.03-2.58 73.36-2.41Q73.69-2.25 74.16-2.29Q74.63-2.32 75.48-2.89Q76.33-3.46 76.99-4.06L76.99-4.06Q78.07-5.04 78.98-5.96L78.98-5.96Q79.18-6.13 79.41-6.13L79.41-6.13Q79.79-6.13 79.86-5.57Q79.94-5 79.94-4.39Q79.94-3.79 79.82-3.55L79.82-3.55Q79.26-2.46 77.32-0.88Q75.39 0.70 73.61 0.70L73.61 0.70Q73.40 0.70 73.30 0.68L73.30 0.68Q71.29 0.49 70.52-0.42Q69.75-1.33 69.75-2.58Q69.75-3.83 70.60-5.61Q71.45-7.38 72.46-8.83Q73.48-10.27 74.33-11.44Q75.18-12.60 75.18-12.70Q75.18-12.79 75.02-12.79L75.02-12.79Q74.41-12.79 72.32-10.84L72.32-10.84Q68.75-7.50 66.15-4.39L66.15-4.39Q65.47-3.57 62.91-0.23L62.91-0.23Q62.62 0.16 61.98 0.16Q61.35 0.16 60.66-0.09Q59.98-0.33 59.98-0.72L59.98-0.72Q59.98-0.92 63.09-6.20Q66.19-11.48 66.19-11.96Q66.19-12.44 65.62-12.44Q65.04-12.44 63.24-10.72L63.24-10.72Q58.30-6.00 55.59-1.33L55.59-1.33Q55.41-1.05 54.90-0.47Q54.39 0.12 54.22 0.12Z M95.10-6.13L95.10-6.13Q95.47-6.13 95.55-5.57Q95.63-5 95.63-4.39Q95.63-3.79 95.51-3.55L95.51-3.55Q94.94-2.46 93.03-0.89Q91.11 0.68 89.39 0.68L89.39 0.68Q88.34 0.68 87.44 0.05Q86.54-0.59 86.54-2.17Q86.54-3.75 87.38-5.27L87.38-5.27Q82.54 0.80 79.79 0.80L79.79 0.80Q78.69 0.80 78.02 0.02Q77.34-0.76 77.34-1.59Q77.34-2.42 77.58-3.31Q77.81-4.20 78.08-4.90Q78.34-5.61 78.86-6.64Q79.38-7.68 79.63-8.14Q79.88-8.61 80.44-9.56Q81.00-10.51 81.90-12.11Q82.81-13.71 83.41-14.48Q84.00-15.25 84.57-15.26Q85.14-15.27 85.57-14.80Q86.00-14.34 86.00-14.04Q86.00-13.75 84.69-11.41L84.69-11.41Q80.82-4.41 80.82-3.26L80.82-3.26Q80.82-2.97 81.04-2.97L81.04-2.97Q81.97-2.97 85.70-7.03Q89.43-11.09 90.02-12.24Q90.61-13.38 91.16-14.16Q91.72-14.94 91.99-15.12L91.99-15.12Q92.83-15.66 94.16-15.70L94.16-15.70Q94.38-15.70 94.49-15.68Q94.61-15.66 94.77-15.35Q94.92-15.04 94.92-14.86L94.92-14.86Q94.75-14.32 93.37-11.95Q91.99-9.59 91.84-9.28L91.84-9.28Q89.53-4.51 89.53-3.07L89.53-3.07Q89.53-2.25 90.16-2.25L90.16-2.25Q91.29-2.40 92.89-4.06L92.89-4.06Q93.48-4.67 94.05-5.29Q94.63-5.92 94.77-6.03Q94.90-6.13 95.10-6.13Z M110.57-29.32Q111.50-29.32 112.22-28.76Q112.93-28.20 112.93-27.11Q112.93-26.02 111.72-23.68Q110.51-21.35 108.81-18.92Q107.11-16.48 104.96-13.75L104.96-13.75Q101.56-9.41 98.44-5.96L98.44-5.96Q98.42-5.72 98.27-5.09Q98.13-4.45 98.13-3.81Q98.13-3.16 98.72-2.65Q99.32-2.13 100.20-2.13Q101.07-2.13 102.08-2.75Q103.09-3.38 103.83-4.14L103.83-4.14Q105.78-6.15 106.25-6.15Q106.72-6.15 106.72-4.73L106.72-4.73L106.72-4.34Q106.72-3.57 106.45-3.22L106.45-3.22Q104.80-1.21 102.75-0.22Q100.70 0.76 98.87 0.76Q97.03 0.76 96.07-0.36Q95.12-1.48 95.12-3.44L95.12-3.44Q95.12-7.25 97.16-12.39Q99.20-17.54 101.76-21.15L101.76-21.15Q107.52-29.32 110.57-29.32L110.57-29.32ZM109.69-26.07L109.69-26.07Q109.69-26.37 109.49-26.37L109.49-26.37Q108.81-26.37 105.90-22.46Q102.99-18.55 101.69-16.23Q100.39-13.91 99.24-10.39L99.24-10.39Q101.54-13.13 105.62-18.92Q109.69-24.71 109.69-26.07Z M110.61 6.48L110.61 6.48Q110.51 6.58 110.01 7.47Q109.51 8.36 108.95 9.27Q108.38 10.18 107.55 11.00Q106.72 11.82 106.16 11.88Q105.61 11.95 105.45 11.95L105.45 11.95Q103.65 11.95 103.65 10.14L103.65 10.14Q103.65 8.01 105.86 5.16L105.86 5.16Q106.70 4.08 107.97 2.84Q109.24 1.60 109.36 1.44Q109.47 1.27 112.29-4.04L112.29-4.04Q110.41-1.99 108.81-0.71Q107.21 0.57 105.72 0.72L105.72 0.72L105.59 0.72Q104.82 0.72 104.08 0.22Q103.34-0.27 103.34-1.52L103.34-1.52Q103.34-3.38 104.34-5.12L104.34-5.12Q104.69-5.72 105.56-7.17Q106.43-8.61 107.17-9.96L107.17-9.96Q107.87-11.04 108.61-12.46Q109.36-13.89 109.75-14.50Q110.14-15.12 110.49-15.12Q110.84-15.12 111.40-14.68Q111.95-14.24 111.95-13.63Q111.95-13.03 109.39-8.38Q106.84-3.73 106.84-3.09L106.84-3.09Q106.84-2.93 106.99-2.93L106.99-2.93Q107.52-2.93 109.33-4.42Q111.13-5.92 113.32-8.26L113.32-8.26Q115.76-10.86 117.15-13.01L117.15-13.01Q117.32-13.28 117.43-13.43Q117.54-13.57 117.71-13.82Q117.87-14.06 117.98-14.20Q118.09-14.34 118.23-14.52Q118.38-14.71 118.50-14.80Q118.61-14.90 118.75-15L118.75-15Q118.96-15.20 119.23-15.20Q119.49-15.20 120.03-15.08Q120.57-14.96 120.67-14.82Q120.78-14.69 120.90-14.57L120.90-14.57Q121.09-14.36 121.09-14.17Q121.09-13.98 120.94-13.68Q120.78-13.38 119.12-10.59L119.12-10.59Q114.24-2.34 112.40 1.45L112.40 1.45Q115.37-1.05 120.76-5.96L120.76-5.96Q120.98-6.13 121.19-6.13L121.19-6.13Q121.80-6.13 121.80-4.28L121.80-4.28Q121.80-3.73 121.60-3.55L121.60-3.55Q115.76 0.94 110.61 6.48Z"/></g>
</svg>
</g><g opacity="1" transform="rotate(0 219.1178 117.325)">
<svg width="199.4684" height="199.4613" x="219.1178" y="117.325" version="1.1" preserveAspectRatio="none" viewBox="4.9998393058776855 5.001287937164307 90.00192260742188 89.99871063232422">
  <g transform="matrix(1 0 0 1 0 0)" class="icon1"><path d="M32.097,64.816c-3.211,0-5.624-0.836-7.188-2.493c-2.266-2.401-1.856-5.603-1.838-5.736l2.532-11.854  c0.068-0.321,0.388-0.521,0.703-0.456c0.319,0.068,0.524,0.384,0.456,0.703l-2.525,11.812l0,0c0.002,0-0.33,2.754,1.542,4.729  c1.562,1.646,4.201,2.338,7.853,2.049c9.084-0.711,9.71-5.723,9.945-7.607c0.082-0.65,0.135-1.079,0.586-1.234  c0.151-0.051,0.457-0.094,0.767,0.217c1.159,1.591,2.878,0.931,6.351-0.584c0.656-0.285,1.354-0.588,2.089-0.887  c1.543-0.629,3.218-0.844,4.839-1.052c3.404-0.435,5.335-0.81,5.423-3.43c0.037-1.124-0.444-2.22-1.432-3.259  c-2.209-2.326-8.875-6.282-28.697-6.64c-0.326-0.006-0.587-0.275-0.581-0.603c0.006-0.323,0.271-0.581,0.592-0.581  c0.004,0,0.007,0,0.011,0c15.01,0.27,25.499,2.759,29.536,7.007c1.213,1.278,1.803,2.662,1.756,4.113  c-0.127,3.757-3.346,4.168-6.457,4.566c-1.545,0.197-3.143,0.401-4.541,0.973c-0.728,0.297-1.416,0.596-2.063,0.879  c-2.943,1.281-5.345,2.326-7.043,0.984c-0.299,2.203-1.447,7.571-10.986,8.318C33.16,64.795,32.618,64.816,32.097,64.816z"></path><path d="M12.492,46.784c-1.132,0-3.271-0.246-4.997-1.874c-1.928-1.819-2.745-4.785-2.429-8.815  c0.746-9.519,6.091-10.683,8.304-10.985c-1.345-1.658-0.293-4.075,1-7.044c0.282-0.649,0.582-1.337,0.878-2.063  c0.57-1.399,0.774-2.998,0.973-4.542c0.397-3.112,0.81-6.33,4.565-6.456c1.478-0.057,2.837,0.543,4.113,1.756  c4.248,4.037,6.737,14.524,7.007,29.533c0.006,0.327-0.254,0.597-0.581,0.603c-0.36-0.001-0.597-0.253-0.603-0.581  C30.365,16.497,26.409,9.83,24.083,7.62c-1.039-0.986-2.138-1.458-3.258-1.431c-2.622,0.087-2.995,2.018-3.431,5.423  c-0.208,1.619-0.423,3.296-1.051,4.838c-0.3,0.735-0.604,1.433-0.89,2.09c-1.512,3.473-2.171,5.19-0.654,6.289  c0.382,0.372,0.34,0.676,0.288,0.828c-0.155,0.45-0.583,0.505-1.232,0.586c-1.886,0.234-6.897,0.86-7.608,9.946  c-0.287,3.648,0.402,6.29,2.05,7.851c1.98,1.88,4.744,1.537,4.773,1.535l11.766-2.519c0.321-0.063,0.635,0.135,0.703,0.455  c0.068,0.319-0.136,0.635-0.455,0.703l-11.81,2.526C13.224,46.746,12.935,46.784,12.492,46.784z"></path><path d="M46.169,33.46c-0.235-0.235-0.56-0.341-0.882-0.332c-0.608-0.333-1.375-0.51-2.31-0.51c-2.525,0-5.784,1.207-7.898,2.125  c1.212-2.784,2.947-7.651,1.614-10.189c0.017-0.327-0.089-0.658-0.339-0.909c-0.451-0.454-1.238-0.456-1.693,0.001  c-0.462,0.467-0.461,1.225,0.002,1.69c0.135,0.137,0.303,0.223,0.48,0.28c0.69,1.651-0.611,5.796-2.047,8.958  c-0.019,0.003-0.038,0.002-0.057,0.006c-0.413-0.202-0.939-0.148-1.273,0.188c-0.329,0.332-0.398,0.818-0.222,1.218  c-1.167,0.474-2.567,1.435-3.894,2.761c-1.734,1.733-2.847,3.595-3.059,4.894l-0.063-0.063l-4.674,4.673  c-0.398,0.397-0.336,1.102,0.137,1.573c0.474,0.473,1.177,0.534,1.574,0.138l4.673-4.675l-0.064-0.064  c1.298-0.212,3.16-1.325,4.894-3.058c1.326-1.326,2.286-2.725,2.761-3.892c0.138,0.062,0.287,0.098,0.442,0.098  c0.293,0,0.569-0.115,0.78-0.325c0.209-0.209,0.323-0.486,0.322-0.781c0-0.18-0.057-0.346-0.139-0.5  c0.003-0.014,0.002-0.028,0.004-0.042c2.2-0.998,5.518-2.246,7.752-2.246c0.5,0,0.903,0.073,1.208,0.196  c0.056,0.174,0.14,0.34,0.277,0.477c0.227,0.228,0.528,0.354,0.848,0.354c0.321,0,0.62-0.126,0.844-0.352  C46.636,34.689,46.637,33.93,46.169,33.46z"></path><path d="M71.251,95c-0.459,0-0.937-0.02-1.431-0.059c-8.193-0.643-9.354-5.164-9.648-7.188c-1.47,1.085-3.564,0.17-6.131-0.946  c-0.564-0.248-1.166-0.509-1.801-0.767c-1.213-0.495-2.604-0.672-3.949-0.845c-2.751-0.353-5.596-0.715-5.707-4.063  c-0.043-1.29,0.48-2.517,1.555-3.648c3.54-3.727,12.724-5.908,25.861-6.146c0.297,0.001,0.598,0.254,0.604,0.581  c0.004,0.327-0.256,0.598-0.582,0.604C52.729,72.835,46.92,76.277,44.998,78.3c-0.848,0.894-1.261,1.833-1.229,2.793  c0.074,2.231,1.738,2.552,4.674,2.927c1.421,0.184,2.89,0.371,4.247,0.924c0.643,0.262,1.252,0.525,1.826,0.777  c2.996,1.305,4.479,1.879,5.405,0.598c0.374-0.383,0.688-0.321,0.81-0.279c0.438,0.15,0.49,0.564,0.562,1.138  c0.224,1.785,0.744,5.968,8.624,6.584c3.178,0.259,5.461-0.348,6.809-1.776c1.619-1.715,1.317-4.075,1.313-4.101l-2.2-10.276  c-0.068-0.319,0.137-0.635,0.455-0.703c0.32-0.063,0.634,0.136,0.703,0.455l2.208,10.32c0.024,0.164,0.386,2.994-1.619,5.118  C76.201,94.262,74.074,95,71.251,95z"></path><path d="M88.374,79.246c-0.376,0-0.617-0.031-0.649-0.035l-10.365-2.215c-0.319-0.068-0.524-0.385-0.457-0.702  c0.07-0.321,0.391-0.521,0.703-0.456l10.322,2.207l0,0c0.021,0.002,2.377,0.273,4.065-1.33c1.422-1.349,2.017-3.636,1.769-6.799  c-0.617-7.878-4.8-8.4-6.586-8.625c-0.572-0.07-0.986-0.124-1.138-0.563c-0.042-0.121-0.104-0.436,0.206-0.746  c1.352-0.987,0.779-2.469-0.523-5.467c-0.25-0.574-0.516-1.186-0.777-1.828c-0.553-1.356-0.74-2.826-0.924-4.247  c-0.375-2.936-0.695-4.6-2.928-4.674c-0.958-0.026-1.898,0.383-2.791,1.229c-2.023,1.924-5.467,7.732-5.777,25.023  c-0.006,0.328-0.271,0.586-0.604,0.582c-0.326-0.006-0.586-0.276-0.581-0.604c0.236-13.137,2.419-22.319,6.146-25.861  c1.132-1.073,2.361-1.61,3.647-1.555c3.347,0.112,3.711,2.957,4.063,5.707c0.173,1.346,0.351,2.736,0.846,3.949  c0.258,0.637,0.52,1.236,0.768,1.805c1.104,2.539,2.012,4.622,0.928,6.126c2.014,0.292,6.563,1.435,7.207,9.651  c0.277,3.547-0.443,6.158-2.146,7.764C91.262,79.034,89.355,79.246,88.374,79.246z"></path><path d="M82.089,80.605l-4.038-4.037l-0.205,0.205c-0.009-1.128-1.033-2.95-2.713-4.629c-1.133-1.133-2.326-1.958-3.332-2.381  c0.165-0.38,0.098-0.836-0.211-1.145c-0.307-0.309-0.788-0.366-1.17-0.196c-1.235-2.727-2.349-6.26-1.783-7.686  c0.155-0.056,0.301-0.135,0.422-0.255c0.436-0.437,0.437-1.147,0-1.586c-0.425-0.424-1.164-0.422-1.586,0.002  c-0.227,0.228-0.329,0.527-0.32,0.825c-1.139,2.19,0.292,6.321,1.351,8.786c-1.857-0.794-4.621-1.794-6.759-1.794  c-0.821,0-1.496,0.155-2.033,0.444c-0.298-0.006-0.597,0.096-0.814,0.314c-0.436,0.438-0.436,1.146,0,1.584  c0.213,0.213,0.494,0.328,0.793,0.328s0.58-0.115,0.791-0.328c0.12-0.12,0.2-0.263,0.255-0.413c0.257-0.099,0.586-0.155,0.993-0.155  c1.925,0,4.772,1.066,6.688,1.933c-0.178,0.384-0.116,0.851,0.201,1.168c0.195,0.195,0.455,0.302,0.732,0.302  c0.146,0,0.286-0.034,0.417-0.092c0.424,1.005,1.249,2.198,2.382,3.33c1.68,1.678,3.502,2.702,4.63,2.71l-0.204,0.205l4.037,4.038  c0.343,0.343,0.951,0.289,1.359-0.118S82.434,80.95,82.089,80.605z"></path><path d="M88.766,69.428c0.165-0.26-4.484,2.438-12.44,3.006c4.337-6.415,6.925-7.68,6.569-7.675  c-2.844,0.853-5.757,4.514-7.248,6.607c-0.188-9.265,3.082-13.458,3.082-13.458c-0.181-0.269-4.584,3.666-4.198,14.951  c-0.04,0.089-0.066,0.184-0.058,0.287c0.026,0.307,0.284,0.537,0.586,0.537c0.016,0,0.032,0,0.051-0.002  c0.015-0.001,0.047-0.004,0.064-0.006c0.002,0,0.004,0.002,0.006,0.002c0.006,0,0.011-0.004,0.016-0.004  C76.653,73.546,86.759,72.557,88.766,69.428z"></path><path d="M73.559,75.102c0-0.301-0.229-0.559-0.537-0.584c-0.103-0.009-0.196,0.018-0.284,0.057  c-11.288-0.387-15.223,4.019-14.954,4.199c0,0,4.193-3.271,13.459-3.083c-2.094,1.491-5.756,4.403-6.607,7.247  c-0.005,0.357,1.259-2.23,7.675-6.568c-0.569,7.957-3.265,12.606-3.005,12.441c3.127-2.007,4.117-12.111,4.244-13.57  c0-0.005,0.004-0.01,0.004-0.016c0-0.002-0.002-0.004-0.002-0.006c0.002-0.018,0.005-0.05,0.006-0.064  C73.559,75.136,73.559,75.119,73.559,75.102z"></path><path d="M32.028,42.734c10.522-0.213,15.286,3.502,15.286,3.502c0.304-0.207-4.165-5.208-16.985-4.771  c-0.1-0.045-0.208-0.075-0.325-0.065c-0.347,0.03-0.609,0.322-0.61,0.664c0.001,0.021,0.001,0.04,0.004,0.058  c0.001,0.016,0.003,0.041,0.005,0.06c0,0.007-0.003,0.014-0.003,0.021c0,0.011,0.007,0.021,0.008,0.032  c0.154,1.769,1.288,13.134,4.819,15.398c0.295,0.188-2.767-5.093-3.414-14.129c7.285,4.927,8.721,7.864,8.718,7.46  C38.564,47.736,34.407,44.429,32.028,42.734z"></path><path d="M29.259,38.854c-0.001-0.017-0.004-0.043-0.005-0.063c0-0.006,0.002-0.012,0.002-0.018c0-0.009-0.006-0.017-0.006-0.026  c-0.151-1.746-1.284-13.138-4.819-15.405c-0.295-0.188,2.767,5.094,3.414,14.13c-7.287-4.928-8.722-7.865-8.719-7.461  c0.967,3.23,5.125,6.538,7.504,8.232c-10.523,0.213-15.287-3.502-15.287-3.502c-0.303,0.207,4.166,5.209,16.987,4.771  c0.1,0.045,0.207,0.074,0.324,0.065c0.347-0.03,0.609-0.322,0.61-0.664C29.262,38.892,29.262,38.873,29.259,38.854z"></path></g>
</svg>
</g></svg></svg>