<svg version="1.1" preserveAspectRatio="none" xmlns="http://www.w3.org/2000/svg" width="500" height="500" viewBox="0 0 500 500"><rect width="100%" height="100%" fill="#EFEBE5" fill-opacity="1"/><svg viewBox="25.3212 197.7488 525.4322 334.6852" width="333" height="212.11142293905857" x="83.5px" y="143.9443px" xmlns="http://www.w3.org/2000/svg" xmlns:xlink="http://www.w3.org/1999/xlink" preserveAspectRatio="none"><defs></defs><style>.companyName {fill:#FF7E73;fill-opacity:1;}.icon1 {fill:#776464;fill-opacity:1;}.icon2 {fill:#FF7E73;fill-opacity:1;}.icon3 {fill:#493838;fill-opacity:1;}.icon3-str {stroke:#493838;stroke-opacity:1;}.text {fill:#776464;fill-opacity:1;}</style><g opacity="1" transform="rotate(0 25.3212 507.234)">
<svg width="525.4322" height="25.2" x="25.3212" y="507.234" version="1.1" preserveAspectRatio="none" viewBox="4.16 -31 812.24 38.96">
  <g transform="matrix(1 0 0 1 0 0)" class="text"><path id="id-6izo4zJp38" d="M24.60 0L20.08 0L13.28-10.68Q12.96-10.64 12.32-10.64L12.32-10.64L8.04-10.64L8.04 0L4.16 0L4.16-28.92L11.88-28.92Q14.84-28.92 17.16-27.88Q19.48-26.84 20.80-24.82Q22.12-22.80 22.12-19.96L22.12-19.96Q22.12-17.28 20.94-15.04Q19.76-12.80 17.32-11.64L17.32-11.64L24.60 0ZM12.24-14.40Q15.36-14.40 16.74-16.04Q18.12-17.68 18.12-19.80L18.12-19.80Q18.12-21.08 17.54-22.32Q16.96-23.56 15.70-24.38Q14.44-25.20 12.52-25.20L12.52-25.20L8.04-25.20L8.04-14.40L12.24-14.40Z M40.88-2.80Q42.96-2.80 44.92-4.24L44.92-4.24L46.64-1.48Q45.32-0.60 43.78-0.10Q42.24 0.40 40.80 0.40L40.80 0.40Q38.04 0.40 35.98-0.74Q33.92-1.88 32.80-3.88Q31.68-5.88 31.68-8.40L31.68-8.40Q31.68-10.84 32.90-12.86Q34.12-14.88 36.24-16.06Q38.36-17.24 40.88-17.24L40.88-17.24Q44.12-17.24 46.30-15.34Q48.48-13.44 49.28-10.04L49.28-10.04L36.16-5.44Q36.88-4.20 38.10-3.50Q39.32-2.80 40.88-2.80L40.88-2.80ZM40.60-14.28Q38.32-14.28 36.84-12.68Q35.36-11.08 35.36-8.60L35.36-8.60Q35.36-8 35.40-7.68L35.40-7.68L45.04-11.24Q44.44-12.60 43.34-13.44Q42.24-14.28 40.60-14.28L40.60-14.28Z M62.60 0.36Q60.76 0.36 59.10-0.28Q57.44-0.92 56.40-2.16L56.40-2.16L58.00-4.32Q59.00-3.36 60.10-2.84Q61.20-2.32 62.28-2.32L62.28-2.32Q63.60-2.32 64.44-2.84Q65.28-3.36 65.28-4.44L65.28-4.44Q65.28-5.28 64.76-5.80Q64.24-6.32 63.58-6.56Q62.92-6.80 61.36-7.28L61.36-7.28Q57.12-8.64 57.12-12.12L57.12-12.12Q57.12-14.20 58.66-15.68Q60.20-17.16 62.96-17.16L62.96-17.16Q64.72-17.16 66.08-16.72Q67.44-16.28 68.60-15.32L68.60-15.32L67.12-13.04Q66.48-13.72 65.50-14.12Q64.52-14.52 63.64-14.56L63.64-14.56Q62.52-14.56 61.72-14.02Q60.92-13.48 60.92-12.56L60.92-12.56Q60.92-11.80 61.44-11.30Q61.96-10.80 62.52-10.58Q63.08-10.36 64.72-9.84L64.72-9.84Q66.76-9.16 67.90-8.08Q69.04-7 69.04-5.16L69.04-5.16Q69.04-2.76 67.36-1.20Q65.68 0.36 62.60 0.36L62.60 0.36Z M78.24-16.56L81.96-16.56L81.96 0L78.24 0L78.24-16.56ZM77.96-22.52Q77.96-23.40 78.64-24Q79.32-24.60 80.20-24.60L80.20-24.60Q81.08-24.60 81.74-24Q82.40-23.40 82.40-22.52L82.40-22.52Q82.40-21.64 81.74-21.04Q81.08-20.44 80.20-20.44L80.20-20.44Q79.32-20.44 78.64-21.04Q77.96-21.64 77.96-22.52L77.96-22.52Z M92.44-31L96.16-31L96.16 0L92.44 0L92.44-31Z M106.64-16.56L110.36-16.56L110.36 0L106.64 0L106.64-16.56ZM106.36-22.52Q106.36-23.40 107.04-24Q107.72-24.60 108.60-24.60L108.60-24.60Q109.48-24.60 110.14-24Q110.80-23.40 110.80-22.52L110.80-22.52Q110.80-21.64 110.14-21.04Q109.48-20.44 108.60-20.44L108.60-20.44Q107.72-20.44 107.04-21.04Q106.36-21.64 106.36-22.52L106.36-22.52Z M128.60-2.80Q130.68-2.80 132.64-4.24L132.64-4.24L134.36-1.48Q133.04-0.60 131.50-0.10Q129.96 0.40 128.52 0.40L128.52 0.40Q125.76 0.40 123.70-0.74Q121.64-1.88 120.52-3.88Q119.40-5.88 119.40-8.40L119.40-8.40Q119.40-10.84 120.62-12.86Q121.84-14.88 123.96-16.06Q126.08-17.24 128.60-17.24L128.60-17.24Q131.84-17.24 134.02-15.34Q136.20-13.44 137-10.04L137-10.04L123.88-5.44Q124.60-4.20 125.82-3.50Q127.04-2.80 128.60-2.80L128.60-2.80ZM128.32-14.28Q126.04-14.28 124.56-12.68Q123.08-11.08 123.08-8.60L123.08-8.60Q123.08-8 123.12-7.68L123.12-7.68L132.76-11.24Q132.16-12.60 131.06-13.44Q129.96-14.28 128.32-14.28L128.32-14.28Z M155.92-17.20Q158.24-17.20 159.76-15.82Q161.28-14.44 161.32-12.24L161.32-12.24L161.32 0L157.56 0L157.56-10.96Q157.48-12.36 156.72-13.16Q155.96-13.96 154.44-14L154.44-14Q152.24-14 150.80-12.24Q149.36-10.48 149.36-7.76L149.36-7.76L149.36 0L145.64 0L145.64-16.56L149-16.56L149.24-13.36Q150.12-15.16 151.88-16.18Q153.64-17.20 155.92-17.20L155.92-17.20Z M185.20-1.56Q184.08-0.64 182.54-0.12Q181 0.40 179.40 0.40L179.40 0.40Q176.72 0.40 174.66-0.68Q172.60-1.76 171.46-3.74Q170.32-5.72 170.32-8.32L170.32-8.32Q170.32-10.88 171.52-12.86Q172.72-14.84 174.72-15.92Q176.72-17 179.04-17L179.04-17Q182.84-17 185.32-14.92L185.32-14.92L183.44-12.48Q182.64-13.08 181.60-13.50Q180.56-13.92 179.36-13.92L179.36-13.92Q177.88-13.92 176.66-13.18Q175.44-12.44 174.74-11.16Q174.04-9.88 174.04-8.32L174.04-8.32Q174.04-6.76 174.78-5.48Q175.52-4.20 176.80-3.44Q178.08-2.68 179.72-2.68L179.72-2.68Q181.76-2.68 183.28-3.88L183.28-3.88L185.20-1.56Z M201.76-2.80Q203.84-2.80 205.80-4.24L205.80-4.24L207.52-1.48Q206.20-0.60 204.66-0.10Q203.12 0.40 201.68 0.40L201.68 0.40Q198.92 0.40 196.86-0.74Q194.80-1.88 193.68-3.88Q192.56-5.88 192.56-8.40L192.56-8.40Q192.56-10.84 193.78-12.86Q195.00-14.88 197.12-16.06Q199.24-17.24 201.76-17.24L201.76-17.24Q205.00-17.24 207.18-15.34Q209.36-13.44 210.16-10.04L210.16-10.04L197.04-5.44Q197.76-4.20 198.98-3.50Q200.20-2.80 201.76-2.80L201.76-2.80ZM201.48-14.28Q199.20-14.28 197.72-12.68Q196.24-11.08 196.24-8.60L196.24-8.60Q196.24-8 196.28-7.68L196.28-7.68L205.92-11.24Q205.32-12.60 204.22-13.44Q203.12-14.28 201.48-14.28L201.48-14.28Z M256.68-17.24Q259.08-17.24 260.50-15.88Q261.92-14.52 262.00-12.28L262.00-12.28L262.00 0L258.28 0L258.28-10.92Q258.16-13.84 255.64-14L255.64-14Q254.20-14 253.06-13.14Q251.92-12.28 251.28-10.88Q250.64-9.48 250.60-7.88L250.60-7.88L250.60 0L246.84 0L246.84-10.92Q246.72-13.84 244.12-14L244.12-14Q242.72-14 241.58-13.14Q240.44-12.28 239.80-10.86Q239.16-9.44 239.16-7.84L239.16-7.84L239.16 0L235.44 0L235.44-16.56L238.80-16.56L239.08-13.44Q240.04-15.24 241.70-16.24Q243.36-17.24 245.48-17.24L245.48-17.24Q247.48-17.24 248.84-16.30Q250.20-15.36 250.60-13.72L250.60-13.72Q251.64-15.36 253.24-16.30Q254.84-17.24 256.68-17.24L256.68-17.24Z M286.00-16.56L289.44-16.56L289.44 0L285.72 0L285.72-2.72Q284.84-1.56 283.16-0.58Q281.48 0.40 279.36 0.40L279.36 0.40Q277.00 0.40 275.10-0.62Q273.20-1.64 272.10-3.60Q271.00-5.56 271.00-8.28L271.00-8.28Q271.00-11 272.14-13.02Q273.28-15.04 275.22-16.14Q277.16-17.24 279.52-17.24L279.52-17.24Q281.64-17.24 283.20-16.32Q284.76-15.40 285.72-13.92L285.72-13.92L286.00-16.56ZM280.36-2.68Q282.40-2.68 283.86-3.82Q285.32-4.96 285.72-6.92L285.72-6.92L285.72-10.20Q285.24-11.96 283.72-13.06Q282.20-14.16 280.24-14.16L280.24-14.16Q278.76-14.16 277.50-13.44Q276.24-12.72 275.50-11.42Q274.76-10.12 274.76-8.48L274.76-8.48Q274.76-6.88 275.52-5.56Q276.28-4.24 277.56-3.46Q278.84-2.68 280.36-2.68L280.36-2.68Z M310.92 0L305.80-7.96L303.64-6.20L303.64 0L299.92 0L299.92-31L303.64-31L303.64-10.08L312.20-16.96L314.48-14.96L308.36-10.04L315.28 0L310.92 0Z M331.00-2.80Q333.08-2.80 335.04-4.24L335.04-4.24L336.76-1.48Q335.44-0.60 333.90-0.10Q332.36 0.40 330.92 0.40L330.92 0.40Q328.16 0.40 326.10-0.74Q324.04-1.88 322.92-3.88Q321.80-5.88 321.80-8.40L321.80-8.40Q321.80-10.84 323.02-12.86Q324.24-14.88 326.36-16.06Q328.48-17.24 331.00-17.24L331.00-17.24Q334.24-17.24 336.42-15.34Q338.60-13.44 339.40-10.04L339.40-10.04L326.28-5.44Q327.00-4.20 328.22-3.50Q329.44-2.80 331.00-2.80L331.00-2.80ZM330.72-14.28Q328.44-14.28 326.96-12.68Q325.48-11.08 325.48-8.60L325.48-8.60Q325.48-8 325.52-7.68L325.52-7.68L335.16-11.24Q334.56-12.60 333.46-13.44Q332.36-14.28 330.72-14.28L330.72-14.28Z M352.72 0.36Q350.88 0.36 349.22-0.28Q347.56-0.92 346.52-2.16L346.52-2.16L348.12-4.32Q349.12-3.36 350.22-2.84Q351.32-2.32 352.40-2.32L352.40-2.32Q353.72-2.32 354.56-2.84Q355.40-3.36 355.40-4.44L355.40-4.44Q355.40-5.28 354.88-5.80Q354.36-6.32 353.70-6.56Q353.04-6.80 351.48-7.28L351.48-7.28Q347.24-8.64 347.24-12.12L347.24-12.12Q347.24-14.20 348.78-15.68Q350.32-17.16 353.08-17.16L353.08-17.16Q354.84-17.16 356.20-16.72Q357.56-16.28 358.72-15.32L358.72-15.32L357.24-13.04Q356.60-13.72 355.62-14.12Q354.64-14.52 353.76-14.56L353.76-14.56Q352.64-14.56 351.84-14.02Q351.04-13.48 351.04-12.56L351.04-12.56Q351.04-11.80 351.56-11.30Q352.08-10.80 352.64-10.58Q353.20-10.36 354.84-9.84L354.84-9.84Q356.88-9.16 358.02-8.08Q359.16-7 359.16-5.16L359.16-5.16Q359.16-2.76 357.48-1.20Q355.80 0.36 352.72 0.36L352.72 0.36Z M385.00-16.56L388.72-16.56L388.72 0L385.00 0L385.00-16.56ZM384.72-22.52Q384.72-23.40 385.40-24Q386.08-24.60 386.96-24.60L386.96-24.60Q387.84-24.60 388.50-24Q389.16-23.40 389.16-22.52L389.16-22.52Q389.16-21.64 388.50-21.04Q387.84-20.44 386.96-20.44L386.96-20.44Q386.08-20.44 385.40-21.04Q384.72-21.64 384.72-22.52L384.72-22.52Z M420.44-17.24Q422.84-17.24 424.26-15.88Q425.68-14.52 425.76-12.28L425.76-12.28L425.76 0L422.04 0L422.04-10.92Q421.92-13.84 419.40-14L419.40-14Q417.96-14 416.82-13.14Q415.68-12.28 415.04-10.88Q414.40-9.48 414.36-7.88L414.36-7.88L414.36 0L410.60 0L410.60-10.92Q410.48-13.84 407.88-14L407.88-14Q406.48-14 405.34-13.14Q404.20-12.28 403.56-10.86Q402.92-9.44 402.92-7.84L402.92-7.84L402.92 0L399.20 0L399.20-16.56L402.56-16.56L402.84-13.44Q403.80-15.24 405.46-16.24Q407.12-17.24 409.24-17.24L409.24-17.24Q411.24-17.24 412.60-16.30Q413.96-15.36 414.36-13.72L414.36-13.72Q415.40-15.36 417.00-16.30Q418.60-17.24 420.44-17.24L420.44-17.24Z M446.68-17.24Q449.00-17.24 450.88-16.12Q452.76-15 453.84-12.98Q454.92-10.96 454.92-8.32L454.92-8.32Q454.92-5.72 453.76-3.74Q452.60-1.76 450.56-0.68Q448.52 0.40 446.00 0.40L446.00 0.40Q444.20 0.40 442.56-0.38Q440.92-1.16 439.92-2.48L439.92-2.48L439.92 7.96L436.20 7.96L436.20-16.84L439.44-16.84L439.76-14.04Q441.04-15.48 442.82-16.36Q444.60-17.24 446.68-17.24L446.68-17.24ZM445.28-2.60Q446.84-2.60 448.18-3.34Q449.52-4.08 450.32-5.38Q451.12-6.68 451.12-8.28L451.12-8.28Q451.12-9.92 450.38-11.24Q449.64-12.56 448.36-13.32Q447.08-14.08 445.52-14.08L445.52-14.08Q443.40-14.08 441.90-12.90Q440.40-11.72 439.92-9.72L439.92-9.72L439.92-6.96Q440.24-5.04 441.74-3.82Q443.24-2.60 445.28-2.60L445.28-2.60Z M462.48-8.44Q462.48-10.88 463.66-12.90Q464.84-14.92 466.94-16.08Q469.04-17.24 471.68-17.24L471.68-17.24Q474.32-17.24 476.38-16.08Q478.44-14.92 479.58-12.92Q480.72-10.92 480.72-8.44L480.72-8.44Q480.72-5.96 479.58-3.94Q478.44-1.92 476.36-0.76Q474.28 0.40 471.60 0.40L471.60 0.40Q469.00 0.40 466.92-0.70Q464.84-1.80 463.66-3.80Q462.48-5.80 462.48-8.44L462.48-8.44ZM466.24-8.40Q466.24-6.84 466.94-5.52Q467.64-4.20 468.86-3.44Q470.08-2.68 471.56-2.68L471.56-2.68Q473.88-2.68 475.40-4.32Q476.92-5.96 476.92-8.40L476.92-8.40Q476.92-10.84 475.40-12.50Q473.88-14.16 471.56-14.16L471.56-14.16Q470.04-14.16 468.84-13.38Q467.64-12.60 466.94-11.28Q466.24-9.96 466.24-8.40L466.24-8.40Z M494.40 0.36Q492.56 0.36 490.90-0.28Q489.24-0.92 488.20-2.16L488.20-2.16L489.80-4.32Q490.80-3.36 491.90-2.84Q493.00-2.32 494.08-2.32L494.08-2.32Q495.40-2.32 496.24-2.84Q497.08-3.36 497.08-4.44L497.08-4.44Q497.08-5.28 496.56-5.80Q496.04-6.32 495.38-6.56Q494.72-6.80 493.16-7.28L493.16-7.28Q488.92-8.64 488.92-12.12L488.92-12.12Q488.92-14.20 490.46-15.68Q492.00-17.16 494.76-17.16L494.76-17.16Q496.52-17.16 497.88-16.72Q499.24-16.28 500.40-15.32L500.40-15.32L498.92-13.04Q498.28-13.72 497.30-14.12Q496.32-14.52 495.44-14.56L495.44-14.56Q494.32-14.56 493.52-14.02Q492.72-13.48 492.72-12.56L492.72-12.56Q492.72-11.80 493.24-11.30Q493.76-10.80 494.32-10.58Q494.88-10.36 496.52-9.84L496.52-9.84Q498.56-9.16 499.70-8.08Q500.84-7 500.84-5.16L500.84-5.16Q500.84-2.76 499.16-1.20Q497.48 0.36 494.40 0.36L494.40 0.36Z M514.72 0.36Q512.88 0.36 511.22-0.28Q509.56-0.92 508.52-2.16L508.52-2.16L510.12-4.32Q511.12-3.36 512.22-2.84Q513.32-2.32 514.40-2.32L514.40-2.32Q515.72-2.32 516.56-2.84Q517.40-3.36 517.40-4.44L517.40-4.44Q517.40-5.28 516.88-5.80Q516.36-6.32 515.70-6.56Q515.04-6.80 513.48-7.28L513.48-7.28Q509.24-8.64 509.24-12.12L509.24-12.12Q509.24-14.20 510.78-15.68Q512.32-17.16 515.08-17.16L515.08-17.16Q516.84-17.16 518.20-16.72Q519.56-16.28 520.72-15.32L520.72-15.32L519.24-13.04Q518.60-13.72 517.62-14.12Q516.64-14.52 515.76-14.56L515.76-14.56Q514.64-14.56 513.84-14.02Q513.04-13.48 513.04-12.56L513.04-12.56Q513.04-11.80 513.56-11.30Q514.08-10.80 514.64-10.58Q515.20-10.36 516.84-9.84L516.84-9.84Q518.88-9.16 520.02-8.08Q521.16-7 521.16-5.16L521.16-5.16Q521.16-2.76 519.48-1.20Q517.80 0.36 514.72 0.36L514.72 0.36Z M530.36-16.56L534.08-16.56L534.08 0L530.36 0L530.36-16.56ZM530.08-22.52Q530.08-23.40 530.76-24Q531.44-24.60 532.32-24.60L532.32-24.60Q533.20-24.60 533.86-24Q534.52-23.40 534.52-22.52L534.52-22.52Q534.52-21.64 533.86-21.04Q533.20-20.44 532.32-20.44L532.32-20.44Q531.44-20.44 530.76-21.04Q530.08-21.64 530.08-22.52L530.08-22.52Z M555.16-17.24Q557.40-17.24 559.26-16.16Q561.12-15.08 562.20-13.12Q563.28-11.16 563.28-8.56L563.28-8.56Q563.28-5.84 562.12-3.80Q560.96-1.76 558.98-0.68Q557.00 0.40 554.68 0.40L554.68 0.40Q552.64 0.40 550.98-0.40Q549.32-1.20 548.28-2.56L548.28-2.56L548.28 0L544.56 0L544.56-31L548.28-31L548.28-14.36Q549.32-15.68 551.14-16.46Q552.96-17.24 555.16-17.24L555.16-17.24ZM553.88-2.80Q556.32-2.80 557.90-4.44Q559.48-6.08 559.48-8.56L559.48-8.56Q559.48-10.16 558.74-11.46Q558.00-12.76 556.72-13.52Q555.44-14.28 553.88-14.28L553.88-14.28Q551.84-14.28 550.30-13.18Q548.76-12.08 548.28-10.28L548.28-10.28L548.28-6.92Q548.76-5.12 550.28-3.96Q551.80-2.80 553.88-2.80L553.88-2.80Z M572.28-31L576.00-31L576.00 0L572.28 0L572.28-31Z M594.24-2.80Q596.32-2.80 598.28-4.24L598.28-4.24L600.00-1.48Q598.68-0.60 597.14-0.10Q595.60 0.40 594.16 0.40L594.16 0.40Q591.40 0.40 589.34-0.74Q587.28-1.88 586.16-3.88Q585.04-5.88 585.04-8.40L585.04-8.40Q585.04-10.84 586.26-12.86Q587.48-14.88 589.60-16.06Q591.72-17.24 594.24-17.24L594.24-17.24Q597.48-17.24 599.66-15.34Q601.84-13.44 602.64-10.04L602.64-10.04L589.52-5.44Q590.24-4.20 591.46-3.50Q592.68-2.80 594.24-2.80L594.24-2.80ZM593.96-14.28Q591.68-14.28 590.20-12.68Q588.72-11.08 588.72-8.60L588.72-8.60Q588.72-8 588.76-7.68L588.76-7.68L598.40-11.24Q597.80-12.60 596.70-13.44Q595.60-14.28 593.96-14.28L593.96-14.28Z M638.40-17.24Q640.72-17.24 642.60-16.12Q644.48-15 645.56-12.98Q646.64-10.96 646.64-8.32L646.64-8.32Q646.64-5.72 645.48-3.74Q644.32-1.76 642.28-0.68Q640.24 0.40 637.72 0.40L637.72 0.40Q635.92 0.40 634.28-0.38Q632.64-1.16 631.64-2.48L631.64-2.48L631.64 7.96L627.92 7.96L627.92-16.84L631.16-16.84L631.48-14.04Q632.76-15.48 634.54-16.36Q636.32-17.24 638.40-17.24L638.40-17.24ZM637.00-2.60Q638.56-2.60 639.90-3.34Q641.24-4.08 642.04-5.38Q642.84-6.68 642.84-8.28L642.84-8.28Q642.84-9.92 642.10-11.24Q641.36-12.56 640.08-13.32Q638.80-14.08 637.24-14.08L637.24-14.08Q635.12-14.08 633.62-12.90Q632.12-11.72 631.64-9.72L631.64-9.72L631.64-6.96Q631.96-5.04 633.46-3.82Q634.96-2.60 637.00-2.60L637.00-2.60Z M654.20-8.44Q654.20-10.88 655.38-12.90Q656.56-14.92 658.66-16.08Q660.76-17.24 663.40-17.24L663.40-17.24Q666.04-17.24 668.10-16.08Q670.16-14.92 671.30-12.92Q672.44-10.92 672.44-8.44L672.44-8.44Q672.44-5.96 671.30-3.94Q670.16-1.92 668.08-0.76Q666.00 0.40 663.32 0.40L663.32 0.40Q660.72 0.40 658.64-0.70Q656.56-1.80 655.38-3.80Q654.20-5.80 654.20-8.44L654.20-8.44ZM657.96-8.40Q657.96-6.84 658.66-5.52Q659.36-4.20 660.58-3.44Q661.80-2.68 663.28-2.68L663.28-2.68Q665.60-2.68 667.12-4.32Q668.64-5.96 668.64-8.40L668.64-8.40Q668.64-10.84 667.12-12.50Q665.60-14.16 663.28-14.16L663.28-14.16Q661.76-14.16 660.56-13.38Q659.36-12.60 658.66-11.28Q657.96-9.96 657.96-8.40L657.96-8.40Z M686.12 0.36Q684.28 0.36 682.62-0.28Q680.96-0.92 679.92-2.16L679.92-2.16L681.52-4.32Q682.52-3.36 683.62-2.84Q684.72-2.32 685.80-2.32L685.80-2.32Q687.12-2.32 687.96-2.84Q688.80-3.36 688.80-4.44L688.80-4.44Q688.80-5.28 688.28-5.80Q687.76-6.32 687.10-6.56Q686.44-6.80 684.88-7.28L684.88-7.28Q680.64-8.64 680.64-12.12L680.64-12.12Q680.64-14.20 682.18-15.68Q683.72-17.16 686.48-17.16L686.48-17.16Q688.24-17.16 689.60-16.72Q690.96-16.28 692.12-15.32L692.12-15.32L690.64-13.04Q690.00-13.72 689.02-14.12Q688.04-14.52 687.16-14.56L687.16-14.56Q686.04-14.56 685.24-14.02Q684.44-13.48 684.44-12.56L684.44-12.56Q684.44-11.80 684.96-11.30Q685.48-10.80 686.04-10.58Q686.60-10.36 688.24-9.84L688.24-9.84Q690.28-9.16 691.42-8.08Q692.56-7 692.56-5.16L692.56-5.16Q692.56-2.76 690.88-1.20Q689.20 0.36 686.12 0.36L686.12 0.36Z M706.44 0.36Q704.60 0.36 702.94-0.28Q701.28-0.92 700.24-2.16L700.24-2.16L701.84-4.32Q702.84-3.36 703.94-2.84Q705.04-2.32 706.12-2.32L706.12-2.32Q707.44-2.32 708.28-2.84Q709.12-3.36 709.12-4.44L709.12-4.44Q709.12-5.28 708.60-5.80Q708.08-6.32 707.42-6.56Q706.76-6.80 705.20-7.28L705.20-7.28Q700.96-8.64 700.96-12.12L700.96-12.12Q700.96-14.20 702.50-15.68Q704.04-17.16 706.80-17.16L706.80-17.16Q708.56-17.16 709.92-16.72Q711.28-16.28 712.44-15.32L712.44-15.32L710.96-13.04Q710.32-13.72 709.34-14.12Q708.36-14.52 707.48-14.56L707.48-14.56Q706.36-14.56 705.56-14.02Q704.76-13.48 704.76-12.56L704.76-12.56Q704.76-11.80 705.28-11.30Q705.80-10.80 706.36-10.58Q706.92-10.36 708.56-9.84L708.56-9.84Q710.60-9.16 711.74-8.08Q712.88-7 712.88-5.16L712.88-5.16Q712.88-2.76 711.20-1.20Q709.52 0.36 706.44 0.36L706.44 0.36Z M722.08-16.56L725.80-16.56L725.80 0L722.08 0L722.08-16.56ZM721.80-22.52Q721.80-23.40 722.48-24Q723.16-24.60 724.04-24.60L724.04-24.60Q724.92-24.60 725.58-24Q726.24-23.40 726.24-22.52L726.24-22.52Q726.24-21.64 725.58-21.04Q724.92-20.44 724.04-20.44L724.04-20.44Q723.16-20.44 722.48-21.04Q721.80-21.64 721.80-22.52L721.80-22.52Z M746.88-17.24Q749.12-17.24 750.98-16.16Q752.84-15.08 753.92-13.12Q755.00-11.16 755.00-8.56L755.00-8.56Q755.00-5.84 753.84-3.80Q752.68-1.76 750.70-0.68Q748.72 0.40 746.40 0.40L746.40 0.40Q744.36 0.40 742.70-0.40Q741.04-1.20 740.00-2.56L740.00-2.56L740.00 0L736.28 0L736.28-31L740.00-31L740.00-14.36Q741.04-15.68 742.86-16.46Q744.68-17.24 746.88-17.24L746.88-17.24ZM745.60-2.80Q748.04-2.80 749.62-4.44Q751.20-6.08 751.20-8.56L751.20-8.56Q751.20-10.16 750.46-11.46Q749.72-12.76 748.44-13.52Q747.16-14.28 745.60-14.28L745.60-14.28Q743.56-14.28 742.02-13.18Q740.48-12.08 740.00-10.28L740.00-10.28L740.00-6.92Q740.48-5.12 742.00-3.96Q743.52-2.80 745.60-2.80L745.60-2.80Z M764.00-31L767.72-31L767.72 0L764.00 0L764.00-31Z M785.96-2.80Q788.04-2.80 790.00-4.24L790.00-4.24L791.72-1.48Q790.40-0.60 788.86-0.10Q787.32 0.40 785.88 0.40L785.88 0.40Q783.12 0.40 781.06-0.74Q779.00-1.88 777.88-3.88Q776.76-5.88 776.76-8.40L776.76-8.40Q776.76-10.84 777.98-12.86Q779.20-14.88 781.32-16.06Q783.44-17.24 785.96-17.24L785.96-17.24Q789.20-17.24 791.38-15.34Q793.56-13.44 794.36-10.04L794.36-10.04L781.24-5.44Q781.96-4.20 783.18-3.50Q784.40-2.80 785.96-2.80L785.96-2.80ZM785.68-14.28Q783.40-14.28 781.92-12.68Q780.44-11.08 780.44-8.60L780.44-8.60Q780.44-8 780.48-7.68L780.48-7.68L790.12-11.24Q789.52-12.60 788.42-13.44Q787.32-14.28 785.68-14.28L785.68-14.28Z"/></g>
</svg>
</g><g opacity="1" transform="rotate(0 93.9918 395.234)">
<svg width="388.091" height="90" x="93.9918" y="395.234" version="1.1" preserveAspectRatio="none" viewBox="1.08 -29.44 165.23999999999998 38.32">
  <g transform="matrix(1 0 0 1 0 0)" class="companyName"><path id="id-D6z1nYkh7" d="M17.60-22.68L10.40-23.20L10.40-13.84L19.32-14.48L19.32-10.28L10.40-10.68L10.40-2.72L15.20-2.04L15.16 0L1.32 0L1.08-1.28Q2.32-2.04 4.32-2.88L4.32-2.88L4.32-23.92L1.36-24.28L1.40-26.32L22.28-26.32Q22.48-22.84 21.64-18.56L21.64-18.56L18.28-18.56L17.60-22.68Z M46.84-3.72L47.20-1.92L42.28 0.64Q41.28 0.60 40.16-0.38Q39.04-1.36 38.52-2.68L38.52-2.68Q34.96-0.20 31.68 0.64L31.68 0.64Q30.44 0.56 29.06-0.20Q27.68-0.96 26.84-2.20L26.84-2.20Q26.28-3.04 26.24-5.92L26.24-5.92L26.24-16.08L23.24-16.44L22.96-18.36Q26.40-19.68 30.08-19.76L30.08-19.76L32.04-18L32.04-7.04Q32.04-3.56 34.60-3.56L34.60-3.56Q36.04-3.56 38.04-4.56L38.04-4.56L38.04-16.12L35.52-16.52L35.24-18.44Q38.20-19.60 41.88-19.76L41.88-19.76L43.84-18L43.84-4.56Q43.84-3.48 44.84-3.48L44.84-3.48L46.84-3.72Z M57.68-14.72L61.68-19.20Q62.64-19.56 63.68-19.56L63.68-19.56Q65.76-19.56 67.04-18.36L67.04-18.36Q66.84-13.96 65.56-10.80L65.56-10.80L62.52-10.80L61.72-15.28Q59.52-13.64 57.68-11.40L57.68-11.40L57.68-3.32Q60.48-2.76 62.00-1.96L62.00-1.96L61.84 0L49.04 0L48.92-1.36Q50.04-2 51.88-2.64L51.88-2.64L51.88-16.08L48.88-16.44L48.60-18.36Q52.04-19.68 55.72-19.76L55.72-19.76L57.68-18L57.68-14.72Z M101.20-13.24L101.20-3.12Q103.16-2.52 104.00-1.96L104.00-1.96L103.84 0L93.28 0L93.16-1.36L95.40-2.40L95.40-11.56Q95.40-15.48 92.80-15.48L92.80-15.48Q91.52-15.48 89.24-14.20L89.24-14.20L89.28-3.08Q90.88-2.52 91.80-1.96L91.80-1.96L91.64 0L81.40 0L81.28-1.36L83.48-2.36L83.48-11.56Q83.48-15.48 80.88-15.48L80.88-15.48Q79.68-15.48 77.36-14.24L77.36-14.24L77.36-3.04Q78.76-2.60 79.80-1.96L79.80-1.96L79.64 0L68.76 0L68.64-1.36Q69.72-1.96 71.56-2.64L71.56-2.64L71.56-16.08L68.56-16.44L68.28-18.36Q71.72-19.68 75.40-19.76L75.40-19.76L77.36-17.84L77.36-16.16Q81.24-19 83.88-19.64L83.88-19.64Q85.16-19.56 86.58-18.84Q88.00-18.12 88.76-16.84L88.76-16.84Q89.00-16.36 89.04-16L89.04-16Q93.08-18.96 95.80-19.64L95.80-19.64Q97.64-19.52 99.24-18.40Q100.84-17.28 101.08-15.52L101.08-15.52L101.20-13.24Z M129.20-3.72L129.56-1.92L124.64 0.64Q123.64 0.60 122.52-0.38Q121.40-1.36 120.88-2.68L120.88-2.68Q117.32-0.20 114.04 0.64L114.04 0.64Q112.80 0.56 111.42-0.20Q110.04-0.96 109.20-2.20L109.20-2.20Q108.64-3.04 108.60-5.92L108.60-5.92L108.60-16.08L105.60-16.44L105.32-18.36Q108.76-19.68 112.44-19.76L112.44-19.76L114.40-18L114.40-7.04Q114.40-3.56 116.96-3.56L116.96-3.56Q118.40-3.56 120.40-4.56L120.40-4.56L120.40-16.12L117.88-16.52L117.60-18.44Q120.56-19.60 124.24-19.76L124.24-19.76L126.20-18L126.20-4.56Q126.20-3.48 127.20-3.48L127.20-3.48L129.20-3.72Z M140.04-27.68L140.04-3.16Q141.92-2.56 142.96-1.96L142.96-1.96L142.80 0L131.32 0L131.20-1.36Q132.40-2.04 134.24-2.68L134.24-2.68L134.24-25.80L131.24-26.12L130.96-28.04Q134.40-29.36 138.08-29.44L138.08-29.44L140.04-27.68Z M166.20-19L166.32-17.24Q165.24-16.60 164.08-16.20L164.08-16.20Q161.68-7.68 159.92-2.96L159.92-2.96Q158.32 0.88 155.80 3.76Q153.28 6.64 149.32 8.88L149.32 8.88L146.24 3.64Q151.52 2.16 154.36-0.20L154.36-0.20Q152.72-0.60 151.36-1.52L151.36-1.52L146.20-15.76L143.48-16.92L143.48-19L154.12-19L154.24-17.24L152.16-16.20L154.44-8.56L154.92-5.08L155.64-5.08Q157.36-10.56 158.20-16.12L158.20-16.12L156.12-16.92L156.16-19L166.20-19Z"/></g>
</svg>
</g><g opacity="1" transform="rotate(0 210.4191 197.7488)">
<svg width="155.2364" height="167.4852" x="210.4191" y="197.7488" version="1.1" preserveAspectRatio="none" viewBox="14.106977462768555 7.99990701675415 100.01828002929688 107.91024780273438">
  <g transform="matrix(1 0 0 1 0 0)" class="icon1"><g><path d="M27.4800415,62.3591309L17.637085,60.59375c-1.6307983-0.2924805-3.1900024,0.7924805-3.4824829,2.4232788   c-0.2924805,1.6308594,0.7924805,3.1900024,2.4232788,3.4825439l9.8429565,1.7653198   c1.6308594,0.2924805,3.1900024-0.7924194,3.4824829-2.4232788S29.1109009,62.6516113,27.4800415,62.3591309z"></path><path d="M31.6791992,41.6102295l-8.0475464-5.9360962c-1.333374-0.9835205-3.2115479-0.6998901-4.1950684,0.6334839   c-0.9835205,1.333313-0.6999512,3.2115479,0.6334229,4.1950684l8.0475464,5.9360352   c1.333374,0.9835205,3.2116089,0.6999512,4.1951294-0.6334229S33.0125732,42.593689,31.6791992,41.6102295z"></path><path d="M39.1011353,30.0401001c0.7161865,1.4940796,2.5079346,2.1246948,4.0020142,1.4085083   c1.4940796-0.7161255,2.1246948-2.5079346,1.4085083-4.0020142L40.18927,18.4290161   c-0.7161865-1.4940796-2.5079346-2.1246948-4.0020142-1.4085083s-2.1246948,2.5079346-1.4085693,4.0020142L39.1011353,30.0401001z"></path><path d="M114.0776367,62.7941284c-0.2924805-1.6307983-1.8515625-2.7157593-3.4824219-2.4232788l-9.8430176,1.7653809   c-1.6308594,0.2924805-2.7158203,1.8516235-2.4233398,3.4824829c0.2926025,1.6308594,1.8518066,2.7157593,3.4825439,2.4232788   l9.8428955-1.7653809C113.2851562,65.9841309,114.3701172,64.4249878,114.0776367,62.7941284z"></path><path d="M100.9335938,45.7246094l7.6943359-6.3873901c1.2747803-1.0583496,1.4503174-2.949707,0.3920898-4.2244873h-0.0001221   c-1.0582275-1.2748413-2.949585-1.4503784-4.2244873-0.3920898l-7.6942139,6.3874512   c-1.2747803,1.0582886-1.4503174,2.949646-0.3919678,4.2244873   C97.7674561,46.6073608,99.6589355,46.7828979,100.9335938,45.7246094z"></path><path d="M90.8022461,17.0205078c-1.4941406-0.7161865-3.2858887-0.0855713-4.0020752,1.4085083l-4.3223877,9.0175781   c-0.7161865,1.4940796-0.0855713,3.2858887,1.4084473,4.0020142c1.4941406,0.7161865,3.2858887,0.0855713,4.0020752-1.4085083   l4.3223877-9.0175781C92.9268799,19.5284424,92.2962646,17.7366943,90.8022461,17.0205078z"></path><path d="M64.0550537,23.999939l0.0135498-0.0001221c1.6314697-0.0128174,2.9437256-1.3455811,2.9312744-2.9770508   l-0.0772705-10.0908813C66.9101562,9.2999268,65.5769043,7.9871826,63.9449463,8l-0.0135498,0.0001221   c-1.6314697,0.0128174-2.9437256,1.3456421-2.9312744,2.9771118l0.0772705,10.0908203   C61.0898438,22.7000122,62.4230957,24.0127563,64.0550537,23.999939z"></path><path d="M89.9931641,56.0185547c-0.2460938-2.0820312-1.5029297-3.8984375-3.3642578-4.8603516   c-1.4432373-0.744751-3.0828857-0.8986206-4.6379395-0.4455566l2.4533691-4.8015137   c1.6738281-3.2773438,0.3759766-7.3183594-2.8935547-9.0078125c-1.5976562-0.8242188-3.4179688-0.9755859-5.1289062-0.4248047   c-0.5174561,0.1664429-1.0012207,0.3974609-1.4533691,0.6740723c-0.0427246-0.4937744-0.1345215-0.9863281-0.2888184-1.4699707   c-0.5439453-1.7060547-1.7207031-3.0986328-3.3115234-3.9199219s-3.4072266-0.9746094-5.1132812-0.4306641   c-0.6379395,0.2033691-1.2316895,0.4953003-1.7685547,0.8640137c-0.2290039-2.1703491-1.5063477-4.1893311-3.5859375-5.2634277   c-3.2841797-1.6933594-7.3369141-0.4042969-9.0341797,2.8798828l-6.1309814,11.8708496   c-2.5136719,1.125061-4.5643921,3.1748657-5.6639404,5.8371582l-4.5224609,10.9492188   c-1.4755859,3.5703125-0.9511719,7.7089844,1.3671875,10.7998047l12.8730469,17.1640625   c0.1289062,0.171875,0.2001953,0.3837891,0.2001953,0.5986328V109.1875c0,2.1357422,1.3486328,4.0332031,3.3554688,4.7226562   c2.6572266,0.9140625,6.9453125,2,12.3232422,2c3.8261719,0,8.2050781-0.5498047,12.9375-2.1025391   c2.0253906-0.6650391,3.3867188-2.5673828,3.3867188-4.734375V91.1679688c0-0.8447266,0.359375-1.6542969,0.9863281-2.2216797   C85.2900391,86.8515625,89.2753906,82.2236328,90,74.6601562V56.9345703   C90,56.7861328,90.0144043,56.1988525,89.9931641,56.0185547z M79.9326172,54.7822266   c0.5234375-1.0185547,1.4140625-1.7724609,2.5058594-2.1220703c1.0917969-0.3466797,2.2548828-0.2519531,3.2724609,0.2753906   c1.2695312,0.6552734,2.1279297,1.8955078,2.2958984,3.3173828C88.0185547,56.3505249,88,56.7861938,88,56.9345703   l0.0002441,1.180542l0.0046387,16.4493408c-0.6552734,6.796875-4.2724609,10.9990234-6.3691406,12.8994141   c-0.0925293,0.0838013-0.1616211,0.1864014-0.2470703,0.2763062c-0.8605957,0.9053955-1.3673096,2.0931396-1.3879395,3.3471069   c-0.0004883,0.0272827-0.0085449,0.0533447-0.0085449,0.0806885v17.9052734c0,1.3007812-0.8076172,2.4394531-2.0097656,2.8339844   c-10.8291016,3.5527344-19.6767578,1.59375-23.9873047,0.1123047c-1.2001953-0.4130859-2.0058594-1.5507812-2.0058594-2.8320312   V87.0322266c0-0.6445312-0.2138672-1.2841797-0.6005859-1.7988281L38.515625,68.0703125   c-1.8964844-2.5292969-2.3251953-5.9160156-1.1191406-8.8369141l4.5224609-10.9492188   c0.5270386-1.2756348,1.3213501-2.3795166,2.3012085-3.2614136c0.8537598-0.7683716,1.8571167-1.3485107,2.9417725-1.7424927   c0.9690552-0.3519287,2.0003052-0.5605469,3.0744019-0.5605469h2.7548828   c1.5683594-0.0003052,3.3052979-0.0006714,5.0500488-0.0010986c0.0408936,0,0.0817871-0.000061,0.1225586-0.000061   c0.7133789-0.0001831,1.425293-0.0003662,2.1291504-0.0005493c0.0407715,0,0.0819092-0.000061,0.1226807-0.000061   c0.6055908-0.0001831,1.2003174-0.0003662,1.7828369-0.0005493l-0.6730957,1.2913818   c-0.2724609,0.5214844-0.2529297,1.1337891,0.0527344,1.6367188c0.3046875,0.5029297,0.8378906,0.8037109,1.4267578,0.8037109   h6.0195312c0.0142822,0,0.0279541-0.0031738,0.0422363-0.0032959c-0.0722656,0.1625977-0.1494141,0.322998-0.2348633,0.4794312   c-0.0068359,0.0126343-0.0128174,0.0257568-0.0197754,0.0383911c-0.310791,0.5608521-0.7055664,1.0792847-1.1782227,1.5391846   c-1.265625,1.2324219-2.9335938,1.9140625-4.7089844,1.8720703l-4.6279297-0.0410156   c-1.003418,0.0117188-1.9390869,0.5040283-2.501709,1.3301392c-0.0483398,0.071106-0.1120605,0.1278076-0.154541,0.2040405   l-2.7597656,4.9475708l-0.2802734,0.5026245c-0.4567871,0.8192139-0.5078125,1.782959-0.1396484,2.6456909   c0.0008545,0.0021362,0.0009766,0.0045166,0.0019531,0.0066528c0.1696777,0.3953857,0.4226074,0.7339478,0.7268066,1.0142212   c0.2659912,0.2451782,0.5789795,0.4299927,0.921875,0.5644531c0.1131592,0.0443726,0.2207031,0.0995483,0.3405762,0.1303101   c0.0404053,0.0103149,1.3110352,0.3478394,3.0290527,1.0740356c0.298584,0.1262207,0.6120605,0.2662354,0.9335938,0.4162598   c0.2963867,0.1383667,0.5999756,0.2868042,0.9093018,0.4459839c0.972168,0.5002441,1.9893799,1.1047974,2.956665,1.821228   c0.2816162,0.2086182,0.5583496,0.4265747,0.8286133,0.6544189c0.1029053,0.0866699,0.2041016,0.1750488,0.3049316,0.2645264   c0.1789551,0.1591187,0.3540039,0.3226929,0.5251465,0.4908447c0.1850586,0.1818848,0.3642578,0.3694458,0.5380859,0.5620117   c0.4453125,0.492981,0.8527832,1.0192261,1.2025146,1.5840454c0.192749,0.3112793,0.3641357,0.6361084,0.5201416,0.9697876   c0.1428223,0.3053589,0.2745361,0.6170044,0.3823242,0.9414673c0.3144531,0.9476929,0.4714355,1.9772949,0.4174805,3.09375   v7.7294922c0,0.5527344,0.4472656,1,1,1s1-0.4472656,1-1l-0.0001221-1.1806641l-0.0008545-6.5   c0.0722656-1.4949951-0.159668-2.8475952-0.5992432-4.0760498c0.1982422-0.1812744,0.3883057-0.3745728,0.5484619-0.600708   l0.409668-0.5776367c0.4412842-0.0496216,0.8812256-0.1273193,1.3139648-0.2661133   c0.427002-0.1372681,0.8339844-0.3141479,1.2174072-0.5270386c0.0528564,0.8146973,0.2628174,1.6096802,0.616333,2.3421631   l-0.4128418,1.1604614c-0.5330811,1.4918823-0.074707,3.1222534,1.0510254,4.1525269   c0.2456055,0.2247925,0.5119629,0.4308472,0.8190918,0.5896606c0.5605469,0.2890625,1.1660156,0.4277344,1.765625,0.4277344   c1.2246094,0,2.4257812-0.578125,3.1708984-1.6289062l0.9967041-1.4057007   c0.0606689-0.0175171,0.1226807-0.0241699,0.1829834-0.0435181c1.6035156-0.5136719,2.9091797-1.6230469,3.6767578-3.1210938   l2.2402344-4.3720703c0.2519531-0.4912109,0.0576172-1.09375-0.4335938-1.3457031   c-0.4921875-0.2519531-1.0947266-0.0576172-1.3457031,0.4335938l-2.2402344,4.3720703   c-0.2299805,0.4494019-0.5415039,0.8362427-0.8994141,1.1708984c-0.0131836-0.1436157-0.0222168-0.2875977-0.0566406-0.4296875   c-0.2021484-0.828125-0.7519531-1.5273438-1.5097656-1.9189453l-0.1442871-0.074585l-2.1896973-1.1314697   c-0.7568359-0.3896484-1.6425781-0.4345703-2.4306641-0.1230469c-0.3220215,0.1269531-0.6051025,0.3196411-0.8590088,0.5439453   c-0.0003662-0.6607666,0.1331787-1.3295288,0.4556885-1.9560547l0.0720215-0.1400146   c0.0593262-0.1025391,0.1226807-0.2019653,0.177002-0.3082275l2.4703369-4.8347168L79.9326172,54.7822266z M64.4667969,42.6923828   h5.8754883h0.6757812H71.03125h0.4134521h0.1343994c-0.0234375,0.0612183-0.0560303,0.1170044-0.0836182,0.1757812   c-0.1988525,0.4232178-0.4974365,0.7827759-0.8658447,1.0507812c-0.1049805,0.076355-0.215332,0.1444092-0.3300781,0.2053833   c-0.0102539,0.0054932-0.0197754,0.0122681-0.0301514,0.0176392c-0.2103271,0.1083984-0.4354248,0.1859741-0.6690674,0.2372437   c-0.1877441,0.0412598-0.3792725,0.0700073-0.5759277,0.0700073h-5.4726562l0.9024658-1.7327271L64.4667969,42.6923828z    M61.956543,62.7718506c-0.4865723-0.2980957-0.9726562-0.5735474-1.449707-0.8238525l0.2554932-0.3604736   c0.4200439-0.09198,0.8331299-0.2112427,1.2281494-0.3811035C61.9176025,61.7294312,61.9064941,62.2542725,61.956543,62.7718506z    M55.171875,58.3173828c0.072876-0.2062988,0.2230225-0.3580933,0.4050293-0.4689331   c0.0471191-0.0287476,0.0841064-0.0699463,0.1369629-0.0906372c0.2548828-0.1015625,0.5332031-0.0898438,0.7783203,0.0390625   l2.3339844,1.2060547c0.2470703,0.1269531,0.4189453,0.3457031,0.484375,0.6142578   c0.0097656,0.0402832-0.0012207,0.0795288,0.0031738,0.119812c0.0258789,0.229248-0.0144043,0.4570312-0.1506348,0.6497192   l-0.4858398,0.6852417c-1.9963379-0.8703003-3.5379639-1.2810059-3.7270508-1.3297729   c-0.0959473-0.0245361-0.1774902-0.0610352-0.2493896-0.1029663L55.171875,58.3173828z M61.2764893,59.3161011   c-0.010376-0.0570679-0.0087891-0.1148071-0.022583-0.1715698c-0.2021484-0.828125-0.7519531-1.5273438-1.5097656-1.9189453   l-2.3339844-1.2060547c-0.5056152-0.2609863-1.0712891-0.3531494-1.6281738-0.300293l1.6047363-2.8774414   c0.1787109-0.3203125,0.5585938-0.5097656,0.8867188-0.5078125L62.9013672,52.375   c1.201416,0.0200806,2.3781738-0.2191772,3.4665527-0.6791382l-2.8493652,5.5170288   C63.0146484,58.1887817,62.206665,58.8947754,61.2764893,59.3161011z M64.6789551,64.6680908l0.3083496-0.8653564   c0.0917969-0.2597656,0.2851562-0.4589844,0.5419922-0.5595703c0.1132812-0.0449219,0.2304688-0.0673828,0.3466797-0.0673828   c0.1484375,0,0.2949219,0.0351562,0.4316406,0.1064453l2.3339844,1.2050781   c0.2470703,0.1269531,0.4189453,0.3457031,0.484375,0.6152344s0.0126953,0.5419922-0.1474609,0.7685547l-0.6824951,0.9625854   l-0.8304443,1.1711426c-0.4416504-0.7300415-0.9589844-1.4037476-1.5281982-2.0250244   c-0.3537598-0.3861694-0.7259521-0.7527466-1.1134033-1.0986328c-0.0556641-0.0496826-0.1126709-0.097229-0.1689453-0.1461182   L64.6789551,64.6680908z M78.5927734,70.1601562c0.2470703,0.1269531,0.4189453,0.3457031,0.484375,0.6142578   c0.0654297,0.2695312,0.0126953,0.5429688-0.1474609,0.7695312l-0.2188721,0.3087158l-1.4051514,1.9816284l-0.0371094,0.0524292   c-0.5371094,0.7568359-1.5615234,1.0087891-2.3876953,0.5800781c-0.1704102-0.0881348-0.3171387-0.2044678-0.4481201-0.3339233   c-0.4827881-0.4770508-0.680542-1.1899414-0.4813232-1.861084c0.0097656-0.0325317,0.0136719-0.0656738,0.0251465-0.0979614   l0.7299805-2.0519409l0.2299805-0.6463013c0.09375-0.2607422,0.2861328-0.4599609,0.5429688-0.5615234   c0.1132812-0.0439453,0.2314453-0.0664062,0.3476562-0.0664062c0.1474609,0,0.2949219,0.0351562,0.4316406,0.1064453   l1.7810059,0.9202881L78.5927734,70.1601562z M77.0341797,38.3818359c0.4746094-0.1523438,0.9619141-0.2275391,1.4462891-0.2275391   c0.7402344,0,1.4755859,0.1767578,2.1523438,0.5263672c2.2939453,1.1855469,3.2050781,4.0205078,2.0302734,6.3203125   L75.1906738,59.624939l-2.46875,4.7966309c-0.411377,0.7416382-0.9990234,1.3469849-1.7167969,1.7679443   c0.1552734-0.5019531,0.190918-1.0374756,0.064209-1.5596313c-0.2021484-0.8291016-0.7519531-1.5283203-1.5097656-1.9199219   l-2.3339844-1.2050781c-0.7529297-0.3886719-1.640625-0.4345703-2.4306641-0.1220703   c-0.322998,0.1271973-0.6064453,0.3201904-0.8605957,0.5449219c0.0283203-0.6525269,0.1824951-1.3081055,0.498291-1.9257812   l7.4104004-14.5021362c0.7071533-0.5258179,1.2766113-1.2392578,1.6032715-2.0916138   c0.1462402-0.3804932,0.1560059-0.7871704,0.0649414-1.1728516l0.5222168-1.0219116l0.2155762-0.4175415   c0.0070801-0.0136719,0.012085-0.0280151,0.019043-0.041748l0.0170898-0.0334473   C74.8583984,39.5986328,75.8349609,38.7675781,77.0341797,38.3818359z M66.8623047,33.2373047   c1.1992188-0.3818359,2.4726562-0.2744141,3.5878906,0.3027344c1.1171875,0.5761719,1.9423828,1.5527344,2.3242188,2.75   c0.3786621,1.1904297,0.2736816,2.4564819-0.2949219,3.5681763l-0.215332,0.4216309l-0.2412109,0.4669189   c-0.1444092-0.032959-0.2924805-0.0543823-0.4438477-0.0543823h-7.71875c-0.0606689,0-0.1184082,0.0137939-0.1767578,0.0244141   c-0.7145996,0.0003052-1.4643555,0.0006104-2.2348633,0.0008545l2.6635742-5.1571045   C64.6884766,34.4443359,65.6650391,33.6191406,66.8623047,33.2373047z M53.6435547,30.7304688   c1.1894531-2.3037109,4.0332031-3.2109375,6.3388672-2.0205078c2.3046875,1.1894531,3.2109375,4.0332031,2.0205078,6.3378906   l-2.9287109,5.6704712c-2.0859375,0.0005493-4.204834,0.0010376-6.0830078,0.0014038h-2.7548828   c-0.6225586,0-1.2341309,0.0568848-1.8331299,0.1572266L53.6435547,30.7304688z"></path></g></g>
</svg>
</g></svg></svg>