<svg version="1.1" preserveAspectRatio="none" xmlns="http://www.w3.org/2000/svg" width="500" height="500" viewBox="0 0 500 500"><rect width="100%" height="100%" fill="#BFD9D7" fill-opacity="1"/><svg viewBox="74.7036 247.1292 451.3704 243.6107" width="333" height="179.72459669486526" x="83.5px" y="160.1377px" xmlns="http://www.w3.org/2000/svg" xmlns:xlink="http://www.w3.org/1999/xlink" preserveAspectRatio="none"><defs></defs><style>.companyName {fill:#353745;fill-opacity:1;}.icon1 {fill:#AE9152;fill-opacity:1;}.icon2 {fill:#DDBB4D;fill-opacity:1;}.icon3 {fill:#987239;fill-opacity:1;}.icon3-str {stroke:#987239;stroke-opacity:1;}.text {fill:#353745;fill-opacity:1;}</style><g opacity="1" transform="rotate(0 245.8351 247.1292)">
<svg width="109.1075" height="100.8107" x="245.8351" y="247.1292" version="1.1" preserveAspectRatio="none" viewBox="689.3812866210938 2919.993408203125 58619.234375 54161.609375">
  <g transform="matrix(1 0 0 1 0 0)" class="icon1"><defs></defs><g><path class="fil0" d="M23140 52238l2797 -27805c-482,-229 -883,-505 -1178,-814 -377,-396 -588,-848 -588,-1335 0,-851 644,-1595 1685,-2111 456,-226 993,-410 1586,-542l0 -1786c0,-138 68,-260 172,-332 493,-372 1203,-581 1937,-581 683,0 1398,181 1988,580 113,76 174,203 175,333l2 0 0 1794c580,131 1105,313 1553,535 1041,516 1685,1260 1685,2111 0,466 -193,900 -540,1284 -299,330 -715,623 -1219,863l2735 27184c895,420 1511,1186 2161,1995 77,96 154,192 233,289 79,-96 156,-193 233,-289 1005,-1251 1928,-2400 3929,-2324 2025,-77 2947,1101 3941,2370 68,87 136,174 206,261 84,-103 166,-205 248,-307 1005,-1251 1928,-2400 3929,-2324 2025,-77 2947,1101 3941,2370 942,1203 1956,2497 4191,2626 214,12 378,200 366,420 -12,220 -195,389 -409,377 -2580,-148 -3707,-1587 -4753,-2923 -869,-1110 -1676,-2140 -3321,-2073 -10,0 -21,0 -31,0 -1626,-66 -2435,940 -3315,2036 -110,137 -221,275 -335,413 791,887 1783,1652 3473,1749 214,12 378,200 366,420 -12,220 -195,389 -409,377 -1950,-112 -3069,-961 -3951,-1945 -912,983 -2080,1831 -4108,1945 -16,1 -33,2 -50,1 -2052,-113 -3225,-976 -4142,-1972 -916,994 -2087,1856 -4132,1971 -16,1 -33,2 -50,1 -2052,-113 -3225,-976 -4142,-1972 -916,994 -2087,1856 -4132,1971 -16,1 -33,2 -50,1 -2052,-113 -3225,-976 -4142,-1972 -916,994 -2087,1856 -4132,1971 -16,1 -33,2 -50,1 -2034,-112 -3205,-961 -4118,-1945 -882,985 -2002,1833 -3951,1945 -214,12 -397,-157 -409,-377 -12,-220 152,-408 366,-420 1690,-97 2682,-862 3473,-1749 -114,-138 -225,-276 -335,-413 -880,-1096 -1689,-2102 -3315,-2036 -10,0 -21,0 -31,0 -1645,-67 -2452,963 -3321,2073 -1046,1336 -2173,2774 -4753,2923 -214,12 -397,-157 -409,-377 -12,-220 152,-408 366,-420 2235,-128 3249,-1423 4191,-2626 994,-1269 1917,-2447 3941,-2370 2001,-76 2924,1073 3929,2324 82,102 164,205 248,307 69,-87 138,-175 206,-261 994,-1269 1917,-2447 3941,-2370 2001,-76 2924,1073 3929,2324 77,96 154,192 233,289 79,-96 156,-193 233,-289 399,-497 785,-977 1231,-1372zm11984 -885l-2789 -27723c-68,-674 -369,-1164 -797,-1495 -523,-404 -1240,-585 -1969,-581l-3 0c-729,-4 -1446,177 -1969,581 -325,251 -577,593 -709,1038l917 48c80,4 142,75 138,157 -4,83 -72,146 -153,142l-969 -51c-9,52 -16,106 -21,161l-45 451c24,83 22,174 -11,261 -6,15 -12,29 -20,43l-47 466 1092 52c84,4 148,76 145,162 -4,86 -74,153 -158,149l-1110 -53 -138 1370 1225 53c87,4 155,79 151,168 -3,89 -77,159 -164,156l-1245 -54 -137 1357 1358 54c90,3 161,81 158,174 -3,93 -79,165 -169,162l-1380 -55 -135 1345 1492 54c94,3 167,84 164,180 -3,96 -82,172 -176,168l-1515 -55 -134 1333 1625 55c97,3 173,87 170,186 -3,100 -84,178 -181,175l-1651 -56 -133 1320 1759 56c100,3 179,89 177,192 -3,103 -86,184 -187,182l-1786 -57 -132 1308 1892 56c104,3 185,92 183,198 -3,107 -89,191 -193,188l-1921 -57 -130 1296 2026 57c107,3 192,94 189,204 -3,110 -91,197 -198,195l-2056 -57 -129 1283 2159 57c110,3 198,97 195,210 -3,113 -94,203 -205,201l-2191 -58 -128 1271 2293 57c114,3 204,100 201,217 -3,117 -97,209 -211,207l-2326 -58 -127 1258 2426 58c117,2 210,102 208,222 -2,120 -99,216 -216,214l-2462 -58 -125 1246 2560 58c120,2 216,105 214,229 -2,124 -102,222 -222,220l-2597 -59 -124 1233 2694 58c124,2 222,108 220,235 -2,127 -105,228 -228,226l-2731 -59 -123 1221 2828 58c127,3 228,111 226,241 -2,131 -108,234 -235,232l-2866 -59 -122 1209 2961 59c130,2 234,113 232,247 -2,134 -109,241 -240,239l-3002 -59 -120 1196 3095 59c134,2 240,115 238,253 -2,138 -112,247 -246,245l-3137 -60 -111 1101c509,-257 1108,-402 1860,-373 848,-32 1502,156 2051,478l761 -6353c40,-333 215,-573 464,-735 243,-157 556,-228 866,-227 310,-1 623,70 866,227 249,161 424,402 464,735l764 6376c557,-336 1222,-534 2089,-501 352,-13 670,11 961,68zm-6516 949c416,382 782,837 1160,1307 77,96 154,192 233,289 79,-96 156,-193 233,-289 366,-456 722,-898 1122,-1273l0 -4 -818 -6826c-8,-68 -48,-119 -105,-156 -113,-73 -278,-106 -451,-105l-3 0c-173,-1 -338,32 -451,105 -57,37 -97,89 -105,156l-812 6777c-1,6 -2,12 -2,18zm-14720 2221c820,888 1859,1655 3626,1757 1779,-103 2820,-880 3643,-1775 -106,-129 -209,-258 -312,-386 -880,-1096 -1689,-2102 -3315,-2036 -10,0 -21,0 -31,0 -1645,-67 -2452,963 -3321,2073 -95,122 -192,245 -289,367zm8620 -404c-103,128 -206,257 -312,386 822,896 1863,1672 3643,1775 1779,-103 2820,-880 3643,-1775 -106,-129 -209,-258 -312,-386 -880,-1096 -1689,-2102 -3315,-2036 -10,0 -21,0 -31,0 -1626,-66 -2435,940 -3315,2036zm8012 386c822,896 1863,1672 3643,1775 1779,-103 2820,-880 3643,-1775 -106,-129 -209,-258 -312,-386 -880,-1096 -1689,-2102 -3315,-2036 -10,0 -21,0 -31,0 -1626,-66 -2435,940 -3315,2036 -103,128 -206,257 -312,386zm8636 -386c-103,128 -206,257 -312,386 822,896 1863,1672 3643,1775 1767,-102 2806,-869 3626,-1757 -98,-123 -194,-245 -289,-367 -869,-1110 -1676,-2140 -3321,-2073 -10,0 -21,0 -31,0 -1626,-66 -2435,940 -3315,2036zm-6606 -48792c29,-134 158,-219 289,-189 131,30 213,163 184,297l-930 4287c-29,134 -158,219 -289,189 -131,-30 -213,-163 -184,-297l930 -4287zm6042 3301c91,-101 244,-108 343,-15 99,93 105,251 14,353l-2890 3235c-91,101 -244,108 -343,15 -99,-93 -105,-251 -14,-353l2890 -3235zm3627 5966c128,-41 264,32 304,164 40,132 -32,272 -160,313l-4076 1315c-128,41 -264,-32 -304,-164 -40,-132 32,-272 160,-313l4076 -1315zm239 7032c131,30 213,163 184,297 -29,134 -158,219 -289,189l-4169 -956c-131,-30 -213,-163 -184,-297 29,-134 158,-219 289,-189l4169 956zm-3210 6212c99,93 105,251 14,353 -91,101 -244,108 -343,15l-3146 -2972c-99,-93 -105,-251 -14,-353 91,-101 244,-108 343,-15l3146 2972zm-18682 674c-91,101 -244,108 -343,15 -99,-93 -105,-251 -14,-353l2890 -3235c91,-101 244,-108 343,-15 99,93 105,251 14,353l-2890 3235zm-3627 -5966c-128,41 -264,-32 -304,-164 -40,-132 32,-272 160,-313l4076 -1315c128,-41 264,32 304,164 40,132 -32,272 -160,313l-4076 1315zm-239 -7032c-131,-30 -213,-163 -184,-297 29,-134 158,-219 289,-189l4169 956c131,30 213,163 184,297 -29,134 -158,219 -289,189l-4169 -956zm3210 -6212c-99,-93 -105,-251 -14,-353 91,-101 244,-108 343,-15l3146 2972c99,93 105,251 14,353 -91,101 -244,108 -343,15l-3146 -2972zm5802 -3730c-40,-132 32,-272 160,-313 128,-41 264,32 304,164l1279 4191c40,132 -32,272 -160,313 -128,41 -264,-32 -304,-164l-1279 -4191zm11097 -489c66,-120 214,-163 331,-96 117,67 159,220 93,340l-1242 2269c-66,120 -214,163 -331,96 -117,-67 -159,-220 -93,-340l1242 -2269zm-2323 4242c66,-120 214,-163 331,-96 117,67 159,220 93,340l-1394 2546c-66,120 -214,163 -331,96 -117,-67 -159,-220 -93,-340l1394 -2546zm7913 1281c115,-70 264,-31 332,88 68,119 30,272 -85,342l-2179 1326c-115,70 -264,31 -332,-88 -68,-119 -30,-272 85,-342l2179 -1326zm-4075 2480c115,-70 264,-31 332,88 68,119 30,272 -85,342l-2445 1488c-115,70 -264,31 -332,-88 -68,-119 -30,-272 85,-342l2445 -1488zm6229 5178c134,-1 243,110 244,247 1,138 -107,250 -240,251l-2532 28c-134,1 -243,-110 -244,-247 -1,-138 107,-250 240,-251l2532 -28zm-4735 53c134,-1 243,110 244,247 1,138 -107,250 -240,251l-2841 32c-134,1 -243,-110 -244,-247 -1,-138 107,-250 240,-251l2841 -32zm2876 7686c117,67 159,220 93,340 -66,120 -214,163 -331,96l-2206 -1277c-117,-67 -159,-220 -93,-340 66,-120 214,-163 331,-96l2206 1277zm-4126 -2388c117,67 159,220 93,340 -66,120 -214,163 -331,96l-2476 -1433c-117,-67 -159,-220 -93,-340 66,-120 214,-163 331,-96l2476 1433zm-21810 2916c-115,70 -264,31 -332,-88 -68,-119 -30,-272 85,-342l2179 -1326c115,-70 264,-31 332,88 68,119 30,272 -85,342l-2179 1326zm4075 -2480c-115,70 -264,31 -332,-88 -68,-119 -30,-272 85,-342l2445 -1488c115,-70 264,-31 332,88 68,119 30,272 -85,342l-2445 1488zm-6229 -5178c-134,1 -243,-110 -244,-247 -1,-138 107,-250 240,-251l2532 -28c134,-1 243,110 244,247 1,138 -107,250 -240,251l-2532 28zm4735 -53c-134,1 -243,-110 -244,-247 -1,-138 107,-250 240,-251l2841 -32c134,-1 243,110 244,247 1,138 -107,250 -240,251l-2841 32zm-2875 -7686c-117,-67 -159,-220 -93,-340 66,-120 214,-163 331,-96l2206 1277c117,67 159,220 93,340 -66,120 -214,163 -331,96l-2206 -1277zm4126 2388c-117,-67 -159,-220 -93,-340 66,-120 214,-163 331,-96l2476 1433c117,67 159,220 93,340 -66,120 -214,163 -331,96l-2476 -1433zm1246 -8136c-68,-119 -30,-272 85,-342 115,-70 264,-31 332,88l1290 2240c68,119 30,272 -85,342 -115,70 -264,31 -332,-88l-1290 -2240zm2412 4190c-68,-119 -30,-272 85,-342 115,-70 264,-31 332,88l1447 2514c68,119 30,272 -85,342 -115,70 -264,31 -332,-88l-1447 -2514zm5036 -6405c-1,-138 107,-250 240,-251 134,-1 243,110 244,247l28 2603c1,138 -107,250 -240,251 -134,1 -243,-110 -244,-247l-28 -2603zm51 4868c-1,-138 107,-250 240,-251 134,-1 243,110 244,247l31 2921c1,138 -107,250 -240,251 -134,1 -243,-110 -244,-247l-31 -2921zm-157 7516l0 -3031c0,-221 174,-400 389,-400 215,0 389,179 389,400l0 3034c776,62 1559,302 2222,750 179,121 228,368 111,552 -117,184 -358,235 -536,114 -644,-435 -1440,-633 -2211,-633 -821,0 -1598,223 -2116,620 -172,132 -416,96 -544,-81 -128,-177 -93,-427 79,-559 569,-437 1367,-706 2217,-767zm-957 3938c429,-57 879,-87 1342,-87 475,0 936,32 1375,92l0 -1429c-419,-231 -909,-337 -1386,-337 -501,0 -978,117 -1331,327l0 1435zm-2198 4092l4 -38c92,-919 510,-1592 1104,-2051 666,-514 1550,-745 2436,-740 885,-4 1770,226 2436,740 595,459 1012,1132 1104,2051l3 33c304,-168 553,-356 736,-558 212,-234 330,-485 330,-740 0,-517 -476,-1011 -1245,-1392 -855,-423 -2045,-685 -3368,-685 -1324,0 -2514,262 -3368,685 -769,381 -1245,875 -1245,1392 0,268 130,531 363,776 182,191 422,369 710,527zm2793 937c8,-138 124,-242 257,-233 134,9 235,127 227,265l-198 3114 2178 38c134,2 240,115 238,253 -2,138 -112,247 -246,245l-2419 -42c-9,0 -17,0 -26,0 -134,-9 -235,-127 -227,-265l215 -3375zm1306 -101l951 0c134,0 243,112 243,250 0,4 0,8 0,12l71 2188c4,138 -101,253 -235,257l-8 0 0 1 -1104 0c-134,0 -243,-112 -243,-250 0,-10 1,-20 2,-30l81 -2187c5,-135 112,-240 242,-240l0 -1zm717 500l-483 0 -63 1708 602 0 -55 -1708zm-1960 5387c8,-138 124,-242 257,-233 134,9 235,127 227,265l-236 3714 2611 45c134,2 240,115 238,253 -2,138 -112,247 -246,245l-2851 -49c-9,0 -17,0 -26,0 -134,-9 -235,-127 -227,-265l253 -3974zm1495 -78l1120 0c134,0 243,112 243,250 0,4 0,8 0,12l84 2580c4,138 -101,253 -235,257l-8 0 0 1 -1300 0c-134,0 -243,-112 -243,-250 0,-10 1,-20 2,-30l96 -2579c5,-135 112,-240 242,-240l0 -1zm885 500l-652 0 -78 2100 798 0 -68 -2100z"></path></g></g>
</svg>
</g><g opacity="1" transform="rotate(0 74.7036 467.9399)">
<svg width="451.3704" height="22.8" x="74.7036" y="467.9399" version="1.1" preserveAspectRatio="none" viewBox="3.5352 -30 754.3664 38.125">
  <g transform="matrix(1 0 0 1 0 0)" class="text"><path id="id-6izo4zJp38" d="M21.09 0L14.22-11.84L5.96-11.84L5.96 0L3.54 0L3.54-28.44L12.77-28.44Q17.32-28.44 19.88-26.23Q22.44-24.02 22.44-20.06L22.44-20.06Q22.44-17.32 20.84-15.23Q19.24-13.14 16.54-12.34L16.54-12.34L23.65-0.25L23.65 0L21.09 0ZM5.96-26.39L5.96-13.89L13.32-13.89Q16.35-13.89 18.18-15.61Q20.02-17.32 20.02-20.06L20.02-20.06Q20.02-23.07 18.11-24.73Q16.19-26.39 12.73-26.39L12.73-26.39L5.96-26.39Z M39.02 0.39L39.02 0.39Q36.33 0.39 34.15-0.94Q31.97-2.27 30.76-4.64Q29.55-7.01 29.55-9.96L29.55-9.96L29.55-10.80Q29.55-13.85 30.73-16.29Q31.91-18.73 34.02-20.13Q36.13-21.52 38.59-21.52L38.59-21.52Q42.44-21.52 44.69-18.90Q46.95-16.27 46.95-11.72L46.95-11.72L46.95-10.41L31.87-10.41L31.87-9.96Q31.87-6.37 33.93-3.97Q35.99-1.58 39.12-1.58L39.12-1.58Q40.99-1.58 42.43-2.27Q43.86-2.95 45.04-4.45L45.04-4.45L46.50-3.34Q43.92 0.39 39.02 0.39ZM38.59-19.53L38.59-19.53Q35.95-19.53 34.15-17.60Q32.34-15.66 31.95-12.40L31.95-12.40L44.63-12.40L44.63-12.66Q44.53-15.70 42.89-17.62Q41.25-19.53 38.59-19.53Z M66.56-5.37L66.56-5.37Q66.56-7.11 65.16-8.16Q63.76-9.22 60.95-9.81Q58.14-10.41 56.59-11.18Q55.03-11.95 54.28-13.07Q53.53-14.18 53.53-15.76L53.53-15.76Q53.53-18.26 55.62-19.89Q57.71-21.52 60.97-21.52L60.97-21.52Q64.51-21.52 66.65-19.78Q68.78-18.03 68.78-15.21L68.78-15.21L66.44-15.21Q66.44-17.07 64.89-18.30Q63.34-19.53 60.97-19.53L60.97-19.53Q58.67-19.53 57.27-18.51Q55.87-17.48 55.87-15.84L55.87-15.84Q55.87-14.26 57.04-13.39Q58.20-12.52 61.27-11.80Q64.35-11.07 65.88-10.25Q67.42-9.43 68.16-8.28Q68.90-7.13 68.90-5.49L68.90-5.49Q68.90-2.81 66.74-1.21Q64.59 0.39 61.11 0.39L61.11 0.39Q57.42 0.39 55.12-1.40Q52.83-3.18 52.83-5.92L52.83-5.92L55.17-5.92Q55.31-3.87 56.90-2.72Q58.49-1.58 61.11-1.58L61.11-1.58Q63.55-1.58 65.05-2.66Q66.56-3.73 66.56-5.37Z M79.17-21.13L79.17 0L76.83 0L76.83-21.13L79.17-21.13ZM76.42-27.25L76.42-27.25Q76.42-27.91 76.85-28.37Q77.28-28.83 78.02-28.83Q78.76-28.83 79.20-28.37Q79.64-27.91 79.64-27.25Q79.64-26.58 79.20-26.13Q78.76-25.68 78.02-25.68Q77.28-25.68 76.85-26.13Q76.42-26.58 76.42-27.25Z M90.54-30L90.54 0L88.19 0L88.19-30L90.54-30Z M101.90-21.13L101.90 0L99.56 0L99.56-21.13L101.90-21.13ZM99.15-27.25L99.15-27.25Q99.15-27.91 99.58-28.37Q100.01-28.83 100.75-28.83Q101.49-28.83 101.93-28.37Q102.37-27.91 102.37-27.25Q102.37-26.58 101.93-26.13Q101.49-25.68 100.75-25.68Q100.01-25.68 99.58-26.13Q99.15-26.58 99.15-27.25Z M118.83 0.39L118.83 0.39Q116.14 0.39 113.96-0.94Q111.78-2.27 110.57-4.64Q109.36-7.01 109.36-9.96L109.36-9.96L109.36-10.80Q109.36-13.85 110.54-16.29Q111.72-18.73 113.83-20.13Q115.94-21.52 118.40-21.52L118.40-21.52Q122.25-21.52 124.51-18.90Q126.76-16.27 126.76-11.72L126.76-11.72L126.76-10.41L111.69-10.41L111.69-9.96Q111.69-6.37 113.75-3.97Q115.81-1.58 118.93-1.58L118.93-1.58Q120.81-1.58 122.24-2.27Q123.68-2.95 124.85-4.45L124.85-4.45L126.31-3.34Q123.74 0.39 118.83 0.39ZM118.40-19.53L118.40-19.53Q115.77-19.53 113.96-17.60Q112.15-15.66 111.76-12.40L111.76-12.40L124.44-12.40L124.44-12.66Q124.34-15.70 122.70-17.62Q121.06-19.53 118.40-19.53Z M133.71-21.13L135.94-21.13L136.02-17.52Q137.21-19.47 138.99-20.50Q140.76-21.52 142.91-21.52L142.91-21.52Q146.31-21.52 147.97-19.61Q149.63-17.70 149.65-13.87L149.65-13.87L149.65 0L147.33 0L147.33-13.89Q147.31-16.72 146.13-18.11Q144.94-19.49 142.35-19.49L142.35-19.49Q140.18-19.49 138.51-18.13Q136.84-16.78 136.04-14.47L136.04-14.47L136.04 0L133.71 0L133.71-21.13Z M165.90-1.58L165.90-1.58Q168.34-1.58 169.99-2.96Q171.64-4.34 171.78-6.52L171.78-6.52L174.02-6.52Q173.93-4.59 172.81-3.00Q171.70-1.41 169.85-0.51Q168.01 0.39 165.90 0.39L165.90 0.39Q161.74 0.39 159.31-2.50Q156.88-5.39 156.88-10.27L156.88-10.27L156.88-10.98Q156.88-14.10 157.97-16.50Q159.06-18.91 161.10-20.21Q163.15-21.52 165.88-21.52L165.88-21.52Q169.36-21.52 171.61-19.45Q173.87-17.38 174.02-14.00L174.02-14.00L171.78-14.00Q171.62-16.48 169.99-18.01Q168.36-19.53 165.88-19.53L165.88-19.53Q162.72-19.53 160.97-17.25Q159.22-14.96 159.22-10.84L159.22-10.84L159.22-10.16Q159.22-6.11 160.97-3.85Q162.72-1.58 165.90-1.58Z M189.28 0.39L189.28 0.39Q186.58 0.39 184.40-0.94Q182.23-2.27 181.01-4.64Q179.80-7.01 179.80-9.96L179.80-9.96L179.80-10.80Q179.80-13.85 180.98-16.29Q182.17-18.73 184.28-20.13Q186.39-21.52 188.85-21.52L188.85-21.52Q192.69-21.52 194.95-18.90Q197.21-16.27 197.21-11.72L197.21-11.72L197.21-10.41L182.13-10.41L182.13-9.96Q182.13-6.37 184.19-3.97Q186.25-1.58 189.37-1.58L189.37-1.58Q191.25-1.58 192.68-2.27Q194.12-2.95 195.29-4.45L195.29-4.45L196.76-3.34Q194.18 0.39 189.28 0.39ZM188.85-19.53L188.85-19.53Q186.21-19.53 184.40-17.60Q182.60-15.66 182.21-12.40L182.21-12.40L194.88-12.40L194.88-12.66Q194.78-15.70 193.14-17.62Q191.50-19.53 188.85-19.53Z M216.17-21.13L218.41-21.13L218.49-17.70Q219.66-19.61 221.42-20.57Q223.18-21.52 225.33-21.52L225.33-21.52Q230.33-21.52 231.67-17.42L231.67-17.42Q232.81-19.39 234.70-20.46Q236.60-21.52 238.88-21.52L238.88-21.52Q245.68-21.52 245.81-14.10L245.81-14.10L245.81 0L243.47 0L243.47-13.93Q243.45-16.76 242.25-18.13Q241.05-19.49 238.33-19.49L238.33-19.49Q235.81-19.45 234.08-17.86Q232.34-16.27 232.14-13.98L232.14-13.98L232.14 0L229.80 0L229.80-14.10Q229.78-16.82 228.52-18.15Q227.26-19.49 224.64-19.49L224.64-19.49Q222.44-19.49 220.85-18.23Q219.27-16.97 218.51-14.49L218.51-14.49L218.51 0L216.17 0L216.17-21.13Z M269.97 0L267.47 0Q267.12-1.00 267.02-2.95L267.02-2.95Q265.79-1.35 263.89-0.48Q261.98 0.39 259.85 0.39L259.85 0.39Q256.81 0.39 254.92-1.31Q253.04-3.01 253.04-5.61L253.04-5.61Q253.04-8.69 255.61-10.49Q258.18-12.29 262.76-12.29L262.76-12.29L267.00-12.29L267.00-14.69Q267.00-16.95 265.61-18.25Q264.21-19.55 261.53-19.55L261.53-19.55Q259.09-19.55 257.49-18.30Q255.89-17.05 255.89-15.29L255.89-15.29L253.55-15.31Q253.55-17.83 255.89-19.68Q258.23-21.52 261.65-21.52L261.65-21.52Q265.19-21.52 267.23-19.76Q269.27-17.99 269.33-14.82L269.33-14.82L269.33-4.82Q269.33-1.76 269.97-0.23L269.97-0.23L269.97 0ZM260.13-1.68L260.13-1.68Q262.47-1.68 264.32-2.81Q266.16-3.95 267.00-5.84L267.00-5.84L267.00-10.49L262.82-10.49Q259.33-10.45 257.35-9.21Q255.38-7.97 255.38-5.80L255.38-5.80Q255.38-4.02 256.70-2.85Q258.02-1.68 260.13-1.68Z M291.53 0L282.98-10.64L280.30-8.07L280.30 0L277.96 0L277.96-30L280.30-30L280.30-10.80L282.51-13.18L290.59-21.13L293.54-21.13L284.58-12.23L294.33 0L291.53 0Z M307.74 0.39L307.74 0.39Q305.05 0.39 302.87-0.94Q300.69-2.27 299.48-4.64Q298.27-7.01 298.27-9.96L298.27-9.96L298.27-10.80Q298.27-13.85 299.45-16.29Q300.63-18.73 302.74-20.13Q304.85-21.52 307.31-21.52L307.31-21.52Q311.16-21.52 313.41-18.90Q315.67-16.27 315.67-11.72L315.67-11.72L315.67-10.41L300.59-10.41L300.59-9.96Q300.59-6.37 302.65-3.97Q304.71-1.58 307.84-1.58L307.84-1.58Q309.71-1.58 311.15-2.27Q312.58-2.95 313.76-4.45L313.76-4.45L315.22-3.34Q312.64 0.39 307.74 0.39ZM307.31-19.53L307.31-19.53Q304.67-19.53 302.87-17.60Q301.06-15.66 300.67-12.40L300.67-12.40L313.35-12.40L313.35-12.66Q313.25-15.70 311.61-17.62Q309.97-19.53 307.31-19.53Z M335.28-5.37L335.28-5.37Q335.28-7.11 333.88-8.16Q332.48-9.22 329.67-9.81Q326.86-10.41 325.31-11.18Q323.75-11.95 323.00-13.07Q322.25-14.18 322.25-15.76L322.25-15.76Q322.25-18.26 324.34-19.89Q326.43-21.52 329.69-21.52L329.69-21.52Q333.23-21.52 335.37-19.78Q337.50-18.03 337.50-15.21L337.50-15.21L335.16-15.21Q335.16-17.07 333.61-18.30Q332.05-19.53 329.69-19.53L329.69-19.53Q327.39-19.53 325.99-18.51Q324.59-17.48 324.59-15.84L324.59-15.84Q324.59-14.26 325.76-13.39Q326.92-12.52 329.99-11.80Q333.07-11.07 334.60-10.25Q336.14-9.43 336.88-8.28Q337.62-7.13 337.62-5.49L337.62-5.49Q337.62-2.81 335.46-1.21Q333.30 0.39 329.83 0.39L329.83 0.39Q326.14 0.39 323.84-1.40Q321.55-3.18 321.55-5.92L321.55-5.92L323.89-5.92Q324.03-3.87 325.62-2.72Q327.21-1.58 329.83-1.58L329.83-1.58Q332.27-1.58 333.77-2.66Q335.28-3.73 335.28-5.37Z M360.02-21.13L360.02 0L357.67 0L357.67-21.13L360.02-21.13ZM357.26-27.25L357.26-27.25Q357.26-27.91 357.69-28.37Q358.12-28.83 358.87-28.83Q359.61-28.83 360.05-28.37Q360.49-27.91 360.49-27.25Q360.49-26.58 360.05-26.13Q359.61-25.68 358.87-25.68Q358.12-25.68 357.69-26.13Q357.26-26.58 357.26-27.25Z M368.65-21.13L370.90-21.13L370.97-17.70Q372.15-19.61 373.90-20.57Q375.66-21.52 377.81-21.52L377.81-21.52Q382.81-21.52 384.16-17.42L384.16-17.42Q385.29-19.39 387.18-20.46Q389.08-21.52 391.36-21.52L391.36-21.52Q398.16-21.52 398.30-14.10L398.30-14.10L398.30 0L395.95 0L395.95-13.93Q395.93-16.76 394.73-18.13Q393.53-19.49 390.82-19.49L390.82-19.49Q388.30-19.45 386.56-17.86Q384.82-16.27 384.63-13.98L384.63-13.98L384.63 0L382.28 0L382.28-14.10Q382.26-16.82 381.00-18.15Q379.74-19.49 377.13-19.49L377.13-19.49Q374.92-19.49 373.34-18.23Q371.75-16.97 370.99-14.49L370.99-14.49L370.99 0L368.65 0L368.65-21.13Z M423.61-10.68L423.61-10.35Q423.61-5.41 421.42-2.51Q419.23 0.39 415.56 0.39L415.56 0.39Q411.22 0.39 408.92-2.66L408.92-2.66L408.92 8.13L406.60 8.13L406.60-21.13L408.76-21.13L408.88-18.14Q411.17-21.52 415.50-21.52L415.50-21.52Q419.29-21.52 421.45-18.65Q423.61-15.78 423.61-10.68L423.61-10.68ZM421.26-10.76L421.26-10.76Q421.26-14.80 419.60-17.15Q417.94-19.49 414.97-19.49L414.97-19.49Q412.83-19.49 411.28-18.46Q409.74-17.42 408.92-15.45L408.92-15.45L408.92-5.31Q409.76-3.50 411.32-2.54Q412.89-1.58 415.01-1.58L415.01-1.58Q417.96-1.58 419.61-3.94Q421.26-6.29 421.26-10.76Z M429.89-10.41L429.89-10.88Q429.89-13.93 431.08-16.37Q432.26-18.81 434.42-20.17Q436.57-21.52 439.31-21.52L439.31-21.52Q443.53-21.52 446.14-18.56Q448.76-15.61 448.76-10.72L448.76-10.72L448.76-10.23Q448.76-7.17 447.58-4.72Q446.40-2.27 444.25-0.94Q442.10 0.39 439.35 0.39L439.35 0.39Q435.15 0.39 432.52-2.57Q429.89-5.53 429.89-10.41L429.89-10.41ZM432.24-10.66L432.24-10.23Q432.24-6.45 434.20-4.01Q436.16-1.58 439.35-1.58L439.35-1.58Q442.51-1.58 444.47-4.01Q446.44-6.45 446.44-10.43L446.44-10.43L446.44-10.88Q446.44-13.30 445.54-15.31Q444.64-17.32 443.02-18.43Q441.40-19.53 439.31-19.53L439.31-19.53Q436.18-19.53 434.21-17.08Q432.24-14.63 432.24-10.66L432.24-10.66Z M468.64-5.37L468.64-5.37Q468.64-7.11 467.25-8.16Q465.85-9.22 463.04-9.81Q460.22-10.41 458.67-11.18Q457.12-11.95 456.37-13.07Q455.61-14.18 455.61-15.76L455.61-15.76Q455.61-18.26 457.70-19.89Q459.79-21.52 463.06-21.52L463.06-21.52Q466.59-21.52 468.73-19.78Q470.87-18.03 470.87-15.21L470.87-15.21L468.52-15.21Q468.52-17.07 466.97-18.30Q465.42-19.53 463.06-19.53L463.06-19.53Q460.75-19.53 459.36-18.51Q457.96-17.48 457.96-15.84L457.96-15.84Q457.96-14.26 459.12-13.39Q460.28-12.52 463.36-11.80Q466.44-11.07 467.97-10.25Q469.50-9.43 470.24-8.28Q470.99-7.13 470.99-5.49L470.99-5.49Q470.99-2.81 468.83-1.21Q466.67 0.39 463.19 0.39L463.19 0.39Q459.50 0.39 457.21-1.40Q454.91-3.18 454.91-5.92L454.91-5.92L457.26-5.92Q457.39-3.87 458.98-2.72Q460.58-1.58 463.19-1.58L463.19-1.58Q465.63-1.58 467.14-2.66Q468.64-3.73 468.64-5.37Z M491.30-5.37L491.30-5.37Q491.30-7.11 489.90-8.16Q488.50-9.22 485.69-9.81Q482.88-10.41 481.33-11.18Q479.77-11.95 479.02-13.07Q478.27-14.18 478.27-15.76L478.27-15.76Q478.27-18.26 480.36-19.89Q482.45-21.52 485.71-21.52L485.71-21.52Q489.25-21.52 491.38-19.78Q493.52-18.03 493.52-15.21L493.52-15.21L491.18-15.21Q491.18-17.07 489.63-18.30Q488.07-19.53 485.71-19.53L485.71-19.53Q483.41-19.53 482.01-18.51Q480.61-17.48 480.61-15.84L480.61-15.84Q480.61-14.26 481.77-13.39Q482.94-12.52 486.01-11.80Q489.09-11.07 490.62-10.25Q492.16-9.43 492.90-8.28Q493.64-7.13 493.64-5.49L493.64-5.49Q493.64-2.81 491.48-1.21Q489.32 0.39 485.85 0.39L485.85 0.39Q482.16 0.39 479.86-1.40Q477.57-3.18 477.57-5.92L477.57-5.92L479.91-5.92Q480.05-3.87 481.64-2.72Q483.23-1.58 485.85-1.58L485.85-1.58Q488.29-1.58 489.79-2.66Q491.30-3.73 491.30-5.37Z M503.91-21.13L503.91 0L501.57 0L501.57-21.13L503.91-21.13ZM501.16-27.25L501.16-27.25Q501.16-27.91 501.59-28.37Q502.02-28.83 502.76-28.83Q503.50-28.83 503.94-28.37Q504.38-27.91 504.38-27.25Q504.38-26.58 503.94-26.13Q503.50-25.68 502.76-25.68Q502.02-25.68 501.59-26.13Q501.16-26.58 501.16-27.25Z M529.67-10.70L529.67-10.35Q529.67-5.41 527.48-2.51Q525.30 0.39 521.60 0.39L521.60 0.39Q517.19 0.39 514.92-2.89L514.92-2.89L514.83 0L512.64 0L512.64-30L514.96-30L514.96-18.07Q517.19-21.52 521.56-21.52L521.56-21.52Q525.31-21.52 527.49-18.66Q529.67-15.80 529.67-10.70L529.67-10.70ZM527.33-10.76L527.33-10.76Q527.33-14.94 525.71-17.22Q524.08-19.49 521.14-19.49L521.14-19.49Q518.89-19.49 517.33-18.39Q515.76-17.29 514.96-15.16L514.96-15.16L514.96-5.63Q516.72-1.64 521.17-1.64L521.17-1.64Q524.06-1.64 525.70-3.93Q527.33-6.21 527.33-10.76Z M539.84-30L539.84 0L537.50 0L537.50-30L539.84-30Z M556.77 0.39L556.77 0.39Q554.08 0.39 551.90-0.94Q549.72-2.27 548.51-4.64Q547.30-7.01 547.30-9.96L547.30-9.96L547.30-10.80Q547.30-13.85 548.48-16.29Q549.67-18.73 551.77-20.13Q553.88-21.52 556.35-21.52L556.35-21.52Q560.19-21.52 562.45-18.90Q564.70-16.27 564.70-11.72L564.70-11.72L564.70-10.41L549.63-10.41L549.63-9.96Q549.63-6.37 551.69-3.97Q553.75-1.58 556.87-1.58L556.87-1.58Q558.75-1.58 560.18-2.27Q561.62-2.95 562.79-4.45L562.79-4.45L564.26-3.34Q561.68 0.39 556.77 0.39ZM556.35-19.53L556.35-19.53Q553.71-19.53 551.90-17.60Q550.10-15.66 549.70-12.40L549.70-12.40L562.38-12.40L562.38-12.66Q562.28-15.70 560.64-17.62Q559.00-19.53 556.35-19.53Z M600.77-10.68L600.77-10.35Q600.77-5.41 598.59-2.51Q596.40 0.39 592.73 0.39L592.73 0.39Q588.39 0.39 586.09-2.66L586.09-2.66L586.09 8.13L583.76 8.13L583.76-21.13L585.93-21.13L586.05-18.14Q588.33-21.52 592.67-21.52L592.67-21.52Q596.46-21.52 598.62-18.65Q600.77-15.78 600.77-10.68L600.77-10.68ZM598.43-10.76L598.43-10.76Q598.43-14.80 596.77-17.15Q595.11-19.49 592.14-19.49L592.14-19.49Q589.99-19.49 588.45-18.46Q586.91-17.42 586.09-15.45L586.09-15.45L586.09-5.31Q586.93-3.50 588.49-2.54Q590.05-1.58 592.18-1.58L592.18-1.58Q595.13-1.58 596.78-3.94Q598.43-6.29 598.43-10.76Z M607.06-10.41L607.06-10.88Q607.06-13.93 608.24-16.37Q609.42-18.81 611.58-20.17Q613.74-21.52 616.47-21.52L616.47-21.52Q620.69-21.52 623.31-18.56Q625.93-15.61 625.93-10.72L625.93-10.72L625.93-10.23Q625.93-7.17 624.75-4.72Q623.56-2.27 621.42-0.94Q619.27 0.39 616.51 0.39L616.51 0.39Q612.31 0.39 609.69-2.57Q607.06-5.53 607.06-10.41L607.06-10.41ZM609.40-10.66L609.40-10.23Q609.40-6.45 611.37-4.01Q613.33-1.58 616.51-1.58L616.51-1.58Q619.68-1.58 621.64-4.01Q623.60-6.45 623.60-10.43L623.60-10.43L623.60-10.88Q623.60-13.30 622.71-15.31Q621.81-17.32 620.19-18.43Q618.56-19.53 616.47-19.53L616.47-19.53Q613.35-19.53 611.38-17.08Q609.40-14.63 609.40-10.66L609.40-10.66Z M645.81-5.37L645.81-5.37Q645.81-7.11 644.41-8.16Q643.02-9.22 640.20-9.81Q637.39-10.41 635.84-11.18Q634.29-11.95 633.53-13.07Q632.78-14.18 632.78-15.76L632.78-15.76Q632.78-18.26 634.87-19.89Q636.96-21.52 640.22-21.52L640.22-21.52Q643.76-21.52 645.90-19.78Q648.04-18.03 648.04-15.21L648.04-15.21L645.69-15.21Q645.69-17.07 644.14-18.30Q642.59-19.53 640.22-19.53L640.22-19.53Q637.92-19.53 636.52-18.51Q635.12-17.48 635.12-15.84L635.12-15.84Q635.12-14.26 636.29-13.39Q637.45-12.52 640.53-11.80Q643.60-11.07 645.13-10.25Q646.67-9.43 647.41-8.28Q648.15-7.13 648.15-5.49L648.15-5.49Q648.15-2.81 645.99-1.21Q643.84 0.39 640.36 0.39L640.36 0.39Q636.67 0.39 634.37-1.40Q632.08-3.18 632.08-5.92L632.08-5.92L634.42-5.92Q634.56-3.87 636.15-2.72Q637.74-1.58 640.36-1.58L640.36-1.58Q642.80-1.58 644.30-2.66Q645.81-3.73 645.81-5.37Z M668.46-5.37L668.46-5.37Q668.46-7.11 667.07-8.16Q665.67-9.22 662.86-9.81Q660.04-10.41 658.49-11.18Q656.94-11.95 656.19-13.07Q655.44-14.18 655.44-15.76L655.44-15.76Q655.44-18.26 657.52-19.89Q659.61-21.52 662.88-21.52L662.88-21.52Q666.41-21.52 668.55-19.78Q670.69-18.03 670.69-15.21L670.69-15.21L668.35-15.21Q668.35-17.07 666.79-18.30Q665.24-19.53 662.88-19.53L662.88-19.53Q660.57-19.53 659.18-18.51Q657.78-17.48 657.78-15.84L657.78-15.84Q657.78-14.26 658.94-13.39Q660.10-12.52 663.18-11.80Q666.26-11.07 667.79-10.25Q669.32-9.43 670.06-8.28Q670.81-7.13 670.81-5.49L670.81-5.49Q670.81-2.81 668.65-1.21Q666.49 0.39 663.01 0.39L663.01 0.39Q659.32 0.39 657.03-1.40Q654.73-3.18 654.73-5.92L654.73-5.92L657.08-5.92Q657.21-3.87 658.80-2.72Q660.40-1.58 663.01-1.58L663.01-1.58Q665.45-1.58 666.96-2.66Q668.46-3.73 668.46-5.37Z M681.08-21.13L681.08 0L678.73 0L678.73-21.13L681.08-21.13ZM678.32-27.25L678.32-27.25Q678.32-27.91 678.75-28.37Q679.18-28.83 679.92-28.83Q680.67-28.83 681.11-28.37Q681.55-27.91 681.55-27.25Q681.55-26.58 681.11-26.13Q680.67-25.68 679.92-25.68Q679.18-25.68 678.75-26.13Q678.32-26.58 678.32-27.25Z M706.84-10.70L706.84-10.35Q706.84-5.41 704.65-2.51Q702.46 0.39 698.77 0.39L698.77 0.39Q694.36 0.39 692.09-2.89L692.09-2.89L691.99 0L689.81 0L689.81-30L692.13-30L692.13-18.07Q694.36-21.52 698.73-21.52L698.73-21.52Q702.48-21.52 704.66-18.66Q706.84-15.80 706.84-10.70L706.84-10.70ZM704.49-10.76L704.49-10.76Q704.49-14.94 702.87-17.22Q701.25-19.49 698.30-19.49L698.30-19.49Q696.06-19.49 694.49-18.39Q692.93-17.29 692.13-15.16L692.13-15.16L692.13-5.63Q693.89-1.64 698.34-1.64L698.34-1.64Q701.23-1.64 702.86-3.93Q704.49-6.21 704.49-10.76Z M717.01-30L717.01 0L714.67 0L714.67-30L717.01-30Z M733.94 0.39L733.94 0.39Q731.25 0.39 729.07-0.94Q726.89-2.27 725.68-4.64Q724.47-7.01 724.47-9.96L724.47-9.96L724.47-10.80Q724.47-13.85 725.65-16.29Q726.83-18.73 728.94-20.13Q731.05-21.52 733.51-21.52L733.51-21.52Q737.36-21.52 739.62-18.90Q741.87-16.27 741.87-11.72L741.87-11.72L741.87-10.41L726.79-10.41L726.79-9.96Q726.79-6.37 728.85-3.97Q730.91-1.58 734.04-1.58L734.04-1.58Q735.91-1.58 737.35-2.27Q738.79-2.95 739.96-4.45L739.96-4.45L741.42-3.34Q738.84 0.39 733.94 0.39ZM733.51-19.53L733.51-19.53Q730.87-19.53 729.07-17.60Q727.26-15.66 726.87-12.40L726.87-12.40L739.55-12.40L739.55-12.66Q739.45-15.70 737.81-17.62Q736.17-19.53 733.51-19.53Z"/></g>
</svg>
</g><g opacity="1" transform="rotate(0 118.5429 387.9399)">
<svg width="363.6918" height="60" x="118.5429" y="387.9399" version="1.1" preserveAspectRatio="none" viewBox="2.4 -28.72 177.48 29.28">
  <g transform="matrix(1 0 0 1 0 0)" class="companyName"><path id="id-D6z1nYkh7" d="M18.88-28.72L18.88-27.56L18.88-24.20L18.48-24.20L18.48-24.80Q18.48-25.60 17.92-26.18Q17.36-26.76 16.52-26.76L16.52-26.76L8.08-26.76L8.08-14.40L14.84-14.40Q15.64-14.44 16.20-15Q16.76-15.56 16.76-16.36L16.76-16.36L16.76-16.96L17.16-16.96L17.16-10.64L16.76-10.64L16.76-11.24Q16.76-12.04 16.22-12.60Q15.68-13.16 14.88-13.20L14.88-13.20L8.08-13.20L8.08-2.92Q8.08-1.88 8.84-1.14Q9.60-0.40 10.64-0.40L10.64-0.40L11.16-0.40L11.16 0L2.40 0L2.40-0.40L2.92-0.40Q3.96-0.40 4.70-1.14Q5.44-1.88 5.48-2.92L5.48-2.92L5.48-25.32Q5.48-26.28 4.70-26.94Q3.92-27.60 2.92-27.60L2.92-27.60L2.44-27.60L2.40-28L14.12-28Q15.36-28 16.82-28.24Q18.28-28.48 18.88-28.72L18.88-28.72Z M47.84-24L47.84-23.60L47.24-23.60Q46.16-23.60 45.60-22.76L45.60-22.76Q45.36-22.40 45.32-21.92L45.32-21.92L45.32-8.44Q45.32-4.28 42.66-1.86Q40 0.56 35.36 0.56Q30.72 0.56 28.04-1.84Q25.36-4.24 25.36-8.40L25.36-8.40L25.36-21.88Q25.36-22.60 24.80-23.10Q24.24-23.60 23.44-23.60L23.44-23.60L22.84-23.60L22.84-24L30.44-24L30.44-23.60L29.84-23.60Q29.04-23.60 28.48-23.10Q27.92-22.60 27.92-21.88L27.92-21.88L27.92-8.88Q27.92-5 29.90-2.76Q31.88-0.52 35.50-0.52Q39.12-0.52 41.30-2.64Q43.48-4.76 43.48-8.44L43.48-8.44L43.48-21.88Q43.44-22.64 42.90-23.12Q42.36-23.60 41.56-23.60L41.56-23.60L40.96-23.60L40.96-24L47.84-24Z M58.92-22.76L58.92-22.76L56.80-22.76L56.80-2.56Q56.84-1.32 57.92-0.68L57.92-0.68Q58.44-0.40 59.08-0.40L59.08-0.40L59.60-0.40L59.64 0L51.44 0L51.44-0.40L52-0.40Q52.92-0.40 53.58-1.02Q54.24-1.64 54.24-2.52L54.24-2.52L54.24-21.52Q54.24-22.40 53.58-23Q52.92-23.60 52-23.60L52-23.60L51.44-23.60L51.44-24L61.48-24Q65.24-24 67.42-22.28Q69.60-20.56 69.60-17.76Q69.60-14.96 67.84-13.08Q66.08-11.20 63.36-10.92L63.36-10.92Q64.64-10.36 66.44-7.80L66.44-7.80Q66.40-7.80 67.82-6.04Q69.24-4.28 70.10-3.30Q70.96-2.32 71.52-1.80L71.52-1.80Q73-0.40 74.92-0.40L74.92-0.40L74.92 0L73.68 0Q70.52 0 68.72-1.24L68.72-1.24Q67.36-2.16 66.24-3.52L66.24-3.52Q66-3.84 64.22-6.34Q62.44-8.84 62.32-9L62.32-9Q60.16-11.68 58.28-11.68L58.28-11.68L58.28-12.08Q62.96-12.08 63.92-12.56L63.92-12.56Q65.24-13.24 65.72-14L65.72-14Q66.72-15.60 66.72-17.52L66.72-17.52Q66.72-19.96 65.28-21.28Q63.84-22.60 61.40-22.72L61.40-22.72Q60.32-22.76 58.92-22.76Z M107.96-0.40L107.96-0.40L108.56-0.40L108.56 0L100.24 0L100.24-0.36L100.84-0.36Q101.44-0.36 101.90-0.82Q102.36-1.28 102.28-1.92L102.28-1.92L100.20-18.40L92.64-3.52Q91.52-1.08 91.24 0.56L91.24 0.56L90.84 0.56L81.20-18.04L79.40-1.92Q79.32-1.32 79.78-0.84Q80.24-0.36 80.88-0.36L80.88-0.36L81.44-0.36L81.44 0L74.04 0L74.04-0.40L74.64-0.40Q76.08-0.40 76.88-1.44L76.88-1.44Q77.28-1.96 77.36-2.68L77.36-2.68L80.48-24.56L80.88-24.56L91.44-4.24L101.64-24.56L102.00-24.56L105.24-2.60Q105.40-1.60 106.16-1Q106.92-0.40 107.96-0.40Z M135.24-24L135.24-23.60L134.64-23.60Q133.56-23.60 133-22.76L133-22.76Q132.76-22.40 132.72-21.92L132.72-21.92L132.72-8.44Q132.72-4.28 130.06-1.86Q127.40 0.56 122.76 0.56Q118.12 0.56 115.44-1.84Q112.76-4.24 112.76-8.40L112.76-8.40L112.76-21.88Q112.76-22.60 112.20-23.10Q111.64-23.60 110.84-23.60L110.84-23.60L110.24-23.60L110.24-24L117.84-24L117.84-23.60L117.24-23.60Q116.44-23.60 115.88-23.10Q115.32-22.60 115.32-21.88L115.32-21.88L115.32-8.88Q115.32-5 117.30-2.76Q119.28-0.52 122.90-0.52Q126.52-0.52 128.70-2.64Q130.88-4.76 130.88-8.44L130.88-8.44L130.88-21.88Q130.84-22.64 130.30-23.12Q129.76-23.60 128.96-23.60L128.96-23.60L128.36-23.60L128.36-24L135.24-24Z M138.84-0.40L139.40-0.40Q140.36-0.40 141.02-1.02Q141.68-1.64 141.72-2.52L141.72-2.52L141.72-21.44Q141.68-22.32 140.98-22.96Q140.28-23.60 139.32-23.60L139.32-23.60L138.84-23.60L138.84-24L147.12-24L147.12-23.60L146.64-23.60Q145.68-23.60 144.98-22.96Q144.28-22.32 144.28-21.44L144.28-21.44L144.28-1.24L150.52-1.24Q152.36-1.24 153.64-1.88Q154.92-2.52 155.58-3.40Q156.24-4.28 156.88-5.72L156.88-5.72L157.28-5.72L155.08 0L138.84 0L138.84-0.40Z M179.88-24L179.88-23.60L179.40-23.60Q178.32-23.60 177.34-23.02Q176.36-22.44 175.72-21.56L175.72-21.56L168.04-9.92L168.04-2.56Q168.04-1.68 168.72-1.04Q169.40-0.40 170.36-0.40L170.36-0.40L170.84-0.40L170.84 0L162.64 0L162.64-0.40L163.12-0.40Q164.08-0.40 164.76-1.04Q165.44-1.68 165.44-2.56L165.44-2.56L165.44-9.96L158.04-21.60Q156.68-23.60 154.36-23.60L154.36-23.60L153.88-23.60L153.88-24L163.16-24L163.16-23.60L162.68-23.60Q161.92-23.60 161.58-23.12Q161.24-22.64 161.24-22.30Q161.24-21.96 161.32-21.68L161.32-21.68L167.16-11.32L173.36-21.64Q173.48-21.96 173.48-22.30Q173.48-22.64 173.14-23.12Q172.80-23.60 172-23.60L172-23.60L171.52-23.60L171.52-24L179.88-24Z"/></g>
</svg>
</g></svg></svg>