<svg version="1.1" preserveAspectRatio="none" xmlns="http://www.w3.org/2000/svg" width="500" height="500" viewBox="0 0 500 500"><rect width="100%" height="100%" fill="#F5F1EE" fill-opacity="1"/><svg viewBox="91.4874 294.1797 551.6018 266.3356" width="333" height="160.78583282360572" x="83.5px" y="169.6071px" xmlns="http://www.w3.org/2000/svg" xmlns:xlink="http://www.w3.org/1999/xlink" preserveAspectRatio="none"><defs></defs><style>.companyName {fill:#9D5D35;fill-opacity:1;}.icon1 {fill:#D6C4B0;fill-opacity:1;}.icon2 {fill:#5D949E;fill-opacity:1;}.icon3 {fill:#958868;fill-opacity:1;}.icon3-str {stroke:#958868;stroke-opacity:1;}.text {fill:#958868;fill-opacity:1;}</style><g opacity="1" transform="rotate(0 269.4126 294.1797)">
<svg width="195.7515" height="109.8356" x="269.4126" y="294.1797" version="1.1" preserveAspectRatio="none" viewBox="20 55 160.40000915527344 90">
  <g transform="matrix(1 0 0 1 0 0)" ><g><path d="M145.8 100c0 24.7-20 44.7-44.7 44.7s-44.7-20-44.7-44.7 20-44.7 44.7-44.7 44.7 20 44.7 44.7z" data-color="1" class="icon1"></path><path d="M101.1 145c-24.8 0-45-20.1-45-45s20.1-45 45-45 45 20.1 45 45c-.1 24.8-20.2 45-45 45zm0-89.5c-24.5 0-44.5 19.9-44.5 44.5s19.9 44.5 44.5 44.5 44.5-19.9 44.5-44.5c-.1-24.6-20-44.5-44.5-44.5z" data-color="2" class="icon2"></path><path d="M90.1 97.3l2.3 6.6 1.2 4.9 1.2 2.2-1.7.9-2.7-2 .2 2.3-1.8.2-1.1-1.2-1-2.9-1.4-1.6-1.2-2.2-3.7-2.4.5 6.3-3.4 6.9-1.3.1-1.4-1.9.4-4.6.9-3.6-1.7-4.9-5.8-.2 4-6.7 3.5-.3 14 4.1z" data-color="2" class="icon2"></path><path d="M20.1 99.2l7.4-4.9 6.6-2.1L41 87l6.9-1.6 8.6.3 5.9 1.2 4.8-.2 4.5-.4 4.3-.1 4.1 3.4 2.1.8 5.9 1 2.6.8 2.5 2.8 3 2.8 3.1 4.3 1.1 1.4-1.7.9-1.5.1-3.8-2.9-1.6-1.4-3.8-2.9-4.5.1-2.8-.8-3.2.8-3.3-.2-4.1 2.1 1.7 2.1 2.4 1.8 2.8.8 3.1 1.2 2.5 2.8.5 2.5-.6 1.8-1.5.1-1.8.2-1.9-1.6-2.4-1.1-1.6-1.4-2.6-1.3-4.1-.9-4.9-.8-3.8-.2-3.2-1.5-2.2-1.8-1.4-1.9-5.4 4-4.6 4.9-7.3 8.5-12.1 7.8" data-color="3" class="icon3"></path><path d="M21.8 125.6l-.3-.4 12.1-7.7L41 109l4.6-5 5.7-4.2 1.6 2.1 2.1 1.8 3.1 1.5 3.7.2 4.9.8 4.1.9 2.7 1.3 1.7 1.4 2.4 1.1 1.8 1.5 3-.3.5-1.6-.4-2.4-2.4-2.7-3.1-1.2-2.9-.8-2.5-1.8-1.9-2.4 4.4-2.3 3.3.2 3.2-.8 2.9.8 4.6-.1 3.9 3 1.6 1.4 3.7 2.9 1.4-.1 1.4-.7-.9-1.2-3.2-4.4-3-2.7-2.5-2.8-2.5-.7-5.9-1-2.2-.9-4-3.4-4.2.1-4.5.5-4.8.2-6-1.3-8.4-.3-6.8 1.6-6.9 5.2-6.6 2.1-7.4 4.9-.3-.4 7.4-5 6.6-2.1 6.9-5.2 7-1.6 8.6.3 6 1.3 4.7-.2 4.5-.4 4.4-.1 4.1 3.5 2.1.8 5.8 1 2.7.8 2.6 2.9 3 2.7 3.2 4.3 1.3 1.6-2 1.1-1.6.1-3.9-3-1.6-1.4-3.8-2.9-4.5.1-2.8-.8-3.2.8-3.2-.2-3.8 2 1.5 1.9 2.4 1.8 2.8.7 3.3 1.3 2.6 2.9.5 2.6-.7 2-3.5.3-2-1.6-2.4-1.1-1.6-1.4-2.6-1.3-4.1-.9-4.9-.8-3.9-.2-3.2-1.5-2.2-1.8-1.3-1.7-5.3 3.9-4.6 4.9-7.4 8.5c.1 0-12.1 7.7-12.1 7.7z" data-color="2" class="icon2"></path><path d="M123.3 108l-.6 4.6.3 3 .8 3 .7 2.7 2-.2 1.4-.9 1.6.6 2.1-1.7-.2-2.8 1.3-2.4-.2-2.3 2.1-1.7.7-.8.4 4.5.4 4.3 2.8.3.9-3.6-.2-2.5 1.5-3.4 4.5-.4 5.7-4.3 6.1-5.6 2.9-1.8 4-.4 15.7 1.1-13.2-19.4c-.1.2-43.5 30.1-43.5 30.1z" data-color="2" class="icon2"></path><path d="M78.7 90.4l-2.9-1.7-2.6.3-5.6-.3v-.5l5.6.3 2.8-.2 3 1.8c0-.1-.3.3-.3.3z" data-color="2" class="icon2"></path><path d="M75.3 94.9l.3.4-3.4 3.2-.2-.4 3.3-3.2z" data-color="2" class="icon2"></path><path d="M51.3 100.2l-.2-2.2-2.9-3.4-7.6.7-2.4 1.2-8.2 2.8-.2-.5 8.1-2.7 2.5-1.2 7.9-.7 3.2 3.7.2 2.3h-.4z" data-color="2" class="icon2"></path><path d="M177.7 72.3l-18.9 8.2-6 .5-5.8 3.3-4.5.4-7.3 3.2-7.3 3.2-3 .3-1.9 1.2-7.8.7-2.7 1.2-5.9 2-3.9 2.1-.9 1.3 2.4 1.8 4.8-.4 2.2-1.2 3.5-.6 1.7-.9h2.8l4.3-.4 1.7 1.6 1.5-.1-.3 2-2.4 1.5-1.3 1.9-2.4 1.5.1 1.3 1.4 1.6 1.6.4 1.5.4 2.8-.2 1.8-1.9 2.3-2.2 2.4-1.5 1.9-1.2 4.3-.1 3.3.2 2.3-1.2 7-5.2 9.1-.1 18.1.8" data-color="3" class="icon3"></path><path d="M124.7 110.4l-3.2-.8-1.5-1.8-.1-1.5 2.5-1.5 1.4-1.9 2.3-1.4.3-1.6-1.3.1-1.7-1.6-4.1.4h-2.7l-1.7.9-3.4.6-2.2 1.2-4.8.4-2.7-2 1.1-1.6 3.9-2.1 5.9-2 2.7-1.3 7.7-.7 2-1.2 3-.3 14.6-6.3 4.5-.4 5.8-3.3 6-.5 18.9-8.1.2.5-19 8.2-6 .5-5.8 3.3-4.5.4-14.6 6.3-2.9.3-2 1.2-7.7.7-2.6 1.2-5.9 2-3.8 2.1-.7 1.1 2.2 1.6 4.6-.4 2.2-1.2 3.4-.6 1.8-.9h2.8l4.3-.4 1.7 1.6 1.7-.2-.4 2.5-2.4 1.5-1.4 1.9-2.3 1.4.1 1 1.3 1.5 3 .7 2.6-.2 1.8-1.9 2.3-2.2 4.4-2.7 4.3-.1 3.3.2 2.3-1.2 7-5.3 9.1-.1 18.1.8v.5l-18.1-.8-9 .1-6.9 5.2-2.4 1.3-3.4-.2-4.2.1-4.3 2.6-2.3 2.2-1.9 2-3.2.2z" data-color="2" class="icon2"></path><path d="M126.2 101.8l-.2-.4 4.8-2.4 1.7-3.4 2.1-2 .4.4-2.1 1.9-1.7 3.5c0-.1-5 2.4-5 2.4z" data-color="2" class="icon2"></path></g></g>
</svg>
</g><g opacity="1" transform="rotate(0 91.4874 536.0153)">
<svg width="551.6018" height="24.5" x="91.4874" y="536.0153" version="1.1" preserveAspectRatio="none" viewBox="4.56 -29.68 843.12 37.44">
  <g transform="matrix(1 0 0 1 0 0)" class="text"><path id="id-6izo4zJp38" d="M26.92 0L23.68 0L17.28-9Q16.20-8.88 15.04-8.88L15.04-8.88L7.52-8.88L7.52 0L4.56 0L4.56-28L15.04-28Q20.40-28 23.44-25.44Q26.48-22.88 26.48-18.40L26.48-18.40Q26.48-15.12 24.82-12.86Q23.16-10.60 20.08-9.60L20.08-9.60L26.92 0ZM14.96-11.40Q19.12-11.40 21.32-13.24Q23.52-15.08 23.52-18.40L23.52-18.40Q23.52-21.80 21.32-23.62Q19.12-25.44 14.96-25.44L14.96-25.44L7.52-25.44L7.52-11.40L14.96-11.40Z M53.64-10.52L53.60-9.64L36-9.64Q36.24-6.36 38.52-4.34Q40.80-2.32 44.28-2.32L44.28-2.32Q46.24-2.32 47.88-3.02Q49.52-3.72 50.72-5.08L50.72-5.08L52.32-3.24Q50.92-1.56 48.82-0.68Q46.72 0.20 44.20 0.20L44.20 0.20Q40.96 0.20 38.46-1.18Q35.96-2.56 34.56-5Q33.16-7.44 33.16-10.52L33.16-10.52Q33.16-13.60 34.50-16.04Q35.84-18.48 38.18-19.84Q40.52-21.20 43.44-21.20L43.44-21.20Q46.36-21.20 48.68-19.84Q51-18.48 52.32-16.06Q53.64-13.64 53.64-10.52L53.64-10.52ZM43.44-18.76Q40.40-18.76 38.34-16.82Q36.28-14.88 36-11.76L36-11.76L50.92-11.76Q50.64-14.88 48.58-16.82Q46.52-18.76 43.44-18.76L43.44-18.76Z M67.48 0.20Q64.92 0.20 62.58-0.54Q60.24-1.28 58.92-2.40L58.92-2.40L60.20-4.64Q61.52-3.60 63.52-2.94Q65.52-2.28 67.68-2.28L67.68-2.28Q70.56-2.28 71.94-3.18Q73.32-4.08 73.32-5.72L73.32-5.72Q73.32-6.88 72.56-7.54Q71.80-8.20 70.64-8.54Q69.48-8.88 67.56-9.20L67.56-9.20Q65-9.68 63.44-10.18Q61.88-10.68 60.78-11.88Q59.68-13.08 59.68-15.20L59.68-15.20Q59.68-17.84 61.88-19.52Q64.08-21.20 68-21.20L68-21.20Q70.04-21.20 72.08-20.66Q74.12-20.12 75.44-19.24L75.44-19.24L74.20-16.96Q71.60-18.76 68-18.76L68-18.76Q65.28-18.76 63.90-17.80Q62.52-16.84 62.52-15.28L62.52-15.28Q62.52-14.08 63.30-13.36Q64.08-12.64 65.24-12.30Q66.40-11.96 68.44-11.60L68.44-11.60Q70.96-11.12 72.48-10.64Q74-10.16 75.08-9Q76.16-7.84 76.16-5.80L76.16-5.80Q76.16-3.04 73.86-1.42Q71.56 0.20 67.48 0.20L67.48 0.20Z M83.80 0L83.80-21.04L86.64-21.04L86.64 0L83.80 0ZM85.24-25.64Q84.36-25.64 83.76-26.24Q83.16-26.84 83.16-27.68L83.16-27.68Q83.16-28.48 83.76-29.08Q84.36-29.68 85.24-29.68L85.24-29.68Q86.12-29.68 86.72-29.10Q87.32-28.52 87.32-27.72L87.32-27.72Q87.32-26.84 86.72-26.24Q86.12-25.64 85.24-25.64L85.24-25.64Z M96.96 0L96.96-29.68L99.80-29.68L99.80 0L96.96 0Z M110.12 0L110.12-21.04L112.96-21.04L112.96 0L110.12 0ZM111.56-25.64Q110.68-25.64 110.08-26.24Q109.48-26.84 109.48-27.68L109.48-27.68Q109.48-28.48 110.08-29.08Q110.68-29.68 111.56-29.68L111.56-29.68Q112.44-29.68 113.04-29.10Q113.64-28.52 113.64-27.72L113.64-27.72Q113.64-26.84 113.04-26.24Q112.44-25.64 111.56-25.64L111.56-25.64Z M141.64-10.52L141.60-9.64L124.00-9.64Q124.24-6.36 126.52-4.34Q128.80-2.32 132.28-2.32L132.28-2.32Q134.24-2.32 135.88-3.02Q137.52-3.72 138.72-5.08L138.72-5.08L140.32-3.24Q138.92-1.56 136.82-0.68Q134.72 0.20 132.20 0.20L132.20 0.20Q128.96 0.20 126.46-1.18Q123.96-2.56 122.56-5Q121.16-7.44 121.16-10.52L121.16-10.52Q121.16-13.60 122.50-16.04Q123.84-18.48 126.18-19.84Q128.52-21.20 131.44-21.20L131.44-21.20Q134.36-21.20 136.68-19.84Q139.00-18.48 140.32-16.06Q141.64-13.64 141.64-10.52L141.64-10.52ZM131.44-18.76Q128.40-18.76 126.34-16.82Q124.28-14.88 124.00-11.76L124.00-11.76L138.92-11.76Q138.64-14.88 136.58-16.82Q134.52-18.76 131.44-18.76L131.44-18.76Z M160.56-21.20Q164.52-21.20 166.86-18.90Q169.20-16.60 169.20-12.20L169.20-12.20L169.20 0L166.36 0L166.36-11.92Q166.36-15.20 164.72-16.92Q163.08-18.64 160.04-18.64L160.04-18.64Q156.64-18.64 154.66-16.62Q152.68-14.60 152.68-11.04L152.68-11.04L152.68 0L149.84 0L149.84-21.04L152.56-21.04L152.56-17.16Q153.72-19.08 155.78-20.14Q157.84-21.20 160.56-21.20L160.56-21.20Z M188.12 0.20Q185.00 0.20 182.54-1.16Q180.08-2.52 178.68-4.98Q177.28-7.44 177.28-10.52L177.28-10.52Q177.28-13.60 178.68-16.04Q180.08-18.48 182.54-19.84Q185.00-21.20 188.12-21.20L188.12-21.20Q190.84-21.20 192.98-20.14Q195.12-19.08 196.36-17.04L196.36-17.04L194.24-15.60Q193.20-17.16 191.60-17.94Q190.00-18.72 188.12-18.72L188.12-18.72Q185.84-18.72 184.02-17.70Q182.20-16.68 181.18-14.80Q180.16-12.92 180.16-10.52L180.16-10.52Q180.16-8.08 181.18-6.22Q182.20-4.36 184.02-3.34Q185.84-2.32 188.12-2.32L188.12-2.32Q190.00-2.32 191.60-3.08Q193.20-3.84 194.24-5.40L194.24-5.40L196.36-3.96Q195.12-1.92 192.96-0.86Q190.80 0.20 188.12 0.20L188.12 0.20Z M222.32-10.52L222.28-9.64L204.68-9.64Q204.92-6.36 207.20-4.34Q209.48-2.32 212.96-2.32L212.96-2.32Q214.92-2.32 216.56-3.02Q218.20-3.72 219.40-5.08L219.40-5.08L221.00-3.24Q219.60-1.56 217.50-0.68Q215.40 0.20 212.88 0.20L212.88 0.20Q209.64 0.20 207.14-1.18Q204.64-2.56 203.24-5Q201.84-7.44 201.84-10.52L201.84-10.52Q201.84-13.60 203.18-16.04Q204.52-18.48 206.86-19.84Q209.20-21.20 212.12-21.20L212.12-21.20Q215.04-21.20 217.36-19.84Q219.68-18.48 221.00-16.06Q222.32-13.64 222.32-10.52L222.32-10.52ZM212.12-18.76Q209.08-18.76 207.02-16.82Q204.96-14.88 204.68-11.76L204.68-11.76L219.60-11.76Q219.32-14.88 217.26-16.82Q215.20-18.76 212.12-18.76L212.12-18.76Z M269.64-21.20Q273.60-21.20 275.86-18.92Q278.12-16.64 278.12-12.20L278.12-12.20L278.12 0L275.28 0L275.28-11.92Q275.28-15.20 273.70-16.92Q272.12-18.64 269.24-18.64L269.24-18.64Q265.96-18.64 264.08-16.62Q262.20-14.60 262.20-11.04L262.20-11.04L262.20 0L259.36 0L259.36-11.92Q259.36-15.20 257.78-16.92Q256.20-18.64 253.28-18.64L253.28-18.64Q250.04-18.64 248.14-16.62Q246.24-14.60 246.24-11.04L246.24-11.04L246.24 0L243.40 0L243.40-21.04L246.12-21.04L246.12-17.20Q247.24-19.12 249.24-20.16Q251.24-21.20 253.84-21.20L253.84-21.20Q256.48-21.20 258.42-20.08Q260.36-18.96 261.32-16.76L261.32-16.76Q262.48-18.84 264.66-20.02Q266.84-21.20 269.64-21.20L269.64-21.20Z M295.60-21.20Q299.72-21.20 301.92-19.14Q304.12-17.08 304.12-13.04L304.12-13.04L304.12 0L301.40 0L301.40-3.28Q300.44-1.64 298.58-0.72Q296.72 0.20 294.16 0.20L294.16 0.20Q290.64 0.20 288.56-1.48Q286.48-3.16 286.48-5.92L286.48-5.92Q286.48-8.60 288.42-10.24Q290.36-11.88 294.60-11.88L294.60-11.88L301.28-11.88L301.28-13.16Q301.28-15.88 299.76-17.30Q298.24-18.72 295.32-18.72L295.32-18.72Q293.32-18.72 291.48-18.06Q289.64-17.40 288.32-16.24L288.32-16.24L287.04-18.36Q288.64-19.72 290.88-20.46Q293.12-21.20 295.60-21.20L295.60-21.20ZM294.60-2.04Q297.00-2.04 298.72-3.14Q300.44-4.24 301.28-6.32L301.28-6.32L301.28-9.76L294.68-9.76Q289.28-9.76 289.28-6L289.28-6Q289.28-4.16 290.68-3.10Q292.08-2.04 294.60-2.04L294.60-2.04Z M330.52 0L322.04-10.56L317.08-6L317.08 0L314.24 0L314.24-29.68L317.08-29.68L317.08-9.56L329.64-21.04L333.16-21.04L324.16-12.44L334.00 0L330.52 0Z M358.20-10.52L358.16-9.64L340.56-9.64Q340.80-6.36 343.08-4.34Q345.36-2.32 348.84-2.32L348.84-2.32Q350.80-2.32 352.44-3.02Q354.08-3.72 355.28-5.08L355.28-5.08L356.88-3.24Q355.48-1.56 353.38-0.68Q351.28 0.20 348.76 0.20L348.76 0.20Q345.52 0.20 343.02-1.18Q340.52-2.56 339.12-5Q337.72-7.44 337.72-10.52L337.72-10.52Q337.72-13.60 339.06-16.04Q340.40-18.48 342.74-19.84Q345.08-21.20 348.00-21.20L348.00-21.20Q350.92-21.20 353.24-19.84Q355.56-18.48 356.88-16.06Q358.20-13.64 358.20-10.52L358.20-10.52ZM348.00-18.76Q344.96-18.76 342.90-16.82Q340.84-14.88 340.56-11.76L340.56-11.76L355.48-11.76Q355.20-14.88 353.14-16.82Q351.08-18.76 348.00-18.76L348.00-18.76Z M372.04 0.20Q369.48 0.20 367.14-0.54Q364.80-1.28 363.48-2.40L363.48-2.40L364.76-4.64Q366.08-3.60 368.08-2.94Q370.08-2.28 372.24-2.28L372.24-2.28Q375.12-2.28 376.50-3.18Q377.88-4.08 377.88-5.72L377.88-5.72Q377.88-6.88 377.12-7.54Q376.36-8.20 375.20-8.54Q374.04-8.88 372.12-9.20L372.12-9.20Q369.56-9.68 368.00-10.18Q366.44-10.68 365.34-11.88Q364.24-13.08 364.24-15.20L364.24-15.20Q364.24-17.84 366.44-19.52Q368.64-21.20 372.56-21.20L372.56-21.20Q374.60-21.20 376.64-20.66Q378.68-20.12 380.00-19.24L380.00-19.24L378.76-16.96Q376.16-18.76 372.56-18.76L372.56-18.76Q369.84-18.76 368.46-17.80Q367.08-16.84 367.08-15.28L367.08-15.28Q367.08-14.08 367.86-13.36Q368.64-12.64 369.80-12.30Q370.96-11.96 373.00-11.60L373.00-11.60Q375.52-11.12 377.04-10.64Q378.56-10.16 379.64-9Q380.72-7.84 380.72-5.80L380.72-5.80Q380.72-3.04 378.42-1.42Q376.12 0.20 372.04 0.20L372.04 0.20Z M401.24 0L401.24-21.04L404.08-21.04L404.08 0L401.24 0ZM402.68-25.64Q401.80-25.64 401.20-26.24Q400.60-26.84 400.60-27.68L400.60-27.68Q400.60-28.48 401.20-29.08Q401.80-29.68 402.68-29.68L402.68-29.68Q403.56-29.68 404.16-29.10Q404.76-28.52 404.76-27.72L404.76-27.72Q404.76-26.84 404.16-26.24Q403.56-25.64 402.68-25.64L402.68-25.64Z M440.64-21.20Q444.60-21.20 446.86-18.92Q449.12-16.64 449.12-12.20L449.12-12.20L449.12 0L446.28 0L446.28-11.92Q446.28-15.20 444.70-16.92Q443.12-18.64 440.24-18.64L440.24-18.64Q436.96-18.64 435.08-16.62Q433.20-14.60 433.20-11.04L433.20-11.04L433.20 0L430.36 0L430.36-11.92Q430.36-15.20 428.78-16.92Q427.20-18.64 424.28-18.64L424.28-18.64Q421.04-18.64 419.14-16.62Q417.24-14.60 417.24-11.04L417.24-11.04L417.24 0L414.40 0L414.40-21.04L417.12-21.04L417.12-17.20Q418.24-19.12 420.24-20.16Q422.24-21.20 424.84-21.20L424.84-21.20Q427.48-21.20 429.42-20.08Q431.36-18.96 432.32-16.76L432.32-16.76Q433.48-18.84 435.66-20.02Q437.84-21.20 440.64-21.20L440.64-21.20Z M470.08-21.20Q473.04-21.20 475.44-19.86Q477.84-18.52 479.20-16.08Q480.56-13.64 480.56-10.52L480.56-10.52Q480.56-7.36 479.20-4.92Q477.84-2.48 475.46-1.14Q473.08 0.20 470.08 0.20L470.08 0.20Q467.52 0.20 465.46-0.86Q463.40-1.92 462.08-3.96L462.08-3.96L462.08 7.76L459.24 7.76L459.24-21.04L461.96-21.04L461.96-16.88Q463.24-18.96 465.34-20.08Q467.44-21.20 470.08-21.20L470.08-21.20ZM469.88-2.32Q472.08-2.32 473.88-3.34Q475.68-4.36 476.70-6.24Q477.72-8.12 477.72-10.52L477.72-10.52Q477.72-12.92 476.70-14.78Q475.68-16.64 473.88-17.68Q472.08-18.72 469.88-18.72L469.88-18.72Q467.64-18.72 465.86-17.68Q464.08-16.64 463.06-14.78Q462.04-12.92 462.04-10.52L462.04-10.52Q462.04-8.12 463.06-6.24Q464.08-4.36 465.86-3.34Q467.64-2.32 469.88-2.32L469.88-2.32Z M497.36 0.20Q494.32 0.20 491.88-1.18Q489.44-2.56 488.04-5Q486.64-7.44 486.64-10.52L486.64-10.52Q486.64-13.60 488.04-16.04Q489.44-18.48 491.88-19.84Q494.32-21.20 497.36-21.20L497.36-21.20Q500.40-21.20 502.84-19.84Q505.28-18.48 506.66-16.04Q508.04-13.60 508.04-10.52L508.04-10.52Q508.04-7.44 506.66-5Q505.28-2.56 502.84-1.18Q500.40 0.20 497.36 0.20L497.36 0.20ZM497.36-2.32Q499.60-2.32 501.38-3.34Q503.16-4.36 504.16-6.24Q505.16-8.12 505.16-10.52L505.16-10.52Q505.16-12.92 504.16-14.80Q503.16-16.68 501.38-17.70Q499.60-18.72 497.36-18.72L497.36-18.72Q495.12-18.72 493.34-17.70Q491.56-16.68 490.54-14.80Q489.52-12.92 489.52-10.52L489.52-10.52Q489.52-8.12 490.54-6.24Q491.56-4.36 493.34-3.34Q495.12-2.32 497.36-2.32L497.36-2.32Z M521.88 0.20Q519.32 0.20 516.98-0.54Q514.64-1.28 513.32-2.40L513.32-2.40L514.60-4.64Q515.92-3.60 517.92-2.94Q519.92-2.28 522.08-2.28L522.08-2.28Q524.96-2.28 526.34-3.18Q527.72-4.08 527.72-5.72L527.72-5.72Q527.72-6.88 526.96-7.54Q526.20-8.20 525.04-8.54Q523.88-8.88 521.96-9.20L521.96-9.20Q519.40-9.68 517.84-10.18Q516.28-10.68 515.18-11.88Q514.08-13.08 514.08-15.20L514.08-15.20Q514.08-17.84 516.28-19.52Q518.48-21.20 522.40-21.20L522.40-21.20Q524.44-21.20 526.48-20.66Q528.52-20.12 529.84-19.24L529.84-19.24L528.60-16.96Q526-18.76 522.40-18.76L522.40-18.76Q519.68-18.76 518.30-17.80Q516.92-16.84 516.92-15.28L516.92-15.28Q516.92-14.08 517.70-13.36Q518.48-12.64 519.64-12.30Q520.80-11.96 522.84-11.60L522.84-11.60Q525.36-11.12 526.88-10.64Q528.40-10.16 529.48-9Q530.56-7.84 530.56-5.80L530.56-5.80Q530.56-3.04 528.26-1.42Q525.96 0.20 521.88 0.20L521.88 0.20Z M543.84 0.20Q541.28 0.20 538.94-0.54Q536.60-1.28 535.28-2.40L535.28-2.40L536.56-4.64Q537.88-3.60 539.88-2.94Q541.88-2.28 544.04-2.28L544.04-2.28Q546.92-2.28 548.30-3.18Q549.68-4.08 549.68-5.72L549.68-5.72Q549.68-6.88 548.92-7.54Q548.16-8.20 547.00-8.54Q545.84-8.88 543.92-9.20L543.92-9.20Q541.36-9.68 539.80-10.18Q538.24-10.68 537.14-11.88Q536.04-13.08 536.04-15.20L536.04-15.20Q536.04-17.84 538.24-19.52Q540.44-21.20 544.36-21.20L544.36-21.20Q546.40-21.20 548.44-20.66Q550.48-20.12 551.80-19.24L551.80-19.24L550.56-16.96Q547.96-18.76 544.36-18.76L544.36-18.76Q541.64-18.76 540.26-17.80Q538.88-16.84 538.88-15.28L538.88-15.28Q538.88-14.08 539.66-13.36Q540.44-12.64 541.60-12.30Q542.76-11.96 544.80-11.60L544.80-11.60Q547.32-11.12 548.84-10.64Q550.36-10.16 551.44-9Q552.52-7.84 552.52-5.80L552.52-5.80Q552.52-3.04 550.22-1.42Q547.92 0.20 543.84 0.20L543.84 0.20Z M560.16 0L560.16-21.04L563.00-21.04L563.00 0L560.16 0ZM561.60-25.64Q560.72-25.64 560.12-26.24Q559.52-26.84 559.52-27.68L559.52-27.68Q559.52-28.48 560.12-29.08Q560.72-29.68 561.60-29.68L561.60-29.68Q562.48-29.68 563.08-29.10Q563.68-28.52 563.68-27.72L563.68-27.72Q563.68-26.84 563.08-26.24Q562.48-25.64 561.60-25.64L561.60-25.64Z M584.16-21.20Q587.12-21.20 589.52-19.86Q591.92-18.52 593.28-16.08Q594.64-13.64 594.64-10.52L594.64-10.52Q594.64-7.40 593.28-4.96Q591.92-2.52 589.52-1.16Q587.12 0.20 584.16 0.20L584.16 0.20Q581.52 0.20 579.42-0.92Q577.32-2.04 576.04-4.16L576.04-4.16L576.04 0L573.32 0L573.32-29.68L576.16-29.68L576.16-17.04Q577.48-19.08 579.54-20.14Q581.60-21.20 584.16-21.20L584.16-21.20ZM583.96-2.32Q586.16-2.32 587.96-3.34Q589.76-4.36 590.78-6.24Q591.80-8.12 591.80-10.52L591.80-10.52Q591.80-12.92 590.78-14.80Q589.76-16.68 587.96-17.70Q586.16-18.72 583.96-18.72L583.96-18.72Q581.72-18.72 579.94-17.70Q578.16-16.68 577.14-14.80Q576.12-12.92 576.12-10.52L576.12-10.52Q576.12-8.12 577.14-6.24Q578.16-4.36 579.94-3.34Q581.72-2.32 583.96-2.32L583.96-2.32Z M602.84 0L602.84-29.68L605.68-29.68L605.68 0L602.84 0Z M634.36-10.52L634.32-9.64L616.72-9.64Q616.96-6.36 619.24-4.34Q621.52-2.32 625.00-2.32L625.00-2.32Q626.96-2.32 628.60-3.02Q630.24-3.72 631.44-5.08L631.44-5.08L633.04-3.24Q631.64-1.56 629.54-0.68Q627.44 0.20 624.92 0.20L624.92 0.20Q621.68 0.20 619.18-1.18Q616.68-2.56 615.28-5Q613.88-7.44 613.88-10.52L613.88-10.52Q613.88-13.60 615.22-16.04Q616.56-18.48 618.90-19.84Q621.24-21.20 624.16-21.20L624.16-21.20Q627.08-21.20 629.40-19.84Q631.72-18.48 633.04-16.06Q634.36-13.64 634.36-10.52L634.36-10.52ZM624.16-18.76Q621.12-18.76 619.06-16.82Q617.00-14.88 616.72-11.76L616.72-11.76L631.64-11.76Q631.36-14.88 629.30-16.82Q627.24-18.76 624.16-18.76L624.16-18.76Z M666.28-21.20Q669.24-21.20 671.64-19.86Q674.04-18.52 675.40-16.08Q676.76-13.64 676.76-10.52L676.76-10.52Q676.76-7.36 675.40-4.92Q674.04-2.48 671.66-1.14Q669.28 0.20 666.28 0.20L666.28 0.20Q663.72 0.20 661.66-0.86Q659.60-1.92 658.28-3.96L658.28-3.96L658.28 7.76L655.44 7.76L655.44-21.04L658.16-21.04L658.16-16.88Q659.44-18.96 661.54-20.08Q663.64-21.20 666.28-21.20L666.28-21.20ZM666.08-2.32Q668.28-2.32 670.08-3.34Q671.88-4.36 672.90-6.24Q673.92-8.12 673.92-10.52L673.92-10.52Q673.92-12.92 672.90-14.78Q671.88-16.64 670.08-17.68Q668.28-18.72 666.08-18.72L666.08-18.72Q663.84-18.72 662.06-17.68Q660.28-16.64 659.26-14.78Q658.24-12.92 658.24-10.52L658.24-10.52Q658.24-8.12 659.26-6.24Q660.28-4.36 662.06-3.34Q663.84-2.32 666.08-2.32L666.08-2.32Z M693.56 0.20Q690.52 0.20 688.08-1.18Q685.64-2.56 684.24-5Q682.84-7.44 682.84-10.52L682.84-10.52Q682.84-13.60 684.24-16.04Q685.64-18.48 688.08-19.84Q690.52-21.20 693.56-21.20L693.56-21.20Q696.60-21.20 699.04-19.84Q701.48-18.48 702.86-16.04Q704.24-13.60 704.24-10.52L704.24-10.52Q704.24-7.44 702.86-5Q701.48-2.56 699.04-1.18Q696.60 0.20 693.56 0.20L693.56 0.20ZM693.56-2.32Q695.80-2.32 697.58-3.34Q699.36-4.36 700.36-6.24Q701.36-8.12 701.36-10.52L701.36-10.52Q701.36-12.92 700.36-14.80Q699.36-16.68 697.58-17.70Q695.80-18.72 693.56-18.72L693.56-18.72Q691.32-18.72 689.54-17.70Q687.76-16.68 686.74-14.80Q685.72-12.92 685.72-10.52L685.72-10.52Q685.72-8.12 686.74-6.24Q687.76-4.36 689.54-3.34Q691.32-2.32 693.56-2.32L693.56-2.32Z M718.08 0.20Q715.52 0.20 713.18-0.54Q710.84-1.28 709.52-2.40L709.52-2.40L710.80-4.64Q712.12-3.60 714.12-2.94Q716.12-2.28 718.28-2.28L718.28-2.28Q721.16-2.28 722.54-3.18Q723.92-4.08 723.92-5.72L723.92-5.72Q723.92-6.88 723.16-7.54Q722.40-8.20 721.24-8.54Q720.08-8.88 718.16-9.20L718.16-9.20Q715.60-9.68 714.04-10.18Q712.48-10.68 711.38-11.88Q710.28-13.08 710.28-15.20L710.28-15.20Q710.28-17.84 712.48-19.52Q714.68-21.20 718.60-21.20L718.60-21.20Q720.64-21.20 722.68-20.66Q724.72-20.12 726.04-19.24L726.04-19.24L724.80-16.96Q722.20-18.76 718.60-18.76L718.60-18.76Q715.88-18.76 714.50-17.80Q713.12-16.84 713.12-15.28L713.12-15.28Q713.12-14.08 713.90-13.36Q714.68-12.64 715.84-12.30Q717.00-11.96 719.04-11.60L719.04-11.60Q721.56-11.12 723.08-10.64Q724.60-10.16 725.68-9Q726.76-7.84 726.76-5.80L726.76-5.80Q726.76-3.04 724.46-1.42Q722.16 0.20 718.08 0.20L718.08 0.20Z M740.04 0.20Q737.48 0.20 735.14-0.54Q732.80-1.28 731.48-2.40L731.48-2.40L732.76-4.64Q734.08-3.60 736.08-2.94Q738.08-2.28 740.24-2.28L740.24-2.28Q743.12-2.28 744.50-3.18Q745.88-4.08 745.88-5.72L745.88-5.72Q745.88-6.88 745.12-7.54Q744.36-8.20 743.20-8.54Q742.04-8.88 740.12-9.20L740.12-9.20Q737.56-9.68 736.00-10.18Q734.44-10.68 733.34-11.88Q732.24-13.08 732.24-15.20L732.24-15.20Q732.24-17.84 734.44-19.52Q736.64-21.20 740.56-21.20L740.56-21.20Q742.60-21.20 744.64-20.66Q746.68-20.12 748.00-19.24L748.00-19.24L746.76-16.96Q744.16-18.76 740.56-18.76L740.56-18.76Q737.84-18.76 736.46-17.80Q735.08-16.84 735.08-15.28L735.08-15.28Q735.08-14.08 735.86-13.36Q736.64-12.64 737.80-12.30Q738.96-11.96 741.00-11.60L741.00-11.60Q743.52-11.12 745.04-10.64Q746.56-10.16 747.64-9Q748.72-7.84 748.72-5.80L748.72-5.80Q748.72-3.04 746.42-1.42Q744.12 0.20 740.04 0.20L740.04 0.20Z M756.36 0L756.36-21.04L759.20-21.04L759.20 0L756.36 0ZM757.80-25.64Q756.92-25.64 756.32-26.24Q755.72-26.84 755.72-27.68L755.72-27.68Q755.72-28.48 756.32-29.08Q756.92-29.68 757.80-29.68L757.80-29.68Q758.68-29.68 759.28-29.10Q759.88-28.52 759.88-27.72L759.88-27.72Q759.88-26.84 759.28-26.24Q758.68-25.64 757.80-25.64L757.80-25.64Z M780.36-21.20Q783.32-21.20 785.72-19.86Q788.12-18.52 789.48-16.08Q790.84-13.64 790.84-10.52L790.84-10.52Q790.84-7.40 789.48-4.96Q788.12-2.52 785.72-1.16Q783.32 0.20 780.36 0.20L780.36 0.20Q777.72 0.20 775.62-0.92Q773.52-2.04 772.24-4.16L772.24-4.16L772.24 0L769.52 0L769.52-29.68L772.36-29.68L772.36-17.04Q773.68-19.08 775.74-20.14Q777.80-21.20 780.36-21.20L780.36-21.20ZM780.16-2.32Q782.36-2.32 784.16-3.34Q785.96-4.36 786.98-6.24Q788.00-8.12 788.00-10.52L788.00-10.52Q788.00-12.92 786.98-14.80Q785.96-16.68 784.16-17.70Q782.36-18.72 780.16-18.72L780.16-18.72Q777.92-18.72 776.14-17.70Q774.36-16.68 773.34-14.80Q772.32-12.92 772.32-10.52L772.32-10.52Q772.32-8.12 773.34-6.24Q774.36-4.36 776.14-3.34Q777.92-2.32 780.16-2.32L780.16-2.32Z M799.04 0L799.04-29.68L801.88-29.68L801.88 0L799.04 0Z M830.56-10.52L830.52-9.64L812.92-9.64Q813.16-6.36 815.44-4.34Q817.72-2.32 821.20-2.32L821.20-2.32Q823.16-2.32 824.80-3.02Q826.44-3.72 827.64-5.08L827.64-5.08L829.24-3.24Q827.84-1.56 825.74-0.68Q823.64 0.20 821.12 0.20L821.12 0.20Q817.88 0.20 815.38-1.18Q812.88-2.56 811.48-5Q810.08-7.44 810.08-10.52L810.08-10.52Q810.08-13.60 811.42-16.04Q812.76-18.48 815.10-19.84Q817.44-21.20 820.36-21.20L820.36-21.20Q823.28-21.20 825.60-19.84Q827.92-18.48 829.24-16.06Q830.56-13.64 830.56-10.52L830.56-10.52ZM820.36-18.76Q817.32-18.76 815.26-16.82Q813.20-14.88 812.92-11.76L812.92-11.76L827.84-11.76Q827.56-14.88 825.50-16.82Q823.44-18.76 820.36-18.76L820.36-18.76Z"/></g>
</svg>
</g><g opacity="1" transform="rotate(0 171.5368 444.0153)">
<svg width="391.503" height="70" x="171.5368" y="444.0153" version="1.1" preserveAspectRatio="none" viewBox="1.6016 -26.8359 195.31240000000003 34.9219">
  <g transform="matrix(1 0 0 1 0 0)" class="companyName"><path id="id-D6z1nYkh7" d="M30-18.81L27.79-18.81L27.79-24.55L9.65-24.55L9.65-14.92L24.69-14.92L24.69-12.64L9.65-12.64L9.65-2.21L15.23-2.21L15.23 0L1.60 0L1.60-2.21L7.21-2.21L7.21-24.65L1.60-24.65L1.60-26.84L30-26.84L30-18.81Z M61.31-2.21L61.31 0L54.47 0L54.47-3.52Q53.55-2.64 52.42-1.88Q51.29-1.13 49.99-0.57Q48.69 0 47.25 0.32Q45.80 0.64 44.28 0.64L44.28 0.64Q42.44 0.64 41.08 0.19Q39.73-0.27 38.83-1.11Q37.93-1.95 37.48-3.15Q37.03-4.36 37.03-5.84L37.03-5.84L37.03-16.41L32.64-16.41L32.64-18.59L39.47-18.59L39.47-6.56Q39.47-5.08 39.85-4.11Q40.23-3.14 40.94-2.58Q41.64-2.01 42.65-1.79Q43.65-1.56 44.92-1.56L44.92-1.56Q46.37-1.56 47.77-1.95Q49.18-2.34 50.43-2.94Q51.68-3.54 52.71-4.25Q53.75-4.96 54.47-5.61L54.47-5.61L54.47-16.41L50.08-16.41L50.08-18.59L56.91-18.59L56.91-2.21L61.31-2.21Z M63.03-16.41L63.03-18.59L69.86-18.59L69.86-14.69Q70.66-15.63 71.58-16.44Q72.50-17.25 73.56-17.84Q74.63-18.44 75.85-18.78Q77.07-19.12 78.48-19.12L78.48-19.12Q79.18-19.12 79.79-19.01Q80.39-18.91 80.86-18.77Q81.33-18.63 81.64-18.50Q81.95-18.36 82.07-18.32L82.07-18.32L81.19-16.07Q80.70-16.33 79.93-16.60Q79.16-16.88 77.99-16.88L77.99-16.88Q76.50-16.88 75.26-16.42Q74.02-15.96 73.02-15.27Q72.01-14.59 71.23-13.76Q70.45-12.93 69.86-12.21L69.86-12.21L69.86-2.21L74.67-2.21L74.67 0L63.03 0L63.03-2.21L67.42-2.21L67.42-16.41L63.03-16.41Z M115.96 0L115.96-2.21L120.35-2.21L120.35-12.03Q120.35-13.52 119.98-14.48Q119.61-15.45 118.93-16.02Q118.24-16.58 117.28-16.81Q116.31-17.03 115.12-17.03L115.12-17.03Q113.85-17.03 112.64-16.64Q111.43-16.25 110.31-15.64Q109.20-15.04 108.24-14.33Q107.29-13.61 106.56-12.97L106.56-12.97L106.56-12.75L106.56-2.21L110.96-2.21L110.96 0L99.73 0L99.73-2.21L104.12-2.21L104.12-12.03Q104.12-13.52 103.75-14.48Q103.38-15.45 102.69-16.02Q101.99-16.58 101.03-16.81Q100.06-17.03 98.89-17.03L98.89-17.03Q97.58-17.03 96.35-16.64Q95.12-16.25 94.01-15.66Q92.91-15.08 91.97-14.37Q91.04-13.65 90.31-13.01L90.31-13.01L90.31-2.21L94.73-2.21L94.73 0L83.48 0L83.48-2.21L87.87-2.21L87.87-16.41L83.48-16.41L83.48-18.59L90.31-18.59L90.31-15.27Q91.23-16.07 92.27-16.80Q93.30-17.52 94.45-18.06Q95.61-18.59 96.87-18.92Q98.13-19.24 99.51-19.24L99.51-19.24Q102.30-19.24 103.96-18.13Q105.63-17.03 106.23-15.08L106.23-15.08Q107.15-15.86 108.24-16.61Q109.34-17.36 110.56-17.95Q111.78-18.54 113.10-18.89Q114.41-19.24 115.76-19.24L115.76-19.24Q117.52-19.24 118.84-18.78Q120.16-18.32 121.04-17.48Q121.91-16.64 122.35-15.44Q122.79-14.24 122.79-12.75L122.79-12.75L122.79-2.21L127.21-2.21L127.21 0L115.96 0Z M157.15-2.21L157.15 0L150.31 0L150.31-3.52Q149.39-2.64 148.26-1.88Q147.13-1.13 145.83-0.57Q144.53 0 143.09 0.32Q141.64 0.64 140.12 0.64L140.12 0.64Q138.28 0.64 136.92 0.19Q135.57-0.27 134.67-1.11Q133.77-1.95 133.32-3.15Q132.87-4.36 132.87-5.84L132.87-5.84L132.87-16.41L128.48-16.41L128.48-18.59L135.31-18.59L135.31-6.56Q135.31-5.08 135.69-4.11Q136.07-3.14 136.78-2.58Q137.48-2.01 138.49-1.79Q139.49-1.56 140.76-1.56L140.76-1.56Q142.21-1.56 143.61-1.95Q145.02-2.34 146.27-2.94Q147.52-3.54 148.55-4.25Q149.59-4.96 150.31-5.61L150.31-5.61L150.31-16.41L145.92-16.41L145.92-18.59L152.75-18.59L152.75-2.21L157.15-2.21Z M157.56-24.65L157.56-26.84L164.39-26.84L164.39-6.07Q164.39-4.90 164.59-4.17Q164.79-3.44 165.21-3.04Q165.63-2.64 166.30-2.50Q166.97-2.36 167.91-2.36L167.91-2.36L169.82-2.36L169.82 0L167.95 0Q166.39 0 165.25-0.28Q164.12-0.57 163.39-1.27Q162.66-1.97 162.30-3.15Q161.95-4.34 161.95-6.15L161.95-6.15L161.95-24.65L157.56-24.65Z M196.91-18.59L196.91-16.41L193.22-16.41L186.00-2.21L185.55-1.37Q184.82 0.06 184.19 1.32Q183.55 2.58 182.89 3.62Q182.23 4.67 181.48 5.50Q180.74 6.33 179.83 6.90Q178.93 7.48 177.79 7.78Q176.66 8.09 175.20 8.09L175.20 8.09Q174.02 8.09 172.74 7.75Q171.46 7.42 170.47 6.76L170.47 6.76L171.54 4.69Q171.82 4.86 172.16 5.08Q172.50 5.29 172.95 5.48Q173.40 5.66 173.96 5.79Q174.51 5.92 175.20 5.92L175.20 5.92Q176.58 5.92 177.61 5.53Q178.63 5.14 179.45 4.40Q180.27 3.67 180.95 2.60Q181.62 1.52 182.30 0.16L182.30 0.16L174.02-16.41L170.39-16.41L170.39-18.59L180.04-18.59L180.04-16.41L176.84-16.41L183.63-2.40L190.55-16.41L187.27-16.41L187.27-18.59L196.91-18.59Z"/></g>
</svg>
</g></svg></svg>