<svg version="1.1" preserveAspectRatio="none" xmlns="http://www.w3.org/2000/svg" width="80" height="80" viewBox="0 0 500 500"><rect width="100%" height="100%" fill="#FBFBFB" fill-opacity="1"/><svg viewBox="-422.0222 60.0288 597.2334 273.5309" width="333" height="152.51288641927928" x="83.5px" y="173.7436px" xmlns="http://www.w3.org/2000/svg" xmlns:xlink="http://www.w3.org/1999/xlink" preserveAspectRatio="none"><defs></defs><style>.aL7LgFViNzcolors-1 {fill:#EFEEEE;fill-opacity:1;}.aL7LgFViNzcolors-2 {fill:#E9CE34;fill-opacity:1;}.au3jwtCsGccolors-1 {fill:#EFEEEE;fill-opacity:1;}.au3jwtCsGccolors-2 {fill:#E9CE34;fill-opacity:1;}.companyName {fill:#434343;fill-opacity:1;}.icon2 {fill:#EFEEEE;fill-opacity:1;}.icon3 {fill:#EFDEBE;fill-opacity:1;}.icon3-str {stroke:#EFDEBE;stroke-opacity:1;}.shape {fill:#FFBDEA;fill-opacity:1;}.text {fill:#434343;fill-opacity:1;}</style><g opacity="1" transform="rotate(80 48.7081 65.1409)">
<svg width="229.6184" height="214.092" x="48.7081" y="65.1409" version="1.1" preserveAspectRatio="none" viewBox="28.296001434326172 33.14500045776367 143.40798950195312 133.7109832763672">
  <g transform="matrix(-1 0 0 -1 199.99999237060547 200.00098419189453)" ><g><path d="M107.066 109.086l-7.659 6.125-8.039-6.429-8.033 6.429-7.765-6.213-32.537 56.357h51.949l22.285-38.599-10.201-17.67z" data-color="1" class="icon3"></path><path d="M118.566 126.005l-10.202-17.67-15.772-27.319a1.5 1.5 0 0 0-2.598 0l-15.723 27.232-32.538 56.356a1.5 1.5 0 0 0 1.299 2.25h51.95a1.5 1.5 0 0 0 1.299-.75l22.285-38.6a1.498 1.498 0 0 0 0-1.499zM91.293 84.766l13.829 23.953-5.715 4.571-7.102-5.68a1.5 1.5 0 0 0-1.874.001l-7.096 5.679-5.822-4.657 13.78-23.867zm2.823 79.089H45.631l30.366-52.595 6.402 5.121a1.498 1.498 0 0 0 1.874 0l7.097-5.679 7.101 5.68a1.5 1.5 0 0 0 1.874 0l6.296-5.035 8.896 15.408-21.421 37.1z"></path><path d="M160.101 165.355l-22.458-38.899-4.927 3.94-5.123-4.097-5.12 4.097-4.998-4-22.493 38.959h65.119z" data-color="2" class="icon2"></path><path d="M161.4 164.605l-22.458-38.899-10.101-17.496a1.5 1.5 0 0 0-2.598 0l-10.067 17.438-22.492 38.958a1.5 1.5 0 0 0 1.299 2.25h65.119a1.5 1.5 0 0 0 1.298-2.251zm-33.858-52.646l8.157 14.129-2.983 2.386-4.186-3.349a1.528 1.528 0 0 0-.41-.226 1.49 1.49 0 0 0-1.465.227l-4.183 3.348-3.055-2.444 8.125-14.071zM97.58 163.855l20.32-35.196 3.636 2.908a1.5 1.5 0 0 0 1.875 0l4.183-3.348 4.186 3.349c.274.219.605.328.937.328s.663-.109.937-.328l3.564-2.85 20.286 35.137H97.58z"></path><path d="M38.098 51.979l-2.121-2.121-2.78 2.78-2.78-2.78-2.121 2.121 2.78 2.78-2.78 2.781 2.121 2.121 2.78-2.781 2.78 2.781 2.121-2.121-2.78-2.781 2.78-2.78z"></path><path d="M111.785 40.213v10.863h-3V40.213h3z"></path><path d="M69.503 64.932v10.863h-3V64.932h3z"></path><path d="M152.384 58.633h-3.931v-3.931h-3v3.931h-3.932v3h3.932v3.932h3v-3.932h3.931v-3z"></path><path d="M56.491 103.971H52.56v-3.931h-3v3.931h-3.932v3h3.932v3.931h3v-3.931h3.931v-3z"></path><path d="M123.425 78.583l-2.122-2.121-2.78 2.781-2.78-2.781-2.121 2.121 2.78 2.781-2.78 2.78 2.121 2.121 2.78-2.78 2.78 2.78 2.122-2.121-2.781-2.78 2.781-2.781z"></path><path d="M171.704 90.586v3h-10.863v-3h10.863z"></path><path d="M40.33 81.536v3H29.467v-3H40.33z"></path><path d="M149.953 108.493c-3.007 0-5.453-2.446-5.453-5.453s2.446-5.453 5.453-5.453 5.453 2.446 5.453 5.453-2.446 5.453-5.453 5.453zm0-7.907c-1.353 0-2.453 1.101-2.453 2.453s1.101 2.453 2.453 2.453 2.453-1.101 2.453-2.453-1.101-2.453-2.453-2.453z"></path><path d="M71.948 44.051c-3.007 0-5.453-2.446-5.453-5.453s2.446-5.453 5.453-5.453 5.453 2.446 5.453 5.453-2.447 5.453-5.453 5.453zm0-7.906c-1.353 0-2.453 1.101-2.453 2.453s1.101 2.453 2.453 2.453 2.453-1.101 2.453-2.453-1.101-2.453-2.453-2.453z"></path></g></g>
</svg>
</g><g opacity="1" transform="rotate(0 -388.8479 114.7942)">
<svg width="33.456" height="35.9216" x="-388.8479" y="114.7942" version="1.1" preserveAspectRatio="none" viewBox="26.00017547607422 19.999670028686523 148.99948120117188 160.00106811523438">
  <g transform="matrix(-1 0 0 1 200.9998321533203 0)" ><g><path fill-rule="evenodd" d="M115.12 20.004c19.855-.221 39.097 8.017 50.396 24.742 12.798 18.944 8.233 40.805 9.341 61.895 2.845 54.1-37.294 60.649-82.147 71.32-46.912 11.159-72.85-25.113-65.465-68.702 3.766-22.226 15.96-43.06 30.642-59.897C74.82 29.947 92.493 29.007 115.12 20.004" data-color="1" class="icon3"></path></g></g>
</svg>
</g><g opacity="1" transform="rotate(60 5.14 60.0288)">
<svg width="194.9694" height="209.3648" x="5.14" y="60.0288" version="1.1" preserveAspectRatio="none" viewBox="26.00017547607422 19.999670028686523 148.99948120117188 160.00106811523438">
  <g transform="matrix(1 0 0 1 0 0)" ><g><path fill-rule="evenodd" d="M115.12 20.004c19.855-.221 39.097 8.017 50.396 24.742 12.798 18.944 8.233 40.805 9.341 61.895 2.845 54.1-37.294 60.649-82.147 71.32-46.912 11.159-72.85-25.113-65.465-68.702 3.766-22.226 15.96-43.06 30.642-59.897C74.82 29.947 92.493 29.007 115.12 20.004" data-color="1" class="shape"></path></g></g>
</svg>
</g><g opacity="1" transform="rotate(0 -422.0222 250.7942)">
<svg width="597.2334" height="28" x="-422.0222" y="250.7942" version="1.1" preserveAspectRatio="none" viewBox="3.76 -30.88 824.36 38.64">
  <g transform="matrix(1 0 0 1 0 0)" class="text"><path id="id-6izo4zJp38" d="M27.68 0L22.08 0L16.36-8.20Q16-8.16 15.28-8.16L15.28-8.16L8.96-8.16L8.96 0L3.76 0L3.76-28L15.28-28Q18.92-28 21.62-26.80Q24.32-25.60 25.76-23.36Q27.20-21.12 27.20-18.04L27.20-18.04Q27.20-14.88 25.66-12.60Q24.12-10.32 21.24-9.20L21.24-9.20L27.68 0ZM21.96-18.04Q21.96-20.72 20.20-22.16Q18.44-23.60 15.04-23.60L15.04-23.60L8.96-23.60L8.96-12.44L15.04-12.44Q18.44-12.44 20.20-13.90Q21.96-15.36 21.96-18.04L21.96-18.04Z M53.80-10.56Q53.80-10.04 53.72-9.08L53.72-9.08L36.96-9.08Q37.40-6.72 39.26-5.34Q41.12-3.96 43.88-3.96L43.88-3.96Q47.40-3.96 49.68-6.28L49.68-6.28L52.36-3.20Q50.92-1.48 48.72-0.60Q46.52 0.28 43.76 0.28L43.76 0.28Q40.24 0.28 37.56-1.12Q34.88-2.52 33.42-5.02Q31.96-7.52 31.96-10.68L31.96-10.68Q31.96-13.80 33.38-16.30Q34.80-18.80 37.32-20.20Q39.84-21.60 43-21.60L43-21.60Q46.12-21.60 48.58-20.22Q51.04-18.84 52.42-16.34Q53.80-13.84 53.80-10.56L53.80-10.56ZM43-17.60Q40.60-17.60 38.94-16.18Q37.28-14.76 36.92-12.40L36.92-12.40L49.04-12.40Q48.72-14.72 47.08-16.16Q45.44-17.60 43-17.60L43-17.60Z M66.40 0.28Q63.80 0.28 61.32-0.40Q58.84-1.08 57.36-2.12L57.36-2.12L59.28-5.92Q60.72-4.96 62.74-4.38Q64.76-3.80 66.72-3.80L66.72-3.80Q71.20-3.80 71.20-6.16L71.20-6.16Q71.20-7.28 70.06-7.72Q68.92-8.16 66.40-8.56L66.40-8.56Q63.76-8.96 62.10-9.48Q60.44-10 59.22-11.30Q58-12.60 58-14.92L58-14.92Q58-17.96 60.54-19.78Q63.08-21.60 67.40-21.60L67.40-21.60Q69.60-21.60 71.80-21.10Q74-20.60 75.40-19.76L75.40-19.76L73.48-15.96Q70.76-17.56 67.36-17.56L67.36-17.56Q65.16-17.56 64.02-16.90Q62.88-16.24 62.88-15.16L62.88-15.16Q62.88-13.96 64.10-13.46Q65.32-12.96 67.88-12.52L67.88-12.52Q70.44-12.12 72.08-11.60Q73.72-11.08 74.90-9.84Q76.08-8.60 76.08-6.32L76.08-6.32Q76.08-3.32 73.48-1.52Q70.88 0.28 66.40 0.28L66.40 0.28Z M81.60 0L81.60-21.36L86.60-21.36L86.60 0L81.60 0ZM84.12-24.88Q82.76-24.88 81.84-25.74Q80.92-26.60 80.92-27.88L80.92-27.88Q80.92-29.16 81.84-30.02Q82.76-30.88 84.12-30.88L84.12-30.88Q85.48-30.88 86.40-30.06Q87.32-29.24 87.32-28L87.32-28Q87.32-26.68 86.42-25.78Q85.52-24.88 84.12-24.88L84.12-24.88Z M94.36 0L94.36-29.68L99.36-29.68L99.36 0L94.36 0Z M107.12 0L107.12-21.36L112.12-21.36L112.12 0L107.12 0ZM109.64-24.88Q108.28-24.88 107.36-25.74Q106.44-26.60 106.44-27.88L106.44-27.88Q106.44-29.16 107.36-30.02Q108.28-30.88 109.64-30.88L109.64-30.88Q111.00-30.88 111.92-30.06Q112.84-29.24 112.84-28L112.84-28Q112.84-26.68 111.94-25.78Q111.04-24.88 109.64-24.88L109.64-24.88Z M139.96-10.56Q139.96-10.04 139.88-9.08L139.88-9.08L123.12-9.08Q123.56-6.72 125.42-5.34Q127.28-3.96 130.04-3.96L130.04-3.96Q133.56-3.96 135.84-6.28L135.84-6.28L138.52-3.20Q137.08-1.48 134.88-0.60Q132.68 0.28 129.92 0.28L129.92 0.28Q126.40 0.28 123.72-1.12Q121.04-2.52 119.58-5.02Q118.12-7.52 118.12-10.68L118.12-10.68Q118.12-13.80 119.54-16.30Q120.96-18.80 123.48-20.20Q126.00-21.60 129.16-21.60L129.16-21.60Q132.28-21.60 134.74-20.22Q137.20-18.84 138.58-16.34Q139.96-13.84 139.96-10.56L139.96-10.56ZM129.16-17.60Q126.76-17.60 125.10-16.18Q123.44-14.76 123.08-12.40L123.08-12.40L135.20-12.40Q134.88-14.72 133.24-16.16Q131.60-17.60 129.16-17.60L129.16-17.60Z M158.08-21.60Q162.12-21.60 164.56-19.24Q167-16.88 167-12.24L167-12.24L167 0L162 0L162-11.60Q162-14.40 160.68-15.82Q159.36-17.24 156.92-17.24L156.92-17.24Q154.16-17.24 152.56-15.58Q150.96-13.92 150.96-10.80L150.96-10.80L150.96 0L145.96 0L145.96-21.36L150.72-21.36L150.72-18.60Q151.96-20.08 153.84-20.84Q155.72-21.60 158.08-21.60L158.08-21.60Z M184.56 0.28Q181.24 0.28 178.60-1.12Q175.96-2.52 174.48-5.02Q173-7.52 173-10.68L173-10.68Q173-13.84 174.48-16.32Q175.96-18.80 178.58-20.20Q181.20-21.60 184.56-21.60L184.56-21.60Q187.72-21.60 190.10-20.32Q192.48-19.04 193.68-16.64L193.68-16.64L189.84-14.40Q188.92-15.88 187.54-16.62Q186.16-17.36 184.52-17.36L184.52-17.36Q181.72-17.36 179.88-15.54Q178.04-13.72 178.04-10.68L178.04-10.68Q178.04-7.64 179.86-5.82Q181.68-4 184.52-4L184.52-4Q186.16-4 187.54-4.74Q188.92-5.48 189.84-6.96L189.84-6.96L193.68-4.72Q192.44-2.32 190.06-1.02Q187.68 0.28 184.56 0.28L184.56 0.28Z M218.96-10.56Q218.96-10.04 218.88-9.08L218.88-9.08L202.12-9.08Q202.56-6.72 204.42-5.34Q206.28-3.96 209.04-3.96L209.04-3.96Q212.56-3.96 214.84-6.28L214.84-6.28L217.52-3.20Q216.08-1.48 213.88-0.60Q211.68 0.28 208.92 0.28L208.92 0.28Q205.40 0.28 202.72-1.12Q200.04-2.52 198.58-5.02Q197.12-7.52 197.12-10.68L197.12-10.68Q197.12-13.80 198.54-16.30Q199.96-18.80 202.48-20.20Q205-21.60 208.16-21.60L208.16-21.60Q211.28-21.60 213.74-20.22Q216.20-18.84 217.58-16.34Q218.96-13.84 218.96-10.56L218.96-10.56ZM208.16-17.60Q205.76-17.60 204.10-16.18Q202.44-14.76 202.08-12.40L202.08-12.40L214.20-12.40Q213.88-14.72 212.24-16.16Q210.60-17.60 208.16-17.60L208.16-17.60Z M264.16-21.60Q268.20-21.60 270.56-19.26Q272.92-16.92 272.92-12.24L272.92-12.24L272.92 0L267.92 0L267.92-11.60Q267.92-14.40 266.68-15.82Q265.44-17.24 263.12-17.24L263.12-17.24Q260.60-17.24 259.08-15.58Q257.56-13.92 257.56-10.84L257.56-10.84L257.56 0L252.56 0L252.56-11.60Q252.56-14.40 251.32-15.82Q250.08-17.24 247.76-17.24L247.76-17.24Q245.20-17.24 243.70-15.60Q242.20-13.96 242.20-10.84L242.20-10.84L242.20 0L237.20 0L237.20-21.36L241.96-21.36L241.96-18.64Q243.16-20.08 244.96-20.84Q246.76-21.60 248.96-21.60L248.96-21.60Q251.36-21.60 253.22-20.70Q255.08-19.80 256.16-18.04L256.16-18.04Q257.48-19.72 259.56-20.66Q261.64-21.60 264.16-21.60L264.16-21.60Z M288.68-21.60Q293.40-21.60 295.90-19.34Q298.40-17.08 298.40-12.52L298.40-12.52L298.40 0L293.68 0L293.68-2.60Q292.76-1.20 291.06-0.46Q289.36 0.28 286.96 0.28L286.96 0.28Q284.56 0.28 282.76-0.54Q280.96-1.36 279.98-2.82Q279.00-4.28 279.00-6.12L279.00-6.12Q279.00-9 281.14-10.74Q283.28-12.48 287.88-12.48L287.88-12.48L293.40-12.48L293.40-12.80Q293.40-15.04 292.06-16.24Q290.72-17.44 288.08-17.44L288.08-17.44Q286.28-17.44 284.54-16.88Q282.80-16.32 281.60-15.32L281.60-15.32L279.64-18.96Q281.32-20.24 283.68-20.92Q286.04-21.60 288.68-21.60L288.68-21.60ZM288.00-3.36Q289.88-3.36 291.34-4.22Q292.80-5.08 293.40-6.68L293.40-6.68L293.40-9.16L288.24-9.16Q283.92-9.16 283.92-6.32L283.92-6.32Q283.92-4.96 285.00-4.16Q286.08-3.36 288.00-3.36L288.00-3.36Z M322.12 0L314.72-9.16L311.00-5.64L311.00 0L306.00 0L306.00-29.68L311.00-29.68L311.00-11.76L321.36-21.36L327.36-21.36L318.44-12.40L328.20 0L322.12 0Z M351.84-10.56Q351.84-10.04 351.76-9.08L351.76-9.08L335.00-9.08Q335.44-6.72 337.30-5.34Q339.16-3.96 341.92-3.96L341.92-3.96Q345.44-3.96 347.72-6.28L347.72-6.28L350.40-3.20Q348.96-1.48 346.76-0.60Q344.56 0.28 341.80 0.28L341.80 0.28Q338.28 0.28 335.60-1.12Q332.92-2.52 331.46-5.02Q330.00-7.52 330.00-10.68L330.00-10.68Q330.00-13.80 331.42-16.30Q332.84-18.80 335.36-20.20Q337.88-21.60 341.04-21.60L341.04-21.60Q344.16-21.60 346.62-20.22Q349.08-18.84 350.46-16.34Q351.84-13.84 351.84-10.56L351.84-10.56ZM341.04-17.60Q338.64-17.60 336.98-16.18Q335.32-14.76 334.96-12.40L334.96-12.40L347.08-12.40Q346.76-14.72 345.12-16.16Q343.48-17.60 341.04-17.60L341.04-17.60Z M364.44 0.28Q361.84 0.28 359.36-0.40Q356.88-1.08 355.40-2.12L355.40-2.12L357.32-5.92Q358.76-4.96 360.78-4.38Q362.80-3.80 364.76-3.80L364.76-3.80Q369.24-3.80 369.24-6.16L369.24-6.16Q369.24-7.28 368.10-7.72Q366.96-8.16 364.44-8.56L364.44-8.56Q361.80-8.96 360.14-9.48Q358.48-10 357.26-11.30Q356.04-12.60 356.04-14.92L356.04-14.92Q356.04-17.96 358.58-19.78Q361.12-21.60 365.44-21.60L365.44-21.60Q367.64-21.60 369.84-21.10Q372.04-20.60 373.44-19.76L373.44-19.76L371.52-15.96Q368.80-17.56 365.40-17.56L365.40-17.56Q363.20-17.56 362.06-16.90Q360.92-16.24 360.92-15.16L360.92-15.16Q360.92-13.96 362.14-13.46Q363.36-12.96 365.92-12.52L365.92-12.52Q368.48-12.12 370.12-11.60Q371.76-11.08 372.94-9.84Q374.12-8.60 374.12-6.32L374.12-6.32Q374.12-3.32 371.52-1.52Q368.92 0.28 364.44 0.28L364.44 0.28Z M391.88 0L391.88-21.36L396.88-21.36L396.88 0L391.88 0ZM394.40-24.88Q393.04-24.88 392.12-25.74Q391.20-26.60 391.20-27.88L391.20-27.88Q391.20-29.16 392.12-30.02Q393.04-30.88 394.40-30.88L394.40-30.88Q395.76-30.88 396.68-30.06Q397.60-29.24 397.60-28L397.60-28Q397.60-26.68 396.70-25.78Q395.80-24.88 394.40-24.88L394.40-24.88Z M431.60-21.60Q435.64-21.60 438.00-19.26Q440.36-16.92 440.36-12.24L440.36-12.24L440.36 0L435.36 0L435.36-11.60Q435.36-14.40 434.12-15.82Q432.88-17.24 430.56-17.24L430.56-17.24Q428.04-17.24 426.52-15.58Q425.00-13.92 425.00-10.84L425.00-10.84L425.00 0L420.00 0L420.00-11.60Q420.00-14.40 418.76-15.82Q417.52-17.24 415.20-17.24L415.20-17.24Q412.64-17.24 411.14-15.60Q409.64-13.96 409.64-10.84L409.64-10.84L409.64 0L404.64 0L404.64-21.36L409.40-21.36L409.40-18.64Q410.60-20.08 412.40-20.84Q414.20-21.60 416.40-21.60L416.40-21.60Q418.80-21.60 420.66-20.70Q422.52-19.80 423.60-18.04L423.60-18.04Q424.92-19.72 427.00-20.66Q429.08-21.60 431.60-21.60L431.60-21.60Z M459.80-21.60Q462.92-21.60 465.38-20.24Q467.84-18.88 469.24-16.40Q470.64-13.92 470.64-10.68L470.64-10.68Q470.64-7.44 469.24-4.94Q467.84-2.44 465.38-1.08Q462.92 0.28 459.80 0.28L459.80 0.28Q455.48 0.28 452.96-2.60L452.96-2.60L452.96 7.76L447.96 7.76L447.96-21.36L452.72-21.36L452.72-18.56Q453.96-20.08 455.78-20.84Q457.60-21.60 459.80-21.60L459.80-21.60ZM459.24-4Q462.00-4 463.78-5.84Q465.56-7.68 465.56-10.68L465.56-10.68Q465.56-13.68 463.78-15.52Q462.00-17.36 459.24-17.36L459.24-17.36Q457.44-17.36 456.00-16.54Q454.56-15.72 453.72-14.20Q452.88-12.68 452.88-10.68L452.88-10.68Q452.88-8.68 453.72-7.16Q454.56-5.64 456.00-4.82Q457.44-4 459.24-4L459.24-4Z M486.20 0.28Q482.96 0.28 480.36-1.12Q477.76-2.52 476.30-5.02Q474.84-7.52 474.84-10.68L474.84-10.68Q474.84-13.84 476.30-16.32Q477.76-18.80 480.36-20.20Q482.96-21.60 486.20-21.60L486.20-21.60Q489.48-21.60 492.08-20.20Q494.68-18.80 496.14-16.32Q497.60-13.84 497.60-10.68L497.60-10.68Q497.60-7.52 496.14-5.02Q494.68-2.52 492.08-1.12Q489.48 0.28 486.20 0.28L486.20 0.28ZM486.20-4Q488.96-4 490.76-5.84Q492.56-7.68 492.56-10.68L492.56-10.68Q492.56-13.68 490.76-15.52Q488.96-17.36 486.20-17.36L486.20-17.36Q483.44-17.36 481.66-15.52Q479.88-13.68 479.88-10.68L479.88-10.68Q479.88-7.68 481.66-5.84Q483.44-4 486.20-4L486.20-4Z M510.20 0.28Q507.60 0.28 505.12-0.40Q502.64-1.08 501.16-2.12L501.16-2.12L503.08-5.92Q504.52-4.96 506.54-4.38Q508.56-3.80 510.52-3.80L510.52-3.80Q515.00-3.80 515.00-6.16L515.00-6.16Q515.00-7.28 513.86-7.72Q512.72-8.16 510.20-8.56L510.20-8.56Q507.56-8.96 505.90-9.48Q504.24-10 503.02-11.30Q501.80-12.60 501.80-14.92L501.80-14.92Q501.80-17.96 504.34-19.78Q506.88-21.60 511.20-21.60L511.20-21.60Q513.40-21.60 515.60-21.10Q517.80-20.60 519.20-19.76L519.20-19.76L517.28-15.96Q514.56-17.56 511.16-17.56L511.16-17.56Q508.96-17.56 507.82-16.90Q506.68-16.24 506.68-15.16L506.68-15.16Q506.68-13.96 507.90-13.46Q509.12-12.96 511.68-12.52L511.68-12.52Q514.24-12.12 515.88-11.60Q517.52-11.08 518.70-9.84Q519.88-8.60 519.88-6.32L519.88-6.32Q519.88-3.32 517.28-1.52Q514.68 0.28 510.20 0.28L510.20 0.28Z M532 0.28Q529.40 0.28 526.92-0.40Q524.44-1.08 522.96-2.12L522.96-2.12L524.88-5.92Q526.32-4.96 528.34-4.38Q530.36-3.80 532.32-3.80L532.32-3.80Q536.80-3.80 536.80-6.16L536.80-6.16Q536.80-7.28 535.66-7.72Q534.52-8.16 532-8.56L532-8.56Q529.36-8.96 527.70-9.48Q526.04-10 524.82-11.30Q523.60-12.60 523.60-14.92L523.60-14.92Q523.60-17.96 526.14-19.78Q528.68-21.60 533-21.60L533-21.60Q535.20-21.60 537.40-21.10Q539.60-20.60 541-19.76L541-19.76L539.08-15.96Q536.36-17.56 532.96-17.56L532.96-17.56Q530.76-17.56 529.62-16.90Q528.48-16.24 528.48-15.16L528.48-15.16Q528.48-13.96 529.70-13.46Q530.92-12.96 533.48-12.52L533.48-12.52Q536.04-12.12 537.68-11.60Q539.32-11.08 540.50-9.84Q541.68-8.60 541.68-6.32L541.68-6.32Q541.68-3.32 539.08-1.52Q536.48 0.28 532 0.28L532 0.28Z M547.20 0L547.20-21.36L552.20-21.36L552.20 0L547.20 0ZM549.72-24.88Q548.36-24.88 547.44-25.74Q546.52-26.60 546.52-27.88L546.52-27.88Q546.52-29.16 547.44-30.02Q548.36-30.88 549.72-30.88L549.72-30.88Q551.08-30.88 552.00-30.06Q552.92-29.24 552.92-28L552.92-28Q552.92-26.68 552.02-25.78Q551.12-24.88 549.72-24.88L549.72-24.88Z M571.80-21.60Q574.92-21.60 577.38-20.24Q579.84-18.88 581.24-16.40Q582.64-13.92 582.64-10.68L582.64-10.68Q582.64-7.44 581.24-4.94Q579.84-2.44 577.38-1.08Q574.92 0.28 571.80 0.28L571.80 0.28Q569.60 0.28 567.78-0.48Q565.96-1.24 564.72-2.76L564.72-2.76L564.72 0L559.96 0L559.96-29.68L564.96-29.68L564.96-18.76Q566.24-20.16 567.98-20.88Q569.72-21.60 571.80-21.60L571.80-21.60ZM571.24-4Q574.00-4 575.78-5.84Q577.56-7.68 577.56-10.68L577.56-10.68Q577.56-13.68 575.78-15.52Q574.00-17.36 571.24-17.36L571.24-17.36Q569.44-17.36 568.00-16.54Q566.56-15.72 565.72-14.20Q564.88-12.68 564.88-10.68L564.88-10.68Q564.88-8.68 565.72-7.16Q566.56-5.64 568.00-4.82Q569.44-4 571.24-4L571.24-4Z M588.60 0L588.60-29.68L593.60-29.68L593.60 0L588.60 0Z M621.44-10.56Q621.44-10.04 621.36-9.08L621.36-9.08L604.60-9.08Q605.04-6.72 606.90-5.34Q608.76-3.96 611.52-3.96L611.52-3.96Q615.04-3.96 617.32-6.28L617.32-6.28L620.00-3.20Q618.56-1.48 616.36-0.60Q614.16 0.28 611.40 0.28L611.40 0.28Q607.88 0.28 605.20-1.12Q602.52-2.52 601.06-5.02Q599.60-7.52 599.60-10.68L599.60-10.68Q599.60-13.80 601.02-16.30Q602.44-18.80 604.96-20.20Q607.48-21.60 610.64-21.60L610.64-21.60Q613.76-21.60 616.22-20.22Q618.68-18.84 620.06-16.34Q621.44-13.84 621.44-10.56L621.44-10.56ZM610.64-17.60Q608.24-17.60 606.58-16.18Q604.92-14.76 604.56-12.40L604.56-12.40L616.68-12.40Q616.36-14.72 614.72-16.16Q613.08-17.60 610.64-17.60L610.64-17.60Z M651.52-21.60Q654.64-21.60 657.10-20.24Q659.56-18.88 660.96-16.40Q662.36-13.92 662.36-10.68L662.36-10.68Q662.36-7.44 660.96-4.94Q659.56-2.44 657.10-1.08Q654.64 0.28 651.52 0.28L651.52 0.28Q647.20 0.28 644.68-2.60L644.68-2.60L644.68 7.76L639.68 7.76L639.68-21.36L644.44-21.36L644.44-18.56Q645.68-20.08 647.50-20.84Q649.32-21.60 651.52-21.60L651.52-21.60ZM650.96-4Q653.72-4 655.50-5.84Q657.28-7.68 657.28-10.68L657.28-10.68Q657.28-13.68 655.50-15.52Q653.72-17.36 650.96-17.36L650.96-17.36Q649.16-17.36 647.72-16.54Q646.28-15.72 645.44-14.20Q644.60-12.68 644.60-10.68L644.60-10.68Q644.60-8.68 645.44-7.16Q646.28-5.64 647.72-4.82Q649.16-4 650.96-4L650.96-4Z M677.92 0.28Q674.68 0.28 672.08-1.12Q669.48-2.52 668.02-5.02Q666.56-7.52 666.56-10.68L666.56-10.68Q666.56-13.84 668.02-16.32Q669.48-18.80 672.08-20.20Q674.68-21.60 677.92-21.60L677.92-21.60Q681.20-21.60 683.80-20.20Q686.40-18.80 687.86-16.32Q689.32-13.84 689.32-10.68L689.32-10.68Q689.32-7.52 687.86-5.02Q686.40-2.52 683.80-1.12Q681.20 0.28 677.92 0.28L677.92 0.28ZM677.92-4Q680.68-4 682.48-5.84Q684.28-7.68 684.28-10.68L684.28-10.68Q684.28-13.68 682.48-15.52Q680.68-17.36 677.92-17.36L677.92-17.36Q675.16-17.36 673.38-15.52Q671.60-13.68 671.60-10.68L671.60-10.68Q671.60-7.68 673.38-5.84Q675.16-4 677.92-4L677.92-4Z M701.92 0.28Q699.32 0.28 696.84-0.40Q694.36-1.08 692.88-2.12L692.88-2.12L694.80-5.92Q696.24-4.96 698.26-4.38Q700.28-3.80 702.24-3.80L702.24-3.80Q706.72-3.80 706.72-6.16L706.72-6.16Q706.72-7.28 705.58-7.72Q704.44-8.16 701.92-8.56L701.92-8.56Q699.28-8.96 697.62-9.48Q695.96-10 694.74-11.30Q693.52-12.60 693.52-14.92L693.52-14.92Q693.52-17.96 696.06-19.78Q698.60-21.60 702.92-21.60L702.92-21.60Q705.12-21.60 707.32-21.10Q709.52-20.60 710.92-19.76L710.92-19.76L709.00-15.96Q706.28-17.56 702.88-17.56L702.88-17.56Q700.68-17.56 699.54-16.90Q698.40-16.24 698.40-15.16L698.40-15.16Q698.40-13.96 699.62-13.46Q700.84-12.96 703.40-12.52L703.40-12.52Q705.96-12.12 707.60-11.60Q709.24-11.08 710.42-9.84Q711.60-8.60 711.60-6.32L711.60-6.32Q711.60-3.32 709.00-1.52Q706.40 0.28 701.92 0.28L701.92 0.28Z M723.72 0.28Q721.12 0.28 718.64-0.40Q716.16-1.08 714.68-2.12L714.68-2.12L716.60-5.92Q718.04-4.96 720.06-4.38Q722.08-3.80 724.04-3.80L724.04-3.80Q728.52-3.80 728.52-6.16L728.52-6.16Q728.52-7.28 727.38-7.72Q726.24-8.16 723.72-8.56L723.72-8.56Q721.08-8.96 719.42-9.48Q717.76-10 716.54-11.30Q715.32-12.60 715.32-14.92L715.32-14.92Q715.32-17.96 717.86-19.78Q720.40-21.60 724.72-21.60L724.72-21.60Q726.92-21.60 729.12-21.10Q731.32-20.60 732.72-19.76L732.72-19.76L730.80-15.96Q728.08-17.56 724.68-17.56L724.68-17.56Q722.48-17.56 721.34-16.90Q720.20-16.24 720.20-15.16L720.20-15.16Q720.20-13.96 721.42-13.46Q722.64-12.96 725.20-12.52L725.20-12.52Q727.76-12.12 729.40-11.60Q731.04-11.08 732.22-9.84Q733.40-8.60 733.40-6.32L733.40-6.32Q733.40-3.32 730.80-1.52Q728.20 0.28 723.72 0.28L723.72 0.28Z M738.92 0L738.92-21.36L743.92-21.36L743.92 0L738.92 0ZM741.44-24.88Q740.08-24.88 739.16-25.74Q738.24-26.60 738.24-27.88L738.24-27.88Q738.24-29.16 739.16-30.02Q740.08-30.88 741.44-30.88L741.44-30.88Q742.80-30.88 743.72-30.06Q744.64-29.24 744.64-28L744.64-28Q744.64-26.68 743.74-25.78Q742.84-24.88 741.44-24.88L741.44-24.88Z M763.52-21.60Q766.64-21.60 769.10-20.24Q771.56-18.88 772.96-16.40Q774.36-13.92 774.36-10.68L774.36-10.68Q774.36-7.44 772.96-4.94Q771.56-2.44 769.10-1.08Q766.64 0.28 763.52 0.28L763.52 0.28Q761.32 0.28 759.50-0.48Q757.68-1.24 756.44-2.76L756.44-2.76L756.44 0L751.68 0L751.68-29.68L756.68-29.68L756.68-18.76Q757.96-20.16 759.70-20.88Q761.44-21.60 763.52-21.60L763.52-21.60ZM762.96-4Q765.72-4 767.50-5.84Q769.28-7.68 769.28-10.68L769.28-10.68Q769.28-13.68 767.50-15.52Q765.72-17.36 762.96-17.36L762.96-17.36Q761.16-17.36 759.72-16.54Q758.28-15.72 757.44-14.20Q756.60-12.68 756.60-10.68L756.60-10.68Q756.60-8.68 757.44-7.16Q758.28-5.64 759.72-4.82Q761.16-4 762.96-4L762.96-4Z M780.32 0L780.32-29.68L785.32-29.68L785.32 0L780.32 0Z M813.16-10.56Q813.16-10.04 813.08-9.08L813.08-9.08L796.32-9.08Q796.76-6.72 798.62-5.34Q800.48-3.96 803.24-3.96L803.24-3.96Q806.76-3.96 809.04-6.28L809.04-6.28L811.72-3.20Q810.28-1.48 808.08-0.60Q805.88 0.28 803.12 0.28L803.12 0.28Q799.60 0.28 796.92-1.12Q794.24-2.52 792.78-5.02Q791.32-7.52 791.32-10.68L791.32-10.68Q791.32-13.80 792.74-16.30Q794.16-18.80 796.68-20.20Q799.20-21.60 802.36-21.60L802.36-21.60Q805.48-21.60 807.94-20.22Q810.40-18.84 811.78-16.34Q813.16-13.84 813.16-10.56L813.16-10.56ZM802.36-17.60Q799.96-17.60 798.30-16.18Q796.64-14.76 796.28-12.40L796.28-12.40L808.40-12.40Q808.08-14.72 806.44-16.16Q804.80-17.60 802.36-17.60L802.36-17.60Z"/></g>
</svg>
</g><g opacity="1" transform="rotate(0 -335.3919 114.7942)">
<svg width="391.2662" height="100" x="-335.3919" y="114.7942" version="1.1" preserveAspectRatio="none" viewBox="1.68 -31.36 152.07999999999998 38.879999999999995">
  <g transform="matrix(1 0 0 1 0 0)" class="companyName"><path id="id-D6z1nYkh7" d="M21.64-28.32Q21.36-25.48 21.36-23.20L21.36-23.20Q21.36-21.20 21.48-19.92L21.48-19.92L20.56-19.92Q20.24-23 19.76-24.50Q19.28-26 18.08-26.70Q16.88-27.40 14.40-27.40L14.40-27.40L11.88-27.40Q10.44-27.40 9.78-27.18Q9.12-26.96 8.88-26.28Q8.64-25.60 8.64-24.08L8.64-24.08L8.64-14.24L11.56-14.24Q12.96-14.24 13.72-14.90Q14.48-15.56 14.74-16.46Q15-17.36 15.16-18.72L15.16-18.72L15.28-19.52L16.20-19.52Q16.08-17.84 16.08-15.76L16.08-15.76L16.08-13.84Q16.08-11.80 16.32-8.16L16.32-8.16L15.40-8.16Q15.36-8.44 15.16-10.10Q14.96-11.76 14.06-12.60Q13.16-13.44 11.56-13.44L11.56-13.44L8.64-13.44L8.64-4.24Q8.64-2.72 8.96-2.04Q9.28-1.36 10.08-1.12Q10.88-0.88 12.68-0.80L12.68-0.80L12.68 0Q10.60-0.12 6.80-0.12L6.80-0.12Q3.36-0.12 1.68 0L1.68 0L1.68-0.80Q3.12-0.88 3.78-1.12Q4.44-1.36 4.68-2.04Q4.92-2.72 4.92-4.24L4.92-4.24L4.92-24.08Q4.92-25.60 4.68-26.28Q4.44-26.96 3.78-27.20Q3.12-27.44 1.68-27.52L1.68-27.52L1.68-28.32Q5.60-28.20 13.28-28.20L13.28-28.20Q19.16-28.20 21.64-28.32L21.64-28.32Z M42.08-21.04L42.08-4.32Q42.08-2.48 42.76-1.64Q43.44-0.80 45.12-0.80L45.12-0.80L45.12 0.04Q43.88-0.08 42.64-0.08L42.64-0.08Q40.12-0.08 38.48 0.48L38.48 0.48L38.48-4.24Q37.52-1.76 35.76-0.60Q34 0.56 31.92 0.56L31.92 0.56Q29.20 0.56 27.76-0.96L27.76-0.96Q27.04-1.76 26.74-3Q26.44-4.24 26.44-6.20L26.44-6.20L26.44-16.24Q26.44-18.08 25.76-18.92Q25.08-19.76 23.40-19.76L23.40-19.76L23.40-20.60Q24.64-20.48 25.88-20.48L25.88-20.48Q28.40-20.48 30.04-21.04L30.04-21.04L30.04-5.32Q30.04-3.80 30.22-2.86Q30.40-1.92 31.06-1.32Q31.72-0.72 33.08-0.72L33.08-0.72Q34.60-0.72 35.84-1.68Q37.08-2.64 37.78-4.30Q38.48-5.96 38.48-7.96L38.48-7.96L38.48-16.24Q38.48-18.08 37.80-18.92Q37.12-19.76 35.44-19.76L35.44-19.76L35.44-20.60Q36.68-20.48 37.92-20.48L37.92-20.48Q40.44-20.48 42.08-21.04L42.08-21.04Z M59.60-21.16Q61.20-21.16 62.22-20.24Q63.24-19.32 63.24-18L63.24-18Q63.24-16.96 62.62-16.22Q62-15.48 60.96-15.48L60.96-15.48Q60.08-15.48 59.46-16.04Q58.84-16.60 58.84-17.56L58.84-17.56Q58.84-18.88 60.20-19.72L60.20-19.72Q59.92-20.12 59.36-20.12L59.36-20.12Q57.80-20.12 56.52-18.90Q55.24-17.68 54.52-15.92Q53.80-14.16 53.80-12.60L53.80-12.60L53.80-4.12Q53.80-2.28 54.86-1.56Q55.92-0.84 58.04-0.84L58.04-0.84L58.04 0L57.08-0.04Q53-0.16 51.88-0.16L51.88-0.16Q50.84-0.16 47.16 0L47.16 0L47.16-0.84Q48.84-0.84 49.52-1.46Q50.20-2.08 50.20-3.72L50.20-3.72L50.20-16.24Q50.20-18.08 49.52-18.92Q48.84-19.76 47.16-19.76L47.16-19.76L47.16-20.60Q48.44-20.48 49.64-20.48L49.64-20.48Q52.16-20.48 53.80-21.04L53.80-21.04L53.80-16.04Q54.52-18.04 56.10-19.60Q57.68-21.16 59.60-21.16L59.60-21.16Z M95.68-3.72Q95.68-2.08 96.36-1.46Q97.04-0.84 98.72-0.84L98.72-0.84L98.72 0Q95.04-0.16 93.92-0.16L93.92-0.16Q92.80-0.16 89.44 0L89.44 0L89.44-0.84Q90.92-0.84 91.50-1.46Q92.08-2.08 92.08-3.72L92.08-3.72L92.08-15.28Q92.08-16.80 91.90-17.74Q91.72-18.68 91.06-19.28Q90.40-19.88 89.04-19.88L89.04-19.88Q87.52-19.88 86.28-18.92Q85.04-17.96 84.34-16.30Q83.64-14.64 83.64-12.64L83.64-12.64L83.64-3.72Q83.64-2.08 84.32-1.46Q85-0.84 86.68-0.84L86.68-0.84L86.68 0Q83-0.16 81.88-0.16L81.88-0.16Q80.76-0.16 77.40 0L77.40 0L77.40-0.84Q78.88-0.84 79.46-1.46Q80.04-2.08 80.04-3.72L80.04-3.72L80.04-15.28Q80.04-16.80 79.86-17.74Q79.68-18.68 79.02-19.28Q78.36-19.88 77-19.88L77-19.88Q75.48-19.88 74.24-18.92Q73-17.96 72.30-16.28Q71.60-14.60 71.60-12.60L71.60-12.60L71.60-3.72Q71.60-2.08 72.18-1.46Q72.76-0.84 74.24-0.84L74.24-0.84L74.24 0Q70.88-0.16 69.76-0.16L69.76-0.16Q68.64-0.16 64.96 0L64.96 0L64.96-0.84Q66.64-0.84 67.32-1.46Q68-2.08 68-3.72L68-3.72L68-16.24Q68-18.08 67.32-18.92Q66.64-19.76 64.96-19.76L64.96-19.76L64.96-20.60Q66.24-20.48 67.44-20.48L67.44-20.48Q69.96-20.48 71.60-21.04L71.60-21.04L71.60-16.32Q72.56-18.80 74.32-19.98Q76.08-21.16 78.16-21.16L78.16-21.16Q80.88-21.16 82.32-19.64L82.32-19.64Q83.32-18.60 83.56-16.44L83.56-16.44Q84.56-18.96 86.32-20.06Q88.08-21.16 90.20-21.16L90.20-21.16Q92.92-21.16 94.36-19.64L94.36-19.64Q95.08-18.84 95.38-17.60Q95.68-16.36 95.68-14.40L95.68-14.40L95.68-3.72Z M118.64-21.04L118.64-4.32Q118.64-2.48 119.32-1.64Q120-0.80 121.68-0.80L121.68-0.80L121.68 0.04Q120.44-0.08 119.20-0.08L119.20-0.08Q116.68-0.08 115.04 0.48L115.04 0.48L115.04-4.24Q114.08-1.76 112.32-0.60Q110.56 0.56 108.48 0.56L108.48 0.56Q105.76 0.56 104.32-0.96L104.32-0.96Q103.60-1.76 103.30-3Q103-4.24 103-6.20L103-6.20L103-16.24Q103-18.08 102.32-18.92Q101.64-19.76 99.96-19.76L99.96-19.76L99.96-20.60Q101.20-20.48 102.44-20.48L102.44-20.48Q104.96-20.48 106.60-21.04L106.60-21.04L106.60-5.32Q106.60-3.80 106.78-2.86Q106.96-1.92 107.62-1.32Q108.28-0.72 109.64-0.72L109.64-0.72Q111.16-0.72 112.40-1.68Q113.64-2.64 114.34-4.30Q115.04-5.96 115.04-7.96L115.04-7.96L115.04-16.24Q115.04-18.08 114.36-18.92Q113.68-19.76 112-19.76L112-19.76L112-20.60Q113.24-20.48 114.48-20.48L114.48-20.48Q117-20.48 118.64-21.04L118.64-21.04Z M130.08-31.36L130.08-3.72Q130.08-2.08 130.76-1.46Q131.44-0.84 133.12-0.84L133.12-0.84L133.12 0Q129.44-0.16 128.28-0.16L128.28-0.16Q127.12-0.16 123.44 0L123.44 0L123.44-0.84Q125.12-0.84 125.80-1.46Q126.48-2.08 126.48-3.72L126.48-3.72L126.48-26.56Q126.48-28.40 125.80-29.24Q125.12-30.08 123.44-30.08L123.44-30.08L123.44-30.92Q124.68-30.80 125.92-30.80L125.92-30.80Q128.44-30.80 130.08-31.36L130.08-31.36Z M150.72-20.48Q152.48-20.48 153.76-20.60L153.76-20.60L153.76-19.80Q152.96-19.72 152.34-19.08Q151.72-18.44 151.16-17L151.16-17L144.60 0.20L143.24 3.68Q142.48 5.64 141.52 6.48L141.52 6.48Q140.92 7.04 140.08 7.28Q139.24 7.52 138.40 7.52L138.40 7.52Q137.20 7.52 136.44 6.88Q135.68 6.24 135.68 5.12L135.68 5.12Q135.68 4.16 136.24 3.58Q136.80 3 137.80 3L137.80 3Q138.68 3 139.26 3.50Q139.84 4 139.84 4.88L139.84 4.88Q139.84 6.08 138.76 6.68L138.76 6.68Q138.84 6.72 139 6.72L139 6.72Q141.20 6.72 142.40 3.60L142.40 3.60L143.80-0.04L136.56-17.52Q135.88-18.88 135.20-19.32Q134.52-19.76 133.84-19.76L133.84-19.76L133.84-20.60Q135.56-20.36 137.76-20.36L137.76-20.36Q139.76-20.36 142.96-20.60L142.96-20.60L142.96-19.76Q141.52-19.76 140.86-19.52Q140.20-19.28 140.20-18.36L140.20-18.36Q140.20-17.52 140.68-16.40L140.68-16.40L145.48-4.48L149.92-16.04Q150.36-17.24 150.36-17.88L150.36-17.88Q150.36-18.80 149.64-19.24Q148.92-19.68 147.36-19.80L147.36-19.80L147.36-20.60Q149.48-20.48 150.72-20.48L150.72-20.48Z"/></g>
</svg>
</g></svg></svg>