<svg version="1.1" preserveAspectRatio="none" xmlns="http://www.w3.org/2000/svg" width="500" height="500" viewBox="0 0 500 500"><rect width="100%" height="100%" fill="#FFFFFF" fill-opacity="1"/><svg viewBox="-21.0133 207.0787 539.4646 220" width="333" height="135.80131115183462" x="83.5px" y="182.0993px" xmlns="http://www.w3.org/2000/svg" xmlns:xlink="http://www.w3.org/1999/xlink" preserveAspectRatio="none"><defs></defs><style>.companyName {fill:#1e1e1e;fill-opacity:1;}.icon2 {fill:#b8b8b8;fill-opacity:1;}.icon3 {fill:#848383;fill-opacity:1;}.icon3-str {stroke:#848383;stroke-opacity:1;}.shape {fill:#F9E6E6;fill-opacity:1;}.text {fill:#1e1e1e;fill-opacity:1;}</style><g opacity="1" transform="rotate(0 -21.0133 207.0787)">
<svg width="539.4646" height="220" x="-21.0133" y="207.0787" version="1.1" preserveAspectRatio="none" viewBox="29.761022567749023 180.00205993652344 507.4023742675781 206.92466735839844">
  <g transform="matrix(1 0 0 1 0 0)" ><g><path d="M444.145 226.427c.014 1.279-1.57.963-2.18 1.175-2.787.967-5.29 2.578-8.05 3.496-5.274 1.753-10.175 4.388-15.461 6.136-3.924 1.298-7.625 3.305-11.595 4.561-1.326.419-2.384 1.351-3.938 1.443-1.354.08-2.116 1.361-1.885 2.899-.482-.083-.785.137-.889.593-.017.077.217.311.294.294.457-.103.678-.406.594-.887 4.895.078 9.655-1.769 14.595-1.001 1.952-1.704 4.742-.223 6.777-1.784.432-.332 1.255-.196 1.898-.205 1.667-.024 3.697.588 4.915-.151 1.733-1.051 2.912.213 4.251.294 2.538.154 4.571-1.422 7.105-1.265 2.321.144 4.919 1.008 7.111-.851.29-.246.972-.022 1.472-.036 2.4-.067 4.798.292 7.13-.918.999-.518 2.452-.193 3.469.734.793-1.288 2.114-.918 3.157-.762 2.349.351 4.205-1.509 6.608-1.121 2.112.341 4.329.156 6.488.023.705-.044 1.374-.656 1.943-.949 1.161-.06 1.512 1.614 2.733.996 3.401-1.724 7.05-.823 10.593-.959 1.061-.041 1.861-.348 2.638-1.38 1.621 1.732 3.626 1.226 5.534 1.367 1.51.111 2.401-1.502 4.109-1.11 1.311.3 2.912.558 4.143-.846.255-.29 1.456-.203 2.296.261 2.27 1.253 4.603 1.184 6.934-.358 1.093-.235 1.608 1.551 2.964 1.049 1.096-.406 1.966.523 2.961.79l.427-1.671c4.017 1.888 7.977 3.765 11.837 6.486v2.874l1.739 1.736c1.072 2.412-1.084 4.139-.778 6.128l-3.45 3.617c-3.389.158-6.119-1.433-9.055-2.75l-2.302 1.087c-.573.755.346 1.957-.635 2.65-.892-.363-.126-1.619-1.194-1.932l-.642 1.81-1.37-.699c-1.209 1.927 1.045 1.896 1.159 2.757 1.255.209 1.503-.568 2.022-.916.962 1.131 2.494 1.231 3.63 2.032 1.069-1.22 2.576.096 3.671-.737 1.061 1.473 2.877.063 4.055 1.045.795 1.587-2.111 2.367-.149 4.444-2.635-.102-4.244.787-5.361 2.433-3.605-1.203-6.997-2.248-10.384-.237-1.839-1.526-4.383-1.582-5.994-.795-1.562.763-2.897-.334-4.014.396-1.619 1.058-2.643-.239-3.944-.556-.944-.23-2.208-.415-2.951.022-2.626 1.542-5.428.632-8.127.95-1.877.221-3.973-.786-5.614.959-.156.166-.742.159-.962.001-2.582-1.858-5.121-.196-7.693-.023-2.822.19-5.793-.483-8.473.161-4.546 1.093-9.188.19-13.585 1.06-3.586.71-7.184.192-10.598.945-3.891.858-7.857.243-11.581 1.049-3.253.704-6.664-.024-9.56 1.013-3.15 1.128-6.244.05-9.129.906-3.379 1.002-6.821.391-10.09 1.047-2.723.546-5.676.386-8.085 1.963l-1.449-1.339c-1.897 2.367-4.9.346-7.124 1.736-.807.505-1.527.499-2.308.479a47.15 47.15 0 0 0-14.697 1.949c-1.38.408-2.99.158-4.482.043-3.426-.265-6.65.527-9.8 1.721-1.931.732-4.26-.421-5.966 1.295-3.793-.731-7.38.792-11.083 1.097-3.889.321-7.727 1.367-11.551 2.252-.527.122-1.009.618-1.718.679-1.721.148-3.404-.405-5.184.832-1.244.864-3.541-.428-4.995 1.133-4.335-1.008-7.941 2.44-12.176 1.984-1.081-.116-1.521.972-2.563 1.154-.786.137-1.544.929-2.613.875-5.491-.278-10.536 1.851-15.658 3.27-4.427 1.227-9.045 2.099-13.095 4.616-.949.59-2.578.087-2.865.087-5.754 2.341-10.708 3.679-16.07 4.169-1.557 1.863-4.14 1.607-6.341 2.288a2191.665 2191.665 0 0 1-18.669 5.694c-2.533.759-5.072 2.208-7.559 3.451-2.19 1.094-4.399 2.649-7.002 2.309-1.376-.18-2.222.705-3.043 1.164-7.988 4.468-16.977 6.563-25.083 10.712-2.727-.66-4.343 1.598-6.463 2.505-1.98.847-3.986 1.653-5.945 2.564-4.319 2.007-8.902 3.45-13.392 5.083-.576.21-1.232-.119-1.836.421-3.343 2.983-7.827 3.679-11.756 5.413-3.78 1.668-7.76 2.965-11.509 4.809-1.354.666-2.914.913-4.336 1.338l-.801-.799c-.217.104-.644.211-.646.326-.032 1.597-.988 2.307-2.412 2.484-2.705.337-4.809 2.077-7.253 3.023-2.298.889-4.608 1.681-6.85 2.801-4.117 2.057-8.539 3.514-12.864 5.141-.568.214-1.211.073-1.765.595-2.393 2.255-5.39 3.025-8.564 3.472-1.986.28-3.257 2.799-5.679 1.961-1.968 2.684-5.254 2.607-7.954 3.737-2.557 1.07-5.204 1.928-7.822 2.847-2.764.97-5.531 1.859-8.243 3.05-3.655 1.606-7.714 2.309-11.619 3.325-.756.197-1.466.209-2.256.619-2.866 1.49-2.923 1.38-6.481 1.325l-2.154-5.55c.789-.535 2.018-.645 2.757-1.855-3.066-.962-3.447-4.952-6.56-5.489-.959-1.969-.162-3.276 1.207-3.963 4.04-2.026 7.896-4.334 11.751-6.683 1.496-.911 3.468-1.143 5.081-2.191 3.637-2.364 7.849-3.651 11.501-6.07 1.466-.971 3.118-1.916 5.107-2.173 1.849-.239 3.181-1.963 4.81-2.831 2.979-1.588 6.378-2.425 9.269-4.135 5.621-3.326 11.968-4.991 17.653-8.121 1.914-1.054 3.95-1.791 6.056-1.874l.418-1.602c.289-.108.57-.252.868-.316.936-.199 1.874.208 2.862-.354 2.949-1.678 5.98-3.218 9.227-4.273 1.185-.385 2.162-.987 2.409-2.312l1.28 1.142c2.353-1.361 4.326-3.947 7.488-3.126.23-.167.43-.236.473-.358.151-.439.249-.897.366-1.348 4.735-1.018 9.398-2.216 13.31-5.296 4.912-.099 8.5-3.654 13.031-4.749 3.121-.35 6.353-.395 8.758-3.019 2.721-.072 4.315-3.101 6.641-3.104 2.658-.004 4.536-1.426 6.633-2.279 7.728-3.144 15.933-4.944 23.496-8.465 1.318-.613 2.584-.001 3.855-.61l.368-1.766c2.827.782 5.315-1.526 8.235-.998l2.129-2.009.819.817c3.09-1.943 6.808-2.519 9.954-4.505 1.094-.691 2.845-.344 4.33-.473l1.804-1.801h3.143l1.481-2.259c4.539 1.057 7.486-2.221 11.262-2.839l1.317 1.066 2.494-3.185c4.615.824 8.172-1.215 11.916-2.381 2.419-.754 4.739-1.945 7.339-1.382l2.171-2.042.776.774c1.036-.534 2.271-.724 3.236-1.873h4.113c.535-.91-.722-.942-.473-1.599 1.509-1.105 3.635.632 5.044-1.049 1.582.922 2.909.499 4.624-.088 1.38-.472 3.288-.439 4.45-1.29 1.497-1.096 3.521-.456 4.707-2.102l1.591 1.12c1.233-1.585 4.091-.4 4.672-3.04l1.237 1.081c1.54-1.399 3.597-1.68 5.461-2.4 4.32-1.668 8.701-3.161 13.115-4.564.433-.137.815-.461 1.193-.734 2.447-1.769 5.409-2.235 8.142-3.29s5.606-1.956 8.126-3.267c1.74-.904 3.881.245 5.368-1.815.824-1.141 3.051-1.254 4.629-1.874 1.72-.676 3.729-1.055 5.035-2.213 1.149-1.019 2.438-.853 3.546-1.184 3.135-.938 6.063-2.346 8.992-3.672 3.147-1.424 6.364-2.346 9.665-3.274 3.674-1.033 7.007-3.232 10.656-4.406 4.887-1.572 9.626-3.363 13.994-6.073 5.28-.222 9.446-3.909 14.597-4.637 3.086-.436 5.452-2.804 8.52-3.575 2.837-.712 5.84-1.302 7.974-3.745.397-.455 1.609-.103 2.273-.45.705-.369 1.205-1.128 1.817-1.739l.705.775c.87.364 1.034-1.05 1.952-.804.566.152 1.335.277 1.73-.349l.313-1.517h3.129c2.275-3.215 6.469-2.634 9.484-4.893 2.689-2.015 6.616-2.382 9.978-3.47.298-.46.293-.912.079-1.299l-.37-.413c-1.789 2.378-4.831-.224-6.823 1.712-.45.437-1.552.244-2.356.272-2.238.077-4.388.103-6.629.893-2.842 1.002-6.13.671-9.004 1.316-4.096.92-8.102.523-12.186.833l-2.055 1.925c-.274-.273-.634-.755-.727-.708-3.217 1.614-7.034.959-10.205 2.703-4.59-.625-8.88 1.001-13.13 2.153-4.574 1.24-9.517.047-13.901 2.676-1.769 1.061-4.515-.455-6.483 1.204-4.683-.178-8.974 2.067-13.677 2.111-2.398.022-4.82 1.115-7.167 1.911-3.155 1.069-6.513.915-9.723 1.838-1.773.51-3.626.976-5.352 1.619-.783.292-1.496.547-2.283.501-3.573-.212-6.841 1.008-10.187 1.978-2.845.825-5.786 1.317-8.663 2.043-3.766.95-7.516 1.971-11.26 3.006-.434.12-.79.525-1.469.997-4.473-.971-8.687 1.458-13.116 2.499-1.335.314-2.94-.201-4.105.882-1.667 1.551-4.312-.464-5.841 1.594-1.955-.182-3.592 1.013-5.575 1.167-2.868.222-5.739 1.372-8.483 2.348-1.407.501-2.952-.199-4.125.889-1.664 1.543-3.958.061-5.969 1.399-1.273.847-3.55 1.059-5.432 1.367-3.789.621-7.567 1.793-11.216 3.026-2.767.935-5.792 1.117-8.381 2.718-.664.41-2.076.479-2.388-.939-.932.367-.575 1.164-1.093 2.032-3.235-.865-5.868 2.13-9.131 1.977-.853-.826-.321-1.71-.512-2.528 1.124-.908 2.717-.318 3.942-1.395 1.189-1.046 2.163 1.179 3.518.93 2.07-3.605 5.779-3.562 9.206-4.146.59-.587 1.18-1.175 1.769-1.764.118.059.239.174.353.168 4.321-.214 6.028-.759 10.266-3.253h7.052l1.997-2.224c2.003-.044 3.552-.594 4.744-.931 1.651-.467 3.666-.284 4.902-1.242 1.466-1.137 3.107-.061 4.576-1.166 1.013-.763 2.638-2.794 4.243-.601 1.337-.993 3.11-1.251 3.921-2.954 3.068.502 5.941.014 8.577-1.59l-.221-1.055c-1.566-.349-2.935-.319-4.504.641-.758.463-1.62 1.495-3 1.181-2.278-.517-4.223.94-6.321 1.498-1.482.395-3.032 1.578-4.354 1.335-4.078-.749-7.133 3.111-11.139 2.122-2.093 2.402-4.972 1.696-7.612 2.151-.826.142-3.103.172-2.86 2.835h-6.083c-1.978.733-3.673 2.35-6.12 2.038-1.738-.222-3.176 1.693-5.081.959-6.357 2.446-12.94 4.185-19.447 6.159-4.296 1.304-8.48 2.962-12.907 3.871-2.413.495-4.514 1.878-7.08 2.292-2.812.454-5.772 1.311-8.18 3.063-1.554 1.13-3.206.175-4.801.734-1.638 1.949-4.255 1.582-6.423 2.373-7.398 2.7-15.053 4.601-22.491 7.237-4.049 1.435-8.114 3.019-12.272 4.184-4.187 1.173-8.372 2.32-12.111 4.549-1.265.755-2.805.126-3.997 1.399-.551.588-2.32.296-2.8-1.676.22-1.435 2.237-1.781 3.358-2.081 4.529-1.21 8.181-4.497 12.879-5.169 8.36-4.809 17.848-6.787 26.634-10.538 3.25-1.387 6.532-2.872 9.901-3.822 5.234-1.477 9.961-4.211 15.201-5.583 3.293-.862 6.344-2.415 9.552-3.524 1.485-.513 3.119.149 4.573-1.124 1.022-.894 2.62-1.689 4.399-1.39 1.719.289 2.122-2.646 4.165-1.954 2.848-1.733 6.296-1.62 9.257-2.999 2.377-1.107 4.788-2.547 7.296-2.794 2.914-.287 5.414-1.539 8.125-2.239 2.533-.654 4.945-1.764 7.467-2.469a1010.951 1010.951 0 0 0 15.186-4.35c1.826-.542 3.671-.754 5.285-2.028 4.054-.133 4.864-.716 9.775-2.689 2.525-1.015 5.354-2.033 8.017-2.238 3.717-.286 6.964-1.938 10.485-2.694 2.068-.444 4.646.576 6.348-1.471 3.795.542 6.923-1.926 10.58-2.314 3.341-.354 6.527-2.06 9.872-2.538 1.494-.214 2.778-.78 3.977-1.34.903-.422 1.71-.999 2.668-.772 2.687.637 5.13-.613 7.557-1.182 2.22-.521 4.659-.596 6.572-1.969l1.117 1.015c1.869-1.205 4.312-1.119 6.119-2.884 2.341-.075 4.839-.305 7.369-.825 2.466-.507 4.936-.857 7.269-1.854.142-.061.261-.321.365-.306 4.437.644 8.511-.951 12.679-2.002 2.724-.687 5.591-.712 8.227-1.875.698-.308 1.623-.101 2.444-.134 1.747-.07 3.397-.047 5.149-.866 1.451-.678 3.329-.338 5.076-.994 1.84-.69 3.806-1.714 6.047-1.186 1.227.289 2.491-.633 3.597-.794 4.077-.593 8.118-1.317 12.159-2.11 1.696-.333 3.42.046 5.134-.947 1.265-.733 2.959-.105 4.622-.906 1.838-.886 4.464.223 6.496-1.187 3.633.76 7.108-.646 10.559-1.184 4.936-.77 10.133-.516 14.81-2.763.271-.13.659-.094.977-.041 3.786.631 7.303-1.642 11.09-1.011 2.135.355 3.846-1.462 6.099-1.066 1.94.341 4.155.573 5.958-.022 5.84-1.926 11.776-.229 17.931-1.112l2.331 3.345c-.362 1.251.972 3.052 1.281 5.264-1.62 1.426-2.842 3.352-5.061 4.138.735.834 1.765 1.456 2.075 2.505-1.418 2.046-4.891 1.344-5.214 4.485-2.145 1.371-4.884 1.847-6.837 3.805-.637.638-1.53 1.197-2.397 1.399-4.331 1.01-7.667 4.027-11.664 5.654-8.415 3.426-16.465 7.706-25.106 10.613-1.879.632-3.473 2.096-5.344 2.773-2.477.891-4.812 2.393-7.53 2.444-.259-.914.375-1.805-.677-2.193-.669.691-.585 1.326.677 2.193zm-24.674 4.873c1.545-.38 2.712.396 3.946-1.268-1.427.394-2.432-.425-3.372 1.122-.48-.086-.783.135-.886.591-.018.077.217.311.294.294.457-.103.677-.405.018-.739zM158.893 335.826c.988-.06 2.205.795 2.95-.285.121-.771.107-1.379-1.018-1.534-.894-.076-1.211 1.03-1.677 2.506-1.579-.675-2.89-.788-4.525.154 1.67.466 2.983.634 4.27-.841zm-65.445 26.183l2.897.001c.413-.588 1.265-.861 1.297-1.73-1.724-.914-2.79.055-3.787 1.73-.985.38-2.533-.926-3.002.999-.329 0-.667-.053-.984.008-5.443 1.053-10.274 3.728-15.323 5.822-.373.155-.86.541-.703 1.162h-1.626c-.503.855-.522 1.404.058 1.94 1.495.233 2.155-.684 2.568-1.94 1.292.508 1.953-.926 3.047-.991 1.261-.076 2.385-.011 3.595-.936 2.473-1.89 5.508-2.641 8.59-3.077.514-.073.891-.368.777-.989 1.554.16 2.611-.422 2.596-1.999zm17.417-6.992c1.729-.027 3.532.314 5.003-.999h1.625c.503-.854.522-1.403-.025-1.91-.775-.123-1.569-.287-1.6.911-1.852.204-4.208-.848-5.003 1.998-.985.38-2.533-.926-2.626.714l-5.478 1.801c.944.598 1.194 1.602 2.197 1.491.995-.998 1.974-1.981 2.905-3.007.985-.381 2.533.925 3.002-.999zm17.011-6.993h-4.58c-.891 1.833-3.248 1.905-4.42 3.494.315.457.84.68 1.274.479 2.369-1.098 5.474-.374 7.278-2.943.164-.234.952-.031 1.45-.031 1.175-.027 1.295-1.009.858-1.536-.674-.81-1.594-.874-1.86.537zm179.106-122.867c0-.166.046-.352-.013-.494s-.309-.356-.328-.342c-.974.727-2.368.73-3.258 1.983h-4.18c-.287.697-1.187.778-.967 1.835 3.022.197 5.796-1.269 8.744-1.504.013-.001.002-.312.002-.479 1.609-.16 3.235.262 4.844-.317 3.358-1.21 6.47-3.409 10.335-2.679 1.568-1.968 3.974-.45 5.877-1.445 2.354-1.231 4.974-1.901 7.697-1.508.063-1.66 1.267-2.019 2.742-3.066-4.568.051-8.068 2.696-12.002 2.18-1.692.364-2.772 2.259-4.725 1.825-2.5-.555-4.763.715-7.006 1.224-2.249.51-5.071.554-6.794 2.766-.125.16-.636.021-.968.021zm108.074-21.253c1.917.841 2.68-1.396 4.416-.813 1.345.451 2.992-.095 4.452.138 1.735.277 2.976-.958 4.544-1.249 2.13-.394 4.371-.49 6.446-1.19 1.157-.39 2.179-1.373 3.334-1.517 1.16-.145 2.281-1.482 3.552-.325.977-1.723 2.129 1.374 3.116-.113.283-.51-.067-1.299.725-1.593.956 1.692 2.029.767 3.093.111 1.341 2.131 2.45-.345 3.734-.209 1.644.175 3.735.667 4.891-.098 1.935-1.28 3.798-.734 5.667-.805 1.938-.074 3.477-1.515 5.582-1.117 2.542.48 5.084-.119 7.565-.905 1.184-.375 1.013-.983.697-1.767-4.13-1.327-7.99.904-12.002.738-1.886 1.902-4.374.509-6.492 1.184-3.162 1.008-6.452 1.878-9.72 1.711-3.958-.203-7.618 1.812-11.567 1.121-.26-.046-.563.233-.859.302-2.427.566-4.888 1.665-7.28 1.535-2.856-.155-5.417.837-8.037 1.333-1.686.319-3.362.744-5.109.829-.26.013-.506.332-.747.503l-.001 2.196zm-13.118.374c-3.337-.398-6.138.127-8.803 1.334-.418.189-.702.589-1.266.579-4.497-.082-8.794 1.208-13.182 1.826-2.36.332-4.974.388-6.978 1.326-2.397 1.123-4.999.482-7.278 1.77-1.479.837-3.211 1.145-5.047 1.167-1.321.016-3.071.45-3.55 2.548 2.722 1.06 4.501-1.091 6.877-1.364.748.858 1.846 1.084 3.188.335 3.539-1.974 7.365-2.8 11.398-2.617 2.323.105 4.495-.139 6.108-1.883 1.612-.534 3.203.296 4.839-.688 1.302-.782 3.141-1.031 4.701-.925 1.54.105 2.868-1.119 4.339-.491 1.611.688 2.948-1.563 4.652-.24.002-.86.002-1.643.002-2.677zM131.07 346.897c3.977.841 6.824-2.607 10.527-2.947 1.855-.17 3.511-1.356 4.74-2.875 1.179-.332 2.592.498 3.573-.643l-.261-1.547c-.817.587-1.572.07-2.644.425-4.531 1.504-8.561 4.177-13.204 5.45-.916.251-2.435-.603-2.927.985l.196 1.152zm272.188-141.893c3.347.916 6.417-.841 9.691-1.116v-1.777c-3.44.388-6.979-.896-9.935 1.738l.244 1.155zm85.955 53.272c1.396-.63 3.916.742 4.934-2.219-1.449.268-2.672.495-3.893.725-.359-.305-.609-.811-1.161-.668-.958-.094-1.145 1.199-2.13 1.029a5.623 5.623 0 0 0-1.979.007c-.571.11-1.612-.616-1.652.734 1.525.684 3.265-.308 4.643.577l.302 1.481c1.208.006.671-.839.936-1.666zm-1.042-67.739c-1.808-.448-3.116-.355-4.749.504-1.398.735-3.49.152-5.206.152v3.021c3.115-1.999 6.889-1.519 9.955-3.677zm-141.929 24.538c-1.885 2.02-4.757.546-7.268 1.382.306 1.014-.639 2.159.744 2.721 1.38.114 1.729-1.277 2.854-1.977 1.302-.306 2.972.382 4.468-.425-.118-.55.181-1.087-.798-1.701zm7.672-.732h-5.813v1.649h5.813v-1.649zm45.093 32.61c.06-.985.172-1.668-.748-1.816-1.165-.185-1.675 1.2-3.001 1.106-1.047-.075-2.163.828-3.609 1.452 2.998 1.306 5.031-.953 7.358-.742zM62.13 373.864c-1.473.67-3.188 1.113-4.274 2.757 2.263 1.114 3.448-.702 4.849-.996.233-.935.015-1.323-.575-1.761zm109.408-42.373c-2.789-1.097-4.014.43-5.771 1.042 2.203 1.35 3.439-.424 5.771-1.042zm287.502-71.887c.897.849 1.698 1.725 2.872 2.781.085-1.535.573-2.497-.344-3.274-.749.182-1.592-.332-2.528.493zm-22.063-35.405c-1.694-.167-2.262.672-2.843 1.592 1.003.518 1.885.556 2.843-.017v-1.575zm72.923 32.198c-.886-.009-1.87-.637-2.875.28 1.158.598 2.044.644 2.875-.28zm-69.885-33.738c1.046.788 2.047.788 3.094 0-1.047-.788-2.047-.788-3.094 0zM150.879 338.534c.677.726 1.344.726 2.021 0-.677-.725-1.344-.725-2.021 0zM406.82 236.44c-.482.252-1.332-.988-1.641.376.604.483 1.158.517 1.641-.376zm25.015-9.989c-.482.252-1.332-.988-1.641.376.604.482 1.158.517 1.641-.376zm1.722.709c-.466.328-.466.661 0 .988.466-.328.466-.661 0-.988z" data-color="1" class="shape"></path><path d="M201.49 260.057c-.72-.448-.862-1.099-2.12-.703-2.679 2.466-6.962 2.346-10.697 3.769-3.028 1.154-6.258 1.636-9.269 2.892-.928.387-2.247.403-3.603-.359 4.032-3.315 9.521-2.669 14.005-5.504h4.661l1.33-1.69c1.842-.858 4.011.659 4.788-1.317 1.337-.088 1.517 1.307 1.585 1.284 2.214-.682 1.581-2.436 3.588-3.116 3.693-.348 7.793-2.272 12.044-3.653 2.898-.942 5.675-1.983 8.751-1.394.604.329.288.894.437 1.466-3.415 1.016-6.756 2.507-10.223 2.905-3.647.419-6.501 3.687-10.57 2.222-.6 2.779-3.455 1.581-4.707 3.198z" data-color="1" class="shape"></path><path d="M171.401 266.112c.471.47.941.942 1.76 1.763-2.572-.01-4.668.927-7.392 1.589 2.082-2.423 3.067-2.96 5.632-3.352z" data-color="1" class="shape"></path><path d="M158.382 270.108h.987c.603.444.661 1.01.391 1.607-.344.605-.889.322-1.347.396-.763-.662-.744-1.328-.031-2.003z" data-color="1" class="shape"></path><path d="M415.056 203.904v-2.196c.242-.17.487-.49.747-.503 1.747-.085 3.423-.51 5.109-.829 2.621-.496 5.181-1.488 8.037-1.333 2.392.13 4.853-.968 7.28-1.535.297-.069.599-.348.859-.302 3.949.691 7.608-1.324 11.567-1.121 3.267.167 6.557-.703 9.72-1.711 2.118-.675 4.606.718 6.492-1.184 4.012.166 7.872-2.065 12.002-.738.316.784.487 1.391-.697 1.767-2.481.786-5.022 1.385-7.565.905-2.105-.398-3.644 1.044-5.582 1.117-1.869.071-3.732-.475-5.667.805-1.156.764-3.247.272-4.891.098-1.284-.136-2.393 2.34-3.734.209-1.064.656-2.137 1.581-3.093-.111-.792.294-.441 1.083-.725 1.593-.986 1.486-2.139-1.61-3.116.113-1.27-1.158-2.392.18-3.552.325-1.155.144-2.177 1.127-3.334 1.517-2.075.7-4.316.796-6.446 1.19-1.569.29-2.809 1.525-4.544 1.249-1.459-.233-3.107.313-4.452-.138-1.735-.583-2.497 1.654-4.415.813z" data-color="1" class="shape"></path><path d="M401.938 204.278v2.678c-1.703-1.323-3.041.928-4.652.24-1.471-.628-2.799.596-4.339.491-1.56-.106-3.4.142-4.701.925-1.637.983-3.227.154-4.839.688-1.612 1.744-3.785 1.988-6.108 1.883-4.034-.183-7.86.643-11.398 2.617-1.342.749-2.44.523-3.188-.335-2.376.273-4.155 2.424-6.877 1.364.478-2.098 2.229-2.532 3.55-2.548 1.835-.022 3.568-.33 5.047-1.167 2.278-1.289 4.881-.648 7.278-1.77 2.004-.939 4.618-.994 6.978-1.326 4.388-.618 8.686-1.908 13.182-1.826.564.01.847-.389 1.266-.579 2.663-1.208 5.464-1.732 8.801-1.335z" data-color="1" class="shape"></path><path d="M306.982 225.157c.332 0 .843.139.968-.021 1.723-2.212 4.545-2.256 6.794-2.766 2.243-.509 4.506-1.779 7.006-1.224 1.953.434 3.033-1.461 4.725-1.825 3.934.515 7.434-2.129 12.002-2.18-1.475 1.047-2.68 1.406-2.742 3.066-2.723-.393-5.343.277-7.697 1.508-1.903.995-4.308-.523-5.877 1.445-3.865-.73-6.977 1.47-10.335 2.679-1.609.579-3.235.157-4.844.317v-.999z" data-color="1" class="shape"></path><path d="M73.843 370.001c-.157-.621.33-1.008.703-1.162 5.049-2.094 9.88-4.769 15.323-5.822.317-.061.656-.008.984-.008v.999c.114.621-.264.916-.777.989-3.082.436-6.117 1.187-8.59 3.077-1.21.925-2.334.86-3.595.936-1.094.066-1.755 1.5-3.047.991h-1.001z" data-color="1" class="shape"></path><path d="M403.258 205.004l-.244-1.155c2.956-2.634 6.495-1.35 9.935-1.738v1.777c-3.274.274-6.344 2.032-9.691 1.116z" data-color="1" class="shape"></path><path d="M128.876 349.023c-.498 0-1.285-.203-1.45.031-1.804 2.568-4.909 1.845-7.278 2.943-.434.201-.959-.022-1.274-.479 1.173-1.589 3.529-1.661 4.42-3.494h4.58c.694-.025 1.028.308 1.002.999z" data-color="1" class="shape"></path><path d="M489.213 258.276c-.265.827.272 1.672-.936 1.666l-.302-1.481c-1.378-.885-3.118.107-4.643-.577.039-1.35 1.08-.624 1.652-.734a5.623 5.623 0 0 1 1.979-.007c.986.17 1.172-1.123 2.13-1.029.552-.143.802.363 1.16.667 1.222-.228 2.445-.455 3.894-.723-1.018 2.96-3.539 1.588-4.934 2.218z" data-color="1" class="shape"></path><path d="M488.171 190.537c-3.067 2.157-6.841 1.678-9.956 3.677v-3.021c1.716 0 3.808.583 5.206-.152 1.635-.858 2.942-.952 4.75-.504z" data-color="1" class="shape"></path><path d="M306.982 225.157v.999c0 .166.012.478-.002.479-2.949.236-5.723 1.701-8.744 1.504-.22-1.058.681-1.139.967-1.835h4.18c.89-1.253 2.285-1.255 3.258-1.983.019-.014.269.2.328.342.059.142.013.327.013.494z" data-color="1" class="shape"></path><path d="M346.242 215.075c.979.614.68 1.151.798 1.7-1.496.808-3.166.12-4.468.425-1.124.7-1.473 2.091-2.854 1.977-1.383-.562-.439-1.707-.744-2.721 2.51-.835 5.383.638 7.268-1.381z" data-color="1" class="shape"></path><path d="M353.914 214.343v1.649h-5.813v-1.649h5.813z" data-color="1" class="shape"></path><path d="M62.13 373.864c.59.438.808.826.575 1.761-1.4.294-2.586 2.11-4.849.996 1.086-1.644 2.801-2.087 4.274-2.757z" data-color="1" class="shape"></path><path d="M108.239 355.731l-3.281 3.292c-1.003.111-1.253-.893-2.197-1.491l5.478-1.801z" data-color="1" class="shape"></path><path d="M115.868 354.018c-1.471 1.313-3.274.972-5.003.999.794-2.845 3.15-1.794 5.003-1.998v.999z" data-color="1" class="shape"></path><path d="M171.538 331.491c-2.332.618-3.568 2.392-5.771 1.042 1.757-.612 2.982-2.138 5.771-1.042z" data-color="1" class="shape"></path><path d="M459.04 259.604c.936-.824 1.779-.311 2.528-.493.917.777.429 1.739.344 3.274-1.174-1.056-1.976-1.932-2.872-2.781z" data-color="1" class="shape"></path><path d="M93.448 362.009c1.404-1.675 2.47-2.643 4.194-1.73-.032.869-.883 1.142-1.297 1.73h-2.897z" data-color="1" class="shape"></path><path d="M158.893 335.826c.721-.789 1.038-1.896 1.932-1.819 1.125.155 1.139.763 1.018 1.534-.745 1.079-1.962.224-2.95.285z" data-color="1" class="shape"></path><path d="M90.854 364.007v-.999c.469-1.925 2.017-.619 3.002-.999-.393 1.577-1.45 2.159-3.002 1.998z" data-color="1" class="shape"></path><path d="M436.977 224.199v1.575c-.958.573-1.84.535-2.843.017.581-.92 1.149-1.759 2.843-1.592z" data-color="1" class="shape"></path><path d="M73.843 370.001h1.001c-.413 1.256-1.073 2.173-2.568 1.94-.58-.537-.561-1.085-.058-1.94h1.625z" data-color="1" class="shape"></path><path d="M159.148 336.513c-1.542.788-2.854.62-4.525.154 1.634-.942 2.945-.829 4.525-.154z" data-color="1" class="shape"></path><path d="M509.9 256.397c-.831.924-1.717.877-2.875.28 1.006-.917 1.989-.289 2.875-.28z" data-color="1" class="shape"></path><path d="M440.015 222.659c1.046-.788 2.047-.788 3.094 0-1.047.788-2.047.788-3.094 0z" data-color="1" class="shape"></path><path d="M419.471 231.3c1.514-1.693 2.518-.873 3.946-1.268-1.235 1.664-2.402.889-3.946 1.268z" data-color="1" class="shape"></path><path d="M110.865 355.017c-.469 1.925-2.017.619-3.002.999.47-1.925 2.018-.619 3.002-.999z" data-color="1" class="shape"></path><path d="M444.226 226.699c-1.344-1.139-1.427-1.773-.759-2.464 1.053.387.418 1.278.759 2.464z" data-color="1" class="shape"></path><path d="M406.82 236.44c-.482.893-1.036.858-1.641.376.309-1.364 1.159-.124 1.641-.376z" data-color="1" class="shape"></path><path d="M431.835 226.451c-.482.893-1.036.858-1.641.376.308-1.364 1.159-.124 1.641-.376z" data-color="1" class="shape"></path><path d="M420.045 231.155c.086.479-.135.782-.592.885-.077.017-.312-.216-.294-.294.103-.457.406-.677.886-.591z" data-color="1" class="shape"></path><path d="M433.557 227.16c.466.328.466.661 0 .988-.466-.328-.466-.661 0-.988z" data-color="1" class="shape"></path></g></g>
</svg>
</g><g opacity="1" transform="rotate(0 -6.0398 379.0787)">
<svg width="509.5175" height="22.4" x="-6.0398" y="379.0787" version="1.1" preserveAspectRatio="none" viewBox="3.24 -28 816.96 35.92">
  <g transform="matrix(1 0 0 1 0 0)" class="text"><path id="id-6izo4zJp38" d="M6.24-10.16L6.24 0L3.24 0L3.24-26.48L15.92-26.48Q19.96-26.48 22.40-24.24L22.40-24.24Q24.84-22.04 24.84-18.20L24.84-18.20Q24.84-13.24 20.72-11.44L20.72-11.44Q19.56-10.92 18.44-10.68L18.44-10.68L25.40 0L21.84 0L15.44-10.16L6.24-10.16ZM6.24-23.64L6.24-13L15.40-13Q19.64-13 21.24-15.64L21.24-15.64Q21.84-16.64 21.84-18.20L21.84-18.20Q21.84-20.72 20.12-22.18Q18.40-23.64 15.56-23.64L15.56-23.64L6.24-23.64Z M41.80-2.40L41.80-2.40Q45.84-2.40 47.60-5.76L47.60-5.76L50.88-5.76Q49.84-3.04 47.58-1.36Q45.32 0.32 41.76 0.32L41.76 0.32Q37.24 0.32 34.40-2.68L34.40-2.68Q31.64-5.60 31.64-10L31.64-10Q31.64-14.44 34.28-17.32L34.28-17.32Q37.08-20.32 41.56-20.32L41.56-20.32Q46.04-20.32 48.84-17.32L48.84-17.32Q51.48-14.44 51.48-10L51.48-10L51.48-8.80L34.72-8.80Q35.04-6.04 36.92-4.24L36.92-4.24Q38.84-2.40 41.80-2.40ZM41.56-17.60L41.56-17.60Q38.80-17.60 36.92-15.88L36.92-15.88Q35.16-14.24 34.76-11.60L34.76-11.60L48.36-11.60Q47.96-14.24 46.20-15.88L46.20-15.88Q44.32-17.60 41.56-17.60Z M73.96-14.64L70.92-14.64Q70.52-17.76 65.90-17.76Q61.28-17.76 61.28-14.88L61.28-14.88Q61.28-13.68 62.26-13.06Q63.24-12.44 64.72-12.04Q66.20-11.64 67.94-11.30Q69.68-10.96 71.16-10.34Q72.64-9.72 73.62-8.64Q74.60-7.56 74.60-5.68L74.60-5.68Q74.60-2.76 72.40-1.22Q70.20 0.32 66.44 0.32L66.44 0.32Q62.44 0.32 60.08-1.68L60.08-1.68Q57.92-3.44 57.76-6.28L57.76-6.28L60.88-6.28Q61.16-3.52 64-2.56L64-2.56Q65.04-2.24 66.06-2.24Q67.08-2.24 67.96-2.36Q68.84-2.48 69.68-2.80L69.68-2.80Q71.60-3.56 71.60-5.40L71.60-5.40Q71.60-6.64 70.62-7.30Q69.64-7.96 68.16-8.38Q66.68-8.80 64.94-9.14Q63.20-9.48 61.72-10.08Q60.24-10.68 59.26-11.72Q58.28-12.76 58.28-14.60L58.28-14.60Q58.28-17.32 60.26-18.82Q62.24-20.32 66.12-20.32L66.12-20.32Q69.80-20.32 71.92-18.56L71.92-18.56Q73.68-17.08 73.96-14.64L73.96-14.64Z M82.44 0L82.44-20L85.44-20L85.44 0L82.44 0ZM82.32-27.28L85.56-27.28L85.56-23.36L82.32-23.36L82.32-27.28Z M97.64-28L97.64 0L94.64 0L94.64-28L97.64-28Z M106.84 0L106.84-20L109.84-20L109.84 0L106.84 0ZM106.72-27.28L109.96-27.28L109.96-23.36L106.72-23.36L106.72-27.28Z M127.96-2.40L127.96-2.40Q132-2.40 133.76-5.76L133.76-5.76L137.04-5.76Q136-3.04 133.74-1.36Q131.48 0.32 127.92 0.32L127.92 0.32Q123.40 0.32 120.56-2.68L120.56-2.68Q117.80-5.60 117.80-10L117.80-10Q117.80-14.44 120.44-17.32L120.44-17.32Q123.24-20.32 127.72-20.32L127.72-20.32Q132.20-20.32 135-17.32L135-17.32Q137.64-14.44 137.64-10L137.64-10L137.64-8.80L120.88-8.80Q121.20-6.04 123.08-4.24L123.08-4.24Q125.00-2.40 127.96-2.40ZM127.72-17.60L127.72-17.60Q124.96-17.60 123.08-15.88L123.08-15.88Q121.32-14.24 120.92-11.60L120.92-11.60L134.52-11.60Q134.12-14.24 132.36-15.88L132.36-15.88Q130.48-17.60 127.72-17.60Z M145.32-20L148.32-20L148.32-16.88Q149.40-18.32 150.96-19.32Q152.52-20.32 154.52-20.32Q156.52-20.32 157.96-19.76Q159.40-19.20 160.48-18.08L160.48-18.08Q162.96-15.64 162.96-11.64L162.96-11.64L162.96 0L159.96 0L159.96-11.56Q159.96-14.32 158.40-15.96Q156.84-17.60 154.36-17.60L154.36-17.60Q151.84-17.60 150.08-15.92L150.08-15.92Q148.32-14.20 148.32-11.52L148.32-11.52L148.32 0L145.32 0L145.32-20Z M181.20-2.40L181.20-2.40Q183.12-2.40 184.60-3.48Q186.08-4.56 186.76-6.28L186.76-6.28L190-6.28Q189.08-3.32 186.64-1.52L186.64-1.52Q184.08 0.32 180.56 0.32L180.56 0.32Q176.16 0.32 173.40-2.68L173.40-2.68Q170.72-5.60 170.72-10L170.72-10Q170.72-14.40 173.40-17.32L173.40-17.32Q176.16-20.32 180.56-20.32L180.56-20.32Q184.08-20.32 186.64-18.48L186.64-18.48Q189.08-16.68 190-13.72L190-13.72L186.76-13.72Q186.08-15.44 184.60-16.52Q183.12-17.60 181.20-17.60Q179.28-17.60 177.94-17Q176.60-16.40 175.68-15.36L175.68-15.36Q173.72-13.20 173.72-10L173.72-10Q173.72-6.80 175.68-4.64L175.68-4.64Q177.68-2.40 181.20-2.40Z M206.64-2.40L206.64-2.40Q210.68-2.40 212.44-5.76L212.44-5.76L215.72-5.76Q214.68-3.04 212.42-1.36Q210.16 0.32 206.60 0.32L206.60 0.32Q202.08 0.32 199.24-2.68L199.24-2.68Q196.48-5.60 196.48-10L196.48-10Q196.48-14.44 199.12-17.32L199.12-17.32Q201.92-20.32 206.40-20.32L206.40-20.32Q210.88-20.32 213.68-17.32L213.68-17.32Q216.32-14.44 216.32-10L216.32-10L216.32-8.80L199.56-8.80Q199.88-6.04 201.76-4.24L201.76-4.24Q203.68-2.40 206.64-2.40ZM206.40-17.60L206.40-17.60Q203.64-17.60 201.76-15.88L201.76-15.88Q200-14.24 199.60-11.60L199.60-11.60L213.20-11.60Q212.80-14.24 211.04-15.88L211.04-15.88Q209.16-17.60 206.40-17.60Z M239.52-20L239.52-16.96Q241.52-20.32 245.60-20.32L245.60-20.32Q247.60-20.32 249.30-19.26Q251.00-18.20 251.96-16.28L251.96-16.28Q253.32-18.80 256.20-19.88L256.20-19.88Q257.36-20.32 258.82-20.32Q260.28-20.32 261.62-19.74Q262.96-19.16 264-18.08L264-18.08Q266.24-15.68 266.24-12.08L266.24-12.08L266.24 0L263.24 0L263.24-12Q263.24-14.48 261.84-16.08L261.84-16.08Q260.44-17.60 258.28-17.60L258.28-17.60Q256-17.60 254.48-16.12L254.48-16.12Q252.88-14.60 252.88-11.96L252.88-11.96L252.88 0L249.88 0L249.88-12Q249.88-14.48 248.48-16.08L248.48-16.08Q247.08-17.60 244.92-17.60L244.92-17.60Q242.64-17.60 241.12-16.12L241.12-16.12Q239.52-14.60 239.52-11.96L239.52-11.96L239.52 0L236.52 0L236.52-20L239.52-20Z M290.84 0L290.84-3.20Q288.44 0.32 283.68 0.32L283.68 0.32Q279.36 0.32 276.64-2.68L276.64-2.68Q274-5.64 274-10L274-10Q274-14.36 276.64-17.32L276.64-17.32Q279.36-20.32 283.88-20.32Q288.40-20.32 290.84-16.76L290.84-16.76L290.84-20L293.84-20L293.84 0L290.84 0ZM284.08-2.40L284.08-2.40Q287.32-2.40 289.20-4.64L289.20-4.64Q291-6.76 291-10L291-10Q291-13.24 289.20-15.36L289.20-15.36Q287.32-17.60 284.08-17.60L284.08-17.60Q280.88-17.60 278.88-15.36L278.88-15.36Q277-13.24 277-10L277-10Q277-6.76 278.88-4.64L278.88-4.64Q280.88-2.40 284.08-2.40Z M319.88-20L311.84-12.12L320.48 0L316.80 0L309.80-10.04L306.04-6.32L306.04 0L303.04 0L303.04-28L306.04-28L306.04-10.08L315.68-20L319.88-20Z M335.04-2.40L335.04-2.40Q339.08-2.40 340.84-5.76L340.84-5.76L344.12-5.76Q343.08-3.04 340.82-1.36Q338.56 0.32 335 0.32L335 0.32Q330.48 0.32 327.64-2.68L327.64-2.68Q324.88-5.60 324.88-10L324.88-10Q324.88-14.44 327.52-17.32L327.52-17.32Q330.32-20.32 334.80-20.32L334.80-20.32Q339.28-20.32 342.08-17.32L342.08-17.32Q344.72-14.44 344.72-10L344.72-10L344.72-8.80L327.96-8.80Q328.28-6.04 330.16-4.24L330.16-4.24Q332.08-2.40 335.04-2.40ZM334.80-17.60L334.80-17.60Q332.04-17.60 330.16-15.88L330.16-15.88Q328.40-14.24 328-11.60L328-11.60L341.60-11.60Q341.20-14.24 339.44-15.88L339.44-15.88Q337.56-17.60 334.80-17.60Z M367.20-14.64L364.16-14.64Q363.76-17.76 359.14-17.76Q354.52-17.76 354.52-14.88L354.52-14.88Q354.52-13.68 355.50-13.06Q356.48-12.44 357.96-12.04Q359.44-11.64 361.18-11.30Q362.92-10.96 364.40-10.34Q365.88-9.72 366.86-8.64Q367.84-7.56 367.84-5.68L367.84-5.68Q367.84-2.76 365.64-1.22Q363.44 0.32 359.68 0.32L359.68 0.32Q355.68 0.32 353.32-1.68L353.32-1.68Q351.16-3.44 351.00-6.28L351.00-6.28L354.12-6.28Q354.40-3.52 357.24-2.56L357.24-2.56Q358.28-2.24 359.30-2.24Q360.32-2.24 361.20-2.36Q362.08-2.48 362.92-2.80L362.92-2.80Q364.84-3.56 364.84-5.40L364.84-5.40Q364.84-6.64 363.86-7.30Q362.88-7.96 361.40-8.38Q359.92-8.80 358.18-9.14Q356.44-9.48 354.96-10.08Q353.48-10.68 352.50-11.72Q351.52-12.76 351.52-14.60L351.52-14.60Q351.52-17.32 353.50-18.82Q355.48-20.32 359.36-20.32L359.36-20.32Q363.04-20.32 365.16-18.56L365.16-18.56Q366.92-17.08 367.20-14.64L367.20-14.64Z M388.20 0L388.20-20L391.20-20L391.20 0L388.20 0ZM388.08-27.28L391.32-27.28L391.32-23.36L388.08-23.36L388.08-27.28Z M403.40-20L403.40-16.96Q405.40-20.32 409.48-20.32L409.48-20.32Q411.48-20.32 413.18-19.26Q414.88-18.20 415.84-16.28L415.84-16.28Q417.20-18.80 420.08-19.88L420.08-19.88Q421.24-20.32 422.70-20.32Q424.16-20.32 425.50-19.74Q426.84-19.16 427.88-18.08L427.88-18.08Q430.12-15.68 430.12-12.08L430.12-12.08L430.12 0L427.12 0L427.12-12Q427.12-14.48 425.72-16.08L425.72-16.08Q424.32-17.60 422.16-17.60L422.16-17.60Q419.88-17.60 418.36-16.12L418.36-16.12Q416.76-14.60 416.76-11.96L416.76-11.96L416.76 0L413.76 0L413.76-12Q413.76-14.48 412.36-16.08L412.36-16.08Q410.96-17.60 408.80-17.60L408.80-17.60Q406.52-17.60 405.00-16.12L405.00-16.12Q403.40-14.60 403.40-11.96L403.40-11.96L403.40 0L400.40 0L400.40-20L403.40-20Z M442.12-20L442.12-16.80Q444.52-20.32 449.28-20.32L449.28-20.32Q453.60-20.32 456.28-17.32L456.28-17.32Q458.96-14.36 458.96-10L458.96-10Q458.96-5.64 456.28-2.68L456.28-2.68Q453.60 0.32 449.08 0.32Q444.56 0.32 442.12-3.24L442.12-3.24L442.12 7.92L439.12 7.92L439.12-20L442.12-20ZM448.88-17.60L448.88-17.60Q445.64-17.60 443.76-15.36L443.76-15.36Q441.96-13.24 441.96-10L441.96-10Q441.96-6.76 443.76-4.64L443.76-4.64Q445.64-2.40 448.88-2.40L448.88-2.40Q452.08-2.40 454.08-4.64L454.08-4.64Q455.96-6.76 455.96-10L455.96-10Q455.96-13.24 454.08-15.36L454.08-15.36Q452.08-17.60 448.88-17.60Z M475.56-20.32L475.56-20.32Q480.04-20.32 482.84-17.32L482.84-17.32Q485.48-14.44 485.48-10L485.48-10Q485.48-5.56 482.84-2.68L482.84-2.68Q480.04 0.32 475.56 0.32L475.56 0.32Q471.08 0.32 468.28-2.68L468.28-2.68Q465.64-5.56 465.64-10L465.64-10Q465.64-14.44 468.28-17.32L468.28-17.32Q471.08-20.32 475.56-20.32ZM475.56-2.40L475.56-2.40Q478.80-2.40 480.68-4.64L480.68-4.64Q482.48-6.76 482.48-10L482.48-10Q482.48-13.24 480.68-15.36L480.68-15.36Q478.80-17.60 475.56-17.60L475.56-17.60Q472.32-17.60 470.44-15.36L470.44-15.36Q468.64-13.24 468.64-10L468.64-10Q468.64-6.76 470.44-4.64L470.44-4.64Q472.32-2.40 475.56-2.40Z M508.24-14.64L505.20-14.64Q504.80-17.76 500.18-17.76Q495.56-17.76 495.56-14.88L495.56-14.88Q495.56-13.68 496.54-13.06Q497.52-12.44 499.00-12.04Q500.48-11.64 502.22-11.30Q503.96-10.96 505.44-10.34Q506.92-9.72 507.90-8.64Q508.88-7.56 508.88-5.68L508.88-5.68Q508.88-2.76 506.68-1.22Q504.48 0.32 500.72 0.32L500.72 0.32Q496.72 0.32 494.36-1.68L494.36-1.68Q492.20-3.44 492.04-6.28L492.04-6.28L495.16-6.28Q495.44-3.52 498.28-2.56L498.28-2.56Q499.32-2.24 500.34-2.24Q501.36-2.24 502.24-2.36Q503.12-2.48 503.96-2.80L503.96-2.80Q505.88-3.56 505.88-5.40L505.88-5.40Q505.88-6.64 504.90-7.30Q503.92-7.96 502.44-8.38Q500.96-8.80 499.22-9.14Q497.48-9.48 496.00-10.08Q494.52-10.68 493.54-11.72Q492.56-12.76 492.56-14.60L492.56-14.60Q492.56-17.32 494.54-18.82Q496.52-20.32 500.40-20.32L500.40-20.32Q504.08-20.32 506.20-18.56L506.20-18.56Q507.96-17.08 508.24-14.64L508.24-14.64Z M531.52-14.64L528.48-14.64Q528.08-17.76 523.46-17.76Q518.84-17.76 518.84-14.88L518.84-14.88Q518.84-13.68 519.82-13.06Q520.80-12.44 522.28-12.04Q523.76-11.64 525.50-11.30Q527.24-10.96 528.72-10.34Q530.20-9.72 531.18-8.64Q532.16-7.56 532.16-5.68L532.16-5.68Q532.16-2.76 529.96-1.22Q527.76 0.32 524.00 0.32L524.00 0.32Q520.00 0.32 517.64-1.68L517.64-1.68Q515.48-3.44 515.32-6.28L515.32-6.28L518.44-6.28Q518.72-3.52 521.56-2.56L521.56-2.56Q522.60-2.24 523.62-2.24Q524.64-2.24 525.52-2.36Q526.40-2.48 527.24-2.80L527.24-2.80Q529.16-3.56 529.16-5.40L529.16-5.40Q529.16-6.64 528.18-7.30Q527.20-7.96 525.72-8.38Q524.24-8.80 522.50-9.14Q520.76-9.48 519.28-10.08Q517.80-10.68 516.82-11.72Q515.84-12.76 515.84-14.60L515.84-14.60Q515.84-17.32 517.82-18.82Q519.80-20.32 523.68-20.32L523.68-20.32Q527.36-20.32 529.48-18.56L529.48-18.56Q531.24-17.08 531.52-14.64L531.52-14.64Z M540.00 0L540.00-20L543.00-20L543.00 0L540.00 0ZM539.88-27.28L543.12-27.28L543.12-23.36L539.88-23.36L539.88-27.28Z M555.20-28L555.20-16.76Q557.64-20.32 562.36-20.32L562.36-20.32Q566.68-20.32 569.36-17.32L569.36-17.32Q572.04-14.36 572.04-10L572.04-10Q572.04-5.64 569.36-2.68L569.36-2.68Q566.68 0.32 562.14 0.32Q557.60 0.32 555.20-3.20L555.20-3.20L555.20 0L552.20 0L552.20-28L555.20-28ZM561.96-2.40L561.96-2.40Q565.16-2.40 567.16-4.64L567.16-4.64Q569.04-6.76 569.04-10L569.04-10Q569.04-13.24 567.16-15.36L567.16-15.36Q565.16-17.60 561.96-17.60L561.96-17.60Q558.72-17.60 556.84-15.36L556.84-15.36Q555.04-13.24 555.04-10L555.04-10Q555.04-6.76 556.84-4.64L556.84-4.64Q558.72-2.40 561.96-2.40Z M582.96-28L582.96 0L579.96 0L579.96-28L582.96-28Z M601.08-2.40L601.08-2.40Q605.12-2.40 606.88-5.76L606.88-5.76L610.16-5.76Q609.12-3.04 606.86-1.36Q604.60 0.32 601.04 0.32L601.04 0.32Q596.52 0.32 593.68-2.68L593.68-2.68Q590.92-5.60 590.92-10L590.92-10Q590.92-14.44 593.56-17.32L593.56-17.32Q596.36-20.32 600.84-20.32L600.84-20.32Q605.32-20.32 608.12-17.32L608.12-17.32Q610.76-14.44 610.76-10L610.76-10L610.76-8.80L594-8.80Q594.32-6.04 596.20-4.24L596.20-4.24Q598.12-2.40 601.08-2.40ZM600.84-17.60L600.84-17.60Q598.08-17.60 596.20-15.88L596.20-15.88Q594.44-14.24 594.04-11.60L594.04-11.60L607.64-11.60Q607.24-14.24 605.48-15.88L605.48-15.88Q603.60-17.60 600.84-17.60Z M633.96-20L633.96-16.80Q636.36-20.32 641.12-20.32L641.12-20.32Q645.44-20.32 648.12-17.32L648.12-17.32Q650.80-14.36 650.80-10L650.80-10Q650.80-5.64 648.12-2.68L648.12-2.68Q645.44 0.32 640.92 0.32Q636.40 0.32 633.96-3.24L633.96-3.24L633.96 7.92L630.96 7.92L630.96-20L633.96-20ZM640.72-17.60L640.72-17.60Q637.48-17.60 635.60-15.36L635.60-15.36Q633.80-13.24 633.80-10L633.80-10Q633.80-6.76 635.60-4.64L635.60-4.64Q637.48-2.40 640.72-2.40L640.72-2.40Q643.92-2.40 645.92-4.64L645.92-4.64Q647.80-6.76 647.80-10L647.80-10Q647.80-13.24 645.92-15.36L645.92-15.36Q643.92-17.60 640.72-17.60Z M667.40-20.32L667.40-20.32Q671.88-20.32 674.68-17.32L674.68-17.32Q677.32-14.44 677.32-10L677.32-10Q677.32-5.56 674.68-2.68L674.68-2.68Q671.88 0.32 667.40 0.32L667.40 0.32Q662.92 0.32 660.12-2.68L660.12-2.68Q657.48-5.56 657.48-10L657.48-10Q657.48-14.44 660.12-17.32L660.12-17.32Q662.92-20.32 667.40-20.32ZM667.40-2.40L667.40-2.40Q670.64-2.40 672.52-4.64L672.52-4.64Q674.32-6.76 674.32-10L674.32-10Q674.32-13.24 672.52-15.36L672.52-15.36Q670.64-17.60 667.40-17.60L667.40-17.60Q664.16-17.60 662.28-15.36L662.28-15.36Q660.48-13.24 660.48-10L660.48-10Q660.48-6.76 662.28-4.64L662.28-4.64Q664.16-2.40 667.40-2.40Z M700.08-14.64L697.04-14.64Q696.64-17.76 692.02-17.76Q687.40-17.76 687.40-14.88L687.40-14.88Q687.40-13.68 688.38-13.06Q689.36-12.44 690.84-12.04Q692.32-11.64 694.06-11.30Q695.80-10.96 697.28-10.34Q698.76-9.72 699.74-8.64Q700.72-7.56 700.72-5.68L700.72-5.68Q700.72-2.76 698.52-1.22Q696.32 0.32 692.56 0.32L692.56 0.32Q688.56 0.32 686.20-1.68L686.20-1.68Q684.04-3.44 683.88-6.28L683.88-6.28L687.00-6.28Q687.28-3.52 690.12-2.56L690.12-2.56Q691.16-2.24 692.18-2.24Q693.20-2.24 694.08-2.36Q694.96-2.48 695.80-2.80L695.80-2.80Q697.72-3.56 697.72-5.40L697.72-5.40Q697.72-6.64 696.74-7.30Q695.76-7.96 694.28-8.38Q692.80-8.80 691.06-9.14Q689.32-9.48 687.84-10.08Q686.36-10.68 685.38-11.72Q684.40-12.76 684.40-14.60L684.40-14.60Q684.40-17.32 686.38-18.82Q688.36-20.32 692.24-20.32L692.24-20.32Q695.92-20.32 698.04-18.56L698.04-18.56Q699.80-17.08 700.08-14.64L700.08-14.64Z M723.36-14.64L720.32-14.64Q719.92-17.76 715.30-17.76Q710.68-17.76 710.68-14.88L710.68-14.88Q710.68-13.68 711.66-13.06Q712.64-12.44 714.12-12.04Q715.60-11.64 717.34-11.30Q719.08-10.96 720.56-10.34Q722.04-9.72 723.02-8.64Q724.00-7.56 724.00-5.68L724.00-5.68Q724.00-2.76 721.80-1.22Q719.60 0.32 715.84 0.32L715.84 0.32Q711.84 0.32 709.48-1.68L709.48-1.68Q707.32-3.44 707.16-6.28L707.16-6.28L710.28-6.28Q710.56-3.52 713.40-2.56L713.40-2.56Q714.44-2.24 715.46-2.24Q716.48-2.24 717.36-2.36Q718.24-2.48 719.08-2.80L719.08-2.80Q721.00-3.56 721.00-5.40L721.00-5.40Q721.00-6.64 720.02-7.30Q719.04-7.96 717.56-8.38Q716.08-8.80 714.34-9.14Q712.60-9.48 711.12-10.08Q709.64-10.68 708.66-11.72Q707.68-12.76 707.68-14.60L707.68-14.60Q707.68-17.32 709.66-18.82Q711.64-20.32 715.52-20.32L715.52-20.32Q719.20-20.32 721.32-18.56L721.32-18.56Q723.08-17.08 723.36-14.64L723.36-14.64Z M731.84 0L731.84-20L734.84-20L734.84 0L731.84 0ZM731.72-27.28L734.96-27.28L734.96-23.36L731.72-23.36L731.72-27.28Z M747.04-28L747.04-16.76Q749.48-20.32 754.20-20.32L754.20-20.32Q758.52-20.32 761.20-17.32L761.20-17.32Q763.88-14.36 763.88-10L763.88-10Q763.88-5.64 761.20-2.68L761.20-2.68Q758.52 0.32 753.98 0.32Q749.44 0.32 747.04-3.20L747.04-3.20L747.04 0L744.04 0L744.04-28L747.04-28ZM753.80-2.40L753.80-2.40Q757.00-2.40 759.00-4.64L759.00-4.64Q760.88-6.76 760.88-10L760.88-10Q760.88-13.24 759.00-15.36L759.00-15.36Q757.00-17.60 753.80-17.60L753.80-17.60Q750.56-17.60 748.68-15.36L748.68-15.36Q746.88-13.24 746.88-10L746.88-10Q746.88-6.76 748.68-4.64L748.68-4.64Q750.56-2.40 753.80-2.40Z M774.80-28L774.80 0L771.80 0L771.80-28L774.80-28Z M792.92-2.40L792.92-2.40Q796.96-2.40 798.72-5.76L798.72-5.76L802.00-5.76Q800.96-3.04 798.70-1.36Q796.44 0.32 792.88 0.32L792.88 0.32Q788.36 0.32 785.52-2.68L785.52-2.68Q782.76-5.60 782.76-10L782.76-10Q782.76-14.44 785.40-17.32L785.40-17.32Q788.20-20.32 792.68-20.32L792.68-20.32Q797.16-20.32 799.96-17.32L799.96-17.32Q802.60-14.44 802.60-10L802.60-10L802.60-8.80L785.84-8.80Q786.16-6.04 788.04-4.24L788.04-4.24Q789.96-2.40 792.92-2.40ZM792.68-17.60L792.68-17.60Q789.92-17.60 788.04-15.88L788.04-15.88Q786.28-14.24 785.88-11.60L785.88-11.60L799.48-11.60Q799.08-14.24 797.32-15.88L797.32-15.88Q795.44-17.60 792.68-17.60Z"/></g>
</svg>
</g><g opacity="1" transform="rotate(0 67.37 277.0787)">
<svg width="362.6979" height="80" x="67.37" y="277.0787" version="1.1" preserveAspectRatio="none" viewBox="1.6 -26.8 161.4 35.6">
  <g transform="matrix(1 0 0 1 0 0)" class="companyName"><path id="id-D6z1nYkh7" d="M1.60-22.40L20-22.40L20-15.60L19.20-15.60Q19.20-19.16 17.78-20.38Q16.36-21.60 13.20-21.60L13.20-21.60L9.60-21.60L9.60-11.12L11.20-11.12Q14.08-11.12 14.84-11.84Q15.60-12.56 15.60-14.72L15.60-14.72L16.40-14.72L16.40-6.72L15.60-6.72Q15.60-8.96 14.84-9.64Q14.08-10.32 11.20-10.32L11.20-10.32L9.60-10.32L9.60-0.80L12-0.80L12 0L1.60 0L1.60-0.80L3.60-0.80L3.60-21.60L1.60-21.60L1.60-22.40Z M44.60 0L36.60 0L36.60-2.12Q35.84-1.04 34.22-0.30Q32.60 0.44 30.72 0.44L30.72 0.44Q23.60 0.44 23.60-7.28L23.60-7.28L23.60-17.60L21.60-17.60L21.60-18.40L29.60-18.40L29.60-6.40Q29.60-3.56 30.44-2.36Q31.28-1.16 32.96-1.16L32.96-1.16Q35.20-1.16 36.60-3.56L36.60-3.56L36.60-17.60L34.60-17.60L34.60-18.40L42.60-18.40L42.60-0.80L44.60-0.80L44.60 0Z M57.40-0.80L57.40 0L47.40 0L47.40-0.80L49.40-0.80L49.40-17.60L47.40-17.60L47.40-18.40L55.40-18.40L55.40-13.64Q55.76-15.60 56.70-16.84Q57.64-18.08 58.78-18.48Q59.92-18.88 60.98-18.88Q62.04-18.88 63.02-18.50Q64-18.12 64.48-16.98Q64.96-15.84 64.52-14.70Q64.08-13.56 62.98-13.08Q61.88-12.60 60.96-12.96Q60.04-13.32 59.64-13.94Q59.24-14.56 59.08-15.12L59.08-15.12Q58.68-16.60 58-16.60L58-16.60Q57.24-16.60 56.32-13.98Q55.40-11.36 55.40-8.44L55.40-8.44L55.40-0.80L57.40-0.80Z M100.32-11.12L100.32-0.80L102.32-0.80L102.32 0L92.32 0L92.32-0.80L94.32-0.80L94.32-12Q94.32-14.84 93.48-16.04Q92.64-17.24 90.96-17.24L90.96-17.24Q90-17.24 88.96-16.68Q87.92-16.12 87.24-15.12L87.24-15.12Q87.72-13.68 87.72-11.12L87.72-11.12L87.72-0.80L89.72-0.80L89.72 0L79.32 0L79.32-0.80L81.72-0.80L81.72-12Q81.72-14.84 80.88-16.04Q80.04-17.24 78.36-17.24L78.36-17.24Q76.08-17.24 74.72-14.84L74.72-14.84L74.72-0.80L76.72-0.80L76.72 0L66.72 0L66.72-0.80L68.72-0.80L68.72-17.60L66.72-17.60L66.72-18.40L74.72-18.40L74.72-16.32Q75.48-17.36 77.10-18.10Q78.72-18.84 80.60-18.84L80.60-18.84Q85.36-18.84 86.80-16.16L86.80-16.16Q87.84-17.44 89.56-18.14Q91.28-18.84 93.20-18.84L93.20-18.84Q100.32-18.84 100.32-11.12L100.32-11.12Z M126.92 0L118.92 0L118.92-2.12Q118.16-1.04 116.54-0.30Q114.92 0.44 113.04 0.44L113.04 0.44Q105.92 0.44 105.92-7.28L105.92-7.28L105.92-17.60L103.92-17.60L103.92-18.40L111.92-18.40L111.92-6.40Q111.92-3.56 112.76-2.36Q113.60-1.16 115.28-1.16L115.28-1.16Q117.52-1.16 118.92-3.56L118.92-3.56L118.92-17.60L116.92-17.60L116.92-18.40L124.92-18.40L124.92-0.80L126.92-0.80L126.92 0Z M137.72-26.80L137.72-0.80L139.72-0.80L139.72 0L129.72 0L129.72-0.80L131.72-0.80L131.72-26L129.72-26L129.72-26.80L137.72-26.80Z M151.00 4.44Q149.92 6.76 148.72 7.78Q147.52 8.80 145.52 8.80Q143.52 8.80 142.40 7.94Q141.28 7.08 141.28 5.66Q141.28 4.24 142.10 3.40Q142.92 2.56 144.08 2.56Q145.24 2.56 146.04 3Q146.84 3.44 147.16 3.96L147.16 3.96Q148.04 5.36 148.82 5.36Q149.60 5.36 150.20 4L150.20 4L151.88 0.04L142.52-17.60L140.92-17.60L140.92-18.40L151.68-18.40L151.68-17.60L149.68-17.60L155.04-7.04L159.64-17.60L156.44-17.60L156.44-18.40L163.00-18.40L163.00-17.60L160.60-17.60L151.00 4.44Z"/></g>
</svg>
</g></svg></svg>