<svg version="1.1" preserveAspectRatio="none" xmlns="http://www.w3.org/2000/svg" width="500" height="500" viewBox="0 0 500 500"><rect width="100%" height="100%" fill="#FFFFFF" fill-opacity="1"/><svg viewBox="103.2187 278.8815 571.517 280.4992" width="333" height="163.43561713824784" x="83.5px" y="168.2822px" xmlns="http://www.w3.org/2000/svg" xmlns:xlink="http://www.w3.org/1999/xlink" preserveAspectRatio="none"><defs></defs><style>.companyName {fill:#727373;fill-opacity:1;}.icon1 {fill:#F1B4BB;fill-opacity:1;}.icon2 {fill:#727373;fill-opacity:1;}.icon3 {fill:#C0777F;fill-opacity:1;}.icon3-str {stroke:#C0777F;stroke-opacity:1;}.text {fill:#727373;fill-opacity:1;}</style><g opacity="1" transform="rotate(0 313.8015 278.8815)">
<svg width="150.3515" height="111.2992" x="313.8015" y="278.8815" version="1.1" preserveAspectRatio="none" viewBox="0 0 231 171">
  <g transform="matrix(1 0 0 1 0 0)" class="icon1"><defs></defs><g><path class="fil0" d="M23 112c-6,5 -15,3 -18,-4 6,-5 15,-3 18,4z"></path><path class="fil0" d="M28 111c-7,0 -12,-8 -11,-16 8,1 13,8 11,16z"></path><path class="fil0" d="M36 114c-6,-4 -8,-13 -4,-20 7,4 9,14 4,20z"></path><path class="fil0" d="M30 118c-3,8 -12,10 -18,6 3,-8 11,-11 18,-6z"></path><path class="fil0" d="M40 118c1,8 -4,16 -12,15 -1,-8 5,-15 12,-15z"></path><path class="fil0" d="M52 124c2,8 -3,16 -11,16 -1,-8 4,-16 11,-16z"></path><path class="fil0" d="M57 54c-7,-3 -10,-12 -6,-19 7,3 10,12 6,19z"></path><path class="fil0" d="M61 58c-4,-7 -1,-16 6,-19 4,7 1,17 -6,19z"></path><path class="fil0" d="M63 67c0,-8 6,-15 13,-14 1,8 -5,15 -13,14z"></path><path class="fil0" d="M57 63c-7,2 -14,-5 -14,-13 7,-1 14,5 14,13z"></path><path class="fil0" d="M62 72c-6,6 -14,4 -18,-3 5,-5 14,-4 18,3z"></path><path class="fil0" d="M68 84c-4,7 -13,8 -18,2 4,-7 13,-8 18,-2z"></path><path class="fil0" d="M92 37c-7,-3 -10,-12 -6,-19 7,3 10,12 6,19z"></path><path class="fil0" d="M96 41c-4,-7 -1,-16 6,-19 3,7 1,17 -6,19z"></path><path class="fil0" d="M97 54c-3,-7 1,-16 9,-17 2,7 -2,16 -9,17z"></path><path class="fil0" d="M91 46c-7,2 -14,-5 -13,-13 7,-1 14,5 13,13z"></path><path class="fil0" d="M80 64c-2,-8 4,-15 11,-16 2,8 -4,16 -11,16z"></path><path class="fil0" d="M144 33c-7,-3 -10,-12 -6,-19 7,3 10,12 6,19z"></path><path class="fil0" d="M147 37c-3,-7 0,-16 6,-19 4,7 1,16 -6,19z"></path><path class="fil0" d="M149 46c-1,-8 5,-16 12,-15 1,8 -5,15 -12,15z"></path><path class="fil0" d="M143 42c-7,2 -14,-5 -14,-13 8,-1 14,5 14,13z"></path><path class="fil0" d="M145 49c-5,5 -14,4 -17,-3 5,-6 14,-4 17,3z"></path><path class="fil0" d="M183 51c-5,-6 -2,-16 4,-19 5,6 2,16 -4,19z"></path><path class="fil0" d="M186 55c0,-9 6,-15 14,-13 0,8 -7,14 -14,13z"></path><path class="fil0" d="M186 61c4,-8 12,-9 18,-4 -4,7 -13,9 -18,4z"></path><path class="fil0" d="M168 54c-1,-8 4,-15 12,-15 1,8 -4,15 -12,15z"></path><path class="fil0" d="M168 67c8,1 14,-6 14,-14 -7,-1 -14,5 -14,14z"></path><path class="fil0" d="M214 88c-3,-8 2,-16 9,-17 3,8 -2,16 -9,17z"></path><path class="fil0" d="M214 92c3,-7 12,-8 17,-3 -3,7 -12,9 -17,3z"></path><path class="fil0" d="M209 98c6,-4 14,-1 17,6 -6,5 -15,2 -17,-6z"></path><path class="fil0" d="M204 98c-4,-6 -2,-15 4,-18 4,6 2,15 -4,18z"></path><path class="fil0" d="M196 84c-7,-4 -9,-13 -4,-20 6,4 8,13 4,20z"></path><path class="fil0" d="M48 93c-7,2 -14,-4 -14,-12 7,-2 14,4 14,12z"></path><path class="fil0" d="M45 72c-7,5 -15,1 -17,-7 6,-4 14,0 17,7z"></path><path class="fil0" d="M34 75c-3,8 -11,11 -17,6 2,-8 11,-10 17,-6z"></path><path class="fil0" d="M33 91c-6,5 -15,3 -18,-4 6,-5 15,-3 18,4z"></path><path class="fil0" d="M43 63c-7,0 -13,-8 -11,-16 7,0 13,8 11,16z"></path><path class="fil0" d="M29 70c-5,5 -14,4 -18,-3 5,-6 14,-4 18,3z"></path><path class="fil0" d="M33 63c-7,1 -14,-5 -14,-13 8,-2 14,4 14,13z"></path><path class="fil0" d="M17 93c-5,5 -14,2 -17,-5 6,-5 14,-3 17,5z"></path><path class="fil0" d="M75 46c-7,-2 -9,-12 -6,-19 7,3 10,12 6,19z"></path><path class="fil0" d="M65 38c-7,1 -14,-5 -13,-13 7,-2 13,5 13,13z"></path><path class="fil0" d="M83 31c-7,2 -14,-5 -13,-13 7,-1 14,5 13,13z"></path><path class="fil0" d="M107 36c-4,-7 -1,-16 6,-19 3,7 0,16 -6,19z"></path><path class="fil0" d="M95 25c-5,-6 -4,-16 3,-20 5,6 3,16 -3,20z"></path><path class="fil0" d="M124 35c-7,-2 -10,-11 -6,-18 7,2 10,12 6,18z"></path><path class="fil0" d="M123 49c-7,1 -14,-5 -14,-13 7,-2 14,5 14,13z"></path><path class="fil0" d="M148 57c-4,7 -13,8 -18,2 4,-7 12,-8 18,-2z"></path><path class="fil0" d="M116 78c8,2 14,-5 14,-13 -7,-1 -14,5 -14,13z"></path><path class="fil0" d="M141 79c-1,9 5,16 13,15 0,-9 -6,-15 -13,-15z"></path><path class="fil0" d="M157 85c-7,-3 -10,-12 -6,-19 6,2 9,12 6,19z"></path><path class="fil0" d="M156 60c-4,-7 -2,-16 5,-19 4,6 2,16 -5,19z"></path><path class="fil0" d="M166 46c-5,-6 -5,-16 1,-20 6,5 5,15 -1,20z"></path><path class="fil0" d="M191 109c7,-3 14,3 14,11 -7,2 -14,-3 -14,-11z"></path><path class="fil0" d="M178 89c-2,-8 3,-16 10,-17 2,8 -3,16 -10,17z"></path><path class="fil0" d="M202 71c-3,-8 2,-16 10,-16 2,7 -3,16 -10,16z"></path><path class="fil0" d="M200 78c2,-7 10,-11 17,-7 -2,7 -10,11 -17,7z"></path><path class="fil0" d="M193 100c7,-4 15,0 17,8 -7,4 -15,-1 -17,-8z"></path><path class="fil0" d="M80 79c-2,-8 3,-16 10,-16 2,8 -3,16 -10,16z"></path><path class="fil0" d="M116 89c6,3 14,-1 16,-9 -7,-4 -15,1 -16,9z"></path><path class="fil0" d="M128 29c-4,-7 -1,-16 6,-19 3,7 0,16 -6,19z"></path><path class="fil0" d="M125 19c-7,-3 -10,-12 -6,-19 6,3 9,12 6,19z"></path><path class="fil0" d="M105 21c-5,-6 -2,-16 4,-19 5,7 2,16 -4,19z"></path><path class="fil0" d="M55 107c-3,5 -10,6 -14,1 3,-5 10,-6 14,-1z"></path><path class="fil0" d="M70 93c-2,6 -8,9 -13,6 2,-6 8,-9 13,-6z"></path><path class="fil0" d="M71 117c-6,-2 -13,2 -14,9 6,3 13,-1 14,-9z"></path><path class="fil0" d="M45 48c-7,-3 -8,-13 -4,-19 7,3 9,13 4,19z"></path><path class="fil0" d="M173 38c-3,-8 2,-16 10,-17 2,8 -3,16 -10,17z"></path><path class="fil0" d="M159 29c-5,-6 -2,-16 4,-19 5,7 2,16 -4,19z"></path><path class="fil0" d="M146 21c-4,-7 -2,-16 5,-20 4,7 2,16 -5,20z"></path><path class="fil0" d="M199 52c2,-7 10,-11 17,-7 -3,8 -11,12 -17,7z"></path><path class="fil0" d="M191 42c-2,-8 3,-16 10,-17 2,8 -3,16 -10,17z"></path><path class="fil0" d="M166 104c-4,-6 -2,-14 4,-16 4,5 2,13 -4,16z"></path><path class="fil0" d="M181 99c1,-7 8,-11 14,-8 -2,7 -8,11 -14,8z"></path><path class="fil0" d="M77 92c-1,-7 4,-13 10,-13 1,7 -4,13 -10,13z"></path><path class="fil0" d="M67 77c-1,-6 3,-12 9,-12 1,6 -3,12 -9,12z"></path><path class="fil0" d="M98 69c-1,-7 4,-13 9,-13 2,7 -3,13 -9,13z"></path><path class="fil0" d="M117 97c5,4 12,2 14,-4 -4,-4 -11,-2 -14,4z"></path><path class="fil0" d="M161 108c-4,-3 -4,-10 0,-13 3,3 3,10 0,13z"></path><path class="fil0" d="M170 77c6,0 11,-5 11,-11 -6,-1 -11,4 -11,11z"></path><path class="fil0" d="M175 105c3,-4 9,-4 12,1 -3,4 -9,3 -12,-1z"></path><path class="fil0" d="M179 112c5,-3 12,0 13,7 -5,3 -12,-1 -13,-7z"></path><path class="fil0" d="M102 80c-1,-6 3,-12 9,-12 1,6 -3,12 -9,12z"></path><path class="fil0" d="M117 59c1,-7 -3,-13 -9,-13 -1,7 3,13 9,13z"></path><path class="fil0" d="M120 62c-1,-6 3,-12 9,-12 1,6 -3,12 -9,12z"></path><path class="fil0" d="M162 77c-4,-4 -4,-10 0,-14 4,4 4,10 0,14z"></path><path class="fil0" d="M160 91c-1,-6 4,-12 10,-12 1,6 -4,12 -10,12z"></path><path class="fil0" d="M78 120c1,8 -4,15 -12,15 -1,-8 5,-15 12,-15z"></path><path class="fil0" d="M61 112c-6,-3 -13,1 -14,9 6,2 13,-2 14,-9z"></path><path class="fil0" d="M83 103c-2,-7 1,-14 7,-14 2,6 -1,13 -7,14z"></path><path class="fil0" d="M130 102c-1,-6 5,-11 11,-10 0,7 -5,12 -11,10z"></path><path class="fil0" d="M130 114c-1,-7 5,-12 11,-10 0,6 -6,11 -11,10z"></path><path class="fil0" d="M125 112c0,-6 -4,-12 -9,-10 -1,6 4,12 9,10z"></path><path class="fil0" d="M100 105c-4,-5 -10,-6 -13,-2 3,5 10,7 13,2z"></path><path class="fil0" d="M50 99c-3,-5 -10,-6 -13,-2 3,5 10,6 13,2z"></path><path class="fil0" d="M165 113c3,-4 9,-4 12,0 -3,4 -9,4 -12,0z"></path><path class="fil0" d="M125 131c5,-3 10,-6 15,-10 19,-5 31,-10 41,-27 0,0 -1,-1 -2,0 -10,15 -17,18 -36,23 10,-11 14,-23 18,-36 0,-1 -1,-1 -1,0 0,0 -6,22 -20,35 -3,4 -7,6 -11,9 -1,-8 -1,-15 0,-21 0,-1 -1,-2 -1,-1 -1,7 -3,14 -1,23 -1,1 -2,1 -4,2 -5,-10 -9,-19 -9,-26 -3,-20 4,-41 4,-41 1,-1 0,-2 0,-1 -5,13 -8,26 -7,40 -12,-16 -16,-24 -15,-43 0,-1 -1,-1 -1,0 -2,19 5,32 16,49 1,3 2,5 3,8 -7,-5 -13,-12 -16,-19 0,-1 -1,-1 -1,0 4,8 8,16 18,23 2,6 5,11 7,16 -7,-3 -23,-9 -32,-18 -13,-13 -20,-35 -20,-35 0,-1 -1,-1 -1,0 4,13 9,25 18,36 -19,-5 -26,-8 -36,-23 -1,-1 -2,0 -1,0 9,17 21,22 40,27 11,9 23,15 34,18 6,9 -6,16 -15,22l-62 10 146 0 -69 -10c6,-8 12,-14 1,-30z"></path></g></g>
</svg>
</g><g opacity="1" transform="rotate(0 103.2187 532.1807)">
<svg width="571.517" height="27.2" x="103.2187" y="532.1807" version="1.1" preserveAspectRatio="none" viewBox="3.88 -29.46 763 36.32">
  <g transform="matrix(1 0 0 1 0 0)" class="text"><path id="id-6izo4zJp38" d="M10.68-11.96L7.74-11.96L7.74 0L3.88 0L3.88-28.66L11.98-28.66Q14.70-28.66 16.68-28.11Q18.66-27.56 19.95-26.52Q21.24-25.48 21.86-24.01Q22.48-22.54 22.48-20.72L22.48-20.72Q22.48-19.20 22-17.88Q21.52-16.56 20.61-15.51Q19.70-14.46 18.39-13.72Q17.08-12.98 15.42-12.60L15.42-12.60Q16.14-12.18 16.70-11.38L16.70-11.38L25.06 0L21.62 0Q20.56 0 20.06-0.82L20.06-0.82L12.62-11.06Q12.28-11.54 11.88-11.75Q11.48-11.96 10.68-11.96L10.68-11.96ZM7.74-25.60L7.74-14.78L11.80-14.78Q13.50-14.78 14.79-15.19Q16.08-15.60 16.95-16.35Q17.82-17.10 18.26-18.14Q18.70-19.18 18.70-20.44L18.70-20.44Q18.70-23 17.01-24.30Q15.32-25.60 11.98-25.60L11.98-25.60L7.74-25.60Z M39.90-20.58L39.90-20.58Q41.72-20.58 43.26-19.97Q44.80-19.36 45.92-18.21Q47.04-17.06 47.67-15.37Q48.30-13.68 48.30-11.52L48.30-11.52Q48.30-10.68 48.12-10.40Q47.94-10.12 47.44-10.12L47.44-10.12L33.96-10.12Q34-8.20 34.48-6.78Q34.96-5.36 35.80-4.41Q36.64-3.46 37.80-2.99Q38.96-2.52 40.40-2.52L40.40-2.52Q41.74-2.52 42.71-2.83Q43.68-3.14 44.38-3.50Q45.08-3.86 45.55-4.17Q46.02-4.48 46.36-4.48L46.36-4.48Q46.80-4.48 47.04-4.14L47.04-4.14L48.04-2.84Q47.38-2.04 46.46-1.45Q45.54-0.86 44.49-0.48Q43.44-0.10 42.32 0.09Q41.20 0.28 40.10 0.28L40.10 0.28Q38 0.28 36.23-0.43Q34.46-1.14 33.17-2.51Q31.88-3.88 31.16-5.90Q30.44-7.92 30.44-10.54L30.44-10.54Q30.44-12.66 31.09-14.50Q31.74-16.34 32.96-17.69Q34.18-19.04 35.94-19.81Q37.70-20.58 39.90-20.58ZM39.98-17.96L39.98-17.96Q37.40-17.96 35.92-16.47Q34.44-14.98 34.08-12.34L34.08-12.34L45.10-12.34Q45.10-13.58 44.76-14.61Q44.42-15.64 43.76-16.39Q43.10-17.14 42.15-17.55Q41.20-17.96 39.98-17.96Z M68.44-18.22L67.64-16.92Q67.40-16.48 66.90-16.48L66.90-16.48Q66.60-16.48 66.22-16.70Q65.84-16.92 65.29-17.19Q64.74-17.46 63.98-17.69Q63.22-17.92 62.18-17.92L62.18-17.92Q61.28-17.92 60.56-17.69Q59.84-17.46 59.33-17.06Q58.82-16.66 58.55-16.13Q58.28-15.60 58.28-14.98L58.28-14.98Q58.28-14.20 58.73-13.68Q59.18-13.16 59.92-12.78Q60.66-12.40 61.60-12.11Q62.54-11.82 63.53-11.49Q64.52-11.16 65.46-10.76Q66.40-10.36 67.14-9.76Q67.88-9.16 68.33-8.29Q68.78-7.42 68.78-6.20L68.78-6.20Q68.78-4.80 68.28-3.61Q67.78-2.42 66.80-1.55Q65.82-0.68 64.40-0.18Q62.98 0.32 61.12 0.32L61.12 0.32Q59.00 0.32 57.28-0.37Q55.56-1.06 54.36-2.14L54.36-2.14L55.20-3.50Q55.36-3.76 55.58-3.90Q55.80-4.04 56.16-4.04L56.16-4.04Q56.52-4.04 56.92-3.76Q57.32-3.48 57.89-3.14Q58.46-2.80 59.27-2.52Q60.08-2.24 61.30-2.24L61.30-2.24Q62.34-2.24 63.12-2.51Q63.90-2.78 64.42-3.24Q64.94-3.70 65.19-4.30Q65.44-4.90 65.44-5.58L65.44-5.58Q65.44-6.42 64.99-6.97Q64.54-7.52 63.80-7.91Q63.06-8.30 62.11-8.59Q61.16-8.88 60.17-9.20Q59.18-9.52 58.23-9.93Q57.28-10.34 56.54-10.96Q55.80-11.58 55.35-12.49Q54.90-13.40 54.90-14.70L54.90-14.70Q54.90-15.86 55.38-16.93Q55.86-18 56.78-18.81Q57.70-19.62 59.04-20.10Q60.38-20.58 62.10-20.58L62.10-20.58Q64.10-20.58 65.69-19.95Q67.28-19.32 68.44-18.22L68.44-18.22Z M77-20.26L80.56-20.26L80.56 0L77 0L77-20.26ZM81.36-26.62L81.36-26.62Q81.36-26.10 81.15-25.65Q80.94-25.20 80.59-24.85Q80.24-24.50 79.78-24.30Q79.32-24.10 78.80-24.10L78.80-24.10Q78.28-24.10 77.83-24.30Q77.38-24.50 77.03-24.85Q76.68-25.20 76.48-25.65Q76.28-26.10 76.28-26.62L76.28-26.62Q76.28-27.14 76.48-27.61Q76.68-28.08 77.03-28.43Q77.38-28.78 77.83-28.98Q78.28-29.18 78.80-29.18L78.80-29.18Q79.32-29.18 79.78-28.98Q80.24-28.78 80.59-28.43Q80.94-28.08 81.15-27.61Q81.36-27.14 81.36-26.62Z M90.44-29.46L94-29.46L94 0L90.44 0L90.44-29.46Z M103.88-20.26L107.44-20.26L107.44 0L103.88 0L103.88-20.26ZM108.24-26.62L108.24-26.62Q108.24-26.10 108.03-25.65Q107.82-25.20 107.47-24.85Q107.12-24.50 106.66-24.30Q106.20-24.10 105.68-24.10L105.68-24.10Q105.16-24.10 104.71-24.30Q104.26-24.50 103.91-24.85Q103.56-25.20 103.36-25.65Q103.16-26.10 103.16-26.62L103.16-26.62Q103.16-27.14 103.36-27.61Q103.56-28.08 103.91-28.43Q104.26-28.78 104.71-28.98Q105.16-29.18 105.68-29.18L105.68-29.18Q106.20-29.18 106.66-28.98Q107.12-28.78 107.47-28.43Q107.82-28.08 108.03-27.61Q108.24-27.14 108.24-26.62Z M124.94-20.58L124.94-20.58Q126.76-20.58 128.30-19.97Q129.84-19.36 130.96-18.21Q132.08-17.06 132.71-15.37Q133.34-13.68 133.34-11.52L133.34-11.52Q133.34-10.68 133.16-10.40Q132.98-10.12 132.48-10.12L132.48-10.12L119-10.12Q119.04-8.20 119.52-6.78Q120-5.36 120.84-4.41Q121.68-3.46 122.84-2.99Q124-2.52 125.44-2.52L125.44-2.52Q126.78-2.52 127.75-2.83Q128.72-3.14 129.42-3.50Q130.12-3.86 130.59-4.17Q131.06-4.48 131.40-4.48L131.40-4.48Q131.84-4.48 132.08-4.14L132.08-4.14L133.08-2.84Q132.42-2.04 131.50-1.45Q130.58-0.86 129.53-0.48Q128.48-0.10 127.36 0.09Q126.24 0.28 125.14 0.28L125.14 0.28Q123.04 0.28 121.27-0.43Q119.50-1.14 118.21-2.51Q116.92-3.88 116.20-5.90Q115.48-7.92 115.48-10.54L115.48-10.54Q115.48-12.66 116.13-14.50Q116.78-16.34 118-17.69Q119.22-19.04 120.98-19.81Q122.74-20.58 124.94-20.58ZM125.02-17.96L125.02-17.96Q122.44-17.96 120.96-16.47Q119.48-14.98 119.12-12.34L119.12-12.34L130.14-12.34Q130.14-13.58 129.80-14.61Q129.46-15.64 128.80-16.39Q128.14-17.14 127.19-17.55Q126.24-17.96 125.02-17.96Z M144.64 0L141.08 0L141.08-20.26L143.20-20.26Q143.96-20.26 144.16-19.52L144.16-19.52L144.44-17.32Q145.76-18.78 147.39-19.68Q149.02-20.58 151.16-20.58L151.16-20.58Q152.82-20.58 154.09-20.03Q155.36-19.48 156.21-18.47Q157.06-17.46 157.50-16.04Q157.94-14.62 157.94-12.90L157.94-12.90L157.94 0L154.38 0L154.38-12.90Q154.38-15.20 153.33-16.47Q152.28-17.74 150.12-17.74L150.12-17.74Q148.54-17.74 147.17-16.98Q145.80-16.22 144.64-14.92L144.64-14.92L144.64 0Z M181.28-17.94L180.34-16.66Q180.18-16.44 180.02-16.32Q179.86-16.20 179.56-16.20L179.56-16.20Q179.26-16.20 178.91-16.45Q178.56-16.70 178.02-17Q177.48-17.30 176.71-17.55Q175.94-17.80 174.82-17.80L174.82-17.80Q173.34-17.80 172.20-17.27Q171.06-16.74 170.29-15.74Q169.52-14.74 169.13-13.32Q168.74-11.90 168.74-10.14L168.74-10.14Q168.74-8.30 169.16-6.87Q169.58-5.44 170.34-4.47Q171.10-3.50 172.19-2.99Q173.28-2.48 174.64-2.48L174.64-2.48Q175.94-2.48 176.78-2.79Q177.62-3.10 178.18-3.48Q178.74-3.86 179.10-4.17Q179.46-4.48 179.82-4.48L179.82-4.48Q180.28-4.48 180.50-4.14L180.50-4.14L181.50-2.84Q180.18-1.22 178.20-0.47Q176.22 0.28 174.02 0.28L174.02 0.28Q172.12 0.28 170.49-0.42Q168.86-1.12 167.66-2.45Q166.46-3.78 165.77-5.72Q165.08-7.66 165.08-10.14L165.08-10.14Q165.08-12.40 165.71-14.32Q166.34-16.24 167.55-17.63Q168.76-19.02 170.54-19.80Q172.32-20.58 174.62-20.58L174.62-20.58Q176.74-20.58 178.38-19.89Q180.02-19.20 181.28-17.94L181.28-17.94Z M196.42-20.58L196.42-20.58Q198.24-20.58 199.78-19.97Q201.32-19.36 202.44-18.21Q203.56-17.06 204.19-15.37Q204.82-13.68 204.82-11.52L204.82-11.52Q204.82-10.68 204.64-10.40Q204.46-10.12 203.96-10.12L203.96-10.12L190.48-10.12Q190.52-8.20 191-6.78Q191.48-5.36 192.32-4.41Q193.16-3.46 194.32-2.99Q195.48-2.52 196.92-2.52L196.92-2.52Q198.26-2.52 199.23-2.83Q200.20-3.14 200.90-3.50Q201.60-3.86 202.07-4.17Q202.54-4.48 202.88-4.48L202.88-4.48Q203.32-4.48 203.56-4.14L203.56-4.14L204.56-2.84Q203.90-2.04 202.98-1.45Q202.06-0.86 201.01-0.48Q199.96-0.10 198.84 0.09Q197.72 0.28 196.62 0.28L196.62 0.28Q194.52 0.28 192.75-0.43Q190.98-1.14 189.69-2.51Q188.40-3.88 187.68-5.90Q186.96-7.92 186.96-10.54L186.96-10.54Q186.96-12.66 187.61-14.50Q188.26-16.34 189.48-17.69Q190.70-19.04 192.46-19.81Q194.22-20.58 196.42-20.58ZM196.50-17.96L196.50-17.96Q193.92-17.96 192.44-16.47Q190.96-14.98 190.60-12.34L190.60-12.34L201.62-12.34Q201.62-13.58 201.28-14.61Q200.94-15.64 200.28-16.39Q199.62-17.14 198.67-17.55Q197.72-17.96 196.50-17.96Z M227.04 0L223.48 0L223.48-20.26L225.60-20.26Q226.36-20.26 226.56-19.52L226.56-19.52L226.82-17.44Q227.94-18.82 229.33-19.70Q230.72-20.58 232.56-20.58L232.56-20.58Q234.62-20.58 235.89-19.44Q237.16-18.30 237.72-16.36L237.72-16.36Q238.14-17.46 238.83-18.26Q239.52-19.06 240.38-19.58Q241.24-20.10 242.21-20.34Q243.18-20.58 244.18-20.58L244.18-20.58Q245.78-20.58 247.03-20.07Q248.28-19.56 249.15-18.58Q250.02-17.60 250.48-16.17Q250.94-14.74 250.94-12.90L250.94-12.90L250.94 0L247.38 0L247.38-12.90Q247.38-15.28 246.34-16.51Q245.30-17.74 243.32-17.74L243.32-17.74Q242.44-17.74 241.65-17.43Q240.86-17.12 240.26-16.52Q239.66-15.92 239.31-15.01Q238.96-14.10 238.96-12.90L238.96-12.90L238.96 0L235.40 0L235.40-12.90Q235.40-15.34 234.42-16.54Q233.44-17.74 231.56-17.74L231.56-17.74Q230.24-17.74 229.11-17.03Q227.98-16.32 227.04-15.10L227.04-15.10L227.04 0Z M274.40-12.96L274.40 0L272.82 0Q272.30 0 271.98-0.16Q271.66-0.32 271.56-0.84L271.56-0.84L271.16-2.72Q270.36-2 269.60-1.43Q268.84-0.86 268.00-0.47Q267.16-0.08 266.21 0.12Q265.26 0.32 264.10 0.32L264.10 0.32Q262.92 0.32 261.89-0.01Q260.86-0.34 260.10-1Q259.34-1.66 258.89-2.67Q258.44-3.68 258.44-5.06L258.44-5.06Q258.44-6.26 259.10-7.37Q259.76-8.48 261.23-9.34Q262.70-10.20 265.08-10.75Q267.46-11.30 270.90-11.38L270.90-11.38L270.90-12.96Q270.90-15.32 269.89-16.53Q268.88-17.74 266.90-17.74L266.90-17.74Q265.60-17.74 264.71-17.41Q263.82-17.08 263.17-16.67Q262.52-16.26 262.05-15.93Q261.58-15.60 261.12-15.60L261.12-15.60Q260.76-15.60 260.49-15.79Q260.22-15.98 260.06-16.26L260.06-16.26L259.42-17.40Q261.10-19.02 263.04-19.82Q264.98-20.62 267.34-20.62L267.34-20.62Q269.04-20.62 270.36-20.06Q271.68-19.50 272.58-18.50Q273.48-17.50 273.94-16.08Q274.40-14.66 274.40-12.96L274.40-12.96ZM265.16-2.18L265.16-2.18Q266.10-2.18 266.88-2.37Q267.66-2.56 268.35-2.91Q269.04-3.26 269.67-3.76Q270.30-4.26 270.90-4.90L270.90-4.90L270.90-9.12Q268.44-9.04 266.72-8.73Q265.00-8.42 263.92-7.92Q262.84-7.42 262.35-6.74Q261.86-6.06 261.86-5.22L261.86-5.22Q261.86-4.42 262.12-3.84Q262.38-3.26 262.82-2.89Q263.26-2.52 263.86-2.35Q264.46-2.18 265.16-2.18Z M283.12-29.46L286.70-29.46L286.70-12.12L287.62-12.12Q288.02-12.12 288.28-12.23Q288.54-12.34 288.86-12.68L288.86-12.68L295.26-19.54Q295.56-19.86 295.86-20.06Q296.16-20.26 296.66-20.26L296.66-20.26L299.90-20.26L292.44-12.32Q292.16-11.98 291.89-11.72Q291.62-11.46 291.28-11.26L291.28-11.26Q291.64-11.02 291.93-10.71Q292.22-10.40 292.48-10L292.48-10L300.40 0L297.20 0Q296.76 0 296.45-0.17Q296.14-0.34 295.86-0.70L295.86-0.70L289.20-9Q288.90-9.42 288.60-9.55Q288.30-9.68 287.70-9.68L287.70-9.68L286.70-9.68L286.70 0L283.12 0L283.12-29.46Z M313.98-20.58L313.98-20.58Q315.80-20.58 317.34-19.97Q318.88-19.36 320.00-18.21Q321.12-17.06 321.75-15.37Q322.38-13.68 322.38-11.52L322.38-11.52Q322.38-10.68 322.20-10.40Q322.02-10.12 321.52-10.12L321.52-10.12L308.04-10.12Q308.08-8.20 308.56-6.78Q309.04-5.36 309.88-4.41Q310.72-3.46 311.88-2.99Q313.04-2.52 314.48-2.52L314.48-2.52Q315.82-2.52 316.79-2.83Q317.76-3.14 318.46-3.50Q319.16-3.86 319.63-4.17Q320.10-4.48 320.44-4.48L320.44-4.48Q320.88-4.48 321.12-4.14L321.12-4.14L322.12-2.84Q321.46-2.04 320.54-1.45Q319.62-0.86 318.57-0.48Q317.52-0.10 316.40 0.09Q315.28 0.28 314.18 0.28L314.18 0.28Q312.08 0.28 310.31-0.43Q308.54-1.14 307.25-2.51Q305.96-3.88 305.24-5.90Q304.52-7.92 304.52-10.54L304.52-10.54Q304.52-12.66 305.17-14.50Q305.82-16.34 307.04-17.69Q308.26-19.04 310.02-19.81Q311.78-20.58 313.98-20.58ZM314.06-17.96L314.06-17.96Q311.48-17.96 310.00-16.47Q308.52-14.98 308.16-12.34L308.16-12.34L319.18-12.34Q319.18-13.58 318.84-14.61Q318.50-15.64 317.84-16.39Q317.18-17.14 316.23-17.55Q315.28-17.96 314.06-17.96Z M342.52-18.22L341.72-16.92Q341.48-16.48 340.98-16.48L340.98-16.48Q340.68-16.48 340.30-16.70Q339.92-16.92 339.37-17.19Q338.82-17.46 338.06-17.69Q337.30-17.92 336.26-17.92L336.26-17.92Q335.36-17.92 334.64-17.69Q333.92-17.46 333.41-17.06Q332.90-16.66 332.63-16.13Q332.36-15.60 332.36-14.98L332.36-14.98Q332.36-14.20 332.81-13.68Q333.26-13.16 334.00-12.78Q334.74-12.40 335.68-12.11Q336.62-11.82 337.61-11.49Q338.60-11.16 339.54-10.76Q340.48-10.36 341.22-9.76Q341.96-9.16 342.41-8.29Q342.86-7.42 342.86-6.20L342.86-6.20Q342.86-4.80 342.36-3.61Q341.86-2.42 340.88-1.55Q339.90-0.68 338.48-0.18Q337.06 0.32 335.20 0.32L335.20 0.32Q333.08 0.32 331.36-0.37Q329.64-1.06 328.44-2.14L328.44-2.14L329.28-3.50Q329.44-3.76 329.66-3.90Q329.88-4.04 330.24-4.04L330.24-4.04Q330.60-4.04 331.00-3.76Q331.40-3.48 331.97-3.14Q332.54-2.80 333.35-2.52Q334.16-2.24 335.38-2.24L335.38-2.24Q336.42-2.24 337.20-2.51Q337.98-2.78 338.50-3.24Q339.02-3.70 339.27-4.30Q339.52-4.90 339.52-5.58L339.52-5.58Q339.52-6.42 339.07-6.97Q338.62-7.52 337.88-7.91Q337.14-8.30 336.19-8.59Q335.24-8.88 334.25-9.20Q333.26-9.52 332.31-9.93Q331.36-10.34 330.62-10.96Q329.88-11.58 329.43-12.49Q328.98-13.40 328.98-14.70L328.98-14.70Q328.98-15.86 329.46-16.93Q329.94-18 330.86-18.81Q331.78-19.62 333.12-20.10Q334.46-20.58 336.18-20.58L336.18-20.58Q338.18-20.58 339.77-19.95Q341.36-19.32 342.52-18.22L342.52-18.22Z M362.00-20.26L365.56-20.26L365.56 0L362.00 0L362.00-20.26ZM366.36-26.62L366.36-26.62Q366.36-26.10 366.15-25.65Q365.94-25.20 365.59-24.85Q365.24-24.50 364.78-24.30Q364.32-24.10 363.80-24.10L363.80-24.10Q363.28-24.10 362.83-24.30Q362.38-24.50 362.03-24.85Q361.68-25.20 361.48-25.65Q361.28-26.10 361.28-26.62L361.28-26.62Q361.28-27.14 361.48-27.61Q361.68-28.08 362.03-28.43Q362.38-28.78 362.83-28.98Q363.28-29.18 363.80-29.18L363.80-29.18Q364.32-29.18 364.78-28.98Q365.24-28.78 365.59-28.43Q365.94-28.08 366.15-27.61Q366.36-27.14 366.36-26.62Z M378.60 0L375.04 0L375.04-20.26L377.16-20.26Q377.92-20.26 378.12-19.52L378.12-19.52L378.38-17.44Q379.50-18.82 380.89-19.70Q382.28-20.58 384.12-20.58L384.12-20.58Q386.18-20.58 387.45-19.44Q388.72-18.30 389.28-16.36L389.28-16.36Q389.70-17.46 390.39-18.26Q391.08-19.06 391.94-19.58Q392.80-20.10 393.77-20.34Q394.74-20.58 395.74-20.58L395.74-20.58Q397.34-20.58 398.59-20.07Q399.84-19.56 400.71-18.58Q401.58-17.60 402.04-16.17Q402.50-14.74 402.50-12.90L402.50-12.90L402.50 0L398.94 0L398.94-12.90Q398.94-15.28 397.90-16.51Q396.86-17.74 394.88-17.74L394.88-17.74Q394.00-17.74 393.21-17.43Q392.42-17.12 391.82-16.52Q391.22-15.92 390.87-15.01Q390.52-14.10 390.52-12.90L390.52-12.90L390.52 0L386.96 0L386.96-12.90Q386.96-15.34 385.98-16.54Q385.00-17.74 383.12-17.74L383.12-17.74Q381.80-17.74 380.67-17.03Q379.54-16.32 378.60-15.10L378.60-15.10L378.60 0Z M414.64 6.86L411.08 6.86L411.08-20.26L413.20-20.26Q413.96-20.26 414.16-19.52L414.16-19.52L414.46-17.12Q415.76-18.70 417.43-19.66Q419.10-20.62 421.28-20.62L421.28-20.62Q423.02-20.62 424.44-19.95Q425.86-19.28 426.86-17.97Q427.86-16.66 428.40-14.72Q428.94-12.78 428.94-10.26L428.94-10.26Q428.94-8.02 428.34-6.09Q427.74-4.16 426.62-2.75Q425.50-1.34 423.87-0.53Q422.24 0.28 420.20 0.28L420.20 0.28Q418.32 0.28 416.99-0.34Q415.66-0.96 414.64-2.10L414.64-2.10L414.64 6.86ZM420.10-17.74L420.10-17.74Q418.36-17.74 417.05-16.94Q415.74-16.14 414.64-14.68L414.64-14.68L414.64-4.88Q415.62-3.56 416.79-3.02Q417.96-2.48 419.40-2.48L419.40-2.48Q422.22-2.48 423.74-4.50Q425.26-6.52 425.26-10.26L425.26-10.26Q425.26-12.24 424.91-13.66Q424.56-15.08 423.90-15.99Q423.24-16.90 422.28-17.32Q421.32-17.74 420.10-17.74Z M444.56-20.58L444.56-20.58Q446.78-20.58 448.57-19.84Q450.36-19.10 451.61-17.74Q452.86-16.38 453.53-14.45Q454.20-12.52 454.20-10.14L454.20-10.14Q454.20-7.74 453.53-5.82Q452.86-3.90 451.61-2.54Q450.36-1.18 448.57-0.45Q446.78 0.28 444.56 0.28L444.56 0.28Q442.34 0.28 440.55-0.45Q438.76-1.18 437.50-2.54Q436.24-3.90 435.56-5.82Q434.88-7.74 434.88-10.14L434.88-10.14Q434.88-12.52 435.56-14.45Q436.24-16.38 437.50-17.74Q438.76-19.10 440.55-19.84Q442.34-20.58 444.56-20.58ZM444.56-2.50L444.56-2.50Q447.56-2.50 449.04-4.51Q450.52-6.52 450.52-10.12L450.52-10.12Q450.52-13.74 449.04-15.76Q447.56-17.78 444.56-17.78L444.56-17.78Q443.04-17.78 441.92-17.26Q440.80-16.74 440.05-15.76Q439.30-14.78 438.93-13.35Q438.56-11.92 438.56-10.12L438.56-10.12Q438.56-8.32 438.93-6.90Q439.30-5.48 440.05-4.51Q440.80-3.54 441.92-3.02Q443.04-2.50 444.56-2.50Z M474.20-18.22L473.40-16.92Q473.16-16.48 472.66-16.48L472.66-16.48Q472.36-16.48 471.98-16.70Q471.60-16.92 471.05-17.19Q470.50-17.46 469.74-17.69Q468.98-17.92 467.94-17.92L467.94-17.92Q467.04-17.92 466.32-17.69Q465.60-17.46 465.09-17.06Q464.58-16.66 464.31-16.13Q464.04-15.60 464.04-14.98L464.04-14.98Q464.04-14.20 464.49-13.68Q464.94-13.16 465.68-12.78Q466.42-12.40 467.36-12.11Q468.30-11.82 469.29-11.49Q470.28-11.16 471.22-10.76Q472.16-10.36 472.90-9.76Q473.64-9.16 474.09-8.29Q474.54-7.42 474.54-6.20L474.54-6.20Q474.54-4.80 474.04-3.61Q473.54-2.42 472.56-1.55Q471.58-0.68 470.16-0.18Q468.74 0.32 466.88 0.32L466.88 0.32Q464.76 0.32 463.04-0.37Q461.32-1.06 460.12-2.14L460.12-2.14L460.96-3.50Q461.12-3.76 461.34-3.90Q461.56-4.04 461.92-4.04L461.92-4.04Q462.28-4.04 462.68-3.76Q463.08-3.48 463.65-3.14Q464.22-2.80 465.03-2.52Q465.84-2.24 467.06-2.24L467.06-2.24Q468.10-2.24 468.88-2.51Q469.66-2.78 470.18-3.24Q470.70-3.70 470.95-4.30Q471.20-4.90 471.20-5.58L471.20-5.58Q471.20-6.42 470.75-6.97Q470.30-7.52 469.56-7.91Q468.82-8.30 467.87-8.59Q466.92-8.88 465.93-9.20Q464.94-9.52 463.99-9.93Q463.04-10.34 462.30-10.96Q461.56-11.58 461.11-12.49Q460.66-13.40 460.66-14.70L460.66-14.70Q460.66-15.86 461.14-16.93Q461.62-18 462.54-18.81Q463.46-19.62 464.80-20.10Q466.14-20.58 467.86-20.58L467.86-20.58Q469.86-20.58 471.45-19.95Q473.04-19.32 474.20-18.22L474.20-18.22Z M494.76-18.22L493.96-16.92Q493.72-16.48 493.22-16.48L493.22-16.48Q492.92-16.48 492.54-16.70Q492.16-16.92 491.61-17.19Q491.06-17.46 490.30-17.69Q489.54-17.92 488.50-17.92L488.50-17.92Q487.60-17.92 486.88-17.69Q486.16-17.46 485.65-17.06Q485.14-16.66 484.87-16.13Q484.60-15.60 484.60-14.98L484.60-14.98Q484.60-14.20 485.05-13.68Q485.50-13.16 486.24-12.78Q486.98-12.40 487.92-12.11Q488.86-11.82 489.85-11.49Q490.84-11.16 491.78-10.76Q492.72-10.36 493.46-9.76Q494.20-9.16 494.65-8.29Q495.10-7.42 495.10-6.20L495.10-6.20Q495.10-4.80 494.60-3.61Q494.10-2.42 493.12-1.55Q492.14-0.68 490.72-0.18Q489.30 0.32 487.44 0.32L487.44 0.32Q485.32 0.32 483.60-0.37Q481.88-1.06 480.68-2.14L480.68-2.14L481.52-3.50Q481.68-3.76 481.90-3.90Q482.12-4.04 482.48-4.04L482.48-4.04Q482.84-4.04 483.24-3.76Q483.64-3.48 484.21-3.14Q484.78-2.80 485.59-2.52Q486.40-2.24 487.62-2.24L487.62-2.24Q488.66-2.24 489.44-2.51Q490.22-2.78 490.74-3.24Q491.26-3.70 491.51-4.30Q491.76-4.90 491.76-5.58L491.76-5.58Q491.76-6.42 491.31-6.97Q490.86-7.52 490.12-7.91Q489.38-8.30 488.43-8.59Q487.48-8.88 486.49-9.20Q485.50-9.52 484.55-9.93Q483.60-10.34 482.86-10.96Q482.12-11.58 481.67-12.49Q481.22-13.40 481.22-14.70L481.22-14.70Q481.22-15.86 481.70-16.93Q482.18-18 483.10-18.81Q484.02-19.62 485.36-20.10Q486.70-20.58 488.42-20.58L488.42-20.58Q490.42-20.58 492.01-19.95Q493.60-19.32 494.76-18.22L494.76-18.22Z M503.32-20.26L506.88-20.26L506.88 0L503.32 0L503.32-20.26ZM507.68-26.62L507.68-26.62Q507.68-26.10 507.47-25.65Q507.26-25.20 506.91-24.85Q506.56-24.50 506.10-24.30Q505.64-24.10 505.12-24.10L505.12-24.10Q504.60-24.10 504.15-24.30Q503.70-24.50 503.35-24.85Q503.00-25.20 502.80-25.65Q502.60-26.10 502.60-26.62L502.60-26.62Q502.60-27.14 502.80-27.61Q503.00-28.08 503.35-28.43Q503.70-28.78 504.15-28.98Q504.60-29.18 505.12-29.18L505.12-29.18Q505.64-29.18 506.10-28.98Q506.56-28.78 506.91-28.43Q507.26-28.08 507.47-27.61Q507.68-27.14 507.68-26.62Z M518.78 0L516.48 0L516.48-29.46L520.06-29.46L520.06-17.34Q521.32-18.80 522.95-19.69Q524.58-20.58 526.68-20.58L526.68-20.58Q528.44-20.58 529.86-19.92Q531.28-19.26 532.28-17.95Q533.28-16.64 533.82-14.71Q534.36-12.78 534.36-10.26L534.36-10.26Q534.36-8.02 533.76-6.09Q533.16-4.16 532.03-2.75Q530.90-1.34 529.27-0.53Q527.64 0.28 525.60 0.28L525.60 0.28Q523.64 0.28 522.27-0.48Q520.90-1.24 519.88-2.60L519.88-2.60L519.70-0.76Q519.54 0 518.78 0L518.78 0ZM525.52-17.74L525.52-17.74Q523.78-17.74 522.47-16.94Q521.16-16.14 520.06-14.68L520.06-14.68L520.06-4.88Q521.02-3.56 522.19-3.02Q523.36-2.48 524.80-2.48L524.80-2.48Q527.64-2.48 529.16-4.50Q530.68-6.52 530.68-10.26L530.68-10.26Q530.68-12.24 530.33-13.66Q529.98-15.08 529.32-15.99Q528.66-16.90 527.70-17.32Q526.74-17.74 525.52-17.74Z M542.32-29.46L545.88-29.46L545.88 0L542.32 0L542.32-29.46Z M563.38-20.58L563.38-20.58Q565.20-20.58 566.74-19.97Q568.28-19.36 569.40-18.21Q570.52-17.06 571.15-15.37Q571.78-13.68 571.78-11.52L571.78-11.52Q571.78-10.68 571.60-10.40Q571.42-10.12 570.92-10.12L570.92-10.12L557.44-10.12Q557.48-8.20 557.96-6.78Q558.44-5.36 559.28-4.41Q560.12-3.46 561.28-2.99Q562.44-2.52 563.88-2.52L563.88-2.52Q565.22-2.52 566.19-2.83Q567.16-3.14 567.86-3.50Q568.56-3.86 569.03-4.17Q569.50-4.48 569.84-4.48L569.84-4.48Q570.28-4.48 570.52-4.14L570.52-4.14L571.52-2.84Q570.86-2.04 569.94-1.45Q569.02-0.86 567.97-0.48Q566.92-0.10 565.80 0.09Q564.68 0.28 563.58 0.28L563.58 0.28Q561.48 0.28 559.71-0.43Q557.94-1.14 556.65-2.51Q555.36-3.88 554.64-5.90Q553.92-7.92 553.92-10.54L553.92-10.54Q553.92-12.66 554.57-14.50Q555.22-16.34 556.44-17.69Q557.66-19.04 559.42-19.81Q561.18-20.58 563.38-20.58ZM563.46-17.96L563.46-17.96Q560.88-17.96 559.40-16.47Q557.92-14.98 557.56-12.34L557.56-12.34L568.58-12.34Q568.58-13.58 568.24-14.61Q567.90-15.64 567.24-16.39Q566.58-17.14 565.63-17.55Q564.68-17.96 563.46-17.96Z M594.00 6.86L590.44 6.86L590.44-20.26L592.56-20.26Q593.32-20.26 593.52-19.52L593.52-19.52L593.82-17.12Q595.12-18.70 596.79-19.66Q598.46-20.62 600.64-20.62L600.64-20.62Q602.38-20.62 603.80-19.95Q605.22-19.28 606.22-17.97Q607.22-16.66 607.76-14.72Q608.30-12.78 608.30-10.26L608.30-10.26Q608.30-8.02 607.70-6.09Q607.10-4.16 605.98-2.75Q604.86-1.34 603.23-0.53Q601.60 0.28 599.56 0.28L599.56 0.28Q597.68 0.28 596.35-0.34Q595.02-0.96 594.00-2.10L594.00-2.10L594.00 6.86ZM599.46-17.74L599.46-17.74Q597.72-17.74 596.41-16.94Q595.10-16.14 594.00-14.68L594.00-14.68L594.00-4.88Q594.98-3.56 596.15-3.02Q597.32-2.48 598.76-2.48L598.76-2.48Q601.58-2.48 603.10-4.50Q604.62-6.52 604.62-10.26L604.62-10.26Q604.62-12.24 604.27-13.66Q603.92-15.08 603.26-15.99Q602.60-16.90 601.64-17.32Q600.68-17.74 599.46-17.74Z M623.92-20.58L623.92-20.58Q626.14-20.58 627.93-19.84Q629.72-19.10 630.97-17.74Q632.22-16.38 632.89-14.45Q633.56-12.52 633.56-10.14L633.56-10.14Q633.56-7.74 632.89-5.82Q632.22-3.90 630.97-2.54Q629.72-1.18 627.93-0.45Q626.14 0.28 623.92 0.28L623.92 0.28Q621.70 0.28 619.91-0.45Q618.12-1.18 616.86-2.54Q615.60-3.90 614.92-5.82Q614.24-7.74 614.24-10.14L614.24-10.14Q614.24-12.52 614.92-14.45Q615.60-16.38 616.86-17.74Q618.12-19.10 619.91-19.84Q621.70-20.58 623.92-20.58ZM623.92-2.50L623.92-2.50Q626.92-2.50 628.40-4.51Q629.88-6.52 629.88-10.12L629.88-10.12Q629.88-13.74 628.40-15.76Q626.92-17.78 623.92-17.78L623.92-17.78Q622.40-17.78 621.28-17.26Q620.16-16.74 619.41-15.76Q618.66-14.78 618.29-13.35Q617.92-11.92 617.92-10.12L617.92-10.12Q617.92-8.32 618.29-6.90Q618.66-5.48 619.41-4.51Q620.16-3.54 621.28-3.02Q622.40-2.50 623.92-2.50Z M653.56-18.22L652.76-16.92Q652.52-16.48 652.02-16.48L652.02-16.48Q651.72-16.48 651.34-16.70Q650.96-16.92 650.41-17.19Q649.86-17.46 649.10-17.69Q648.34-17.92 647.30-17.92L647.30-17.92Q646.40-17.92 645.68-17.69Q644.96-17.46 644.45-17.06Q643.94-16.66 643.67-16.13Q643.40-15.60 643.40-14.98L643.40-14.98Q643.40-14.20 643.85-13.68Q644.30-13.16 645.04-12.78Q645.78-12.40 646.72-12.11Q647.66-11.82 648.65-11.49Q649.64-11.16 650.58-10.76Q651.52-10.36 652.26-9.76Q653.00-9.16 653.45-8.29Q653.90-7.42 653.90-6.20L653.90-6.20Q653.90-4.80 653.40-3.61Q652.90-2.42 651.92-1.55Q650.94-0.68 649.52-0.18Q648.10 0.32 646.24 0.32L646.24 0.32Q644.12 0.32 642.40-0.37Q640.68-1.06 639.48-2.14L639.48-2.14L640.32-3.50Q640.48-3.76 640.70-3.90Q640.92-4.04 641.28-4.04L641.28-4.04Q641.64-4.04 642.04-3.76Q642.44-3.48 643.01-3.14Q643.58-2.80 644.39-2.52Q645.20-2.24 646.42-2.24L646.42-2.24Q647.46-2.24 648.24-2.51Q649.02-2.78 649.54-3.24Q650.06-3.70 650.31-4.30Q650.56-4.90 650.56-5.58L650.56-5.58Q650.56-6.42 650.11-6.97Q649.66-7.52 648.92-7.91Q648.18-8.30 647.23-8.59Q646.28-8.88 645.29-9.20Q644.30-9.52 643.35-9.93Q642.40-10.34 641.66-10.96Q640.92-11.58 640.47-12.49Q640.02-13.40 640.02-14.70L640.02-14.70Q640.02-15.86 640.50-16.93Q640.98-18 641.90-18.81Q642.82-19.62 644.16-20.10Q645.50-20.58 647.22-20.58L647.22-20.58Q649.22-20.58 650.81-19.95Q652.40-19.32 653.56-18.22L653.56-18.22Z M674.12-18.22L673.32-16.92Q673.08-16.48 672.58-16.48L672.58-16.48Q672.28-16.48 671.90-16.70Q671.52-16.92 670.97-17.19Q670.42-17.46 669.66-17.69Q668.90-17.92 667.86-17.92L667.86-17.92Q666.96-17.92 666.24-17.69Q665.52-17.46 665.01-17.06Q664.50-16.66 664.23-16.13Q663.96-15.60 663.96-14.98L663.96-14.98Q663.96-14.20 664.41-13.68Q664.86-13.16 665.60-12.78Q666.34-12.40 667.28-12.11Q668.22-11.82 669.21-11.49Q670.20-11.16 671.14-10.76Q672.08-10.36 672.82-9.76Q673.56-9.16 674.01-8.29Q674.46-7.42 674.46-6.20L674.46-6.20Q674.46-4.80 673.96-3.61Q673.46-2.42 672.48-1.55Q671.50-0.68 670.08-0.18Q668.66 0.32 666.80 0.32L666.80 0.32Q664.68 0.32 662.96-0.37Q661.24-1.06 660.04-2.14L660.04-2.14L660.88-3.50Q661.04-3.76 661.26-3.90Q661.48-4.04 661.84-4.04L661.84-4.04Q662.20-4.04 662.60-3.76Q663.00-3.48 663.57-3.14Q664.14-2.80 664.95-2.52Q665.76-2.24 666.98-2.24L666.98-2.24Q668.02-2.24 668.80-2.51Q669.58-2.78 670.10-3.24Q670.62-3.70 670.87-4.30Q671.12-4.90 671.12-5.58L671.12-5.58Q671.12-6.42 670.67-6.97Q670.22-7.52 669.48-7.91Q668.74-8.30 667.79-8.59Q666.84-8.88 665.85-9.20Q664.86-9.52 663.91-9.93Q662.96-10.34 662.22-10.96Q661.48-11.58 661.03-12.49Q660.58-13.40 660.58-14.70L660.58-14.70Q660.58-15.86 661.06-16.93Q661.54-18 662.46-18.81Q663.38-19.62 664.72-20.10Q666.06-20.58 667.78-20.58L667.78-20.58Q669.78-20.58 671.37-19.95Q672.96-19.32 674.12-18.22L674.12-18.22Z M682.68-20.26L686.24-20.26L686.24 0L682.68 0L682.68-20.26ZM687.04-26.62L687.04-26.62Q687.04-26.10 686.83-25.65Q686.62-25.20 686.27-24.85Q685.92-24.50 685.46-24.30Q685.00-24.10 684.48-24.10L684.48-24.10Q683.96-24.10 683.51-24.30Q683.06-24.50 682.71-24.85Q682.36-25.20 682.16-25.65Q681.96-26.10 681.96-26.62L681.96-26.62Q681.96-27.14 682.16-27.61Q682.36-28.08 682.71-28.43Q683.06-28.78 683.51-28.98Q683.96-29.18 684.48-29.18L684.48-29.18Q685.00-29.18 685.46-28.98Q685.92-28.78 686.27-28.43Q686.62-28.08 686.83-27.61Q687.04-27.14 687.04-26.62Z M698.14 0L695.84 0L695.84-29.46L699.42-29.46L699.42-17.34Q700.68-18.80 702.31-19.69Q703.94-20.58 706.04-20.58L706.04-20.58Q707.80-20.58 709.22-19.92Q710.64-19.26 711.64-17.95Q712.64-16.64 713.18-14.71Q713.72-12.78 713.72-10.26L713.72-10.26Q713.72-8.02 713.12-6.09Q712.52-4.16 711.39-2.75Q710.26-1.34 708.63-0.53Q707.00 0.28 704.96 0.28L704.96 0.28Q703.00 0.28 701.63-0.48Q700.26-1.24 699.24-2.60L699.24-2.60L699.06-0.76Q698.90 0 698.14 0L698.14 0ZM704.88-17.74L704.88-17.74Q703.14-17.74 701.83-16.94Q700.52-16.14 699.42-14.68L699.42-14.68L699.42-4.88Q700.38-3.56 701.55-3.02Q702.72-2.48 704.16-2.48L704.16-2.48Q707.00-2.48 708.52-4.50Q710.04-6.52 710.04-10.26L710.04-10.26Q710.04-12.24 709.69-13.66Q709.34-15.08 708.68-15.99Q708.02-16.90 707.06-17.32Q706.10-17.74 704.88-17.74Z M721.68-29.46L725.24-29.46L725.24 0L721.68 0L721.68-29.46Z M742.74-20.58L742.74-20.58Q744.56-20.58 746.10-19.97Q747.64-19.36 748.76-18.21Q749.88-17.06 750.51-15.37Q751.14-13.68 751.14-11.52L751.14-11.52Q751.14-10.68 750.96-10.40Q750.78-10.12 750.28-10.12L750.28-10.12L736.80-10.12Q736.84-8.20 737.32-6.78Q737.80-5.36 738.64-4.41Q739.48-3.46 740.64-2.99Q741.80-2.52 743.24-2.52L743.24-2.52Q744.58-2.52 745.55-2.83Q746.52-3.14 747.22-3.50Q747.92-3.86 748.39-4.17Q748.86-4.48 749.20-4.48L749.20-4.48Q749.64-4.48 749.88-4.14L749.88-4.14L750.88-2.84Q750.22-2.04 749.30-1.45Q748.38-0.86 747.33-0.48Q746.28-0.10 745.16 0.09Q744.04 0.28 742.94 0.28L742.94 0.28Q740.84 0.28 739.07-0.43Q737.30-1.14 736.01-2.51Q734.72-3.88 734.00-5.90Q733.28-7.92 733.28-10.54L733.28-10.54Q733.28-12.66 733.93-14.50Q734.58-16.34 735.80-17.69Q737.02-19.04 738.78-19.81Q740.54-20.58 742.74-20.58ZM742.82-17.96L742.82-17.96Q740.24-17.96 738.76-16.47Q737.28-14.98 736.92-12.34L736.92-12.34L747.94-12.34Q747.94-13.58 747.60-14.61Q747.26-15.64 746.60-16.39Q745.94-17.14 744.99-17.55Q744.04-17.96 742.82-17.96Z"/></g>
</svg>
</g><g opacity="1" transform="rotate(0 201.0378 430.1807)">
<svg width="375.8788" height="80" x="201.0378" y="430.1807" version="1.1" preserveAspectRatio="none" viewBox="2.3242 -28.8281 175.6407 37.3828">
  <g transform="matrix(1 0 0 1 0 0)" class="companyName"><path id="id-D6z1nYkh7" d="M21.99-23.09L21.99-23.09Q21.99-21.80 21.25-21.80L21.25-21.80Q21.17-21.80 20.78-22.29L20.78-22.29L20.23-22.99Q18.46-25.08 13.91-25.08L13.91-25.08Q10.94-25.08 10.16-23.69Q9.38-22.30 9.38-19.50Q9.38-16.70 10.08-15.87Q10.78-15.04 13.13-15.04L13.13-15.04Q14.36-15.04 15.52-15.85Q16.68-16.66 17.07-16.66L17.07-16.66Q18.16-16.66 18.16-13.63L18.16-13.63Q18.16-12.42 17.79-11.61Q17.42-10.80 16.72-10.80L16.72-10.80Q16.48-10.80 15.34-11.40Q14.20-11.99 13.20-11.99L13.20-11.99Q10.84-11.99 9.90-10.74L9.90-10.74Q9.47-10.18 9.47-7.64Q9.47-5.10 9.88-3.55Q10.29-2.01 10.59-1.64Q10.88-1.27 11.16-1.00Q11.45-0.72 11.45-0.63L11.45-0.63Q11.45 0.12 8.67 0.12L8.67 0.12L7.29 0.12Q4.69 0.12 3.61-0.20Q2.54-0.51 2.54-1.23L2.54-1.23Q2.54-1.43 3.53-2.09Q4.51-2.75 4.74-3.42Q4.96-4.08 4.96-9.59L4.96-9.59L5.12-18.07Q5.12-22.91 4.67-24.16L4.67-24.16Q4.43-24.79 3.38-25.44Q2.32-26.09 2.32-26.52L2.32-26.52Q2.32-27.15 6.89-27.15L6.89-27.15L11.13-27.21L12.56-27.25Q13.28-27.27 13.98-27.27L13.98-27.27L18.96-27.32Q20.59-27.32 21.29-26.52Q21.99-25.72 21.99-23.09Z M48.57-1.00L48.57-1.00Q48.57-0.72 47.89-0.30Q47.20 0.12 45.60 0.12Q44 0.12 43.55-0.20Q43.10-0.51 42.78-1.33Q42.46-2.15 42.19-2.15Q41.93-2.15 41.07-1.52L41.07-1.52Q38.51 0.33 36.29 0.33L36.29 0.33Q36.27 0.33 36.25 0.33L36.25 0.33L35.66 0.33Q32.42 0.33 30.99-2.36L30.99-2.36Q30.25-3.77 30.25-9.59Q30.25-15.41 30.01-15.91Q29.76-16.41 28.74-16.76Q27.71-17.11 27.71-17.68L27.71-17.68L27.91-18.01Q28.75-18.71 32.18-18.71L32.18-18.71Q33.55-18.71 33.79-17.44L33.79-17.44Q34.14-15.49 34.14-10.27L34.14-10.27Q34.14-5.08 34.64-3.98L34.64-3.98Q35.54-2.07 37.61-2.07L37.61-2.07Q38.79-2.07 40.02-2.69Q41.25-3.30 41.84-4.36Q42.44-5.41 42.44-10.21Q42.44-15 42.26-15.68Q42.09-16.37 41.36-16.89L41.36-16.89Q40.62-17.42 40.62-17.89L40.62-17.89Q40.62-18.65 44.72-18.65L44.72-18.65Q45.72-18.65 46.06-18.29Q46.40-17.93 46.40-16.89L46.40-16.89L46.38-16.33L46.30-15.20L46.21-9.96Q46.21-4.61 46.48-3.53Q46.75-2.44 47.66-1.97Q48.57-1.50 48.57-1.00Z M64.25-1.93Q65.30-1.39 65.30-0.68Q65.30 0.02 62.41 0.02L62.41 0.02L60.34 0.02L59.52-0.02L58.31-0.04Q55.99-0.04 55.99-0.84L55.99-0.84Q55.99-1.25 56.93-1.79Q57.86-2.32 58.17-3.18Q58.47-4.04 58.47-8.97Q58.47-13.91 58.18-14.91Q57.88-15.92 56.99-16.45Q56.11-16.97 56.11-17.40L56.11-17.40Q56.11-17.58 56.40-17.79L56.40-17.79Q57.53-18.63 60.42-18.63L60.42-18.63Q61.59-18.63 62.00-17.77L62.00-17.77Q62.69-16.35 62.84-16.35L62.84-16.35Q63.27-16.35 63.94-16.88L63.94-16.88Q66.05-18.55 68.27-18.55L68.27-18.55Q69.09-18.55 69.74-17.88Q70.38-17.21 70.38-16.36Q70.38-15.51 69.93-15.01Q69.48-14.51 68.83-14.51Q68.18-14.51 67.34-15.06Q66.50-15.61 65.75-15.61L65.75-15.61Q64.02-15.61 62.96-13.05L62.96-13.05Q62.34-11.48 62.34-7.81Q62.34-4.14 62.77-3.31Q63.20-2.48 64.25-1.93Z M91.16-3.39Q91.28-4.10 91.28-8.68Q91.28-13.26 90.77-14.57L90.77-14.57Q90.11-16.31 88.36-16.31Q86.61-16.31 85.29-15.30Q83.97-14.30 83.55-13.02Q83.13-11.74 83.13-4.06L83.13-4.06Q83.13-2.85 83.80-1.91Q84.46-0.98 84.46-0.70L84.46-0.70Q84.46-0.14 81.81-0.14Q79.17-0.14 78.05-0.59L78.05-0.59Q77.55-0.80 77.55-1.31L77.55-1.31Q77.55-1.43 78.23-2.15Q78.91-2.87 79.19-3.53Q79.46-4.18 79.46-6.84L79.46-6.84L79.44-7.75L79.36-9.59Q79.32-10.78 79.32-12.85Q79.32-14.92 79.11-15.38Q78.89-15.84 78.28-16.46Q77.66-17.07 77.66-17.40L77.66-17.40L77.94-17.81Q78.74-18.48 80.71-18.48L80.71-18.48Q81.86-18.48 82.63-17.61Q83.39-16.74 83.72-16.74L83.72-16.74L84.30-17.03L85.77-17.93Q87.63-18.96 89.28-18.96Q90.93-18.96 91.79-18.57Q92.66-18.18 93.68-17.31Q94.70-16.45 95.14-16.45L95.14-16.45L95.79-16.80L96.51-17.27Q97.90-18.14 98.94-18.50Q99.99-18.85 101.44-18.85Q102.90-18.85 104.04-18.14Q105.18-17.44 105.79-16.25L105.79-16.25Q106.73-14.38 106.73-7.07L106.73-7.07Q106.73-3.96 106.91-3.32Q107.10-2.68 107.98-1.94Q108.86-1.21 108.86-0.88L108.86-0.88Q108.86-0.10 103.76-0.10L103.76-0.10Q102-0.10 102-0.59L102-0.59Q102-0.80 102.51-1.79Q103.02-2.77 103.02-4.10L103.02-4.10Q103.02-12.56 102.43-14.05Q101.84-15.55 100.83-16.04L100.83-16.04Q100.20-16.33 99.11-16.33Q98.02-16.33 96.87-15.54Q95.73-14.75 95.40-13.63Q95.07-12.52 95.07-7.82Q95.07-3.13 95.38-2.58L95.38-2.58Q95.48-2.40 96.32-1.84Q97.16-1.27 97.16-0.72L97.16-0.72Q97.16 0.02 91.39 0.02L91.39 0.02Q89.23 0.02 89.23-0.55Q89.23-1.11 89.81-1.62L89.81-1.62Q91.04-2.68 91.16-3.39Z M136.27-1.00L136.27-1.00Q136.27-0.72 135.59-0.30Q134.91 0.12 133.30 0.12Q131.70 0.12 131.25-0.20Q130.80-0.51 130.48-1.33Q130.16-2.15 129.90-2.15Q129.63-2.15 128.77-1.52L128.77-1.52Q126.21 0.33 123.99 0.33L123.99 0.33Q123.97 0.33 123.95 0.33L123.95 0.33L123.36 0.33Q120.12 0.33 118.70-2.36L118.70-2.36Q117.95-3.77 117.95-9.59Q117.95-15.41 117.71-15.91Q117.46-16.41 116.44-16.76Q115.41-17.11 115.41-17.68L115.41-17.68L115.61-18.01Q116.45-18.71 119.89-18.71L119.89-18.71Q121.25-18.71 121.49-17.44L121.49-17.44Q121.84-15.49 121.84-10.27L121.84-10.27Q121.84-5.08 122.35-3.98L122.35-3.98Q123.25-2.07 125.32-2.07L125.32-2.07Q126.49-2.07 127.72-2.69Q128.95-3.30 129.54-4.36Q130.14-5.41 130.14-10.21Q130.14-15 129.96-15.68Q129.79-16.37 129.07-16.89L129.07-16.89Q128.32-17.42 128.32-17.89L128.32-17.89Q128.32-18.65 132.43-18.65L132.43-18.65Q133.42-18.65 133.76-18.29Q134.11-17.93 134.11-16.89L134.11-16.89L134.09-16.33L134.01-15.20L133.91-9.96Q133.91-4.61 134.18-3.53Q134.46-2.44 135.37-1.97Q136.27-1.50 136.27-1.00Z M145.59-3.14Q145.92-5.14 145.92-14.60Q145.92-24.06 145.71-25.08Q145.51-26.09 144.63-26.48L144.63-26.48Q143.36-27.03 143.36-27.43Q143.36-27.83 143.85-28.07L143.85-28.07Q145.43-28.83 148.48-28.83L148.48-28.83Q149.63-28.83 149.79-27.64L149.79-27.64Q149.82-27.36 149.82-22.25L149.82-22.25L149.80-21.04L149.80-19.41L149.77-17.81L149.77-16.19Q149.77-4.59 149.91-3.51Q150.06-2.42 150.90-1.89L150.90-1.89Q152.44-0.92 152.44-0.78L152.44-0.78Q152.44-0.08 149.71-0.08L149.71-0.08L148.93-0.04L145.35 0.04L144.53 0.04Q143.50 0.04 143.50-0.53L143.50-0.53Q143.50-0.98 144.45-1.54Q145.41-2.11 145.59-3.14L145.59-3.14Z M159.35-17.15L159.35-17.15Q159.35-18.38 163.75-18.38L163.75-18.38Q165.46-18.38 165.46-17.70L165.46-17.70Q165.46-17.50 165.19-16.99Q164.92-16.48 164.92-16.23L164.92-16.23Q164.92-14.92 168.38-6.21L168.38-6.21Q168.96-4.75 169.37-4.75L169.37-4.75Q169.61-4.75 170.50-6.62Q171.40-8.50 172.38-11.57Q173.36-14.65 173.36-15.52Q173.36-16.39 172.70-17.11Q172.05-17.83 172.05-18.13L172.05-18.13Q172.05-18.67 174.35-18.67L174.35-18.67L175.60-18.67Q177.96-18.67 177.96-17.87L177.96-17.87Q177.96-17.48 177.07-16.49Q176.17-15.51 175.85-14.82Q175.52-14.14 174.17-10.36Q172.81-6.58 172.42-5.53L172.42-5.53Q170.19 0.55 168.59 3.36L168.59 3.36Q165.66 8.55 162.81 8.55L162.81 8.55Q161.73 8.55 161.04 8.06Q160.35 7.56 160.35 7.07L160.35 7.07Q160.35 5.61 161.64 5.61L161.64 5.61L163.92 5.90Q165.13 5.90 166.25 3.89Q167.36 1.88 167.36 0L167.36 0Q167.36-0.92 163.69-8.81L163.69-8.81Q162.91-10.51 162.39-11.74Q161.87-12.97 161.56-13.62Q161.25-14.28 160.30-15.52Q159.35-16.76 159.35-17.15Z"/></g>
</svg>
</g></svg></svg>