<svg version="1.1" preserveAspectRatio="none" xmlns="http://www.w3.org/2000/svg" width="500" height="500" viewBox="0 0 500 500"><rect width="100%" height="100%" fill="#F7F7F7" fill-opacity="1"/><svg viewBox="85.3176 291.4969 529.3649 242.5083" width="417" height="191.03261493159064" x="41.5px" y="154.4837px" xmlns="http://www.w3.org/2000/svg" xmlns:xlink="http://www.w3.org/1999/xlink" preserveAspectRatio="none"><defs></defs><style>.companyName {fill:#2B2B2B;fill-opacity:1;}.icon1 {fill:#2B2B2B;fill-opacity:1;}.icon2 {fill:#59C65B;fill-opacity:1;}.icon3 {fill:#6D6D6D;fill-opacity:1;}.icon3-str {stroke:#6D6D6D;stroke-opacity:1;}.text {fill:#59C65B;fill-opacity:1;}</style><g opacity="1" transform="rotate(0 276.6102 291.4969)">
<svg width="146.7797" height="86.5083" x="276.6102" y="291.4969" version="1.1" preserveAspectRatio="none" viewBox="19.799999237060547 53 159.99998474121094 94.29998779296875">
  <g transform="matrix(1 0 0 1 0 0)" class="icon1"><g><path d="M179.6 53.5l-.3-.5c-2 1.5-5.3 2.7-8.8 3.9-4.7 1.6-9.4 3.3-11.8 5.9-1.1 1.3-1.9 2.8-2.4 4.3-.3 1-.5 2.1-.6 3.2-.1 2.4 1.5 5.3 2.8 7.8.2.3.3.5.4.8-2.3 2.9-4.6 5.6-6.9 8.4-3 .8-5.6 2.4-7.8 4-1.5 1.1-3.1 2.2-4.5 3.3-2.1 1.6-4.4 3.2-6.5 4.6-3.8 2.4-8.8 4.2-13 4.6v-.1c1.7-.9 5.6-3.6 6.2-5.7.7-.6 1-1.6 1.1-2.3 1.3-6.1-2.3-13.2-6.4-16.9 0-1.5-.7-2.9-2.2-4.4-2.6-2.8-6-4.6-9.7-5.3-.9-.2-2.1-.3-3.3 0-1.3.3-2.4 1.2-3.2 1.9-1.3 1.1-2.7 2.5-3.5 4.2l-2.9 1.7c-.7.4-.9.9-.9 1.2 0 .5.3.8.4.9.4.4.8.9 1.3 1.4s.9 1 1.3 1.4c.1.6.3 1.2.5 1.7 0 1.3-.2 2.7-.3 4-.3 2.8-.6 5.6.1 8.4.7 2.8 2.3 5.2 4.5 6.9 2.2 1.7 7.4 2.4 10.3 2.5v.3c-3.3 1.1-9 2.6-12.2 2.7-.8 0-1.6 0-2.4-.1-.7-.7-1.4-1.5-2.1-2.3-.2-.3-.5-.6-.7-.9-.9-1.2-1.9-2.4-3.1-3.3-2.4-1.7-5.5-2-8.2-.9-.7.3-1.4.8-2.1 1.3-1 .7-2.1 1.4-3 1.5-5.1-.7-10.4-.4-15.5-.1l-1.7.1c-4.9.3-12.3.9-18.8 3.6S32 114.6 27 119.3c-2.3 2.1-4.6 4.3-7 6.1l-.2.2v.3c.1.9 7.9 6.4 8 6.4 10.2 6.2 20.8 9.4 30.9 9.4 2.7 0 5.2-.2 7.8-.7l1 1c2 2 4.4 4.4 6.6 4.9 1.1.3 2.1.4 3.2.4 1.7 0 3.4-.3 4.8-1 3.3-1.4 6.2-5.5 9.1-9.5 2.2-3 4.3-5.8 6.2-7.3l-.3-.5-.1-.6c-2.5.4-10.8.3-13.2-.2-3.4-.8-7-.1-10 1.8-2.1 1.3-3.2 3.5-4.4 5.4-.8 1.5-1.7 3-2.9 4.2-12.3 2.3-25.7-.7-38.5-8.4-.6-.4-5.7-4.2-7.2-5.4 2.3-1.9 4.5-3.9 6.6-5.8 4.9-4.5 10-9.3 16.3-11.9 6.3-2.6 13.6-3.3 18.4-3.5l1.7-.1c5.5-.3 11.4-.6 16.8.3 2.6.4 5.2 1.2 7.7 2 3.1 1 6.3 1.9 9.6 2.3 5.1 4.9 11.7 8 19.1 11 1.2 1.4 1.9 3.2 2.5 4.9.8 2.2 1.7 4.4 3.6 6 2.7 2.3 6.1 3.5 9.6 3.2 2.5-.2 10.7.9 13.1 1.6l.2-.6.4-.4c-1.8-1.8-3.5-4.8-5.1-8.1-2.3-4.3-4.7-8.8-7.7-10.7-1.4-.9-3-1.5-4.7-1.7-1.1-.1-2.1-.2-3.2-.1-2.4.2-5 2.4-7.3 4l-.9.6c-6.7-2.7-12.8-5.5-17.6-9.8h1.1c3.4-.1 9.1-1.7 12.2-2.7 0 .3.1.6.1.9l1.1-.2c-.2-1.2-.3-2.5-.2-3.8l-1.1-.1v.5c-3-.1-7.8-.8-9.6-2.2-2-1.6-3.5-3.9-4.1-6.3-.6-2.6-.3-5.2 0-8 .1-.7.2-1.4.2-2.1.9 1.2 2.1 2.2 3.5 2.7s2.8.8 4.3.8c1.4 0 2.9-.2 4.4-.7 2.4-.8 4.7-2.4 6.6-4.3 3.3 4 5.9 9.5 6.6 14-.4 1.5-3.5 3.9-5.5 5-.1-.3-.3-.6-.4-.8l-1 .5c.6 1.1 1 2.3 1.2 3.6l1.1-.2c-.1-.3-.1-.5-.2-.8 4.3-.5 9.4-2.4 13.3-4.8.8-.5 1.6-1 2.3-1.6.6.1 1.3.1 2 .1 2.3-.1 4.6-.8 6-1.8 2.2-1.4 3.9-3.3 5.6-5.2 3.6-3.9 6.9-7.9 10.1-12.2l.1.1c1.6-1 3.5-1.4 5.3-1.8 2.3-.5 4.7-1 6.5-2.6 2.7-2.3 4.4-5.5 4.7-9 .2-2.5 2.6-10.4 3.7-12.7l-.2.2zM98.4 79.8l-.3-.3c-.5-.5-.9-1-1.3-1.4l-.1-.1s.1-.2.3-.3l1.8-1c-.3 1-.4 2.1-.4 3.1zm-16.3 65.3c-1.5-.4-7.2-3.4-8.7-5.9 1.6-.5 3.2-1 4.7-1.6 1.8 2 4.4 3.6 6.6 4.1l.3.1c.3.1.6.1.9.2-1.1 1.3-2.5 2.5-3.8 3.1zm5-4.3c-.3.2-1.2 0-1.7-.1l-.3-.1c-1.9-.4-4.1-1.6-5.6-3.3 1.4-.5 2.7-.9 4.1-1.4.8.5 3.4 1.9 5.7 1.9h.1c-.7 1-1.5 2-2.3 3zm3.5-4.7c-.1.1-.2.3-.3.4-1.7.4-3.9-.3-5.4-1.1 3.2-1.2 6.3-2.5 9.4-4.1-1.2 1.5-2.5 3.1-3.7 4.8zm4.2-6.3c-3.3 1.7-6.5 3.1-10 4.3.9-1.3 1.7-2.8 2.2-4.4 2.4.2 5.4.2 7.8.1zm-12.3-.7c.5 0 1 .1 1.5.2s1.1.2 1.9.3c-.7 2.2-1.8 4.1-3.2 5.3-1 .4-2 .7-3 1 1.1-1.8 2.5-5.2 2.8-6.8zm-1.2 0c-.5 2.2-2.7 6.7-3.3 7.4-1.1.4-2.3.7-3.4 1.1 1-2.1 2.8-6 3.2-8 1.2-.3 2.4-.5 3.5-.5zM71 136c1.1-2 2.2-3.9 4-5 .5-.4 1.1-.6 1.7-.9-.6 2.3-2.7 6.6-3.4 8-.4.1-.7.2-1.1.3l-3.3.9c.8-1 1.5-2.2 2.1-3.3zm1.3 3.6c1.2 2.5 5.5 5 8.1 6.1-1.9.5-3.9.5-5.8 0s-4.4-2.9-6.1-4.6l-.4-.4c1.4-.3 2.9-.7 4.2-1.1zm17-33.9c-2.3-.7-4.7-1.4-7.1-1.9.5-.3.9-.6 1.4-.9.7-.5 1.3-.9 1.9-1.2 2.3-1 5-.7 7.1.7 1.1.8 2 1.9 2.9 3 .2.3.5.6.7.9.4.5.8.9 1.2 1.3-2.9-.3-5.5-1.1-8.1-1.9zm35.1 24.4c-1.6-1.4-2.4-3.5-3.2-5.5-.5-1.3-1-2.6-1.7-3.8.4.2.8.3 1.3.5 1 .4 2.1.8 3.2 1.2.5 1.4 2.1 6.6 2.3 8.9-.7-.4-1.3-.8-1.9-1.3zm3 1.9c.1-1.9-1.3-6.6-2.1-8.9 1.1.4 2.1.9 3.2 1.3.4.7 2 6.1 2.1 8.5-1.2-.2-2.3-.5-3.2-.9zm5.8 1h-1.5c-.1-1.8-1-5.7-1.8-8 1.6.7 3.1 1.4 4.6 2.2 1.2 1.5 2.1 3.6 2.4 5.8-1.6 0-2.9-.1-3.7 0zm4.8.3c-.2-1.8-.8-3.4-1.5-4.8 2.7 1.6 5.2 3.5 7.5 5.6-1.7-.3-3.9-.6-6-.8zm2.7-6.1c.9 1.6 1.7 3.2 2.6 4.5-2.2-1.9-4.6-3.5-7.1-4.9 1.3-.4 3-.7 4.3-.2-.1.1.1.4.2.6zm-2.9-5.1c.7 1.1 1.3 2.2 1.9 3.3-1.8-.2-3.8.4-4.7.8-1.5-.8-3-1.5-4.5-2.2 1.7-1.1 3.7-1.9 5.3-2h.3c.6 0 1.4-.1 1.7.1zm-.8-1.3h-1.3c-2.1.1-4.6 1.1-6.5 2.6-1.6-.7-3.3-1.4-4.8-2 2-2.3 7.7-4.3 9.1-4.3 1.3.8 2.4 2.1 3.5 3.7zm-17.6-1.6c2-1.5 4.7-3.6 6.7-3.8 2-.2 4.1.1 5.7.9-2.6.7-7 2.6-8.7 4.7-.7-.3-1.4-.6-2.1-.8-.7-.3-1.3-.5-2-.8.1.1.4-.2.4-.2zm-1-36.8c-1.9 2.2-4.3 3.8-6.6 4.5-2.7.9-5.4.9-7.8 0-1.7-.7-3-2-3.8-3.8v-.2h-.2c-.9-2.2-.8-4.8.2-7.2.7-1.7 2.1-3 3.3-4.1.8-.7 1.7-1.4 2.8-1.7.4-.1.8-.1 1.2-.1.6 0 1.2.1 1.7.2 3.5.7 6.6 2.5 9.1 4.9 1.3 1.4 2 2.7 1.9 3.9-.2 1.6-1.2 2.8-1.8 3.6zm1.1.4c.6-.7 1.2-1.6 1.5-2.7 3.6 3.6 6.6 9.8 5.4 15.2-.1.3-.1.5-.2.8-.9-4.4-3.6-9.6-6.7-13.3zm29.5 8.1c-1.7 1.9-3.4 3.7-5.4 5-1.5 1-3.8 1.5-5.8 1.6 1-.7 1.9-1.4 2.8-2.1l4.5-3.3c1.7-1.2 3.6-2.4 5.7-3.3-.7.8-1.2 1.5-1.8 2.1zM170.4 58c.2-.1.3-.1.5-.2 2.3-.8 4.5-1.6 6.3-2.4-2.8 2.5-5.1 5.3-7.2 8.3-.4-1.6-.6-4.1.4-5.7zm-5.4 3.9v-.3c0-.5.1-1.4.4-1.7 1.1-.5 2.4-.9 3.6-1.4v.1c-.8 2.7.1 5.9.2 6.3-.5.7-.9 1.4-1.4 2.1l-1.1 1.5c-1.2-2.1-1.9-4.5-1.7-6.6zm-5.3 1.5c1-1.1 2.5-2 4.3-2.9-.1.3-.1.7-.1.9v.3c-.2 2.5.6 5.4 2.1 7.8-.9 1.4-1.9 2.7-2.9 4-2.2-1.7-3.5-8.5-3.4-10.1zm.1 14.5c-.1-.1-.1-.2-.2-.4-1.2-2.2-2.8-5.2-2.7-7.2.1-2 .7-4 1.8-5.5.3 2.9 1.6 7.9 3.8 9.7-1 1.1-1.8 2.3-2.7 3.4zm11.3-3.5c-1.7 1.4-3.8 1.8-6 2.3-1.3.3-2.6.5-3.8 1l2.7-3.6c1.6-.3 5.8-.9 8.2-.9-.3.6-.7 1-1.1 1.2zm2.1-2.1c-2-.2-5.9.3-8.2.6l2.4-3.3c1.6-.4 5.6-.9 7.5-.8-.4 1.3-1 2.4-1.7 3.5zm2.1-6.1c0 .5-.1 1-.2 1.5-1.5-.2-4.7.2-6.8.6l.4-.5c.4-.5.7-1.1 1.1-1.6 1.6-.9 3.7-1.4 5.8-1.4-.2.6-.3 1-.3 1.4zm.5-2.6c-1.7 0-3.4.3-4.8.8 2.1-2.9 4.3-5.6 6.9-8-.8 2.2-1.6 5-2.1 7.2z"></path><path d="M106 75.3l-.1-.7-.6.2c-.8.3-1.4 1.1-1.4 1.9 0 .5.1.9.4 1.2.3.3.6.4 1 .4.1 0 .3 0 .4-.1.8-.3.7-1.6.3-2.9.1 0 0 0 0 0z"></path></g></g>
</svg>
</g><g opacity="1" transform="rotate(0 85.3176 506.0052)">
<svg width="529.3649" height="28" x="85.3176" y="506.0052" version="1.1" preserveAspectRatio="none" viewBox="2.5391 -30 720.6546000000001 38.125">
  <g transform="matrix(1 0 0 1 0 0)" class="text"><path id="id-6izo4zJp38" d="M18.40 0L13.07-10.41L8.40-10.41L8.40 0L2.54 0L2.54-28.44L13.11-28.44Q18.14-28.44 20.88-26.19Q23.61-23.95 23.61-19.84L23.61-19.84Q23.61-16.93 22.35-14.99Q21.09-13.05 18.54-11.89L18.54-11.89L24.69-0.27L24.69 0L18.40 0ZM8.40-23.69L8.40-15.16L13.13-15.16Q15.33-15.16 16.54-16.28Q17.75-17.40 17.75-19.38L17.75-19.38Q17.75-21.39 16.61-22.54Q15.47-23.69 13.11-23.69L13.11-23.69L8.40-23.69Z M38.22 0.39L38.22 0.39Q33.57 0.39 30.65-2.46Q27.73-5.31 27.73-10.06L27.73-10.06L27.73-10.61Q27.73-13.79 28.96-16.30Q30.19-18.81 32.45-20.17Q34.71-21.52 37.60-21.52L37.60-21.52Q41.93-21.52 44.42-18.79Q46.91-16.05 46.91-11.04L46.91-11.04L46.91-8.73L33.46-8.73Q33.73-6.66 35.11-5.41Q36.48-4.16 38.59-4.16L38.59-4.16Q41.85-4.16 43.69-6.52L43.69-6.52L46.46-3.42Q45.19-1.62 43.03-0.62Q40.86 0.39 38.22 0.39ZM37.58-16.95L37.58-16.95Q35.90-16.95 34.85-15.82Q33.81-14.69 33.51-12.58L33.51-12.58L41.37-12.58L41.37-13.03Q41.33-14.90 40.35-15.93Q39.37-16.95 37.58-16.95Z M62.36-5.84L62.36-5.84Q62.36-6.88 61.34-7.47Q60.31-8.07 58.05-8.54L58.05-8.54Q50.51-10.12 50.51-14.94L50.51-14.94Q50.51-17.75 52.84-19.64Q55.17-21.52 58.94-21.52L58.94-21.52Q62.97-21.52 65.38-19.63Q67.79-17.73 67.79-14.71L67.79-14.71L62.15-14.71Q62.15-15.92 61.37-16.71Q60.58-17.50 58.92-17.50L58.92-17.50Q57.50-17.50 56.72-16.86Q55.94-16.21 55.94-15.21L55.94-15.21Q55.94-14.28 56.82-13.70Q57.71-13.13 59.82-12.71Q61.93-12.29 63.38-11.76L63.38-11.76Q67.85-10.12 67.85-6.07L67.85-6.07Q67.85-3.18 65.37-1.40Q62.89 0.39 58.96 0.39L58.96 0.39Q56.31 0.39 54.25-0.56Q52.19-1.50 51.01-3.15Q49.84-4.80 49.84-6.72L49.84-6.72L55.19-6.72Q55.27-5.21 56.31-4.41Q57.34-3.61 59.08-3.61L59.08-3.61Q60.70-3.61 61.53-4.23Q62.36-4.84 62.36-5.84Z M78.24-21.13L78.24 0L72.58 0L72.58-21.13L78.24-21.13ZM72.24-26.60L72.24-26.60Q72.24-27.87 73.09-28.69Q73.94-29.51 75.41-29.51L75.41-29.51Q76.85-29.51 77.71-28.69Q78.57-27.87 78.57-26.60L78.57-26.60Q78.57-25.31 77.70-24.49Q76.83-23.67 75.41-23.67Q73.98-23.67 73.11-24.49Q72.24-25.31 72.24-26.60Z M89.65-30L89.65 0L83.98 0L83.98-30L89.65-30Z M101.05-21.13L101.05 0L95.39 0L95.39-21.13L101.05-21.13ZM95.05-26.60L95.05-26.60Q95.05-27.87 95.90-28.69Q96.75-29.51 98.22-29.51L98.22-29.51Q99.66-29.51 100.52-28.69Q101.38-27.87 101.38-26.60L101.38-26.60Q101.38-25.31 100.51-24.49Q99.64-23.67 98.22-23.67Q96.79-23.67 95.92-24.49Q95.05-25.31 95.05-26.60Z M116.23 0.39L116.23 0.39Q111.58 0.39 108.66-2.46Q105.74-5.31 105.74-10.06L105.74-10.06L105.74-10.61Q105.74-13.79 106.97-16.30Q108.20-18.81 110.45-20.17Q112.71-21.52 115.60-21.52L115.60-21.52Q119.94-21.52 122.43-18.79Q124.92-16.05 124.92-11.04L124.92-11.04L124.92-8.73L111.46-8.73Q111.73-6.66 113.11-5.41Q114.49-4.16 116.60-4.16L116.60-4.16Q119.86-4.16 121.69-6.52L121.69-6.52L124.47-3.42Q123.20-1.62 121.03-0.62Q118.86 0.39 116.23 0.39ZM115.58-16.95L115.58-16.95Q113.90-16.95 112.86-15.82Q111.81-14.69 111.52-12.58L111.52-12.58L119.37-12.58L119.37-13.03Q119.33-14.90 118.35-15.93Q117.38-16.95 115.58-16.95Z M128.80-21.13L134.12-21.13L134.29-18.69Q136.56-21.52 140.37-21.52L140.37-21.52Q143.72-21.52 145.37-19.55Q147.01-17.58 147.05-13.65L147.05-13.65L147.05 0L141.40 0L141.40-13.52Q141.40-15.31 140.62-16.12Q139.84-16.93 138.02-16.93L138.02-16.93Q135.64-16.93 134.45-14.90L134.45-14.90L134.45 0L128.80 0L128.80-21.13Z M160.91-4.16L160.91-4.16Q162.47-4.16 163.45-5.02Q164.43-5.88 164.47-7.30L164.47-7.30L169.76-7.30Q169.74-5.16 168.59-3.37Q167.44-1.58 165.43-0.60Q163.43 0.39 161.01 0.39L161.01 0.39Q156.48 0.39 153.86-2.49Q151.24-5.37 151.24-10.45L151.24-10.45L151.24-10.82Q151.24-15.70 153.84-18.61Q156.44-21.52 160.97-21.52L160.97-21.52Q164.94-21.52 167.33-19.27Q169.72-17.01 169.76-13.26L169.76-13.26L164.47-13.26Q164.43-14.90 163.45-15.93Q162.47-16.95 160.87-16.95L160.87-16.95Q158.90-16.95 157.89-15.52Q156.89-14.08 156.89-10.86L156.89-10.86L156.89-10.27Q156.89-7.01 157.88-5.59Q158.88-4.16 160.91-4.16Z M183.51 0.39L183.51 0.39Q178.86 0.39 175.94-2.46Q173.02-5.31 173.02-10.06L173.02-10.06L173.02-10.61Q173.02-13.79 174.25-16.30Q175.48-18.81 177.74-20.17Q179.99-21.52 182.88-21.52L182.88-21.52Q187.22-21.52 189.71-18.79Q192.20-16.05 192.20-11.04L192.20-11.04L192.20-8.73L178.74-8.73Q179.02-6.66 180.39-5.41Q181.77-4.16 183.88-4.16L183.88-4.16Q187.14-4.16 188.98-6.52L188.98-6.52L191.75-3.42Q190.48-1.62 188.31-0.62Q186.15 0.39 183.51 0.39ZM182.86-16.95L182.86-16.95Q181.18-16.95 180.14-15.82Q179.09-14.69 178.80-12.58L178.80-12.58L186.65-12.58L186.65-13.03Q186.61-14.90 185.64-15.93Q184.66-16.95 182.86-16.95Z M206.96-21.13L212.26-21.13L212.43-18.77Q214.68-21.52 218.51-21.52L218.51-21.52Q222.59-21.52 224.11-18.30L224.11-18.30Q226.34-21.52 230.46-21.52L230.46-21.52Q233.90-21.52 235.58-19.52Q237.26-17.52 237.26-13.50L237.26-13.50L237.26 0L231.59 0L231.59-13.48Q231.59-15.27 230.89-16.10Q230.19-16.93 228.41-16.93L228.41-16.93Q225.87-16.93 224.89-14.51L224.89-14.51L224.91 0L219.27 0L219.27-13.46Q219.27-15.29 218.55-16.11Q217.82-16.93 216.09-16.93L216.09-16.93Q213.68-16.93 212.61-14.94L212.61-14.94L212.61 0L206.96 0L206.96-21.13Z M260.34 0L254.64 0Q254.25-0.76 254.07-1.89L254.07-1.89Q252.02 0.39 248.74 0.39L248.74 0.39Q245.64 0.39 243.59-1.41Q241.55-3.20 241.55-5.94L241.55-5.94Q241.55-9.30 244.04-11.09Q246.53-12.89 251.24-12.91L251.24-12.91L253.84-12.91L253.84-14.12Q253.84-15.59 253.09-16.46Q252.33-17.34 250.71-17.34L250.71-17.34Q249.29-17.34 248.48-16.66Q247.67-15.98 247.67-14.79L247.67-14.79L242.02-14.79Q242.02-16.62 243.15-18.18Q244.29-19.75 246.36-20.63Q248.43-21.52 251.01-21.52L251.01-21.52Q254.91-21.52 257.21-19.56Q259.50-17.60 259.50-14.04L259.50-14.04L259.50-4.88Q259.52-1.88 260.34-0.33L260.34-0.33L260.34 0ZM249.97-3.93L249.97-3.93Q251.22-3.93 252.28-4.48Q253.33-5.04 253.84-5.98L253.84-5.98L253.84-9.61L251.73-9.61Q247.49-9.61 247.22-6.68L247.22-6.68L247.20-6.35Q247.20-5.29 247.94-4.61Q248.68-3.93 249.97-3.93Z M277.74 0L272.31-8.48L270.28-6.45L270.28 0L264.64 0L264.64-30L270.28-30L270.28-13.38L271.38-14.79L276.79-21.13L283.56-21.13L275.93-12.32L284.23 0L277.74 0Z M296.14 0.39L296.14 0.39Q291.49 0.39 288.57-2.46Q285.65-5.31 285.65-10.06L285.65-10.06L285.65-10.61Q285.65-13.79 286.88-16.30Q288.11-18.81 290.37-20.17Q292.63-21.52 295.52-21.52L295.52-21.52Q299.85-21.52 302.34-18.79Q304.83-16.05 304.83-11.04L304.83-11.04L304.83-8.73L291.38-8.73Q291.65-6.66 293.03-5.41Q294.40-4.16 296.51-4.16L296.51-4.16Q299.77-4.16 301.61-6.52L301.61-6.52L304.38-3.42Q303.11-1.62 300.95-0.62Q298.78 0.39 296.14 0.39ZM295.50-16.95L295.50-16.95Q293.82-16.95 292.77-15.82Q291.73-14.69 291.43-12.58L291.43-12.58L299.29-12.58L299.29-13.03Q299.25-14.90 298.27-15.93Q297.29-16.95 295.50-16.95Z M320.28-5.84L320.28-5.84Q320.28-6.88 319.26-7.47Q318.23-8.07 315.96-8.54L315.96-8.54Q308.43-10.12 308.43-14.94L308.43-14.94Q308.43-17.75 310.76-19.64Q313.09-21.52 316.86-21.52L316.86-21.52Q320.89-21.52 323.30-19.63Q325.71-17.73 325.71-14.71L325.71-14.71L320.07-14.71Q320.07-15.92 319.29-16.71Q318.50-17.50 316.84-17.50L316.84-17.50Q315.42-17.50 314.64-16.86Q313.86-16.21 313.86-15.21L313.86-15.21Q313.86-14.28 314.74-13.70Q315.63-13.13 317.74-12.71Q319.85-12.29 321.30-11.76L321.30-11.76Q325.77-10.12 325.77-6.07L325.77-6.07Q325.77-3.18 323.29-1.40Q320.81 0.39 316.88 0.39L316.88 0.39Q314.23 0.39 312.17-0.56Q310.11-1.50 308.93-3.15Q307.76-4.80 307.76-6.72L307.76-6.72L313.11-6.72Q313.19-5.21 314.23-4.41Q315.26-3.61 317.00-3.61L317.00-3.61Q318.62-3.61 319.45-4.23Q320.28-4.84 320.28-5.84Z M346.92-21.13L346.92 0L341.26 0L341.26-21.13L346.92-21.13ZM340.92-26.60L340.92-26.60Q340.92-27.87 341.77-28.69Q342.62-29.51 344.09-29.51L344.09-29.51Q345.53-29.51 346.39-28.69Q347.25-27.87 347.25-26.60L347.25-26.60Q347.25-25.31 346.38-24.49Q345.51-23.67 344.09-23.67Q342.66-23.67 341.79-24.49Q340.92-25.31 340.92-26.60Z M352.37-21.13L357.66-21.13L357.84-18.77Q360.08-21.52 363.91-21.52L363.91-21.52Q367.99-21.52 369.52-18.30L369.52-18.30Q371.74-21.52 375.86-21.52L375.86-21.52Q379.30-21.52 380.98-19.52Q382.66-17.52 382.66-13.50L382.66-13.50L382.66 0L377.00 0L377.00-13.48Q377.00-15.27 376.29-16.10Q375.59-16.93 373.81-16.93L373.81-16.93Q371.28-16.93 370.30-14.51L370.30-14.51L370.32 0L364.67 0L364.67-13.46Q364.67-15.29 363.95-16.11Q363.23-16.93 361.49-16.93L361.49-16.93Q359.09-16.93 358.01-14.94L358.01-14.94L358.01 0L352.37 0L352.37-21.13Z M406.82-10.66L406.82-10.37Q406.82-5.49 404.60-2.55Q402.39 0.39 398.62 0.39L398.62 0.39Q395.41 0.39 393.44-1.84L393.44-1.84L393.44 8.13L387.80 8.13L387.80-21.13L393.03-21.13L393.23-19.06Q395.28-21.52 398.58-21.52L398.58-21.52Q402.49-21.52 404.65-18.63Q406.82-15.74 406.82-10.66L406.82-10.66ZM401.18-10.78L401.18-10.78Q401.18-13.73 400.13-15.33Q399.09-16.93 397.09-16.93L397.09-16.93Q394.44-16.93 393.44-14.90L393.44-14.90L393.44-6.25Q394.48-4.16 397.13-4.16L397.13-4.16Q401.18-4.16 401.18-10.78Z M410.24-10.51L410.24-10.76Q410.24-13.91 411.45-16.37Q412.66-18.83 414.94-20.18Q417.21-21.52 420.22-21.52L420.22-21.52Q424.50-21.52 427.20-18.91Q429.91-16.29 430.22-11.80L430.22-11.80L430.26-10.35Q430.26-5.49 427.54-2.55Q424.83 0.39 420.26 0.39Q415.69 0.39 412.96-2.54Q410.24-5.47 410.24-10.51L410.24-10.51ZM415.88-10.35L415.88-10.35Q415.88-7.34 417.02-5.75Q418.15-4.16 420.26-4.16L420.26-4.16Q422.31-4.16 423.46-5.73Q424.61-7.30 424.61-10.76L424.61-10.76Q424.61-13.71 423.46-15.33Q422.31-16.95 420.22-16.95L420.22-16.95Q418.15-16.95 417.02-15.34Q415.88-13.73 415.88-10.35Z M445.98-5.84L445.98-5.84Q445.98-6.88 444.95-7.47Q443.93-8.07 441.66-8.54L441.66-8.54Q434.12-10.12 434.12-14.94L434.12-14.94Q434.12-17.75 436.46-19.64Q438.79-21.52 442.56-21.52L442.56-21.52Q446.59-21.52 449.00-19.63Q451.41-17.73 451.41-14.71L451.41-14.71L445.76-14.71Q445.76-15.92 444.98-16.71Q444.20-17.50 442.54-17.50L442.54-17.50Q441.12-17.50 440.34-16.86Q439.55-16.21 439.55-15.21L439.55-15.21Q439.55-14.28 440.44-13.70Q441.33-13.13 443.44-12.71Q445.55-12.29 447.00-11.76L447.00-11.76Q451.47-10.12 451.47-6.07L451.47-6.07Q451.47-3.18 448.99-1.40Q446.51 0.39 442.58 0.39L442.58 0.39Q439.93 0.39 437.86-0.56Q435.80-1.50 434.63-3.15Q433.46-4.80 433.46-6.72L433.46-6.72L438.81-6.72Q438.89-5.21 439.93-4.41Q440.96-3.61 442.70-3.61L442.70-3.61Q444.32-3.61 445.15-4.23Q445.98-4.84 445.98-5.84Z M467.35-5.84L467.35-5.84Q467.35-6.88 466.32-7.47Q465.30-8.07 463.03-8.54L463.03-8.54Q455.49-10.12 455.49-14.94L455.49-14.94Q455.49-17.75 457.82-19.64Q460.16-21.52 463.93-21.52L463.93-21.52Q467.95-21.52 470.36-19.63Q472.78-17.73 472.78-14.71L472.78-14.71L467.13-14.71Q467.13-15.92 466.35-16.71Q465.57-17.50 463.91-17.50L463.91-17.50Q462.48-17.50 461.70-16.86Q460.92-16.21 460.92-15.21L460.92-15.21Q460.92-14.28 461.81-13.70Q462.70-13.13 464.81-12.71Q466.92-12.29 468.36-11.76L468.36-11.76Q472.83-10.12 472.83-6.07L472.83-6.07Q472.83-3.18 470.35-1.40Q467.87 0.39 463.95 0.39L463.95 0.39Q461.29 0.39 459.23-0.56Q457.17-1.50 456.00-3.15Q454.83-4.80 454.83-6.72L454.83-6.72L460.18-6.72Q460.26-5.21 461.29-4.41Q462.33-3.61 464.06-3.61L464.06-3.61Q465.69-3.61 466.52-4.23Q467.35-4.84 467.35-5.84Z M483.22-21.13L483.22 0L477.56 0L477.56-21.13L483.22-21.13ZM477.23-26.60L477.23-26.60Q477.23-27.87 478.08-28.69Q478.93-29.51 480.39-29.51L480.39-29.51Q481.84-29.51 482.70-28.69Q483.56-27.87 483.56-26.60L483.56-26.60Q483.56-25.31 482.69-24.49Q481.82-23.67 480.39-23.67Q478.97-23.67 478.10-24.49Q477.23-25.31 477.23-26.60Z M507.72-10.68L507.72-10.37Q507.72-5.29 505.55-2.45Q503.38 0.39 499.49 0.39L499.49 0.39Q496.06 0.39 494.00-2.25L494.00-2.25L493.75 0L488.67 0L488.67-30L494.32-30L494.32-19.24Q496.27-21.52 499.45-21.52L499.45-21.52Q503.32-21.52 505.52-18.68Q507.72-15.84 507.72-10.68L507.72-10.68ZM502.07-10.78L502.07-10.78Q502.07-13.98 501.06-15.46Q500.04-16.93 498.03-16.93L498.03-16.93Q495.33-16.93 494.32-14.73L494.32-14.73L494.32-6.39Q495.35-4.16 498.07-4.16L498.07-4.16Q500.80-4.16 501.66-6.86L501.66-6.86Q502.07-8.14 502.07-10.78Z M517.95-30L517.95 0L512.29 0L512.29-30L517.95-30Z M533.12 0.39L533.12 0.39Q528.48 0.39 525.56-2.46Q522.64-5.31 522.64-10.06L522.64-10.06L522.64-10.61Q522.64-13.79 523.87-16.30Q525.10-18.81 527.35-20.17Q529.61-21.52 532.50-21.52L532.50-21.52Q536.84-21.52 539.33-18.79Q541.82-16.05 541.82-11.04L541.82-11.04L541.82-8.73L528.36-8.73Q528.63-6.66 530.01-5.41Q531.39-4.16 533.50-4.16L533.50-4.16Q536.76-4.16 538.59-6.52L538.59-6.52L541.37-3.42Q540.10-1.62 537.93-0.62Q535.76 0.39 533.12 0.39ZM532.48-16.95L532.48-16.95Q530.80-16.95 529.76-15.82Q528.71-14.69 528.42-12.58L528.42-12.58L536.27-12.58L536.27-13.03Q536.23-14.90 535.25-15.93Q534.28-16.95 532.48-16.95Z M575.60-10.66L575.60-10.37Q575.60-5.49 573.39-2.55Q571.17 0.39 567.40 0.39L567.40 0.39Q564.20 0.39 562.22-1.84L562.22-1.84L562.22 8.13L556.58 8.13L556.58-21.13L561.81-21.13L562.01-19.06Q564.06-21.52 567.36-21.52L567.36-21.52Q571.27-21.52 573.44-18.63Q575.60-15.74 575.60-10.66L575.60-10.66ZM569.96-10.78L569.96-10.78Q569.96-13.73 568.91-15.33Q567.87-16.93 565.88-16.93L565.88-16.93Q563.22-16.93 562.22-14.90L562.22-14.90L562.22-6.25Q563.26-4.16 565.92-4.16L565.92-4.16Q569.96-4.16 569.96-10.78Z M579.02-10.51L579.02-10.76Q579.02-13.91 580.23-16.37Q581.44-18.83 583.72-20.18Q585.99-21.52 589.00-21.52L589.00-21.52Q593.28-21.52 595.98-18.91Q598.69-16.29 599.00-11.80L599.00-11.80L599.04-10.35Q599.04-5.49 596.33-2.55Q593.61 0.39 589.04 0.39Q584.47 0.39 581.74-2.54Q579.02-5.47 579.02-10.51L579.02-10.51ZM584.66-10.35L584.66-10.35Q584.66-7.34 585.80-5.75Q586.93-4.16 589.04-4.16L589.04-4.16Q591.09-4.16 592.24-5.73Q593.40-7.30 593.40-10.76L593.40-10.76Q593.40-13.71 592.24-15.33Q591.09-16.95 589.00-16.95L589.00-16.95Q586.93-16.95 585.80-15.34Q584.66-13.73 584.66-10.35Z M614.76-5.84L614.76-5.84Q614.76-6.88 613.74-7.47Q612.71-8.07 610.45-8.54L610.45-8.54Q602.91-10.12 602.91-14.94L602.91-14.94Q602.91-17.75 605.24-19.64Q607.57-21.52 611.34-21.52L611.34-21.52Q615.37-21.52 617.78-19.63Q620.19-17.73 620.19-14.71L620.19-14.71L614.55-14.71Q614.55-15.92 613.77-16.71Q612.98-17.50 611.32-17.50L611.32-17.50Q609.90-17.50 609.12-16.86Q608.34-16.21 608.34-15.21L608.34-15.21Q608.34-14.28 609.22-13.70Q610.11-13.13 612.22-12.71Q614.33-12.29 615.78-11.76L615.78-11.76Q620.25-10.12 620.25-6.07L620.25-6.07Q620.25-3.18 617.77-1.40Q615.29 0.39 611.36 0.39L611.36 0.39Q608.71 0.39 606.65-0.56Q604.59-1.50 603.41-3.15Q602.24-4.80 602.24-6.72L602.24-6.72L607.59-6.72Q607.67-5.21 608.71-4.41Q609.74-3.61 611.48-3.61L611.48-3.61Q613.10-3.61 613.93-4.23Q614.76-4.84 614.76-5.84Z M636.13-5.84L636.13-5.84Q636.13-6.88 635.10-7.47Q634.08-8.07 631.81-8.54L631.81-8.54Q624.27-10.12 624.27-14.94L624.27-14.94Q624.27-17.75 626.61-19.64Q628.94-21.52 632.71-21.52L632.71-21.52Q636.73-21.52 639.15-19.63Q641.56-17.73 641.56-14.71L641.56-14.71L635.91-14.71Q635.91-15.92 635.13-16.71Q634.35-17.50 632.69-17.50L632.69-17.50Q631.26-17.50 630.48-16.86Q629.70-16.21 629.70-15.21L629.70-15.21Q629.70-14.28 630.59-13.70Q631.48-13.13 633.59-12.71Q635.70-12.29 637.14-11.76L637.14-11.76Q641.62-10.12 641.62-6.07L641.62-6.07Q641.62-3.18 639.14-1.40Q636.66 0.39 632.73 0.39L632.73 0.39Q630.07 0.39 628.01-0.56Q625.95-1.50 624.78-3.15Q623.61-4.80 623.61-6.72L623.61-6.72L628.96-6.72Q629.04-5.21 630.07-4.41Q631.11-3.61 632.85-3.61L632.85-3.61Q634.47-3.61 635.30-4.23Q636.13-4.84 636.13-5.84Z M652.01-21.13L652.01 0L646.34 0L646.34-21.13L652.01-21.13ZM646.01-26.60L646.01-26.60Q646.01-27.87 646.86-28.69Q647.71-29.51 649.17-29.51L649.17-29.51Q650.62-29.51 651.48-28.69Q652.34-27.87 652.34-26.60L652.34-26.60Q652.34-25.31 651.47-24.49Q650.60-23.67 649.17-23.67Q647.75-23.67 646.88-24.49Q646.01-25.31 646.01-26.60Z M676.50-10.68L676.50-10.37Q676.50-5.29 674.33-2.45Q672.16 0.39 668.27 0.39L668.27 0.39Q664.84 0.39 662.79-2.25L662.79-2.25L662.53 0L657.45 0L657.45-30L663.10-30L663.10-19.24Q665.05-21.52 668.24-21.52L668.24-21.52Q672.10-21.52 674.30-18.68Q676.50-15.84 676.50-10.68L676.50-10.68ZM670.85-10.78L670.85-10.78Q670.85-13.98 669.84-15.46Q668.82-16.93 666.81-16.93L666.81-16.93Q664.11-16.93 663.10-14.73L663.10-14.73L663.10-6.39Q664.13-4.16 666.85-4.16L666.85-4.16Q669.58-4.16 670.44-6.86L670.44-6.86Q670.85-8.14 670.85-10.78Z M686.73-30L686.73 0L681.07 0L681.07-30L686.73-30Z M701.91 0.39L701.91 0.39Q697.26 0.39 694.34-2.46Q691.42-5.31 691.42-10.06L691.42-10.06L691.42-10.61Q691.42-13.79 692.65-16.30Q693.88-18.81 696.13-20.17Q698.39-21.52 701.28-21.52L701.28-21.52Q705.62-21.52 708.11-18.79Q710.60-16.05 710.60-11.04L710.60-11.04L710.60-8.73L697.14-8.73Q697.41-6.66 698.79-5.41Q700.17-4.16 702.28-4.16L702.28-4.16Q705.54-4.16 707.37-6.52L707.37-6.52L710.15-3.42Q708.88-1.62 706.71-0.62Q704.54 0.39 701.91 0.39ZM701.26-16.95L701.26-16.95Q699.58-16.95 698.54-15.82Q697.49-14.69 697.20-12.58L697.20-12.58L705.05-12.58L705.05-13.03Q705.01-14.90 704.04-15.93Q703.06-16.95 701.26-16.95Z"/></g>
</svg>
</g><g opacity="1" transform="rotate(0 166.5254 418.0052)">
<svg width="366.9493" height="70" x="166.5254" y="418.0052" version="1.1" preserveAspectRatio="none" viewBox="1.8 -25.44 133.35999999999999 25.44">
  <g transform="matrix(1 0 0 1 0 0)" class="companyName"><path id="id-D6z1nYkh7" d="M15.48-25.44L15.48-21.24L7.52-21.24L7.52-14.24L14.20-14.24L14.20-10.28L7.52-10.28L7.52 0L1.80 0L1.80-25.44L15.48-25.44Z M28.28-5.20L28.28-25.44L34-25.44L34-4.44Q34 0 28.92 0L28.92 0L23.56 0Q18.52 0 18.52-4.44L18.52-4.44L18.52-25.44L24.24-25.44L24.24-5.20Q24.24-4.20 25.28-4.20L25.28-4.20L27.20-4.20Q28.28-4.20 28.28-5.20L28.28-5.20Z M45.04-9.52L44.04-9.52L44.04 0L38.36 0L38.36-25.44L48.84-25.44Q53.88-25.44 53.88-21.04L53.88-21.04L53.88-13.92Q53.88-10.40 50.68-9.68L50.68-9.68L55.16 0L49.04 0L45.04-9.52ZM47.12-21.24L44.04-21.24L44.04-13.56L47.12-13.56Q47.68-13.56 47.92-13.78Q48.16-14 48.16-14.52L48.16-14.52L48.16-20.24Q48.16-21.24 47.12-21.24L47.12-21.24Z M62.96-17.04L62.96 0L57.92 0L57.92-25.44L64.16-25.44L68.36-11.04L72.56-25.44L78.80-25.44L78.80 0L73.76 0L73.76-17.08L70.48-5.52L66.24-5.52L62.96-17.04Z M92.92-5.20L92.92-25.44L98.64-25.44L98.64-4.44Q98.64 0 93.56 0L93.56 0L88.20 0Q83.16 0 83.16-4.44L83.16-4.44L83.16-25.44L88.88-25.44L88.88-5.20Q88.88-4.20 89.92-4.20L89.92-4.20L91.84-4.20Q92.92-4.20 92.92-5.20L92.92-5.20Z M108.68-25.44L108.68-4.20L116-4.20L116 0L103 0L103-25.44L108.68-25.44Z M129.04-8.20L129.04 0L123.32 0L123.32-8.24L116.92-25.44L122.76-25.44L126.16-13.48L129.32-25.44L135.16-25.44L129.04-8.20Z"/></g>
</svg>
</g></svg></svg>