<svg version="1.1" preserveAspectRatio="none" xmlns="http://www.w3.org/2000/svg" width="500" height="500" viewBox="0 0 500 500"><rect width="100%" height="100%" fill="#FFFFFF" fill-opacity="1"/><svg viewBox="-39.6575 323.1338 644.2635 160" width="333" height="82.69908197499936" x="83.5px" y="208.6505px" xmlns="http://www.w3.org/2000/svg" xmlns:xlink="http://www.w3.org/1999/xlink" preserveAspectRatio="none"><defs></defs><style>.companyName {fill:#4D4D4D;fill-opacity:1;}.icon1 {fill:#FF834F;fill-opacity:1;}.icon2 {fill:#FF4949;fill-opacity:1;}.icon3 {fill:#FFAE78;fill-opacity:1;}.icon3-str {stroke:#FFAE78;stroke-opacity:1;}.shapeStroke-str {stroke:#313131;stroke-opacity:1;}.text {fill:#4D4D4D;fill-opacity:1;}</style><g opacity="1" transform="rotate(0 -39.6575 343.1338)">
<svg width="215.9308" height="80" x="-39.6575" y="343.1338" version="1.1" preserveAspectRatio="none" viewBox="0 0 23.496 8.705">
  <g transform="matrix(1 0 0 1 0 0)" class="icon1"><defs></defs><g><path class="fil0" d="M8.0443 5.4445c0.9937,0.7077 1.524,0.838 2.5903,1.18 -2.4756,2.8194 -7.4628,1.9521 -10.6346,1.963 3.3947,-1.1145 6.4761,1.1848 8.0443,-3.143z"></path><path class="fil0" d="M12.3146 4.4857c-0.3611,1.0666 -2.1714,3.5185 -3.943,4.0848l15.1244 0c-4.7441,-1.1573 -9.9363,0.2723 -11.1814,-4.0848z"></path><path class="fil0" d="M16.2932 6.6874c-0.5048,-7.7232 -10.7032,-7.7232 -11.208,0 -0.5835,-8.9165 11.7915,-8.9165 11.208,0z"></path></g></g>
</svg>
</g><g opacity="1" transform="rotate(0 -5.7137 459.1338)">
<svg width="576.3759" height="24" x="-5.7137" y="459.1338" version="1.1" preserveAspectRatio="none" viewBox="3.76 -30.88 927.96 38.64">
  <g transform="matrix(1 0 0 1 0 0)" class="text"><path id="id-6izo4zJp38" d="M27.68 0L22.08 0L16.36-8.20Q16-8.16 15.28-8.16L15.28-8.16L8.96-8.16L8.96 0L3.76 0L3.76-28L15.28-28Q18.92-28 21.62-26.80Q24.32-25.60 25.76-23.36Q27.20-21.12 27.20-18.04L27.20-18.04Q27.20-14.88 25.66-12.60Q24.12-10.32 21.24-9.20L21.24-9.20L27.68 0ZM21.96-18.04Q21.96-20.72 20.20-22.16Q18.44-23.60 15.04-23.60L15.04-23.60L8.96-23.60L8.96-12.44L15.04-12.44Q18.44-12.44 20.20-13.90Q21.96-15.36 21.96-18.04L21.96-18.04Z M56.60-10.56Q56.60-10.04 56.52-9.08L56.52-9.08L39.76-9.08Q40.20-6.72 42.06-5.34Q43.92-3.96 46.68-3.96L46.68-3.96Q50.20-3.96 52.48-6.28L52.48-6.28L55.16-3.20Q53.72-1.48 51.52-0.60Q49.32 0.28 46.56 0.28L46.56 0.28Q43.04 0.28 40.36-1.12Q37.68-2.52 36.22-5.02Q34.76-7.52 34.76-10.68L34.76-10.68Q34.76-13.80 36.18-16.30Q37.60-18.80 40.12-20.20Q42.64-21.60 45.80-21.60L45.80-21.60Q48.92-21.60 51.38-20.22Q53.84-18.84 55.22-16.34Q56.60-13.84 56.60-10.56L56.60-10.56ZM45.80-17.60Q43.40-17.60 41.74-16.18Q40.08-14.76 39.72-12.40L39.72-12.40L51.84-12.40Q51.52-14.72 49.88-16.16Q48.24-17.60 45.80-17.60L45.80-17.60Z M72 0.28Q69.40 0.28 66.92-0.40Q64.44-1.08 62.96-2.12L62.96-2.12L64.88-5.92Q66.32-4.96 68.34-4.38Q70.36-3.80 72.32-3.80L72.32-3.80Q76.80-3.80 76.80-6.16L76.80-6.16Q76.80-7.28 75.66-7.72Q74.52-8.16 72-8.56L72-8.56Q69.36-8.96 67.70-9.48Q66.04-10 64.82-11.30Q63.60-12.60 63.60-14.92L63.60-14.92Q63.60-17.96 66.14-19.78Q68.68-21.60 73-21.60L73-21.60Q75.20-21.60 77.40-21.10Q79.60-20.60 81-19.76L81-19.76L79.08-15.96Q76.36-17.56 72.96-17.56L72.96-17.56Q70.76-17.56 69.62-16.90Q68.48-16.24 68.48-15.16L68.48-15.16Q68.48-13.96 69.70-13.46Q70.92-12.96 73.48-12.52L73.48-12.52Q76.04-12.12 77.68-11.60Q79.32-11.08 80.50-9.84Q81.68-8.60 81.68-6.32L81.68-6.32Q81.68-3.32 79.08-1.52Q76.48 0.28 72 0.28L72 0.28Z M90 0L90-21.36L95-21.36L95 0L90 0ZM92.52-24.88Q91.16-24.88 90.24-25.74Q89.32-26.60 89.32-27.88L89.32-27.88Q89.32-29.16 90.24-30.02Q91.16-30.88 92.52-30.88L92.52-30.88Q93.88-30.88 94.80-30.06Q95.72-29.24 95.72-28L95.72-28Q95.72-26.68 94.82-25.78Q93.92-24.88 92.52-24.88L92.52-24.88Z M105.56 0L105.56-29.68L110.56-29.68L110.56 0L105.56 0Z M121.12 0L121.12-21.36L126.12-21.36L126.12 0L121.12 0ZM123.64-24.88Q122.28-24.88 121.36-25.74Q120.44-26.60 120.44-27.88L120.44-27.88Q120.44-29.16 121.36-30.02Q122.28-30.88 123.64-30.88L123.64-30.88Q125-30.88 125.92-30.06Q126.84-29.24 126.84-28L126.84-28Q126.84-26.68 125.94-25.78Q125.04-24.88 123.64-24.88L123.64-24.88Z M156.76-10.56Q156.76-10.04 156.68-9.08L156.68-9.08L139.92-9.08Q140.36-6.72 142.22-5.34Q144.08-3.96 146.84-3.96L146.84-3.96Q150.36-3.96 152.64-6.28L152.64-6.28L155.32-3.20Q153.88-1.48 151.68-0.60Q149.48 0.28 146.72 0.28L146.72 0.28Q143.20 0.28 140.52-1.12Q137.84-2.52 136.38-5.02Q134.92-7.52 134.92-10.68L134.92-10.68Q134.92-13.80 136.34-16.30Q137.76-18.80 140.28-20.20Q142.80-21.60 145.96-21.60L145.96-21.60Q149.08-21.60 151.54-20.22Q154-18.84 155.38-16.34Q156.76-13.84 156.76-10.56L156.76-10.56ZM145.96-17.60Q143.56-17.60 141.90-16.18Q140.24-14.76 139.88-12.40L139.88-12.40L152-12.40Q151.68-14.72 150.04-16.16Q148.40-17.60 145.96-17.60L145.96-17.60Z M177.68-21.60Q181.72-21.60 184.16-19.24Q186.60-16.88 186.60-12.24L186.60-12.24L186.60 0L181.60 0L181.60-11.60Q181.60-14.40 180.28-15.82Q178.96-17.24 176.52-17.24L176.52-17.24Q173.76-17.24 172.16-15.58Q170.56-13.92 170.56-10.80L170.56-10.80L170.56 0L165.56 0L165.56-21.36L170.32-21.36L170.32-18.60Q171.56-20.08 173.44-20.84Q175.32-21.60 177.68-21.60L177.68-21.60Z M206.96 0.28Q203.64 0.28 201-1.12Q198.36-2.52 196.88-5.02Q195.40-7.52 195.40-10.68L195.40-10.68Q195.40-13.84 196.88-16.32Q198.36-18.80 200.98-20.20Q203.60-21.60 206.96-21.60L206.96-21.60Q210.12-21.60 212.50-20.32Q214.88-19.04 216.08-16.64L216.08-16.64L212.24-14.40Q211.32-15.88 209.94-16.62Q208.56-17.36 206.92-17.36L206.92-17.36Q204.12-17.36 202.28-15.54Q200.44-13.72 200.44-10.68L200.44-10.68Q200.44-7.64 202.26-5.82Q204.08-4 206.92-4L206.92-4Q208.56-4 209.94-4.74Q211.32-5.48 212.24-6.96L212.24-6.96L216.08-4.72Q214.84-2.32 212.46-1.02Q210.08 0.28 206.96 0.28L206.96 0.28Z M244.16-10.56Q244.16-10.04 244.08-9.08L244.08-9.08L227.32-9.08Q227.76-6.72 229.62-5.34Q231.48-3.96 234.24-3.96L234.24-3.96Q237.76-3.96 240.04-6.28L240.04-6.28L242.72-3.20Q241.28-1.48 239.08-0.60Q236.88 0.28 234.12 0.28L234.12 0.28Q230.60 0.28 227.92-1.12Q225.24-2.52 223.78-5.02Q222.32-7.52 222.32-10.68L222.32-10.68Q222.32-13.80 223.74-16.30Q225.16-18.80 227.68-20.20Q230.20-21.60 233.36-21.60L233.36-21.60Q236.48-21.60 238.94-20.22Q241.40-18.84 242.78-16.34Q244.16-13.84 244.16-10.56L244.16-10.56ZM233.36-17.60Q230.96-17.60 229.30-16.18Q227.64-14.76 227.28-12.40L227.28-12.40L239.40-12.40Q239.08-14.72 237.44-16.16Q235.80-17.60 233.36-17.60L233.36-17.60Z M294.96-21.60Q299-21.60 301.36-19.26Q303.72-16.92 303.72-12.24L303.72-12.24L303.72 0L298.72 0L298.72-11.60Q298.72-14.40 297.48-15.82Q296.24-17.24 293.92-17.24L293.92-17.24Q291.40-17.24 289.88-15.58Q288.36-13.92 288.36-10.84L288.36-10.84L288.36 0L283.36 0L283.36-11.60Q283.36-14.40 282.12-15.82Q280.88-17.24 278.56-17.24L278.56-17.24Q276-17.24 274.50-15.60Q273-13.96 273-10.84L273-10.84L273 0L268 0L268-21.36L272.76-21.36L272.76-18.64Q273.96-20.08 275.76-20.84Q277.56-21.60 279.76-21.60L279.76-21.60Q282.16-21.60 284.02-20.70Q285.88-19.80 286.96-18.04L286.96-18.04Q288.28-19.72 290.36-20.66Q292.44-21.60 294.96-21.60L294.96-21.60Z M322.28-21.60Q327.00-21.60 329.50-19.34Q332.00-17.08 332.00-12.52L332.00-12.52L332.00 0L327.28 0L327.28-2.60Q326.36-1.20 324.66-0.46Q322.96 0.28 320.56 0.28L320.56 0.28Q318.16 0.28 316.36-0.54Q314.56-1.36 313.58-2.82Q312.60-4.28 312.60-6.12L312.60-6.12Q312.60-9 314.74-10.74Q316.88-12.48 321.48-12.48L321.48-12.48L327.00-12.48L327.00-12.80Q327.00-15.04 325.66-16.24Q324.32-17.44 321.68-17.44L321.68-17.44Q319.88-17.44 318.14-16.88Q316.40-16.32 315.20-15.32L315.20-15.32L313.24-18.96Q314.92-20.24 317.28-20.92Q319.64-21.60 322.28-21.60L322.28-21.60ZM321.60-3.36Q323.48-3.36 324.94-4.22Q326.40-5.08 327.00-6.68L327.00-6.68L327.00-9.16L321.84-9.16Q317.52-9.16 317.52-6.32L317.52-6.32Q317.52-4.96 318.60-4.16Q319.68-3.36 321.60-3.36L321.60-3.36Z M358.52 0L351.12-9.16L347.40-5.64L347.40 0L342.40 0L342.40-29.68L347.40-29.68L347.40-11.76L357.76-21.36L363.76-21.36L354.84-12.40L364.60 0L358.52 0Z M391.04-10.56Q391.04-10.04 390.96-9.08L390.96-9.08L374.20-9.08Q374.64-6.72 376.50-5.34Q378.36-3.96 381.12-3.96L381.12-3.96Q384.64-3.96 386.92-6.28L386.92-6.28L389.60-3.20Q388.16-1.48 385.96-0.60Q383.76 0.28 381 0.28L381 0.28Q377.48 0.28 374.80-1.12Q372.12-2.52 370.66-5.02Q369.20-7.52 369.20-10.68L369.20-10.68Q369.20-13.80 370.62-16.30Q372.04-18.80 374.56-20.20Q377.08-21.60 380.24-21.60L380.24-21.60Q383.36-21.60 385.82-20.22Q388.28-18.84 389.66-16.34Q391.04-13.84 391.04-10.56L391.04-10.56ZM380.24-17.60Q377.84-17.60 376.18-16.18Q374.52-14.76 374.16-12.40L374.16-12.40L386.28-12.40Q385.96-14.72 384.32-16.16Q382.68-17.60 380.24-17.60L380.24-17.60Z M406.44 0.28Q403.84 0.28 401.36-0.40Q398.88-1.08 397.40-2.12L397.40-2.12L399.32-5.92Q400.76-4.96 402.78-4.38Q404.80-3.80 406.76-3.80L406.76-3.80Q411.24-3.80 411.24-6.16L411.24-6.16Q411.24-7.28 410.10-7.72Q408.96-8.16 406.44-8.56L406.44-8.56Q403.80-8.96 402.14-9.48Q400.48-10 399.26-11.30Q398.04-12.60 398.04-14.92L398.04-14.92Q398.04-17.96 400.58-19.78Q403.12-21.60 407.44-21.60L407.44-21.60Q409.64-21.60 411.84-21.10Q414.04-20.60 415.44-19.76L415.44-19.76L413.52-15.96Q410.80-17.56 407.40-17.56L407.40-17.56Q405.20-17.56 404.06-16.90Q402.92-16.24 402.92-15.16L402.92-15.16Q402.92-13.96 404.14-13.46Q405.36-12.96 407.92-12.52L407.92-12.52Q410.48-12.12 412.12-11.60Q413.76-11.08 414.94-9.84Q416.12-8.60 416.12-6.32L416.12-6.32Q416.12-3.32 413.52-1.52Q410.92 0.28 406.44 0.28L406.44 0.28Z M439.48 0L439.48-21.36L444.48-21.36L444.48 0L439.48 0ZM442.00-24.88Q440.64-24.88 439.72-25.74Q438.80-26.60 438.80-27.88L438.80-27.88Q438.80-29.16 439.72-30.02Q440.64-30.88 442.00-30.88L442.00-30.88Q443.36-30.88 444.28-30.06Q445.20-29.24 445.20-28L445.20-28Q445.20-26.68 444.30-25.78Q443.40-24.88 442.00-24.88L442.00-24.88Z M482.00-21.60Q486.04-21.60 488.40-19.26Q490.76-16.92 490.76-12.24L490.76-12.24L490.76 0L485.76 0L485.76-11.60Q485.76-14.40 484.52-15.82Q483.28-17.24 480.96-17.24L480.96-17.24Q478.44-17.24 476.92-15.58Q475.40-13.92 475.40-10.84L475.40-10.84L475.40 0L470.40 0L470.40-11.60Q470.40-14.40 469.16-15.82Q467.92-17.24 465.60-17.24L465.60-17.24Q463.04-17.24 461.54-15.60Q460.04-13.96 460.04-10.84L460.04-10.84L460.04 0L455.04 0L455.04-21.36L459.80-21.36L459.80-18.64Q461.00-20.08 462.80-20.84Q464.60-21.60 466.80-21.60L466.80-21.60Q469.20-21.60 471.06-20.70Q472.92-19.80 474.00-18.04L474.00-18.04Q475.32-19.72 477.40-20.66Q479.48-21.60 482.00-21.60L482.00-21.60Z M513-21.60Q516.12-21.60 518.58-20.24Q521.04-18.88 522.44-16.40Q523.84-13.92 523.84-10.68L523.84-10.68Q523.84-7.44 522.44-4.94Q521.04-2.44 518.58-1.08Q516.12 0.28 513 0.28L513 0.28Q508.68 0.28 506.16-2.60L506.16-2.60L506.16 7.76L501.16 7.76L501.16-21.36L505.92-21.36L505.92-18.56Q507.16-20.08 508.98-20.84Q510.80-21.60 513-21.60L513-21.60ZM512.44-4Q515.20-4 516.98-5.84Q518.76-7.68 518.76-10.68L518.76-10.68Q518.76-13.68 516.98-15.52Q515.20-17.36 512.44-17.36L512.44-17.36Q510.64-17.36 509.20-16.54Q507.76-15.72 506.92-14.20Q506.08-12.68 506.08-10.68L506.08-10.68Q506.08-8.68 506.92-7.16Q507.76-5.64 509.20-4.82Q510.64-4 512.44-4L512.44-4Z M542.20 0.28Q538.96 0.28 536.36-1.12Q533.76-2.52 532.30-5.02Q530.84-7.52 530.84-10.68L530.84-10.68Q530.84-13.84 532.30-16.32Q533.76-18.80 536.36-20.20Q538.96-21.60 542.20-21.60L542.20-21.60Q545.48-21.60 548.08-20.20Q550.68-18.80 552.14-16.32Q553.60-13.84 553.60-10.68L553.60-10.68Q553.60-7.52 552.14-5.02Q550.68-2.52 548.08-1.12Q545.48 0.28 542.20 0.28L542.20 0.28ZM542.20-4Q544.96-4 546.76-5.84Q548.56-7.68 548.56-10.68L548.56-10.68Q548.56-13.68 546.76-15.52Q544.96-17.36 542.20-17.36L542.20-17.36Q539.44-17.36 537.66-15.52Q535.88-13.68 535.88-10.68L535.88-10.68Q535.88-7.68 537.66-5.84Q539.44-4 542.20-4L542.20-4Z M569 0.28Q566.40 0.28 563.92-0.40Q561.44-1.08 559.96-2.12L559.96-2.12L561.88-5.92Q563.32-4.96 565.34-4.38Q567.36-3.80 569.32-3.80L569.32-3.80Q573.80-3.80 573.80-6.16L573.80-6.16Q573.80-7.28 572.66-7.72Q571.52-8.16 569-8.56L569-8.56Q566.36-8.96 564.70-9.48Q563.04-10 561.82-11.30Q560.60-12.60 560.60-14.92L560.60-14.92Q560.60-17.96 563.14-19.78Q565.68-21.60 570-21.60L570-21.60Q572.20-21.60 574.40-21.10Q576.60-20.60 578-19.76L578-19.76L576.08-15.96Q573.36-17.56 569.96-17.56L569.96-17.56Q567.76-17.56 566.62-16.90Q565.48-16.24 565.48-15.16L565.48-15.16Q565.48-13.96 566.70-13.46Q567.92-12.96 570.48-12.52L570.48-12.52Q573.04-12.12 574.68-11.60Q576.32-11.08 577.50-9.84Q578.68-8.60 578.68-6.32L578.68-6.32Q578.68-3.32 576.08-1.52Q573.48 0.28 569 0.28L569 0.28Z M593.60 0.28Q591 0.28 588.52-0.40Q586.04-1.08 584.56-2.12L584.56-2.12L586.48-5.92Q587.92-4.96 589.94-4.38Q591.96-3.80 593.92-3.80L593.92-3.80Q598.40-3.80 598.40-6.16L598.40-6.16Q598.40-7.28 597.26-7.72Q596.12-8.16 593.60-8.56L593.60-8.56Q590.96-8.96 589.30-9.48Q587.64-10 586.42-11.30Q585.20-12.60 585.20-14.92L585.20-14.92Q585.20-17.96 587.74-19.78Q590.28-21.60 594.60-21.60L594.60-21.60Q596.80-21.60 599-21.10Q601.20-20.60 602.60-19.76L602.60-19.76L600.68-15.96Q597.96-17.56 594.56-17.56L594.56-17.56Q592.36-17.56 591.22-16.90Q590.08-16.24 590.08-15.16L590.08-15.16Q590.08-13.96 591.30-13.46Q592.52-12.96 595.08-12.52L595.08-12.52Q597.64-12.12 599.28-11.60Q600.92-11.08 602.10-9.84Q603.28-8.60 603.28-6.32L603.28-6.32Q603.28-3.32 600.68-1.52Q598.08 0.28 593.60 0.28L593.60 0.28Z M611.60 0L611.60-21.36L616.60-21.36L616.60 0L611.60 0ZM614.12-24.88Q612.76-24.88 611.84-25.74Q610.92-26.60 610.92-27.88L610.92-27.88Q610.92-29.16 611.84-30.02Q612.76-30.88 614.12-30.88L614.12-30.88Q615.48-30.88 616.40-30.06Q617.32-29.24 617.32-28L617.32-28Q617.32-26.68 616.42-25.78Q615.52-24.88 614.12-24.88L614.12-24.88Z M639-21.60Q642.12-21.60 644.58-20.24Q647.04-18.88 648.44-16.40Q649.84-13.92 649.84-10.68L649.84-10.68Q649.84-7.44 648.44-4.94Q647.04-2.44 644.58-1.08Q642.12 0.28 639 0.28L639 0.28Q636.80 0.28 634.98-0.48Q633.16-1.24 631.92-2.76L631.92-2.76L631.92 0L627.16 0L627.16-29.68L632.16-29.68L632.16-18.76Q633.44-20.16 635.18-20.88Q636.92-21.60 639-21.60L639-21.60ZM638.44-4Q641.20-4 642.98-5.84Q644.76-7.68 644.76-10.68L644.76-10.68Q644.76-13.68 642.98-15.52Q641.20-17.36 638.44-17.36L638.44-17.36Q636.64-17.36 635.20-16.54Q633.76-15.72 632.92-14.20Q632.08-12.68 632.08-10.68L632.08-10.68Q632.08-8.68 632.92-7.16Q633.76-5.64 635.20-4.82Q636.64-4 638.44-4L638.44-4Z M658.60 0L658.60-29.68L663.60-29.68L663.60 0L658.60 0Z M694.24-10.56Q694.24-10.04 694.16-9.08L694.16-9.08L677.40-9.08Q677.84-6.72 679.70-5.34Q681.56-3.96 684.32-3.96L684.32-3.96Q687.84-3.96 690.12-6.28L690.12-6.28L692.80-3.20Q691.36-1.48 689.16-0.60Q686.96 0.28 684.20 0.28L684.20 0.28Q680.68 0.28 678-1.12Q675.32-2.52 673.86-5.02Q672.40-7.52 672.40-10.68L672.40-10.68Q672.40-13.80 673.82-16.30Q675.24-18.80 677.76-20.20Q680.28-21.60 683.44-21.60L683.44-21.60Q686.56-21.60 689.02-20.22Q691.48-18.84 692.86-16.34Q694.24-13.84 694.24-10.56L694.24-10.56ZM683.44-17.60Q681.04-17.60 679.38-16.18Q677.72-14.76 677.36-12.40L677.36-12.40L689.48-12.40Q689.16-14.72 687.52-16.16Q685.88-17.60 683.44-17.60L683.44-17.60Z M729.92-21.60Q733.04-21.60 735.50-20.24Q737.96-18.88 739.36-16.40Q740.76-13.92 740.76-10.68L740.76-10.68Q740.76-7.44 739.36-4.94Q737.96-2.44 735.50-1.08Q733.04 0.28 729.92 0.28L729.92 0.28Q725.60 0.28 723.08-2.60L723.08-2.60L723.08 7.76L718.08 7.76L718.08-21.36L722.84-21.36L722.84-18.56Q724.08-20.08 725.90-20.84Q727.72-21.60 729.92-21.60L729.92-21.60ZM729.36-4Q732.12-4 733.90-5.84Q735.68-7.68 735.68-10.68L735.68-10.68Q735.68-13.68 733.90-15.52Q732.12-17.36 729.36-17.36L729.36-17.36Q727.56-17.36 726.12-16.54Q724.68-15.72 723.84-14.20Q723-12.68 723-10.68L723-10.68Q723-8.68 723.84-7.16Q724.68-5.64 726.12-4.82Q727.56-4 729.36-4L729.36-4Z M759.12 0.28Q755.88 0.28 753.28-1.12Q750.68-2.52 749.22-5.02Q747.76-7.52 747.76-10.68L747.76-10.68Q747.76-13.84 749.22-16.32Q750.68-18.80 753.28-20.20Q755.88-21.60 759.12-21.60L759.12-21.60Q762.40-21.60 765-20.20Q767.60-18.80 769.06-16.32Q770.52-13.84 770.52-10.68L770.52-10.68Q770.52-7.52 769.06-5.02Q767.60-2.52 765-1.12Q762.40 0.28 759.12 0.28L759.12 0.28ZM759.12-4Q761.88-4 763.68-5.84Q765.48-7.68 765.48-10.68L765.48-10.68Q765.48-13.68 763.68-15.52Q761.88-17.36 759.12-17.36L759.12-17.36Q756.36-17.36 754.58-15.52Q752.80-13.68 752.80-10.68L752.80-10.68Q752.80-7.68 754.58-5.84Q756.36-4 759.12-4L759.12-4Z M785.92 0.28Q783.32 0.28 780.84-0.40Q778.36-1.08 776.88-2.12L776.88-2.12L778.80-5.92Q780.24-4.96 782.26-4.38Q784.28-3.80 786.24-3.80L786.24-3.80Q790.72-3.80 790.72-6.16L790.72-6.16Q790.72-7.28 789.58-7.72Q788.44-8.16 785.92-8.56L785.92-8.56Q783.28-8.96 781.62-9.48Q779.96-10 778.74-11.30Q777.52-12.60 777.52-14.92L777.52-14.92Q777.52-17.96 780.06-19.78Q782.60-21.60 786.92-21.60L786.92-21.60Q789.12-21.60 791.32-21.10Q793.52-20.60 794.92-19.76L794.92-19.76L793-15.96Q790.28-17.56 786.88-17.56L786.88-17.56Q784.68-17.56 783.54-16.90Q782.40-16.24 782.40-15.16L782.40-15.16Q782.40-13.96 783.62-13.46Q784.84-12.96 787.40-12.52L787.40-12.52Q789.96-12.12 791.60-11.60Q793.24-11.08 794.42-9.84Q795.60-8.60 795.60-6.32L795.60-6.32Q795.60-3.32 793-1.52Q790.40 0.28 785.92 0.28L785.92 0.28Z M810.52 0.28Q807.92 0.28 805.44-0.40Q802.96-1.08 801.48-2.12L801.48-2.12L803.40-5.92Q804.84-4.96 806.86-4.38Q808.88-3.80 810.84-3.80L810.84-3.80Q815.32-3.80 815.32-6.16L815.32-6.16Q815.32-7.28 814.18-7.72Q813.04-8.16 810.52-8.56L810.52-8.56Q807.88-8.96 806.22-9.48Q804.56-10 803.34-11.30Q802.12-12.60 802.12-14.92L802.12-14.92Q802.12-17.96 804.66-19.78Q807.20-21.60 811.52-21.60L811.52-21.60Q813.72-21.60 815.92-21.10Q818.12-20.60 819.52-19.76L819.52-19.76L817.60-15.96Q814.88-17.56 811.48-17.56L811.48-17.56Q809.28-17.56 808.14-16.90Q807-16.24 807-15.16L807-15.16Q807-13.96 808.22-13.46Q809.44-12.96 812-12.52L812-12.52Q814.56-12.12 816.20-11.60Q817.84-11.08 819.02-9.84Q820.20-8.60 820.20-6.32L820.20-6.32Q820.20-3.32 817.60-1.52Q815 0.28 810.52 0.28L810.52 0.28Z M828.52 0L828.52-21.36L833.52-21.36L833.52 0L828.52 0ZM831.04-24.88Q829.68-24.88 828.76-25.74Q827.84-26.60 827.84-27.88L827.84-27.88Q827.84-29.16 828.76-30.02Q829.68-30.88 831.04-30.88L831.04-30.88Q832.40-30.88 833.32-30.06Q834.24-29.24 834.24-28L834.24-28Q834.24-26.68 833.34-25.78Q832.44-24.88 831.04-24.88L831.04-24.88Z M855.92-21.60Q859.04-21.60 861.50-20.24Q863.96-18.88 865.36-16.40Q866.76-13.92 866.76-10.68L866.76-10.68Q866.76-7.44 865.36-4.94Q863.96-2.44 861.50-1.08Q859.04 0.28 855.92 0.28L855.92 0.28Q853.72 0.28 851.90-0.48Q850.08-1.24 848.84-2.76L848.84-2.76L848.84 0L844.08 0L844.08-29.68L849.08-29.68L849.08-18.76Q850.36-20.16 852.10-20.88Q853.84-21.60 855.92-21.60L855.92-21.60ZM855.36-4Q858.12-4 859.90-5.84Q861.68-7.68 861.68-10.68L861.68-10.68Q861.68-13.68 859.90-15.52Q858.12-17.36 855.36-17.36L855.36-17.36Q853.56-17.36 852.12-16.54Q850.68-15.72 849.84-14.20Q849-12.68 849-10.68L849-10.68Q849-8.68 849.84-7.16Q850.68-5.64 852.12-4.82Q853.56-4 855.36-4L855.36-4Z M875.52 0L875.52-29.68L880.52-29.68L880.52 0L875.52 0Z M911.16-10.56Q911.16-10.04 911.08-9.08L911.08-9.08L894.32-9.08Q894.76-6.72 896.62-5.34Q898.48-3.96 901.24-3.96L901.24-3.96Q904.76-3.96 907.04-6.28L907.04-6.28L909.72-3.20Q908.28-1.48 906.08-0.60Q903.88 0.28 901.12 0.28L901.12 0.28Q897.60 0.28 894.92-1.12Q892.24-2.52 890.78-5.02Q889.32-7.52 889.32-10.68L889.32-10.68Q889.32-13.80 890.74-16.30Q892.16-18.80 894.68-20.20Q897.20-21.60 900.36-21.60L900.36-21.60Q903.48-21.60 905.94-20.22Q908.40-18.84 909.78-16.34Q911.16-13.84 911.16-10.56L911.16-10.56ZM900.36-17.60Q897.96-17.60 896.30-16.18Q894.64-14.76 894.28-12.40L894.28-12.40L906.40-12.40Q906.08-14.72 904.44-16.16Q902.80-17.60 900.36-17.60L900.36-17.60Z"/></g>
</svg>
</g><g opacity="1" transform="rotate(0 240.2733 343.1338)">
<svg width="364.3327" height="80" x="240.2733" y="343.1338" version="1.1" preserveAspectRatio="none" viewBox="3.32 -29.68 171.95999999999998 37.760000000000005">
  <g transform="matrix(1 0 0 1 0 0)" class="companyName"><path id="id-D6z1nYkh7" d="M24.48-22.80L9.80-22.80L9.80-15.40L22.76-15.40L22.76-10.20L9.80-10.20L9.80 0L3.32 0L3.32-28L24.48-28L24.48-22.80Z M43.32-21.52L49.56-21.52L49.56 0L43.64 0L43.64-2.56Q42.40-1.16 40.68-0.42Q38.96 0.32 36.96 0.32L36.96 0.32Q32.72 0.32 30.24-2.12Q27.76-4.56 27.76-9.36L27.76-9.36L27.76-21.52L34-21.52L34-10.28Q34-5.08 38.36-5.08L38.36-5.08Q40.60-5.08 41.96-6.54Q43.32-8 43.32-10.88L43.32-10.88L43.32-21.52Z M61.32-18.68Q62.44-20.24 64.34-21.04Q66.24-21.84 68.72-21.84L68.72-21.84L68.72-16.08Q67.68-16.16 67.32-16.16L67.32-16.16Q64.64-16.16 63.12-14.66Q61.60-13.16 61.60-10.16L61.60-10.16L61.60 0L55.36 0L55.36-21.52L61.32-21.52L61.32-18.68Z M100-21.84Q104.04-21.84 106.42-19.46Q108.80-17.08 108.80-12.32L108.80-12.32L108.80 0L102.56 0L102.56-11.36Q102.56-13.92 101.50-15.18Q100.44-16.44 98.48-16.44L98.48-16.44Q96.28-16.44 95-15.02Q93.72-13.60 93.72-10.80L93.72-10.80L93.72 0L87.48 0L87.48-11.36Q87.48-16.44 83.40-16.44L83.40-16.44Q81.24-16.44 79.96-15.02Q78.68-13.60 78.68-10.80L78.68-10.80L78.68 0L72.44 0L72.44-21.52L78.40-21.52L78.40-19.04Q79.60-20.40 81.34-21.12Q83.08-21.84 85.16-21.84L85.16-21.84Q87.44-21.84 89.28-20.94Q91.12-20.04 92.24-18.32L92.24-18.32Q93.56-20 95.58-20.92Q97.60-21.84 100-21.84L100-21.84Z M129.84-21.52L136.08-21.52L136.08 0L130.16 0L130.16-2.56Q128.92-1.16 127.20-0.42Q125.48 0.32 123.48 0.32L123.48 0.32Q119.24 0.32 116.76-2.12Q114.28-4.56 114.28-9.36L114.28-9.36L114.28-21.52L120.52-21.52L120.52-10.28Q120.52-5.08 124.88-5.08L124.88-5.08Q127.12-5.08 128.48-6.54Q129.84-8 129.84-10.88L129.84-10.88L129.84-21.52Z M141.88 0L141.88-29.68L148.12-29.68L148.12 0L141.88 0Z M169.28-21.52L175.28-21.52L165.56 1.32Q164.08 5.04 161.90 6.56Q159.72 8.08 156.64 8.08L156.64 8.08Q154.96 8.08 153.32 7.56Q151.68 7.04 150.64 6.12L150.64 6.12L152.92 1.68Q153.64 2.32 154.58 2.68Q155.52 3.04 156.44 3.04L156.44 3.04Q157.72 3.04 158.52 2.42Q159.32 1.80 159.96 0.36L159.96 0.36L160.04 0.16L150.72-21.52L157.16-21.52L163.20-6.92L169.28-21.52Z"/></g>
</svg>
</g><g opacity="1" transform="rotate(0 206.2733 323.1338)">
<svg width="6" height="120" x="206.2733" y="323.1338" version="1.1" preserveAspectRatio="none" viewBox="0 0 6 120">
  <rect x="0" y="0" width="6" height="120" class="companyName shapeStroke-str" style="stroke-width:0;" rx="0px" ry="0px" />
</svg>
</g></svg></svg>